G04 --- HEADER BEGIN --- *
G04 #@! TF.GenerationSoftware,LibrePCB,LibrePCB,2.0.1*
G04 #@! TF.CreationDate,2026-05-19T01:23:53*
G04 #@! TF.ProjectId,ESPmote (ESPmote_WROOM32),c75d975a-3822-4103-ad87-6dcb39d2a138,v1*
G04 #@! TF.Part,Single*
G04 #@! TF.SameCoordinates*
G04 #@! TF.FileFunction,Legend,Top*
G04 #@! TF.FilePolarity,Positive*
%FSLAX66Y66*%
%MOMM*%
G01*
G75*
G04 --- HEADER END --- *
G04 --- APERTURE LIST BEGIN --- *
%ADD10C,0.15*%
%ADD11C,0.1*%
%ADD12C,0.2*%
%ADD13C,0.25*%
%ADD14C,0.05*%
%ADD15C,0.01*%
%AMROUNDEDRECT16*20,1,1.0,-0.425,0.0,0.425,0.0,0.0*20,1,0.8,-0.525,0.0,0.525,0.0,0.0*1,1,0.2,-0.425,0.4*1,1,0.2,0.425,0.4*1,1,0.2,0.425,-0.4*1,1,0.2,-0.425,-0.4*%
%ADD16ROUNDEDRECT16*%
%AMROUNDEDRECT17*20,1,1.4,-0.7,0.0,0.7,0.0,0.0*20,1,1.2,-0.8,0.0,0.8,0.0,0.0*1,1,0.2,-0.7,0.6*1,1,0.2,0.7,0.6*1,1,0.2,0.7,-0.6*1,1,0.2,-0.7,-0.6*%
%ADD17ROUNDEDRECT17*%
%AMOUTLINE18*4,1,31,-1.205279,-3.589443,-0.705279,-3.339443,-0.679289,-3.320711,0.320711,-2.320711,0.339443,-2.294721,0.839443,-1.294721,0.85,-1.25,0.85,1.25,0.839443,1.294721,0.339443,2.294721,0.320711,2.320711,-0.679289,3.320711,-0.705279,3.339443,-1.705279,3.839443,-1.75,3.85,-4.25,3.85,-4.309327,3.8305,-4.35,3.75,-4.35,-1.5,-4.320711,-1.570711,-4.070711,-1.820711,-4.0,-1.85,-3.25,-1.85,-3.190673,-1.8305,-3.15,-1.75,-3.15,2.15,-1.791422,2.15,-1.35,1.708578,-1.35,-3.5,-1.3305,-3.559327,-1.279605,-3.595517,-1.205279,-3.589443,135.0*%
%ADD18OUTLINE18*%
%AMOUTLINE19*4,1,31,-1.205279,-3.589443,-0.705279,-3.339443,-0.679289,-3.320711,0.320711,-2.320711,0.339443,-2.294721,0.839443,-1.294721,0.85,-1.25,0.85,1.25,0.839443,1.294721,0.339443,2.294721,0.320711,2.320711,-0.679289,3.320711,-0.705279,3.339443,-1.705279,3.839443,-1.75,3.85,-4.25,3.85,-4.309327,3.8305,-4.35,3.75,-4.35,-1.5,-4.320711,-1.570711,-4.070711,-1.820711,-4.0,-1.85,-3.25,-1.85,-3.190673,-1.8305,-3.15,-1.75,-3.15,2.15,-1.791422,2.15,-1.35,1.708578,-1.35,-3.5,-1.3305,-3.559327,-1.279605,-3.595517,-1.205279,-3.589443,315.0*%
%ADD19OUTLINE19*%
%ADD20C,2.45*%
%ADD21O,1.787X2.39*%
%AMROUNDEDRECT22*20,1,1.787,-1.095,0.0,1.095,0.0,90.0*20,1,1.587,-1.195,0.0,1.195,0.0,90.0*1,1,0.2,-0.7935,-1.095*1,1,0.2,-0.7935,1.095*1,1,0.2,0.7935,1.095*1,1,0.2,0.7935,-1.095*%
%ADD22ROUNDEDRECT22*%
%AMROUNDEDRECT23*20,1,0.95,-0.4,0.0,0.4,0.0,90.0*20,1,0.75,-0.5,0.0,0.5,0.0,90.0*1,1,0.2,-0.375,-0.4*1,1,0.2,-0.375,0.4*1,1,0.2,0.375,0.4*1,1,0.2,0.375,-0.4*%
%ADD23ROUNDEDRECT23*%
%AMROUNDEDRECT24*20,1,0.45,-0.175,0.0,0.175,0.0,0.0*20,1,0.125,-0.3375,0.0,0.3375,0.0,0.0*1,1,0.325,-0.175,0.0625*1,1,0.325,0.175,0.0625*1,1,0.325,0.175,-0.0625*1,1,0.325,-0.175,-0.0625*%
%ADD24ROUNDEDRECT24*%
%AMROUNDEDRECT25*20,1,0.45,-0.175,0.0,0.175,0.0,90.0*20,1,0.125,-0.3375,0.0,0.3375,0.0,90.0*1,1,0.325,-0.0625,-0.175*1,1,0.325,-0.0625,0.175*1,1,0.325,0.0625,0.175*1,1,0.325,0.0625,-0.175*%
%ADD25ROUNDEDRECT25*%
%AMOUTLINE26*4,1,22,-1.748667,-4.849991,-1.705279,-4.839443,-0.705279,-4.339443,-0.679289,-4.320711,0.320711,-3.320711,0.339443,-3.294721,0.839443,-2.294721,0.85,-2.25,0.85,2.25,0.839443,2.294721,0.339443,3.294721,0.320711,3.320711,-0.679289,4.320711,-0.705279,4.339443,-1.705279,4.839443,-1.75,4.85,-2.5,4.85,-2.559327,4.8305,-2.6,4.75,-2.6,-4.76,-2.5805,-4.819327,-2.498667,-4.859991,-1.748667,-4.849991,180.0*%
%ADD26OUTLINE26*%
%AMOUTLINE27*4,1,22,-1.748667,-4.849991,-1.705279,-4.839443,-0.705279,-4.339443,-0.679289,-4.320711,0.320711,-3.320711,0.339443,-3.294721,0.839443,-2.294721,0.85,-2.25,0.85,2.25,0.839443,2.294721,0.339443,3.294721,0.320711,3.320711,-0.679289,4.320711,-0.705279,4.339443,-1.705279,4.839443,-1.75,4.85,-2.5,4.85,-2.559327,4.8305,-2.6,4.75,-2.6,-4.76,-2.5805,-4.819327,-2.498667,-4.859991,-1.748667,-4.849991,0.0*%
%ADD27OUTLINE27*%
%AMOUTLINE28*4,1,20,-0.440673,-0.8305,-0.4,-0.75,-0.4,-0.65,0.7,-0.65,0.759327,-0.6305,0.8,-0.55,0.8,0.55,0.7805,0.609327,0.7,0.65,-0.4,0.65,-0.4,0.75,-0.4195,0.809327,-0.5,0.85,-0.7,0.85,-0.759327,0.8305,-0.8,0.75,-0.8,-0.75,-0.7805,-0.809327,-0.7,-0.85,-0.5,-0.85,-0.440673,-0.8305,0.0*%
%ADD28OUTLINE28*%
%AMOUTLINE29*4,1,20,-0.440673,-0.8305,-0.4,-0.75,-0.4,-0.65,0.7,-0.65,0.759327,-0.6305,0.8,-0.55,0.8,0.55,0.7805,0.609327,0.7,0.65,-0.4,0.65,-0.4,0.75,-0.4195,0.809327,-0.5,0.85,-0.7,0.85,-0.759327,0.8305,-0.8,0.75,-0.8,-0.75,-0.7805,-0.809327,-0.7,-0.85,-0.5,-0.85,-0.440673,-0.8305,180.0*%
%ADD29OUTLINE29*%
%AMROUNDEDRECT30*20,1,1.0,-0.425,0.0,0.425,0.0,90.0*20,1,0.8,-0.525,0.0,0.525,0.0,90.0*1,1,0.2,-0.4,-0.425*1,1,0.2,-0.4,0.425*1,1,0.2,0.4,0.425*1,1,0.2,0.4,-0.425*%
%ADD30ROUNDEDRECT30*%
%ADD31C,1.208*%
%ADD32O,2.2X4.0*%
%ADD33C,1.2*%
%AMROUNDEDRECT34*20,1,0.95,-0.4,0.0,0.4,0.0,0.0*20,1,0.75,-0.5,0.0,0.5,0.0,0.0*1,1,0.2,-0.4,0.375*1,1,0.2,0.4,0.375*1,1,0.2,0.4,-0.375*1,1,0.2,-0.4,-0.375*%
%ADD34ROUNDEDRECT34*%
%AMROUNDEDRECT35*20,1,1.1,-0.475,0.0,0.475,0.0,0.0*20,1,0.9,-0.575,0.0,0.575,0.0,0.0*1,1,0.2,-0.475,0.45*1,1,0.2,0.475,0.45*1,1,0.2,0.475,-0.45*1,1,0.2,-0.475,-0.45*%
%ADD35ROUNDEDRECT35*%
%AMOUTLINE36*4,1,20,-0.440673,-0.8305,-0.4,-0.75,-0.4,-0.65,0.7,-0.65,0.759327,-0.6305,0.8,-0.55,0.8,0.55,0.7805,0.609327,0.7,0.65,-0.4,0.65,-0.4,0.75,-0.4195,0.809327,-0.5,0.85,-0.7,0.85,-0.759327,0.8305,-0.8,0.75,-0.8,-0.75,-0.7805,-0.809327,-0.7,-0.85,-0.5,-0.85,-0.440673,-0.8305,90.0*%
%ADD36OUTLINE36*%
%AMOUTLINE37*4,1,20,-0.440673,-0.8305,-0.4,-0.75,-0.4,-0.65,0.7,-0.65,0.759327,-0.6305,0.8,-0.55,0.8,0.55,0.7805,0.609327,0.7,0.65,-0.4,0.65,-0.4,0.75,-0.4195,0.809327,-0.5,0.85,-0.7,0.85,-0.759327,0.8305,-0.8,0.75,-0.8,-0.75,-0.7805,-0.809327,-0.7,-0.85,-0.5,-0.85,-0.440673,-0.8305,270.0*%
%ADD37OUTLINE37*%
%AMROUNDEDRECT38*20,1,1.0,-0.4,0.0,0.4,0.0,0.0*20,1,0.8,-0.5,0.0,0.5,0.0,0.0*1,1,0.2,-0.4,0.4*1,1,0.2,0.4,0.4*1,1,0.2,0.4,-0.4*1,1,0.2,-0.4,-0.4*%
%ADD38ROUNDEDRECT38*%
%AMROUNDEDRECT39*20,1,1.1,-0.475,0.0,0.475,0.0,90.0*20,1,0.9,-0.575,0.0,0.575,0.0,90.0*1,1,0.2,-0.45,-0.475*1,1,0.2,-0.45,0.475*1,1,0.2,0.45,0.475*1,1,0.2,0.45,-0.475*%
%ADD39ROUNDEDRECT39*%
%AMROUNDEDRECT40*20,1,1.787,-1.095,0.0,1.095,0.0,0.0*20,1,1.587,-1.195,0.0,1.195,0.0,0.0*1,1,0.2,-1.095,0.7935*1,1,0.2,1.095,0.7935*1,1,0.2,1.095,-0.7935*1,1,0.2,-1.095,-0.7935*%
%ADD40ROUNDEDRECT40*%
%AMROUNDEDRECT41*20,1,0.5,-0.26,0.0,0.26,0.0,90.0*20,1,0.15,-0.435,0.0,0.435,0.0,90.0*1,1,0.35,-0.075,-0.26*1,1,0.35,-0.075,0.26*1,1,0.35,0.075,0.26*1,1,0.35,0.075,-0.26*%
%ADD41ROUNDEDRECT41*%
%AMROUNDEDRECT42*20,1,1.1,-0.475,0.0,0.475,0.0,135.0*20,1,0.9,-0.575,0.0,0.575,0.0,135.0*1,1,0.2,0.017678,-0.654074*1,1,0.2,-0.654074,0.017678*1,1,0.2,-0.017678,0.654074*1,1,0.2,0.654074,-0.017678*%
%ADD42ROUNDEDRECT42*%
%ADD43C,2.7*%
%AMOUTLINE44*4,1,22,-1.748667,-4.849991,-1.705279,-4.839443,-0.705279,-4.339443,-0.679289,-4.320711,0.320711,-3.320711,0.339443,-3.294721,0.839443,-2.294721,0.85,-2.25,0.85,2.25,0.839443,2.294721,0.339443,3.294721,0.320711,3.320711,-0.679289,4.320711,-0.705279,4.339443,-1.705279,4.839443,-1.75,4.85,-2.5,4.85,-2.559327,4.8305,-2.6,4.75,-2.6,-4.76,-2.5805,-4.819327,-2.498667,-4.859991,-1.748667,-4.849991,270.0*%
%ADD44OUTLINE44*%
%AMOUTLINE45*4,1,22,-1.748667,-4.849991,-1.705279,-4.839443,-0.705279,-4.339443,-0.679289,-4.320711,0.320711,-3.320711,0.339443,-3.294721,0.839443,-2.294721,0.85,-2.25,0.85,2.25,0.839443,2.294721,0.339443,3.294721,0.320711,3.320711,-0.679289,4.320711,-0.705279,4.339443,-1.705279,4.839443,-1.75,4.85,-2.5,4.85,-2.559327,4.8305,-2.6,4.75,-2.6,-4.76,-2.5805,-4.819327,-2.498667,-4.859991,-1.748667,-4.849991,90.0*%
%ADD45OUTLINE45*%
%ADD46C,1.5*%
%AMROUNDEDRECT47*20,1,1.5,-3.6,0.0,3.6,0.0,90.0*20,1,1.3,-3.7,0.0,3.7,0.0,90.0*1,1,0.2,-0.65,-3.6*1,1,0.2,-0.65,3.6*1,1,0.2,0.65,3.6*1,1,0.2,0.65,-3.6*%
%ADD47ROUNDEDRECT47*%
%AMROUNDEDRECT48*20,1,1.0,-0.425,0.0,0.425,0.0,60.0*20,1,0.8,-0.525,0.0,0.525,0.0,60.0*1,1,0.2,-0.55891,-0.168061*1,1,0.2,-0.13391,0.568061*1,1,0.2,0.55891,0.168061*1,1,0.2,0.13391,-0.568061*%
%ADD48ROUNDEDRECT48*%
%ADD49O,1.08X1.0*%
%ADD50O,2.2X4.2*%
%AMROUNDEDRECT51*20,1,1.1,-0.475,0.0,0.475,0.0,45.0*20,1,0.9,-0.575,0.0,0.575,0.0,45.0*1,1,0.2,-0.654074,-0.017678*1,1,0.2,0.017678,0.654074*1,1,0.2,0.654074,0.017678*1,1,0.2,-0.017678,-0.654074*%
%ADD51ROUNDEDRECT51*%
%ADD52C,1.9*%
%AMROUNDEDRECT53*20,1,1.0,-0.45,0.0,0.45,0.0,0.0*20,1,0.4,-0.75,0.0,0.75,0.0,0.0*1,1,0.6,-0.45,0.2*1,1,0.6,0.45,0.2*1,1,0.6,0.45,-0.2*1,1,0.6,-0.45,-0.2*%
%ADD53ROUNDEDRECT53*%
%AMROUNDEDRECT54*20,1,0.65,-0.5625,0.0,0.5625,0.0,90.0*20,1,0.225,-0.775,0.0,0.775,0.0,90.0*1,1,0.425,-0.1125,-0.5625*1,1,0.425,-0.1125,0.5625*1,1,0.425,0.1125,0.5625*1,1,0.425,0.1125,-0.5625*%
%ADD54ROUNDEDRECT54*%
%ADD55O,2.39X1.787*%
%ADD56C,0.7*%
G04 --- APERTURE LIST END --- *
G04 --- BOARD BEGIN --- *
D10*
G04 #@! TO.C,C18*
X28175000Y104775000D02*
X28325000Y104775000D01*
X28175000Y105725000D02*
X28325000Y105725000D01*
D11*
G04 #@! TO.C,XO1*
X24400000Y135750000D02*
X27600000Y135750000D01*
X27600000Y138250000D01*
X24400000Y138250000D01*
X24400000Y135750000D01*
D12*
G04 #@! TO.C,A*
X19242641Y95257359D02*
G02*
X10757359Y95257359I-4242641J4242641D01*
G01*
X10757359Y103742641D02*
G02*
X19242641Y103742641I4242641J-4242641D01*
G01*
X10757359Y103742641D02*
X6514719Y99500000D01*
X10757359Y95257359D01*
X19242641Y95257359D02*
X23485281Y99500000D01*
X19242641Y103742641D01*
X18000000Y99500000D02*
G02*
X12000000Y99500000I-3000000J0D01*
G01*
G02*
X18000000Y99500000I3000000J0D01*
G01*
D13*
G04 #@! TO.C,J1*
X18185000Y78605000D02*
X16060000Y78605000D01*
X15790000Y78875000D01*
X15520000Y78605000D01*
X13520000Y78605000D01*
X13250000Y78875000D01*
X12980000Y78605000D01*
X10980000Y78605000D01*
X10710000Y78875000D01*
X10440000Y78605000D01*
X8315000Y78605000D01*
X8045000Y78875000D01*
X8045000Y81125000D01*
X8315000Y81395000D01*
X10440000Y81395000D01*
X10710000Y81125000D01*
X10980000Y81395000D01*
X12980000Y81395000D01*
X13250000Y81125000D01*
X13520000Y81395000D01*
X15520000Y81395000D01*
X15790000Y81125000D01*
X16060000Y81395000D01*
X18185000Y81395000D01*
X18455000Y81125000D01*
X18455000Y78875000D01*
X18185000Y78605000D01*
D10*
G04 #@! TO.C,R1*
X28075000Y87775000D02*
X28425000Y87775000D01*
X28075000Y88725000D02*
X28425000Y88725000D01*
D12*
G04 #@! TO.C,U3*
X16000000Y87250000D02*
X16000000Y84250000D01*
X13500000Y84250000D01*
X13500000Y87250000D01*
X16000000Y87250000D01*
D10*
G04 #@! TO.C,R4*
X14675000Y13475000D02*
X14325000Y13475000D01*
X14675000Y12525000D02*
X14325000Y12525000D01*
D12*
G04 #@! TO.C,UP*
X10757359Y135242641D02*
X19242641Y135242641D01*
X23485281Y131000000D01*
X19242641Y126757359D01*
X10757359Y126757359D01*
X6514719Y131000000D01*
X10757359Y135242641D01*
X18000000Y131000000D02*
G02*
X12000000Y131000000I-3000000J0D01*
G01*
G02*
X18000000Y131000000I3000000J0D01*
G01*
D10*
G04 #@! TO.C,C9*
X13325000Y83725000D02*
X13175000Y83725000D01*
X13325000Y82775000D02*
X13175000Y82775000D01*
D14*
G04 #@! TO.C,BOOT_SW*
X23000000Y87250000D02*
X27500000Y87250000D01*
X27500000Y82750000D01*
X23000000Y82750000D01*
X23000000Y87250000D01*
D10*
G04 #@! TO.C,C8*
X12025000Y85825000D02*
X12025000Y85675000D01*
X12975000Y85825000D02*
X12975000Y85675000D01*
G04 #@! TO.C,R19*
X21725000Y32825000D02*
X21725000Y33175000D01*
X20775000Y32825000D02*
X20775000Y33175000D01*
G04 #@! TO.C,R10*
X22475000Y68825000D02*
X22475000Y69175000D01*
X21525000Y68825000D02*
X21525000Y69175000D01*
G04 #@! TO.C,R15*
X8475000Y14825000D02*
X8475000Y15175000D01*
X7525000Y14825000D02*
X7525000Y15175000D01*
G04 #@! TO.C,R18*
X22475000Y14825000D02*
X22475000Y15175000D01*
X21525000Y14825000D02*
X21525000Y15175000D01*
D12*
G04 #@! TO.C,D7*
X19575000Y83425000D02*
X19575000Y87025000D01*
X17825000Y87025000D01*
X17825000Y83425000D01*
D10*
G04 #@! TO.C,R6*
X27425000Y12475000D02*
X27075000Y12475000D01*
X27425000Y11525000D02*
X27075000Y11525000D01*
G04 #@! TO.C,C14*
X24425000Y31775000D02*
X24575000Y31775000D01*
X24425000Y32725000D02*
X24575000Y32725000D01*
D14*
G04 #@! TO.C,POWER*
X3500000Y136500000D02*
X3500000Y141000000D01*
X8000000Y141000000D01*
X8000000Y136500000D01*
X3500000Y136500000D01*
D10*
G04 #@! TO.C,L1*
X8525000Y27625000D02*
X8525000Y27875000D01*
X9475000Y27625000D02*
X9475000Y27875000D01*
G04 #@! TO.C,R12*
X18275000Y88925000D02*
X18275000Y88575000D01*
X19225000Y88925000D02*
X19225000Y88575000D01*
D12*
G04 #@! TO.C,D5*
X19925000Y16875000D02*
X23525000Y16875000D01*
X23525000Y18625000D01*
X19925000Y18625000D01*
D10*
G04 #@! TO.C,R7*
X22025000Y33175000D02*
X22025000Y32825000D01*
X22975000Y33175000D02*
X22975000Y32825000D01*
D13*
G04 #@! TO.C,J5*
X28645000Y100625000D02*
X28645000Y98375000D01*
X28375000Y98105000D01*
X26125000Y98105000D01*
X25855000Y98375000D01*
X25855000Y100625000D01*
X26125000Y100895000D01*
X28375000Y100895000D01*
X28645000Y100625000D01*
D10*
G04 #@! TO.C,C10*
X25325000Y39225000D02*
X25175000Y39225000D01*
X25325000Y38275000D02*
X25175000Y38275000D01*
D14*
G04 #@! TO.C,U5*
X5700000Y34400000D02*
X5700000Y35600000D01*
X7300000Y35600000D01*
X7300000Y34400000D01*
X5700000Y34400000D01*
D11*
X5925000Y34600000D02*
G02*
X5875000Y34600000I-25000J0D01*
G01*
G02*
X5925000Y34600000I25000J0D01*
G01*
D12*
G04 #@! TO.C,D4*
X26818198Y133055635D02*
X24272614Y130510051D01*
X25510051Y129272614D01*
X28055635Y131818198D01*
D10*
G04 #@! TO.C,LED3*
X17125000Y14575000D02*
X17125000Y12125000D01*
X17975000Y12125000D01*
X18375000Y12525000D02*
X18375000Y14575000D01*
D15*
G36*
X18500000Y12125000D02*
G02*
X18250000Y12125000I-125000J0D01*
G01*
G02*
X18500000Y12125000I125000J0D01*
G01*
G37*
D12*
G04 #@! TO.C,D9*
X22175000Y83425000D02*
X22175000Y87025000D01*
X20425000Y87025000D01*
X20425000Y83425000D01*
D10*
G04 #@! TO.C,R11*
X15175000Y88725000D02*
X14825000Y88725000D01*
X15175000Y87775000D02*
X14825000Y87775000D01*
G04 #@! TO.C,R14*
X14925000Y90225000D02*
X14575000Y90225000D01*
X14925000Y89275000D02*
X14575000Y89275000D01*
G04 #@! TO.C,R24*
X25925000Y105725000D02*
X25575000Y105725000D01*
X25925000Y104775000D02*
X25575000Y104775000D01*
D12*
G04 #@! TO.C,LS1*
X19000000Y58500000D02*
G02*
X19000000Y52500000I-6500000J-3000000D01*
G01*
X17000000Y57500000D02*
G02*
X17000000Y53500000I-4500000J-2000000D01*
G01*
X18000000Y58000000D02*
G02*
X18000000Y53000000I-5500000J-2500000D01*
G01*
X11500000Y57500000D02*
X11500000Y53500000D01*
X14500000Y53500000D01*
X16000000Y52000000D01*
X16000000Y59000000D01*
X14500000Y57500000D01*
X11500000Y57500000D01*
X23500000Y55500000D02*
G02*
X6500000Y55500000I-8500000J0D01*
G01*
G02*
X23500000Y55500000I8500000J0D01*
G01*
D10*
G04 #@! TO.C,C16*
X3725000Y38675000D02*
X3725000Y38825000D01*
X2775000Y38675000D02*
X2775000Y38825000D01*
G04 #@! TO.C,R20*
X3725000Y36075000D02*
X3725000Y36425000D01*
X2775000Y36075000D02*
X2775000Y36425000D01*
G04 #@! TO.C,C17*
X6025000Y29075000D02*
X6025000Y28925000D01*
X6975000Y29075000D02*
X6975000Y28925000D01*
D12*
G04 #@! TO.C,LEFT*
X1257359Y117257359D02*
X1257359Y125742641D01*
X5500000Y129985281D01*
X9742641Y125742641D01*
X9742641Y117257359D01*
X5500000Y113014719D01*
X1257359Y117257359D01*
X8500000Y121500000D02*
G02*
X2500000Y121500000I-3000000J0D01*
G01*
G02*
X8500000Y121500000I3000000J0D01*
G01*
D10*
G04 #@! TO.C,R17*
X19475000Y14825000D02*
X19475000Y15175000D01*
X18525000Y14825000D02*
X18525000Y15175000D01*
D12*
G04 #@! TO.C,D1*
X25318198Y134555635D02*
X22772614Y132010051D01*
X24010051Y130772614D01*
X26555635Y133318198D01*
D10*
G04 #@! TO.C,LED2*
X11625000Y14575000D02*
X11625000Y12125000D01*
X12475000Y12125000D01*
X12875000Y12525000D02*
X12875000Y14575000D01*
D15*
G36*
X13000000Y12125000D02*
G02*
X12750000Y12125000I-125000J0D01*
G01*
G02*
X13000000Y12125000I125000J0D01*
G01*
G37*
D12*
G04 #@! TO.C,D3*
X2375000Y107825000D02*
X2375000Y104225000D01*
X4125000Y104225000D01*
X4125000Y107825000D01*
D10*
G04 #@! TO.C,R16*
X11475000Y14825000D02*
X11475000Y15175000D01*
X10525000Y14825000D02*
X10525000Y15175000D01*
D12*
G04 #@! TO.C,D13*
X28825000Y107625000D02*
X25225000Y107625000D01*
X25225000Y105875000D01*
X28825000Y105875000D01*
G04 #@! TO.C,D11*
X25925000Y107875000D02*
X29525000Y107875000D01*
X29525000Y109625000D01*
X25925000Y109625000D01*
D10*
G04 #@! TO.C,C12*
X25475000Y48175000D02*
X25475000Y48325000D01*
X24525000Y48175000D02*
X24525000Y48325000D01*
D12*
G04 #@! TO.C,J3*
X24000000Y-1500000D02*
X21000000Y-1500000D01*
X9000000Y-1500000D02*
X6000000Y-1500000D01*
X21500000Y-2500000D02*
X8500000Y-2500000D01*
X8500000Y10500000D01*
X21500000Y10500000D01*
X21500000Y-2500000D01*
G04 #@! TO.C,DOWN*
X19242641Y107757359D02*
X10757359Y107757359D01*
X6514719Y112000000D01*
X10757359Y116242641D01*
X19242641Y116242641D01*
X23485281Y112000000D01*
X19242641Y107757359D01*
X18000000Y112000000D02*
G02*
X12000000Y112000000I-3000000J0D01*
G01*
G02*
X18000000Y112000000I3000000J0D01*
G01*
D10*
G04 #@! TO.C,LED1*
X6125000Y14575000D02*
X6125000Y12125000D01*
X6975000Y12125000D01*
X7375000Y12525000D02*
X7375000Y14575000D01*
D15*
G36*
X7500000Y12125000D02*
G02*
X7250000Y12125000I-125000J0D01*
G01*
G02*
X7500000Y12125000I125000J0D01*
G01*
G37*
D10*
G04 #@! TO.C,C6*
X7525000Y85075000D02*
X7525000Y84925000D01*
X8475000Y85075000D02*
X8475000Y84925000D01*
D13*
G04 #@! TO.C,J6*
X28645000Y103625000D02*
X28645000Y101375000D01*
X28375000Y101105000D01*
X26125000Y101105000D01*
X25855000Y101375000D01*
X25855000Y103625000D01*
X26125000Y103895000D01*
X28375000Y103895000D01*
X28645000Y103625000D01*
D10*
G04 #@! TO.C,C13*
X27123862Y47697548D02*
X27198862Y47827452D01*
X26301138Y48172548D02*
X26376138Y48302452D01*
D14*
G04 #@! TO.C,EN_SW*
X2250000Y87250000D02*
X6750000Y87250000D01*
X6750000Y82750000D01*
X2250000Y82750000D01*
X2250000Y87250000D01*
D10*
G04 #@! TO.C,LED4*
X22625000Y14575000D02*
X22625000Y12125000D01*
X23475000Y12125000D01*
X23875000Y12525000D02*
X23875000Y14575000D01*
D15*
G36*
X24000000Y12125000D02*
G02*
X23750000Y12125000I-125000J0D01*
G01*
G02*
X24000000Y12125000I125000J0D01*
G01*
G37*
D12*
G04 #@! TO.C,ONE*
X19242641Y32757359D02*
X10757359Y32757359D01*
X6514719Y37000000D01*
X10757359Y41242641D01*
X19242641Y41242641D01*
X23485281Y37000000D01*
X19242641Y32757359D01*
X18000000Y37000000D02*
G02*
X12000000Y37000000I-3000000J0D01*
G01*
G02*
X18000000Y37000000I3000000J0D01*
G01*
D10*
G04 #@! TO.C,R22*
X24775000Y95425000D02*
X24775000Y95075000D01*
X25725000Y95425000D02*
X25725000Y95075000D01*
G04 #@! TO.C,C15*
X24325000Y31475000D02*
X24175000Y31475000D01*
X24325000Y30525000D02*
X24175000Y30525000D01*
G04 #@! TO.C,R3*
X22525000Y20425000D02*
X22525000Y20075000D01*
X23475000Y20425000D02*
X23475000Y20075000D01*
G04 #@! TO.C,R2*
X8825000Y87275000D02*
X9175000Y87275000D01*
X8825000Y88225000D02*
X9175000Y88225000D01*
D12*
G04 #@! TO.C,D10*
X10625000Y83425000D02*
X10625000Y87025000D01*
X8875000Y87025000D01*
X8875000Y83425000D01*
D14*
G04 #@! TO.C,HOME*
X12750000Y77250000D02*
X17250000Y77250000D01*
X17250000Y72750000D01*
X12750000Y72750000D01*
X12750000Y77250000D01*
D12*
G04 #@! TO.C,D6*
X18694365Y28568198D02*
X21239949Y26022614D01*
X22477386Y27260051D01*
X19931802Y29805635D01*
G04 #@! TO.C,TWO*
X19242641Y19007359D02*
X10757359Y19007359D01*
X6514719Y23250000D01*
X10757359Y27492641D01*
X19242641Y27492641D01*
X23485281Y23250000D01*
X19242641Y19007359D01*
X18000000Y23250000D02*
G02*
X12000000Y23250000I-3000000J0D01*
G01*
G02*
X18000000Y23250000I3000000J0D01*
G01*
D14*
G04 #@! TO.C,PLUS*
X22750000Y77250000D02*
X27250000Y77250000D01*
X27250000Y72750000D01*
X22750000Y72750000D01*
X22750000Y77250000D01*
D10*
G04 #@! TO.C,R23*
X24325000Y96775000D02*
X24675000Y96775000D01*
X24325000Y97725000D02*
X24675000Y97725000D01*
G04 #@! TO.C,C1*
X4725000Y49425000D02*
X4725000Y49575000D01*
X3775000Y49425000D02*
X3775000Y49575000D01*
G04 #@! TO.C,C11*
X25325000Y40475000D02*
X25175000Y40475000D01*
X25325000Y39525000D02*
X25175000Y39525000D01*
D14*
G04 #@! TO.C,MINUS*
X2750000Y77250000D02*
X7250000Y77250000D01*
X7250000Y72750000D01*
X2750000Y72750000D01*
X2750000Y77250000D01*
D10*
G04 #@! TO.C,R5*
X28525000Y15175000D02*
X28525000Y14825000D01*
X29475000Y15175000D02*
X29475000Y14825000D01*
D12*
G04 #@! TO.C,RIGHT*
X28742641Y125742641D02*
X28742641Y117257359D01*
X24500000Y113014719D01*
X20257359Y117257359D01*
X20257359Y125742641D01*
X24500000Y129985281D01*
X28742641Y125742641D01*
X27500000Y121500000D02*
G02*
X21500000Y121500000I-3000000J0D01*
G01*
G02*
X27500000Y121500000I3000000J0D01*
G01*
G04 #@! TO.C,D2*
X4375000Y108325000D02*
X4375000Y104725000D01*
X6125000Y104725000D01*
X6125000Y108325000D01*
D10*
G04 #@! TO.C,Q1*
X27025000Y96550000D02*
X27025000Y95950000D01*
X26050000Y97850000D02*
X27400000Y97850000D01*
X27400000Y97775000D01*
X28475000Y97775000D01*
X28475000Y97050000D01*
X27400000Y94725000D02*
X28475000Y94725000D01*
X28475000Y95450000D01*
G04 #@! TO.C,R9*
X21225000Y68825000D02*
X21225000Y69175000D01*
X20275000Y68825000D02*
X20275000Y69175000D01*
D12*
G04 #@! TO.C,U4*
X23750000Y34000000D02*
X23750000Y37000000D01*
X26750000Y37000000D01*
X26750000Y34000000D01*
X23750000Y34000000D01*
X24350000Y34500000D02*
G02*
X24150000Y34500000I-100000J0D01*
G01*
G02*
X24350000Y34500000I100000J0D01*
G01*
D10*
G04 #@! TO.C,R21*
X4525000Y34675000D02*
X4525000Y34325000D01*
X5475000Y34675000D02*
X5475000Y34325000D01*
G04 #@! TO.C,C3*
X3475000Y49425000D02*
X3475000Y49575000D01*
X2525000Y49425000D02*
X2525000Y49575000D01*
D12*
G04 #@! TO.C,D8*
X1944365Y15818198D02*
X4489949Y13272614D01*
X5727386Y14510051D01*
X3181802Y17055635D01*
G04 #@! TO.C,D12*
X375000Y108825000D02*
X375000Y105225000D01*
X2125000Y105225000D01*
X2125000Y108825000D01*
D10*
G04 #@! TO.C,R13*
X3075000Y102275000D02*
X3425000Y102275000D01*
X3075000Y103225000D02*
X3425000Y103225000D01*
G04 #@! TO.C,C2*
X525000Y85075000D02*
X525000Y84925000D01*
X1475000Y85075000D02*
X1475000Y84925000D01*
D13*
G04 #@! TO.C,JTAG*
X28145000Y22935000D02*
X28145000Y20810000D01*
X27875000Y20540000D01*
X28145000Y20270000D01*
X28145000Y18270000D01*
X27875000Y18000000D01*
X28145000Y17730000D01*
X28145000Y15730000D01*
X27875000Y15460000D01*
X28145000Y15190000D01*
X28145000Y13065000D01*
X27875000Y12795000D01*
X25625000Y12795000D01*
X25355000Y13065000D01*
X25355000Y15190000D01*
X25625000Y15460000D01*
X25355000Y15730000D01*
X25355000Y17730000D01*
X25625000Y18000000D01*
X25355000Y18270000D01*
X25355000Y20270000D01*
X25625000Y20540000D01*
X25355000Y20810000D01*
X25355000Y22935000D01*
X25625000Y23205000D01*
X27875000Y23205000D01*
X28145000Y22935000D01*
D10*
G04 #@! TO.C,C7*
X28525000Y86075000D02*
X28525000Y85925000D01*
X29475000Y86075000D02*
X29475000Y85925000D01*
D12*
G04 #@! TD*
X29500000Y11931111D02*
X28500000Y11931111D01*
X28500000Y12168889D01*
X28547778Y12312222D01*
X28643333Y12407778D01*
X28737778Y12454444D01*
X28928889Y12502222D01*
X29071111Y12502222D01*
X29262222Y12454444D01*
X29356667Y12407778D01*
X29452222Y12312222D01*
X29500000Y12168889D01*
X29500000Y11931111D01*
X28500000Y13140000D02*
X28500000Y13331111D01*
X28547778Y13425555D01*
X28643333Y13521111D01*
X28833333Y13568889D01*
X29166667Y13568889D01*
X29356667Y13521111D01*
X29452222Y13425555D01*
X29500000Y13331111D01*
X29500000Y13140000D01*
X29452222Y13045555D01*
X29356667Y12950000D01*
X29166667Y12902222D01*
X28833333Y12902222D01*
X28643333Y12950000D01*
X28547778Y13045555D01*
X28500000Y13140000D01*
X29500000Y20931111D02*
X28500000Y20931111D01*
X29214444Y21264444D01*
X28500000Y21597778D01*
X29500000Y21597778D01*
X29452222Y21997778D02*
X29500000Y22141111D01*
X29500000Y22378889D01*
X29452222Y22474445D01*
X29404444Y22521111D01*
X29310000Y22568889D01*
X29214444Y22568889D01*
X29118889Y22521111D01*
X29071111Y22474445D01*
X29023333Y22378889D01*
X28976667Y22187778D01*
X28928889Y22093334D01*
X28881111Y22045556D01*
X28785556Y21997778D01*
X28690000Y21997778D01*
X28595556Y22045556D01*
X28547778Y22093334D01*
X28500000Y22187778D01*
X28500000Y22426667D01*
X28547778Y22568889D01*
X29500000Y18764445D02*
X28500000Y18764445D01*
X28500000Y19002223D01*
X28547778Y19145556D01*
X28643333Y19241112D01*
X28737778Y19287778D01*
X28928889Y19335556D01*
X29071111Y19335556D01*
X29262222Y19287778D01*
X29356667Y19241112D01*
X29452222Y19145556D01*
X29500000Y19002223D01*
X29500000Y18764445D01*
X29500000Y19735556D02*
X28500000Y19735556D01*
X24428334Y102571667D02*
X25571667Y102571667D01*
X25000001Y102000000D02*
X25000001Y103143333D01*
X16183333Y78250000D02*
X16802222Y78250000D01*
X16468889Y77868889D01*
X16612222Y77868889D01*
X16706666Y77821111D01*
X16754444Y77773333D01*
X16802222Y77678889D01*
X16802222Y77440000D01*
X16754444Y77345556D01*
X16706666Y77297778D01*
X16612222Y77250000D01*
X16326666Y77250000D01*
X16231111Y77297778D01*
X16183333Y77345556D01*
X17250000Y77345556D02*
X17297778Y77297778D01*
X17250000Y77250000D01*
X17202222Y77297778D01*
X17250000Y77345556D01*
X17250000Y77250000D01*
X17697778Y78250000D02*
X18316667Y78250000D01*
X17983334Y77868889D01*
X18126667Y77868889D01*
X18221111Y77821111D01*
X18268889Y77773333D01*
X18316667Y77678889D01*
X18316667Y77440000D01*
X18268889Y77345556D01*
X18221111Y77297778D01*
X18126667Y77250000D01*
X17841111Y77250000D01*
X17745556Y77297778D01*
X17697778Y77345556D01*
X29404444Y17073889D02*
X29452222Y17026111D01*
X29500000Y16883889D01*
X29500000Y16788333D01*
X29452222Y16645000D01*
X29356667Y16550556D01*
X29262222Y16502778D01*
X29071111Y16455000D01*
X28928889Y16455000D01*
X28737778Y16502778D01*
X28643333Y16550556D01*
X28547778Y16645000D01*
X28500000Y16788333D01*
X28500000Y16883889D01*
X28547778Y17026111D01*
X28595556Y17073889D01*
X29500000Y17473889D02*
X28500000Y17473889D01*
X29500000Y18045000D02*
X28928889Y17617222D01*
X28500000Y18045000D02*
X29071111Y17473889D01*
X24428334Y99321667D02*
X25571667Y99321667D01*
X8681111Y78250000D02*
X9252222Y78250000D01*
X8966667Y77250000D02*
X8966667Y78250000D01*
X9652222Y78250000D02*
X10318889Y77250000D01*
X10318889Y78250000D02*
X9652222Y77250000D01*
X11752222Y77250000D02*
X11418889Y77726667D01*
X11181111Y77250000D02*
X11181111Y78250000D01*
X11562222Y78250000D01*
X11657778Y78202222D01*
X11704444Y78154444D01*
X11752222Y78060000D01*
X11752222Y77916667D01*
X11704444Y77821111D01*
X11657778Y77773333D01*
X11562222Y77726667D01*
X11181111Y77726667D01*
X12152222Y78250000D02*
X12818889Y77250000D01*
X12818889Y78250000D02*
X12152222Y77250000D01*
G04 #@! TO.C,J1*
X8255555Y81750000D02*
X8255555Y82750000D01*
X8636666Y82750000D01*
X8732222Y82702222D01*
X8778888Y82654444D01*
X8826666Y82560000D01*
X8826666Y82416667D01*
X8778888Y82321111D01*
X8732222Y82273333D01*
X8636666Y82226667D01*
X8255555Y82226667D01*
X9797777Y81750000D02*
X9464444Y82226667D01*
X9226666Y81750000D02*
X9226666Y82750000D01*
X9607777Y82750000D01*
X9703333Y82702222D01*
X9749999Y82654444D01*
X9797777Y82560000D01*
X9797777Y82416667D01*
X9749999Y82321111D01*
X9703333Y82273333D01*
X9607777Y82226667D01*
X9226666Y82226667D01*
X10435555Y82750000D02*
X10626666Y82750000D01*
X10721110Y82702222D01*
X10816666Y82606667D01*
X10864444Y82416667D01*
X10864444Y82083333D01*
X10816666Y81893333D01*
X10721110Y81797778D01*
X10626666Y81750000D01*
X10435555Y81750000D01*
X10341110Y81797778D01*
X10245555Y81893333D01*
X10197777Y82083333D01*
X10197777Y82416667D01*
X10245555Y82606667D01*
X10341110Y82702222D01*
X10435555Y82750000D01*
X11835555Y82702222D02*
X11741111Y82750000D01*
X11597777Y82750000D01*
X11454444Y82702222D01*
X11360000Y82606667D01*
X11312222Y82512222D01*
X11264444Y82321111D01*
X11264444Y82178889D01*
X11312222Y81987778D01*
X11360000Y81893333D01*
X11454444Y81797778D01*
X11597777Y81750000D01*
X11693333Y81750000D01*
X11835555Y81797778D01*
X11883333Y81845556D01*
X11883333Y82178889D01*
X11693333Y82178889D01*
X12854444Y81750000D02*
X12521111Y82226667D01*
X12283333Y81750000D02*
X12283333Y82750000D01*
X12664444Y82750000D01*
X12760000Y82702222D01*
X12806666Y82654444D01*
X12854444Y82560000D01*
X12854444Y82416667D01*
X12806666Y82321111D01*
X12760000Y82273333D01*
X12664444Y82226667D01*
X12283333Y82226667D01*
X13350000Y82035556D02*
X13825555Y82035556D01*
X13254444Y81750000D02*
X13587777Y82750000D01*
X13921111Y81750000D01*
X14321111Y81750000D02*
X14321111Y82750000D01*
X14654444Y82035556D01*
X14987778Y82750000D01*
X14987778Y81750000D01*
X15387778Y81750000D02*
X15387778Y82750000D01*
X15721111Y82035556D01*
X16054445Y82750000D01*
X16054445Y81750000D01*
X16454445Y81750000D02*
X16454445Y82750000D01*
X16854445Y81750000D02*
X16854445Y82750000D01*
X17425556Y81750000D01*
X17425556Y82750000D01*
X18396667Y82702222D02*
X18302223Y82750000D01*
X18158889Y82750000D01*
X18015556Y82702222D01*
X17921112Y82606667D01*
X17873334Y82512222D01*
X17825556Y82321111D01*
X17825556Y82178889D01*
X17873334Y81987778D01*
X17921112Y81893333D01*
X18015556Y81797778D01*
X18158889Y81750000D01*
X18254445Y81750000D01*
X18396667Y81797778D01*
X18444445Y81845556D01*
X18444445Y82178889D01*
X18254445Y82178889D01*
G04 #@! TO.C,BOOT_SW*
X23745555Y88523333D02*
X23888889Y88476667D01*
X23935555Y88428889D01*
X23983333Y88333333D01*
X23983333Y88190000D01*
X23935555Y88095556D01*
X23888889Y88047778D01*
X23793333Y88000000D01*
X23412222Y88000000D01*
X23412222Y89000000D01*
X23745555Y89000000D01*
X23841111Y88952222D01*
X23888889Y88904444D01*
X23935555Y88810000D01*
X23935555Y88714444D01*
X23888889Y88618889D01*
X23841111Y88571111D01*
X23745555Y88523333D01*
X23412222Y88523333D01*
X24621111Y89000000D02*
X24812222Y89000000D01*
X24906666Y88952222D01*
X25002222Y88856667D01*
X25050000Y88666667D01*
X25050000Y88333333D01*
X25002222Y88143333D01*
X24906666Y88047778D01*
X24812222Y88000000D01*
X24621111Y88000000D01*
X24526666Y88047778D01*
X24431111Y88143333D01*
X24383333Y88333333D01*
X24383333Y88666667D01*
X24431111Y88856667D01*
X24526666Y88952222D01*
X24621111Y89000000D01*
X25687778Y89000000D02*
X25878889Y89000000D01*
X25973333Y88952222D01*
X26068889Y88856667D01*
X26116667Y88666667D01*
X26116667Y88333333D01*
X26068889Y88143333D01*
X25973333Y88047778D01*
X25878889Y88000000D01*
X25687778Y88000000D01*
X25593333Y88047778D01*
X25497778Y88143333D01*
X25450000Y88333333D01*
X25450000Y88666667D01*
X25497778Y88856667D01*
X25593333Y88952222D01*
X25687778Y89000000D01*
X26516667Y89000000D02*
X27087778Y89000000D01*
X26802223Y88000000D02*
X26802223Y89000000D01*
G04 #@! TO.C,J3*
X14681111Y-2500000D02*
X14681111Y-3214444D01*
X14633333Y-3356667D01*
X14537778Y-3452222D01*
X14395556Y-3500000D01*
X14300000Y-3500000D01*
X15081111Y-2500000D02*
X15700000Y-2500000D01*
X15366667Y-2881111D01*
X15510000Y-2881111D01*
X15604444Y-2928889D01*
X15652222Y-2976667D01*
X15700000Y-3071111D01*
X15700000Y-3310000D01*
X15652222Y-3404444D01*
X15604444Y-3452222D01*
X15510000Y-3500000D01*
X15224444Y-3500000D01*
X15128889Y-3452222D01*
X15081111Y-3404444D01*
G04 #@! TO.C,EN_SW*
X1880555Y88523333D02*
X2213888Y88523333D01*
X2357222Y88000000D02*
X1880555Y88000000D01*
X1880555Y89000000D01*
X2357222Y89000000D01*
X2757222Y88000000D02*
X2757222Y89000000D01*
X3328333Y88000000D01*
X3328333Y89000000D01*
X3823889Y88285556D02*
X4299444Y88285556D01*
X3728333Y88000000D02*
X4061666Y89000000D01*
X4395000Y88000000D01*
X5128333Y88523333D02*
X5271667Y88476667D01*
X5318333Y88428889D01*
X5366111Y88333333D01*
X5366111Y88190000D01*
X5318333Y88095556D01*
X5271667Y88047778D01*
X5176111Y88000000D01*
X4795000Y88000000D01*
X4795000Y89000000D01*
X5128333Y89000000D01*
X5223889Y88952222D01*
X5271667Y88904444D01*
X5318333Y88810000D01*
X5318333Y88714444D01*
X5271667Y88618889D01*
X5223889Y88571111D01*
X5128333Y88523333D01*
X4795000Y88523333D01*
X6242778Y88000000D02*
X5766111Y88000000D01*
X5766111Y89000000D01*
X6642778Y88523333D02*
X6976111Y88523333D01*
X7119445Y88000000D02*
X6642778Y88000000D01*
X6642778Y89000000D01*
X7119445Y89000000D01*
G04 #@! TO.C,JTAG*
X25162222Y24600000D02*
X25162222Y23885556D01*
X25114444Y23743333D01*
X25018889Y23647778D01*
X24876667Y23600000D01*
X24781111Y23600000D01*
X25562222Y24600000D02*
X26133333Y24600000D01*
X25847778Y23600000D02*
X25847778Y24600000D01*
X26628889Y23885556D02*
X27104444Y23885556D01*
X26533333Y23600000D02*
X26866666Y24600000D01*
X27200000Y23600000D01*
X28171111Y24552222D02*
X28076667Y24600000D01*
X27933333Y24600000D01*
X27790000Y24552222D01*
X27695556Y24456667D01*
X27647778Y24362222D01*
X27600000Y24171111D01*
X27600000Y24028889D01*
X27647778Y23837778D01*
X27695556Y23743333D01*
X27790000Y23647778D01*
X27933333Y23600000D01*
X28028889Y23600000D01*
X28171111Y23647778D01*
X28218889Y23695556D01*
X28218889Y24028889D01*
X28028889Y24028889D01*
%LPC*%
D16*
G04 #@! TO.C,C18*
X28975000Y105250000D03*
X27525000Y105250000D03*
D17*
G04 #@! TO.C,XO1*
X27100000Y136150000D03*
X24900000Y136150000D03*
X24900000Y137850000D03*
X27100000Y137850000D03*
D18*
G04 #@! TO.C,A*
X12878680Y101621320D03*
D19*
X17121320Y97378680D03*
D20*
G04 #@! TD*
X21717514Y99500000D03*
X8282486Y99500000D03*
D21*
G04 #@! TO.C,J1*
X9440000Y80000000D03*
D22*
X17060000Y80000000D03*
D21*
X11980000Y80000000D03*
X14520000Y80000000D03*
D23*
G04 #@! TO.C,R1*
X29025000Y88250000D03*
X27475000Y88250000D03*
D24*
G04 #@! TO.C,U3*
X13837500Y86250000D03*
X13837500Y85750000D03*
D25*
X15500000Y84587500D03*
X15000000Y86912500D03*
X14500000Y86912500D03*
D24*
X15662500Y85750000D03*
D25*
X15500000Y86912500D03*
X15000000Y84587500D03*
D24*
X15662500Y85250000D03*
X13837500Y85250000D03*
D25*
X14000000Y86912500D03*
X14500000Y84587500D03*
D24*
X15662500Y86250000D03*
D25*
X14000000Y84587500D03*
D23*
G04 #@! TO.C,R4*
X13725000Y13000000D03*
X15275000Y13000000D03*
D20*
G04 #@! TD*
X8282486Y108000000D03*
X21717514Y108000000D03*
D26*
G04 #@! TO.C,UP*
X12171573Y130292893D03*
D27*
X17828427Y130292893D03*
D20*
G04 #@! TD*
X8282486Y131000000D03*
X21717514Y131000000D03*
D16*
G04 #@! TO.C,C9*
X12525000Y83250000D03*
X13975000Y83250000D03*
D28*
G04 #@! TO.C,BOOT_SW*
X23025000Y86750000D03*
D29*
X27475000Y83250000D03*
X27475000Y86750000D03*
D28*
X23025000Y83250000D03*
D30*
G04 #@! TO.C,C8*
X12500000Y85025000D03*
X12500000Y86475000D03*
D31*
G04 #@! TO.C,J2*
X12515000Y138030000D03*
X11515000Y136030000D03*
X18515000Y138030000D03*
D32*
X20500000Y139100000D03*
D31*
X14515000Y138030000D03*
X17515000Y136030000D03*
X16515000Y138030000D03*
X15515000Y136030000D03*
D32*
X9500000Y139100000D03*
D31*
X13515000Y136030000D03*
D33*
G04 #@! TD*
X13515000Y140030000D03*
X17515000Y140030000D03*
D34*
G04 #@! TO.C,R19*
X21250000Y33775000D03*
X21250000Y32225000D03*
G04 #@! TO.C,R10*
X22000000Y69775000D03*
X22000000Y68225000D03*
G04 #@! TO.C,R15*
X8000000Y15775000D03*
X8000000Y14225000D03*
G04 #@! TO.C,R18*
X22000000Y15775000D03*
X22000000Y14225000D03*
D35*
G04 #@! TO.C,D7*
X18700000Y83175000D03*
X18700000Y86325000D03*
D23*
G04 #@! TO.C,R6*
X26475000Y12000000D03*
X28025000Y12000000D03*
D16*
G04 #@! TO.C,C14*
X25225000Y32250000D03*
X23775000Y32250000D03*
D36*
G04 #@! TO.C,POWER*
X4000000Y136525000D03*
D37*
X7500000Y140975000D03*
X4000000Y140975000D03*
D36*
X7500000Y136525000D03*
D38*
G04 #@! TO.C,L1*
X9000000Y27000000D03*
X9000000Y28500000D03*
D34*
G04 #@! TO.C,R12*
X18750000Y87975000D03*
X18750000Y89525000D03*
D39*
G04 #@! TO.C,D5*
X19675000Y17750000D03*
X22825000Y17750000D03*
D34*
G04 #@! TO.C,R7*
X22500000Y32225000D03*
X22500000Y33775000D03*
D40*
G04 #@! TO.C,J5*
X27250000Y99500000D03*
D16*
G04 #@! TO.C,C10*
X24525000Y38750000D03*
X25975000Y38750000D03*
D41*
G04 #@! TO.C,U5*
X6000000Y35740000D03*
X6500000Y34260000D03*
X7000000Y34260000D03*
X6500000Y35740000D03*
X7000000Y35740000D03*
X6000000Y34260000D03*
D42*
G04 #@! TO.C,D4*
X27613693Y132613693D03*
X25386307Y130386307D03*
D38*
G04 #@! TO.C,LED3*
X17750000Y14250000D03*
X17750000Y12750000D03*
D35*
G04 #@! TO.C,D9*
X21300000Y83175000D03*
X21300000Y86325000D03*
D23*
G04 #@! TO.C,R11*
X14225000Y88250000D03*
X15775000Y88250000D03*
G04 #@! TO.C,R14*
X13975000Y89750000D03*
X15525000Y89750000D03*
G04 #@! TO.C,R24*
X24975000Y105250000D03*
X26525000Y105250000D03*
D43*
G04 #@! TO.C,LS1*
X23000000Y49000000D03*
X20500000Y46500000D03*
D30*
G04 #@! TO.C,C16*
X3250000Y39475000D03*
X3250000Y38025000D03*
D34*
G04 #@! TO.C,R20*
X3250000Y37025000D03*
X3250000Y35475000D03*
D30*
G04 #@! TO.C,C17*
X6500000Y28275000D03*
X6500000Y29725000D03*
D44*
G04 #@! TO.C,LEFT*
X6207107Y118671573D03*
D45*
X6207107Y124328427D03*
D20*
G04 #@! TD*
X5500000Y114782486D03*
X5500000Y128217514D03*
D34*
G04 #@! TO.C,R17*
X19000000Y15775000D03*
X19000000Y14225000D03*
D42*
G04 #@! TO.C,D1*
X26113693Y134113693D03*
X23886307Y131886307D03*
D38*
G04 #@! TO.C,LED2*
X12250000Y14250000D03*
X12250000Y12750000D03*
D35*
G04 #@! TO.C,D3*
X3250000Y108075000D03*
X3250000Y104925000D03*
D34*
G04 #@! TO.C,R16*
X11000000Y15775000D03*
X11000000Y14225000D03*
D39*
G04 #@! TO.C,D13*
X29075000Y106750000D03*
X25925000Y106750000D03*
G04 #@! TO.C,D11*
X25675000Y108750000D03*
X28825000Y108750000D03*
D30*
G04 #@! TO.C,C12*
X25000000Y48975000D03*
X25000000Y47525000D03*
D46*
G04 #@! TO.C,J3*
X17000000Y7500000D03*
D47*
X13000000Y2500000D03*
D46*
X13000000Y9500000D03*
X17000000Y9500000D03*
X15000000Y9500000D03*
X13000000Y7500000D03*
X15000000Y7500000D03*
D47*
X17000000Y2500000D03*
D27*
G04 #@! TO.C,DOWN*
X17828427Y112707107D03*
D26*
X12171573Y112707107D03*
D20*
G04 #@! TD*
X21717514Y112000000D03*
X8282486Y112000000D03*
D38*
G04 #@! TO.C,LED1*
X6750000Y14250000D03*
X6750000Y12750000D03*
D30*
G04 #@! TO.C,C6*
X8000000Y84275000D03*
X8000000Y85725000D03*
D40*
G04 #@! TO.C,J6*
X27250000Y102500000D03*
D48*
G04 #@! TO.C,C13*
X27112500Y48627868D03*
X26387500Y47372132D03*
D28*
G04 #@! TO.C,EN_SW*
X2275000Y86750000D03*
D29*
X6725000Y83250000D03*
X6725000Y86750000D03*
D28*
X2275000Y83250000D03*
D49*
G04 #@! TO.C,J4*
X7250000Y30500000D03*
X22750000Y29500000D03*
D50*
X2750000Y29250000D03*
X27250000Y28250000D03*
D38*
G04 #@! TO.C,LED4*
X23250000Y14250000D03*
X23250000Y12750000D03*
D19*
G04 #@! TO.C,ONE*
X17121320Y34878680D03*
D18*
X12878680Y39121320D03*
D20*
G04 #@! TD*
X8282486Y37000000D03*
X21717514Y37000000D03*
D34*
G04 #@! TO.C,R22*
X25250000Y94475000D03*
X25250000Y96025000D03*
D16*
G04 #@! TO.C,C15*
X23525000Y31000000D03*
X24975000Y31000000D03*
D34*
G04 #@! TO.C,R3*
X23000000Y19475000D03*
X23000000Y21025000D03*
D23*
G04 #@! TO.C,R2*
X9775000Y87750000D03*
X8225000Y87750000D03*
D35*
G04 #@! TO.C,D10*
X9750000Y83175000D03*
X9750000Y86325000D03*
D28*
G04 #@! TO.C,HOME*
X12775000Y76750000D03*
D29*
X17225000Y73250000D03*
X17225000Y76750000D03*
D28*
X12775000Y73250000D03*
D51*
G04 #@! TO.C,D6*
X19136307Y29363693D03*
X21363693Y27136307D03*
D19*
G04 #@! TO.C,TWO*
X17121320Y21128680D03*
D18*
X12878680Y25371320D03*
D20*
G04 #@! TD*
X8282486Y23250000D03*
X21717514Y23250000D03*
D28*
G04 #@! TO.C,PLUS*
X22775000Y76750000D03*
D29*
X27225000Y73250000D03*
X27225000Y76750000D03*
D28*
X22775000Y73250000D03*
D23*
G04 #@! TO.C,R23*
X25275000Y97250000D03*
X23725000Y97250000D03*
D52*
G04 #@! TO.C,SYNC*
X6750000Y25250000D03*
X2250000Y18750000D03*
X2250000Y25250000D03*
X6750000Y18750000D03*
D30*
G04 #@! TO.C,C1*
X4250000Y50225000D03*
X4250000Y48775000D03*
D16*
G04 #@! TO.C,C11*
X24525000Y40000000D03*
X25975000Y40000000D03*
D28*
G04 #@! TO.C,MINUS*
X2775000Y76750000D03*
D29*
X7225000Y73250000D03*
X7225000Y76750000D03*
D28*
X2775000Y73250000D03*
D34*
G04 #@! TO.C,R5*
X29000000Y14225000D03*
X29000000Y15775000D03*
D45*
G04 #@! TO.C,RIGHT*
X23792893Y124328427D03*
D44*
X23792893Y118671573D03*
D20*
G04 #@! TD*
X24500000Y128217514D03*
X24500000Y114782486D03*
D35*
G04 #@! TO.C,D2*
X5250000Y108575000D03*
X5250000Y105425000D03*
D53*
G04 #@! TO.C,Q1*
X26650000Y95300000D03*
X28850000Y96250000D03*
X26650000Y97200000D03*
D34*
G04 #@! TO.C,R9*
X20750000Y69775000D03*
X20750000Y68225000D03*
D54*
G04 #@! TO.C,U4*
X24925000Y37475000D03*
X24275000Y37475000D03*
X24275000Y33525000D03*
X26225000Y33525000D03*
X25575000Y33525000D03*
X24925000Y33525000D03*
X25575000Y37475000D03*
X26225000Y37475000D03*
D34*
G04 #@! TO.C,R21*
X5000000Y33725000D03*
X5000000Y35275000D03*
D30*
G04 #@! TO.C,C3*
X3000000Y50225000D03*
X3000000Y48775000D03*
D51*
G04 #@! TO.C,D8*
X2386307Y16613693D03*
X4613693Y14386307D03*
D35*
G04 #@! TO.C,D12*
X1250000Y109075000D03*
X1250000Y105925000D03*
D23*
G04 #@! TO.C,R13*
X4025000Y102750000D03*
X2475000Y102750000D03*
D30*
G04 #@! TO.C,C2*
X1000000Y84275000D03*
X1000000Y85725000D03*
D55*
G04 #@! TO.C,JTAG*
X26750000Y14190000D03*
D40*
X26750000Y21810000D03*
D55*
X26750000Y16730000D03*
X26750000Y19270000D03*
D30*
G04 #@! TO.C,C7*
X29000000Y85275000D03*
X29000000Y86725000D03*
D56*
G04 #@! TD*
X7750000Y0D03*
X22250000Y0D03*
X8500000Y0D03*
X23000000Y0D03*
D20*
X5250000Y132000000D03*
D56*
X6250000Y0D03*
X21500000Y0D03*
X23750000Y0D03*
X7000000Y0D03*
G04 --- BOARD END --- *
G04 #@! TF.MD5,9215056231cca798534366883f54a7d3*
M02*
