G04 --- HEADER BEGIN --- *
G04 #@! TF.GenerationSoftware,LibrePCB,LibrePCB,2.0.1*
G04 #@! TF.CreationDate,2026-05-19T01:23:53*
G04 #@! TF.ProjectId,ESPmote (ESPmote_WROOM32),c75d975a-3822-4103-ad87-6dcb39d2a138,v1*
G04 #@! TF.Part,Single*
G04 #@! TF.SameCoordinates*
G04 #@! TF.FileFunction,Copper,L1,Top*
G04 #@! TF.FilePolarity,Positive*
%FSLAX66Y66*%
%MOMM*%
G01*
G75*
G04 --- HEADER END --- *
G04 --- APERTURE LIST BEGIN --- *
G04 #@! TA.AperFunction,SMDPad,CuDef*
%ADD10R,0.85X0.8*%
%ADD11R,1.4X1.2*%
%AMOUTLINE12*4,1,15,-0.75,-3.25,0.25,-2.25,0.75,-1.25,0.75,1.25,0.25,2.25,-0.75,3.25,-1.75,3.75,-4.25,3.75,-4.25,-1.5,-4.0,-1.75,-3.25,-1.75,-3.25,2.25,-1.75,2.25,-1.25,1.75,-1.25,-3.5,-0.75,-3.25,135.0*%
%ADD12OUTLINE12*%
%AMOUTLINE13*4,1,15,-0.75,-3.25,0.25,-2.25,0.75,-1.25,0.75,1.25,0.25,2.25,-0.75,3.25,-1.75,3.75,-4.25,3.75,-4.25,-1.5,-4.0,-1.75,-3.25,-1.75,-3.25,2.25,-1.75,2.25,-1.25,1.75,-1.25,-3.5,-0.75,-3.25,315.0*%
%ADD13OUTLINE13*%
G04 #@! TA.AperFunction,ComponentPad*
%ADD14O,1.587X2.19*%
%ADD15R,1.587X2.19*%
G04 #@! TA.AperFunction,SMDPad,CuDef*
%ADD16R,0.75X0.8*%
%AMROUNDEDRECT17*20,1,0.25,-0.175,0.0,0.175,0.0,0.0*20,1,0.125,-0.2375,0.0,0.2375,0.0,0.0*1,1,0.125,-0.175,0.0625*1,1,0.125,0.175,0.0625*1,1,0.125,0.175,-0.0625*1,1,0.125,-0.175,-0.0625*%
%ADD17ROUNDEDRECT17*%
%AMROUNDEDRECT18*20,1,0.25,-0.175,0.0,0.175,0.0,90.0*20,1,0.125,-0.2375,0.0,0.2375,0.0,90.0*1,1,0.125,-0.0625,-0.175*1,1,0.125,-0.0625,0.175*1,1,0.125,0.0625,0.175*1,1,0.125,0.0625,-0.175*%
%ADD18ROUNDEDRECT18*%
%AMOUTLINE19*4,1,10,-1.75,-4.75,-0.75,-4.25,0.25,-3.25,0.75,-2.25,0.75,2.25,0.25,3.25,-0.75,4.25,-1.75,4.75,-2.5,4.75,-2.5,-4.76,-1.75,-4.75,180.0*%
%ADD19OUTLINE19*%
%AMOUTLINE20*4,1,10,-1.75,-4.75,-0.75,-4.25,0.25,-3.25,0.75,-2.25,0.75,2.25,0.25,3.25,-0.75,4.25,-1.75,4.75,-2.5,4.75,-2.5,-4.76,-1.75,-4.75,0.0*%
%ADD20OUTLINE20*%
%AMOUTLINE21*4,1,8,-0.5,-0.55,0.7,-0.55,0.7,0.55,-0.5,0.55,-0.5,0.75,-0.7,0.75,-0.7,-0.75,-0.5,-0.75,-0.5,-0.55,0.0*%
%ADD21OUTLINE21*%
%AMOUTLINE22*4,1,8,-0.5,-0.55,0.7,-0.55,0.7,0.55,-0.5,0.55,-0.5,0.75,-0.7,0.75,-0.7,-0.75,-0.5,-0.75,-0.5,-0.55,180.0*%
%ADD22OUTLINE22*%
%ADD23R,0.8X0.85*%
G04 #@! TA.AperFunction,ComponentPad*
%ADD24C,1.008*%
%ADD25O,2.0X3.8*%
G04 #@! TA.AperFunction,SMDPad,CuDef*
%ADD26R,0.8X0.75*%
%ADD27R,0.95X0.9*%
%AMOUTLINE28*4,1,8,-0.5,-0.55,0.7,-0.55,0.7,0.55,-0.5,0.55,-0.5,0.75,-0.7,0.75,-0.7,-0.75,-0.5,-0.75,-0.5,-0.55,90.0*%
%ADD28OUTLINE28*%
%AMOUTLINE29*4,1,8,-0.5,-0.55,0.7,-0.55,0.7,0.55,-0.5,0.55,-0.5,0.75,-0.7,0.75,-0.7,-0.75,-0.5,-0.75,-0.5,-0.55,270.0*%
%ADD29OUTLINE29*%
%ADD30R,0.8X0.8*%
%ADD31R,0.9X0.95*%
G04 #@! TA.AperFunction,ComponentPad*
%ADD32R,2.19X1.587*%
G04 #@! TA.AperFunction,SMDPad,CuDef*
%AMROUNDEDRECT33*20,1,0.3,-0.26,0.0,0.26,0.0,90.0*20,1,0.15,-0.335,0.0,0.335,0.0,90.0*1,1,0.15,-0.075,-0.26*1,1,0.15,-0.075,0.26*1,1,0.15,0.075,0.26*1,1,0.15,0.075,-0.26*%
%ADD33ROUNDEDRECT33*%
%AMROTATEDRECT34*20,1,0.9,-0.475,0.0,0.475,0.0,135.0*%
%ADD34ROTATEDRECT34*%
G04 #@! TA.AperFunction,TestPad*
%ADD35C,2.5*%
G04 #@! TA.AperFunction,SMDPad,CuDef*
%AMOUTLINE36*4,1,10,-1.75,-4.75,-0.75,-4.25,0.25,-3.25,0.75,-2.25,0.75,2.25,0.25,3.25,-0.75,4.25,-1.75,4.75,-2.5,4.75,-2.5,-4.76,-1.75,-4.75,270.0*%
%ADD36OUTLINE36*%
%AMOUTLINE37*4,1,10,-1.75,-4.75,-0.75,-4.25,0.25,-3.25,0.75,-2.25,0.75,2.25,0.25,3.25,-0.75,4.25,-1.75,4.75,-2.5,4.75,-2.5,-4.76,-1.75,-4.75,90.0*%
%ADD37OUTLINE37*%
G04 #@! TA.AperFunction,ComponentPad*
%ADD38C,1.3*%
G04 #@! TA.AperFunction,ConnectorPad*
%ADD39R,1.3X7.2*%
G04 #@! TA.AperFunction,SMDPad,CuDef*
%AMROTATEDRECT40*20,1,0.8,-0.425,0.0,0.425,0.0,60.0*%
%ADD40ROTATEDRECT40*%
G04 #@! TA.AperFunction,ComponentPad*
%ADD41O,0.88X0.8*%
%ADD42O,2.0X4.0*%
G04 #@! TA.AperFunction,SMDPad,CuDef*
%AMROTATEDRECT43*20,1,0.9,-0.475,0.0,0.475,0.0,45.0*%
%ADD43ROTATEDRECT43*%
G04 #@! TA.AperFunction,ComponentPad*
%ADD44C,1.7*%
G04 #@! TA.AperFunction,SMDPad,CuDef*
%AMROUNDEDRECT45*20,1,0.8,-0.45,0.0,0.45,0.0,0.0*20,1,0.4,-0.65,0.0,0.65,0.0,0.0*1,1,0.4,-0.45,0.2*1,1,0.4,0.45,0.2*1,1,0.4,0.45,-0.2*1,1,0.4,-0.45,-0.2*%
%ADD45ROUNDEDRECT45*%
%AMROUNDEDRECT46*20,1,0.45,-0.5625,0.0,0.5625,0.0,90.0*20,1,0.225,-0.675,0.0,0.675,0.0,90.0*1,1,0.225,-0.1125,-0.5625*1,1,0.225,-0.1125,0.5625*1,1,0.225,0.1125,0.5625*1,1,0.225,0.1125,-0.5625*%
%ADD46ROUNDEDRECT46*%
G04 #@! TA.AperFunction,ComponentPad*
%ADD47O,2.19X1.587*%
G04 #@! TA.AperFunction,ViaPad*
%ADD48C,0.8*%
G04 #@! TA.AperFunction,Conductor*
%ADD49C,0.4*%
%ADD50C,0.8*%
%ADD51C,0.2*%
%ADD52C,0.3*%
%ADD53C,0.7*%
%ADD54C,1.0*%
%ADD55C,0.5*%
%ADD56C,0.25*%
%ADD57C,0.01*%
G04 #@! TD*
G04 --- APERTURE LIST END --- *
G04 --- BOARD BEGIN --- *
D10*
G04 #@! TO.N,N34*
G04 #@! TO.C,C18*
G04 #@! TO.P,C18,2,2*
X28975000Y105250000D03*
G04 #@! TO.N,N36*
G04 #@! TO.P,C18,1,1*
X27525000Y105250000D03*
D11*
G04 #@! TO.N,GND*
G04 #@! TO.C,XO1*
G04 #@! TO.P,XO1,2,GND*
X27100000Y136150000D03*
G04 #@! TO.N,IR_CLK_EN*
G04 #@! TO.P,XO1,1,Tri-State*
X24900000Y136150000D03*
G04 #@! TO.N,VCC*
G04 #@! TO.P,XO1,4,VDD*
X24900000Y137850000D03*
G04 #@! TO.N,N7*
G04 #@! TO.P,XO1,3,OUT*
X27100000Y137850000D03*
D12*
G04 #@! TO.N,A_PIN*
G04 #@! TO.C,A*
G04 #@! TO.P,A,1,1*
X12878680Y101621320D03*
D13*
G04 #@! TO.N,VCC*
G04 #@! TO.P,A,2,2*
X17121320Y97378680D03*
D14*
G04 #@! TO.N,TX*
G04 #@! TO.C,J1*
G04 #@! TO.P,J1,4,4*
X9440000Y80000000D03*
D15*
G04 #@! TO.N,VCC*
G04 #@! TO.P,J1,1,1*
X17060000Y80000000D03*
D14*
G04 #@! TO.N,RX*
G04 #@! TO.P,J1,3,3*
X11980000Y80000000D03*
G04 #@! TO.N,GND*
G04 #@! TO.P,J1,2,2*
X14520000Y80000000D03*
D16*
G04 #@! TO.N,VCC*
G04 #@! TO.C,R1*
G04 #@! TO.P,R1,2,2*
X29025000Y88250000D03*
G04 #@! TO.N,BOOT*
G04 #@! TO.P,R1,1,1*
X27475000Y88250000D03*
D17*
G04 #@! TO.N,VCC*
G04 #@! TO.C,U3*
G04 #@! TO.P,U3,5,VDDIO*
X13837500Y86250000D03*
G04 #@! TO.N,GND*
G04 #@! TO.P,U3,6,GND1*
X13837500Y85750000D03*
D18*
G04 #@! TO.N,N/C*
G04 #@! TO.P,U3,11,NC2*
X15500000Y84587500D03*
G04 #@! TO.N,GND*
G04 #@! TO.P,U3,2,SDx*
X15000000Y86912500D03*
G04 #@! TO.P,U3,3,SCx*
X14500000Y86912500D03*
D17*
G04 #@! TO.N,SCL*
G04 #@! TO.P,U3,13,SCL*
X15662500Y85750000D03*
D18*
G04 #@! TO.N,N10*
G04 #@! TO.P,U3,1,SDO/SD0*
X15500000Y86912500D03*
G04 #@! TO.N,N/C*
G04 #@! TO.P,U3,10,NC1*
X15000000Y84587500D03*
D17*
G04 #@! TO.N,VCC*
G04 #@! TO.P,U3,12,CS*
X15662500Y85250000D03*
G04 #@! TO.N,GND*
G04 #@! TO.P,U3,7,GND2*
X13837500Y85250000D03*
D18*
G04 #@! TO.N,N/C*
G04 #@! TO.P,U3,4,INT1*
X14000000Y86912500D03*
G04 #@! TO.P,U3,9,INT2*
X14500000Y84587500D03*
D17*
G04 #@! TO.N,SDA*
G04 #@! TO.P,U3,14,SDA*
X15662500Y86250000D03*
D18*
G04 #@! TO.N,VCC*
G04 #@! TO.P,U3,8,VDD*
X14000000Y84587500D03*
D16*
G04 #@! TO.N,JTAG_MTDI*
G04 #@! TO.C,R4*
G04 #@! TO.P,R4,2,2*
X13725000Y13000000D03*
G04 #@! TO.N,N3*
G04 #@! TO.P,R4,1,1*
X15275000Y13000000D03*
D19*
G04 #@! TO.N,BTN_I1*
G04 #@! TO.C,UP*
G04 #@! TO.P,UP,1,1*
X12171573Y130292893D03*
D20*
G04 #@! TO.N,N32*
G04 #@! TO.P,UP,2,2*
X17828427Y130292893D03*
D10*
G04 #@! TO.N,GND*
G04 #@! TO.C,C9*
G04 #@! TO.P,C9,2,2*
X12525000Y83250000D03*
G04 #@! TO.N,VCC*
G04 #@! TO.P,C9,1,1*
X13975000Y83250000D03*
D21*
G04 #@! TO.N,BOOT*
G04 #@! TO.C,BOOT_SW*
G04 #@! TO.P,BOOT_SW,1,1*
X23025000Y86750000D03*
D22*
G04 #@! TO.N,GND*
G04 #@! TO.P,BOOT_SW,2,2*
X27475000Y83250000D03*
G04 #@! TO.N,BOOT*
G04 #@! TO.P,BOOT_SW,1,1*
X27475000Y86750000D03*
D21*
G04 #@! TO.N,GND*
G04 #@! TO.P,BOOT_SW,2,2*
X23025000Y83250000D03*
D23*
G04 #@! TO.C,C8*
G04 #@! TO.P,C8,2,2*
X12500000Y85025000D03*
G04 #@! TO.N,VCC*
G04 #@! TO.P,C8,1,1*
X12500000Y86475000D03*
D24*
G04 #@! TO.N,N7*
G04 #@! TO.C,J2*
G04 #@! TO.P,J2,7,IR_CLK*
X12515000Y138030000D03*
G04 #@! TO.N,IR_RESET*
G04 #@! TO.P,J2,8,RESET*
X11515000Y136030000D03*
G04 #@! TO.N,VCC*
G04 #@! TO.P,J2,1,3.3V*
X18515000Y138030000D03*
D25*
G04 #@! TO.N,N/C*
G04 #@! TO.P,J2,PAD,PAD*
X20500000Y139100000D03*
D24*
G04 #@! TO.N,SCL*
G04 #@! TO.P,J2,5,SCL*
X14515000Y138030000D03*
G04 #@! TO.N,GND*
G04 #@! TO.P,J2,2,GND1*
X17515000Y136030000D03*
G04 #@! TO.P,J2,3,GND2*
X16515000Y138030000D03*
G04 #@! TO.N,N/C*
G04 #@! TO.P,J2,4,NC*
X15515000Y136030000D03*
D25*
G04 #@! TO.P,J2,PAD,PAD*
X9500000Y139100000D03*
D24*
G04 #@! TO.N,SDA*
G04 #@! TO.P,J2,6,SDA*
X13515000Y136030000D03*
D26*
G04 #@! TO.N,SPEAKER*
G04 #@! TO.C,R19*
G04 #@! TO.P,R19,2,2*
X21250000Y33775000D03*
G04 #@! TO.N,N31*
G04 #@! TO.P,R19,1,1*
X21250000Y32225000D03*
G04 #@! TO.N,VCC*
G04 #@! TO.C,R10*
G04 #@! TO.P,R10,2,2*
X22000000Y69775000D03*
G04 #@! TO.N,GPIO5*
G04 #@! TO.P,R10,1,1*
X22000000Y68225000D03*
G04 #@! TO.N,JTAG_MTDI*
G04 #@! TO.C,R15*
G04 #@! TO.P,R15,2,2*
X8000000Y15775000D03*
G04 #@! TO.N,N27*
G04 #@! TO.P,R15,1,1*
X8000000Y14225000D03*
G04 #@! TO.N,JTAG_MTDO*
G04 #@! TO.C,R18*
G04 #@! TO.P,R18,2,2*
X22000000Y15775000D03*
G04 #@! TO.N,N14*
G04 #@! TO.P,R18,1,1*
X22000000Y14225000D03*
D27*
G04 #@! TO.N,N5*
G04 #@! TO.C,D7*
G04 #@! TO.P,D7,A,A*
X18700000Y83175000D03*
G04 #@! TO.N,BTN_O2*
G04 #@! TO.P,D7,C,C*
X18700000Y86325000D03*
D16*
G04 #@! TO.N,JTAG_MTDO*
G04 #@! TO.C,R6*
G04 #@! TO.P,R6,2,2*
X26475000Y12000000D03*
G04 #@! TO.N,N1*
G04 #@! TO.P,R6,1,1*
X28025000Y12000000D03*
D10*
G04 #@! TO.N,N35*
G04 #@! TO.C,C14*
G04 #@! TO.P,C14,2,2*
X25225000Y32250000D03*
G04 #@! TO.N,N31*
G04 #@! TO.P,C14,1,1*
X23775000Y32250000D03*
D28*
G04 #@! TO.N,N15*
G04 #@! TO.C,POWER*
G04 #@! TO.P,POWER,1,1*
X4000000Y136525000D03*
D29*
G04 #@! TO.N,BTN_I3*
G04 #@! TO.P,POWER,2,2*
X7500000Y140975000D03*
G04 #@! TO.N,N15*
G04 #@! TO.P,POWER,1,1*
X4000000Y140975000D03*
D28*
G04 #@! TO.N,BTN_I3*
G04 #@! TO.P,POWER,2,2*
X7500000Y136525000D03*
D30*
G04 #@! TO.N,V_BAT_READ*
G04 #@! TO.C,L1*
G04 #@! TO.P,L1,1,1*
X9000000Y27000000D03*
G04 #@! TO.N,N29*
G04 #@! TO.P,L1,2,2*
X9000000Y28500000D03*
D26*
G04 #@! TO.N,VCC*
G04 #@! TO.C,R12*
G04 #@! TO.P,R12,2,2*
X18750000Y87975000D03*
G04 #@! TO.N,SDA*
G04 #@! TO.P,R12,1,1*
X18750000Y89525000D03*
D31*
G04 #@! TO.N,N28*
G04 #@! TO.C,D5*
G04 #@! TO.P,D5,A,A*
X19675000Y17750000D03*
G04 #@! TO.N,BTN_O4*
G04 #@! TO.P,D5,C,C*
X22825000Y17750000D03*
D26*
G04 #@! TO.N,N31*
G04 #@! TO.C,R7*
G04 #@! TO.P,R7,2,2*
X22500000Y32225000D03*
G04 #@! TO.N,GND*
G04 #@! TO.P,R7,1,1*
X22500000Y33775000D03*
D32*
G04 #@! TO.N,N34*
G04 #@! TO.C,J5*
G04 #@! TO.P,J5,1,1*
X27250000Y99500000D03*
D10*
G04 #@! TO.N,GND*
G04 #@! TO.C,C10*
G04 #@! TO.P,C10,2,2*
X24525000Y38750000D03*
G04 #@! TO.N,VCC*
G04 #@! TO.P,C10,1,1*
X25975000Y38750000D03*
D33*
G04 #@! TO.C,U5*
G04 #@! TO.P,U5,6,VOUT*
X6000000Y35740000D03*
G04 #@! TO.N,V_BAT_READ*
G04 #@! TO.P,U5,2,EN*
X6500000Y34260000D03*
G04 #@! TO.P,U5,3,VIN*
X7000000Y34260000D03*
G04 #@! TO.N,N29*
G04 #@! TO.P,U5,5,SW*
X6500000Y35740000D03*
G04 #@! TO.N,GND*
G04 #@! TO.P,U5,4,GND*
X7000000Y35740000D03*
G04 #@! TO.N,N30*
G04 #@! TO.P,U5,1,FB*
X6000000Y34260000D03*
D34*
G04 #@! TO.N,N33*
G04 #@! TO.C,D4*
G04 #@! TO.P,D4,A,A*
X27613693Y132613693D03*
G04 #@! TO.N,BTN_O4*
G04 #@! TO.P,D4,C,C*
X25386307Y130386307D03*
D30*
G04 #@! TO.N,N16*
G04 #@! TO.C,LED3*
G04 #@! TO.P,LED3,A,A*
X17750000Y14250000D03*
G04 #@! TO.N,GND*
G04 #@! TO.P,LED3,C,C*
X17750000Y12750000D03*
D27*
G04 #@! TO.N,N18*
G04 #@! TO.C,D9*
G04 #@! TO.P,D9,A,A*
X21300000Y83175000D03*
G04 #@! TO.N,BTN_O1*
G04 #@! TO.P,D9,C,C*
X21300000Y86325000D03*
D16*
G04 #@! TO.N,GND*
G04 #@! TO.C,R11*
G04 #@! TO.P,R11,2,2*
X14225000Y88250000D03*
G04 #@! TO.N,N10*
G04 #@! TO.P,R11,1,1*
X15775000Y88250000D03*
G04 #@! TO.N,VCC*
G04 #@! TO.C,R14*
G04 #@! TO.P,R14,2,2*
X13975000Y89750000D03*
G04 #@! TO.N,SCL*
G04 #@! TO.P,R14,1,1*
X15525000Y89750000D03*
G04 #@! TO.N,VCC*
G04 #@! TO.C,R24*
G04 #@! TO.P,R24,2,2*
X24975000Y105250000D03*
G04 #@! TO.N,N36*
G04 #@! TO.P,R24,1,1*
X26525000Y105250000D03*
D35*
G04 #@! TO.N,N8*
G04 #@! TO.C,LS1*
G04 #@! TO.P,LS1,2,2*
X23000000Y49000000D03*
G04 #@! TO.N,N26*
G04 #@! TO.P,LS1,1,1*
X20500000Y46500000D03*
D23*
G04 #@! TO.N,GND*
G04 #@! TO.C,C16*
G04 #@! TO.P,C16,2,2*
X3250000Y39475000D03*
G04 #@! TO.N,VCC*
G04 #@! TO.P,C16,1,1*
X3250000Y38025000D03*
D26*
G04 #@! TO.C,R20*
G04 #@! TO.P,R20,2,2*
X3250000Y37025000D03*
G04 #@! TO.N,N30*
G04 #@! TO.P,R20,1,1*
X3250000Y35475000D03*
D23*
G04 #@! TO.N,GND*
G04 #@! TO.C,C17*
G04 #@! TO.P,C17,2,2*
X6500000Y28275000D03*
G04 #@! TO.N,V_BAT_READ*
G04 #@! TO.P,C17,1,1*
X6500000Y29725000D03*
D36*
G04 #@! TO.N,N23*
G04 #@! TO.C,LEFT*
G04 #@! TO.P,LEFT,1,1*
X6207107Y118671573D03*
D37*
G04 #@! TO.N,BTN_I1*
G04 #@! TO.P,LEFT,2,2*
X6207107Y124328427D03*
D26*
G04 #@! TO.N,JTAG_MTMS*
G04 #@! TO.C,R17*
G04 #@! TO.P,R17,2,2*
X19000000Y15775000D03*
G04 #@! TO.N,N16*
G04 #@! TO.P,R17,1,1*
X19000000Y14225000D03*
D34*
G04 #@! TO.N,N32*
G04 #@! TO.C,D1*
G04 #@! TO.P,D1,A,A*
X26113693Y134113693D03*
G04 #@! TO.N,BTN_O1*
G04 #@! TO.P,D1,C,C*
X23886307Y131886307D03*
D30*
G04 #@! TO.N,N25*
G04 #@! TO.C,LED2*
G04 #@! TO.P,LED2,A,A*
X12250000Y14250000D03*
G04 #@! TO.N,GND*
G04 #@! TO.P,LED2,C,C*
X12250000Y12750000D03*
D27*
G04 #@! TO.N,N23*
G04 #@! TO.C,D3*
G04 #@! TO.P,D3,A,A*
X3250000Y108075000D03*
G04 #@! TO.N,BTN_O3*
G04 #@! TO.P,D3,C,C*
X3250000Y104925000D03*
D26*
G04 #@! TO.N,JTAG_MTCK*
G04 #@! TO.C,R16*
G04 #@! TO.P,R16,2,2*
X11000000Y15775000D03*
G04 #@! TO.N,N25*
G04 #@! TO.P,R16,1,1*
X11000000Y14225000D03*
D31*
G04 #@! TO.N,N34*
G04 #@! TO.C,D13*
G04 #@! TO.P,D13,A,A*
X29075000Y106750000D03*
G04 #@! TO.N,N36*
G04 #@! TO.P,D13,C,C*
X25925000Y106750000D03*
G04 #@! TO.N,N6*
G04 #@! TO.C,D11*
G04 #@! TO.P,D11,A,A*
X25675000Y108750000D03*
G04 #@! TO.N,BTN_O3*
G04 #@! TO.P,D11,C,C*
X28825000Y108750000D03*
D23*
G04 #@! TO.N,GND*
G04 #@! TO.C,C12*
G04 #@! TO.P,C12,2,2*
X25000000Y48975000D03*
G04 #@! TO.N,N26*
G04 #@! TO.P,C12,1,1*
X25000000Y47525000D03*
D38*
G04 #@! TO.N,SCL*
G04 #@! TO.C,J3*
G04 #@! TO.P,J3,2,SCL*
X17000000Y7500000D03*
D39*
G04 #@! TO.N,GND*
G04 #@! TO.P,J3,6,GND*
X13000000Y2500000D03*
D38*
G04 #@! TO.N,SDA*
G04 #@! TO.P,J3,5,SDA*
X13000000Y9500000D03*
G04 #@! TO.N,VCC*
G04 #@! TO.P,J3,1,3.3V*
X17000000Y9500000D03*
G04 #@! TO.N,EXT_Sense*
G04 #@! TO.P,J3,3,Sense*
X15000000Y9500000D03*
G04 #@! TO.N,GND*
G04 #@! TO.P,J3,6,GND*
X13000000Y7500000D03*
G04 #@! TO.N,N/C*
G04 #@! TO.P,J3,4,NC*
X15000000Y7500000D03*
D39*
G04 #@! TO.N,SCL*
G04 #@! TO.P,J3,2,SCL*
X17000000Y2500000D03*
D20*
G04 #@! TO.N,BTN_I1*
G04 #@! TO.C,DOWN*
G04 #@! TO.P,DOWN,1,1*
X17828427Y112707107D03*
D19*
G04 #@! TO.N,N21*
G04 #@! TO.P,DOWN,2,2*
X12171573Y112707107D03*
D30*
G04 #@! TO.N,N27*
G04 #@! TO.C,LED1*
G04 #@! TO.P,LED1,A,A*
X6750000Y14250000D03*
G04 #@! TO.N,GND*
G04 #@! TO.P,LED1,C,C*
X6750000Y12750000D03*
D23*
G04 #@! TO.C,C6*
G04 #@! TO.P,C6,2,2*
X8000000Y84275000D03*
G04 #@! TO.N,EN*
G04 #@! TO.P,C6,1,1*
X8000000Y85725000D03*
D32*
G04 #@! TO.N,N36*
G04 #@! TO.C,J6*
G04 #@! TO.P,J6,1,1*
X27250000Y102500000D03*
D40*
G04 #@! TO.N,GND*
G04 #@! TO.C,C13*
G04 #@! TO.P,C13,2,2*
X27112500Y48627868D03*
G04 #@! TO.N,N8*
G04 #@! TO.P,C13,1,1*
X26387500Y47372132D03*
D21*
G04 #@! TO.N,EN*
G04 #@! TO.C,EN_SW*
G04 #@! TO.P,EN_SW,1,1*
X2275000Y86750000D03*
D22*
G04 #@! TO.N,GND*
G04 #@! TO.P,EN_SW,2,2*
X6725000Y83250000D03*
G04 #@! TO.N,EN*
G04 #@! TO.P,EN_SW,1,1*
X6725000Y86750000D03*
D21*
G04 #@! TO.N,GND*
G04 #@! TO.P,EN_SW,2,2*
X2275000Y83250000D03*
D41*
G04 #@! TO.N,V_BAT_READ*
G04 #@! TO.C,J4*
G04 #@! TO.P,J4,plus,+*
X7250000Y30500000D03*
G04 #@! TO.N,GND*
G04 #@! TO.P,J4,minus,-*
X22750000Y29500000D03*
D42*
G04 #@! TO.N,V_BAT_READ*
G04 #@! TO.P,J4,plus,+*
X2750000Y29250000D03*
G04 #@! TO.N,GND*
G04 #@! TO.P,J4,minus,-*
X27250000Y28250000D03*
D30*
G04 #@! TO.N,N14*
G04 #@! TO.C,LED4*
G04 #@! TO.P,LED4,A,A*
X23250000Y14250000D03*
G04 #@! TO.N,GND*
G04 #@! TO.P,LED4,C,C*
X23250000Y12750000D03*
D13*
G04 #@! TO.N,N24*
G04 #@! TO.C,ONE*
G04 #@! TO.P,ONE,1,1*
X17121320Y34878680D03*
D12*
G04 #@! TO.N,BTN_I2*
G04 #@! TO.P,ONE,2,2*
X12878680Y39121320D03*
D26*
G04 #@! TO.N,GND*
G04 #@! TO.C,R22*
G04 #@! TO.P,R22,2,2*
X25250000Y94475000D03*
G04 #@! TO.N,N37*
G04 #@! TO.P,R22,1,1*
X25250000Y96025000D03*
D10*
G04 #@! TO.N,GND*
G04 #@! TO.C,C15*
G04 #@! TO.P,C15,2,2*
X23525000Y31000000D03*
G04 #@! TO.N,N9*
G04 #@! TO.P,C15,1,1*
X24975000Y31000000D03*
D26*
G04 #@! TO.N,JTAG_MTMS*
G04 #@! TO.C,R3*
G04 #@! TO.P,R3,2,2*
X23000000Y19475000D03*
G04 #@! TO.N,N4*
G04 #@! TO.P,R3,1,1*
X23000000Y21025000D03*
D16*
G04 #@! TO.N,VCC*
G04 #@! TO.C,R2*
G04 #@! TO.P,R2,2,2*
X9775000Y87750000D03*
G04 #@! TO.N,EN*
G04 #@! TO.P,R2,1,1*
X8225000Y87750000D03*
D27*
G04 #@! TO.N,N17*
G04 #@! TO.C,D10*
G04 #@! TO.P,D10,A,A*
X9750000Y83175000D03*
G04 #@! TO.N,BTN_O2*
G04 #@! TO.P,D10,C,C*
X9750000Y86325000D03*
D21*
G04 #@! TO.N,N5*
G04 #@! TO.C,HOME*
G04 #@! TO.P,HOME,1,1*
X12775000Y76750000D03*
D22*
G04 #@! TO.N,BTN_I2*
G04 #@! TO.P,HOME,2,2*
X17225000Y73250000D03*
G04 #@! TO.N,N5*
G04 #@! TO.P,HOME,1,1*
X17225000Y76750000D03*
D21*
G04 #@! TO.N,BTN_I2*
G04 #@! TO.P,HOME,2,2*
X12775000Y73250000D03*
D43*
G04 #@! TO.N,N24*
G04 #@! TO.C,D6*
G04 #@! TO.P,D6,A,A*
X19136307Y29363693D03*
G04 #@! TO.N,BTN_O3*
G04 #@! TO.P,D6,C,C*
X21363693Y27136307D03*
D13*
G04 #@! TO.N,N28*
G04 #@! TO.C,TWO*
G04 #@! TO.P,TWO,1,1*
X17121320Y21128680D03*
D12*
G04 #@! TO.N,BTN_I2*
G04 #@! TO.P,TWO,2,2*
X12878680Y25371320D03*
D21*
G04 #@! TO.N,N18*
G04 #@! TO.C,PLUS*
G04 #@! TO.P,PLUS,1,1*
X22775000Y76750000D03*
D22*
G04 #@! TO.N,BTN_I3*
G04 #@! TO.P,PLUS,2,2*
X27225000Y73250000D03*
G04 #@! TO.N,N18*
G04 #@! TO.P,PLUS,1,1*
X27225000Y76750000D03*
D21*
G04 #@! TO.N,BTN_I3*
G04 #@! TO.P,PLUS,2,2*
X22775000Y73250000D03*
D16*
G04 #@! TO.N,N37*
G04 #@! TO.C,R23*
G04 #@! TO.P,R23,2,2*
X25275000Y97250000D03*
G04 #@! TO.N,RUMBLE*
G04 #@! TO.P,R23,1,1*
X23725000Y97250000D03*
D44*
G04 #@! TO.N,BTN_I2*
G04 #@! TO.C,SYNC*
G04 #@! TO.P,SYNC,3,2*
X6750000Y25250000D03*
G04 #@! TO.N,N19*
G04 #@! TO.P,SYNC,2,1*
X2250000Y18750000D03*
G04 #@! TO.P,SYNC,1,1*
X2250000Y25250000D03*
G04 #@! TO.N,BTN_I2*
G04 #@! TO.P,SYNC,4,2*
X6750000Y18750000D03*
D23*
G04 #@! TO.N,VCC*
G04 #@! TO.C,C1*
G04 #@! TO.P,C1,2,2*
X4250000Y50225000D03*
G04 #@! TO.N,GND*
G04 #@! TO.P,C1,1,1*
X4250000Y48775000D03*
D10*
G04 #@! TO.C,C11*
G04 #@! TO.P,C11,2,2*
X24525000Y40000000D03*
G04 #@! TO.N,VCC*
G04 #@! TO.P,C11,1,1*
X25975000Y40000000D03*
D21*
G04 #@! TO.N,N17*
G04 #@! TO.C,MINUS*
G04 #@! TO.P,MINUS,1,1*
X2775000Y76750000D03*
D22*
G04 #@! TO.N,BTN_I3*
G04 #@! TO.P,MINUS,2,2*
X7225000Y73250000D03*
G04 #@! TO.N,N17*
G04 #@! TO.P,MINUS,1,1*
X7225000Y76750000D03*
D21*
G04 #@! TO.N,BTN_I3*
G04 #@! TO.P,MINUS,2,2*
X2775000Y73250000D03*
D26*
G04 #@! TO.N,JTAG_MTCK*
G04 #@! TO.C,R5*
G04 #@! TO.P,R5,2,2*
X29000000Y14225000D03*
G04 #@! TO.N,N2*
G04 #@! TO.P,R5,1,1*
X29000000Y15775000D03*
D37*
G04 #@! TO.N,N33*
G04 #@! TO.C,RIGHT*
G04 #@! TO.P,RIGHT,1,1*
X23792893Y124328427D03*
D36*
G04 #@! TO.N,BTN_I1*
G04 #@! TO.P,RIGHT,2,2*
X23792893Y118671573D03*
D27*
G04 #@! TO.N,N21*
G04 #@! TO.C,D2*
G04 #@! TO.P,D2,A,A*
X5250000Y108575000D03*
G04 #@! TO.N,BTN_O2*
G04 #@! TO.P,D2,C,C*
X5250000Y105425000D03*
D45*
G04 #@! TO.N,GND*
G04 #@! TO.C,Q1*
G04 #@! TO.P,Q1,2,E*
X26650000Y95300000D03*
G04 #@! TO.N,N34*
G04 #@! TO.P,Q1,3,C*
X28850000Y96250000D03*
G04 #@! TO.N,N37*
G04 #@! TO.P,Q1,1,B*
X26650000Y97200000D03*
D26*
G04 #@! TO.N,GND*
G04 #@! TO.C,R9*
G04 #@! TO.P,R9,2,2*
X20750000Y69775000D03*
G04 #@! TO.N,GPIO2*
G04 #@! TO.P,R9,1,1*
X20750000Y68225000D03*
D46*
G04 #@! TO.N,GND*
G04 #@! TO.C,U4*
G04 #@! TO.P,U4,7,GND*
X24925000Y37475000D03*
G04 #@! TO.N,N26*
G04 #@! TO.P,U4,8,OUT-*
X24275000Y37475000D03*
G04 #@! TO.N,VCC*
G04 #@! TO.P,U4,1,!SD*
X24275000Y33525000D03*
G04 #@! TO.N,N9*
G04 #@! TO.P,U4,4,IN-*
X26225000Y33525000D03*
G04 #@! TO.N,N35*
G04 #@! TO.P,U4,3,IN+*
X25575000Y33525000D03*
G04 #@! TO.N,N/C*
G04 #@! TO.P,U4,2*
X24925000Y33525000D03*
G04 #@! TO.N,VCC*
G04 #@! TO.P,U4,6,VCC*
X25575000Y37475000D03*
G04 #@! TO.N,N8*
G04 #@! TO.P,U4,5,OUT+*
X26225000Y37475000D03*
D26*
G04 #@! TO.N,N30*
G04 #@! TO.C,R21*
G04 #@! TO.P,R21,2,2*
X5000000Y33725000D03*
G04 #@! TO.N,GND*
G04 #@! TO.P,R21,1,1*
X5000000Y35275000D03*
D23*
G04 #@! TO.N,VCC*
G04 #@! TO.C,C3*
G04 #@! TO.P,C3,2,2*
X3000000Y50225000D03*
G04 #@! TO.N,GND*
G04 #@! TO.P,C3,1,1*
X3000000Y48775000D03*
D43*
G04 #@! TO.N,N19*
G04 #@! TO.C,D8*
G04 #@! TO.P,D8,A,A*
X2386307Y16613693D03*
G04 #@! TO.N,BTN_O1*
G04 #@! TO.P,D8,C,C*
X4613693Y14386307D03*
D27*
G04 #@! TO.N,N15*
G04 #@! TO.C,D12*
G04 #@! TO.P,D12,A,A*
X1250000Y109075000D03*
G04 #@! TO.N,BTN_O4*
G04 #@! TO.P,D12,C,C*
X1250000Y105925000D03*
D16*
G04 #@! TO.N,A_PIN*
G04 #@! TO.C,R13*
G04 #@! TO.P,R13,2,2*
X4025000Y102750000D03*
G04 #@! TO.N,GND*
G04 #@! TO.P,R13,1,1*
X2475000Y102750000D03*
D23*
G04 #@! TO.C,C2*
G04 #@! TO.P,C2,2,2*
X1000000Y84275000D03*
G04 #@! TO.N,EN*
G04 #@! TO.P,C2,1,1*
X1000000Y85725000D03*
D47*
G04 #@! TO.N,N1*
G04 #@! TO.C,JTAG*
G04 #@! TO.P,JTAG,4,4*
X26750000Y14190000D03*
D32*
G04 #@! TO.N,N4*
G04 #@! TO.P,JTAG,1,1*
X26750000Y21810000D03*
D47*
G04 #@! TO.N,N2*
G04 #@! TO.P,JTAG,3,3*
X26750000Y16730000D03*
G04 #@! TO.N,N3*
G04 #@! TO.P,JTAG,2,2*
X26750000Y19270000D03*
D23*
G04 #@! TO.N,GND*
G04 #@! TO.C,C7*
G04 #@! TO.P,C7,2,2*
X29000000Y85275000D03*
G04 #@! TO.N,BOOT*
G04 #@! TO.P,C7,1,1*
X29000000Y86725000D03*
D48*
G04 #@! TD.C*
G04 #@! TD.P*
G04 #@! TO.N,GND*
X10750000Y60750000D03*
D49*
G04 #@! TO.N,N32*
X26113693Y134113693D02*
X21649227Y134113693D01*
X17828427Y130292893D02*
X21649227Y134113693D01*
D50*
G04 #@! TO.N,N1*
X28025000Y12000000D02*
X28025000Y12915000D01*
X26750000Y14190000D02*
X28025000Y12915000D01*
D48*
G04 #@! TO.N,BOOT*
X27500000Y85750000D03*
X22500000Y65500000D03*
X23000000Y85750000D03*
D50*
X27975000Y86750000D02*
X27500000Y86750000D01*
D51*
X27500000Y69500000D02*
X29500000Y71500000D01*
X27500000Y69500000D02*
X25750000Y69500000D01*
X29500000Y83250000D02*
X27500000Y85250000D01*
D50*
X27500000Y85750000D02*
X27500000Y86750000D01*
X23000000Y85750000D02*
X23000000Y86750000D01*
X27475000Y88250000D02*
X27475000Y86750000D01*
X27475000Y86750000D02*
X29000000Y86725000D01*
D51*
X22500000Y65500000D02*
X22500000Y66250000D01*
X29500000Y83250000D02*
X29500000Y71500000D01*
X25750000Y69500000D02*
X22500000Y66250000D01*
X27500000Y85750000D02*
X27500000Y85250000D01*
D50*
X27475000Y86750000D02*
X27500000Y86750000D01*
X23025000Y86750000D02*
X23000000Y86750000D01*
D48*
G04 #@! TO.N,GND*
X26250000Y57000000D03*
X4000000Y47750000D03*
G04 #@! TO.N,JTAG_MTDO*
X20250000Y65250000D03*
X26000000Y12000000D03*
X23250000Y15750000D03*
D51*
X28500000Y32500000D02*
X28500000Y54500000D01*
X25000000Y62750000D02*
X26000000Y62750000D01*
X22000000Y15775000D02*
X23250000Y15750000D01*
D50*
X26475000Y12000000D02*
X26000000Y12000000D01*
D51*
X29000000Y56500000D02*
X29000000Y62500000D01*
X28500000Y63000000D02*
X26250000Y63000000D01*
X23750000Y27750000D02*
X28500000Y32500000D01*
X23250000Y15750000D02*
X23750000Y16250000D01*
X23250000Y63500000D02*
X21500000Y65250000D01*
X24000000Y62750000D02*
X23250000Y63500000D01*
X28000000Y55000000D02*
X28500000Y54500000D01*
X23750000Y27750000D02*
X23750000Y16250000D01*
X26000000Y62750000D02*
X26250000Y63000000D01*
X25000000Y62750000D02*
X24000000Y62750000D01*
X28500000Y63000000D02*
X29000000Y62500000D01*
X20250000Y65250000D02*
X21500000Y65250000D01*
X28000000Y55000000D02*
X28000000Y55500000D01*
X29000000Y56500000D02*
X28000000Y55500000D01*
D48*
G04 #@! TO.N,GND*
X29250000Y84500000D03*
D50*
X29250000Y84500000D02*
X29250000Y85025000D01*
X29000000Y85275000D02*
X29250000Y85025000D01*
D48*
X25250000Y53000000D03*
X28250000Y59000000D03*
X27250000Y59000000D03*
X26750000Y52250000D03*
X20000000Y54250000D03*
X25250000Y60500000D03*
X5250000Y68750000D03*
X19000000Y54250000D03*
X15250000Y52000000D03*
D50*
G04 #@! TO.N,N2*
X29000000Y15775000D02*
X28045000Y16730000D01*
X26750000Y16730000D02*
X28045000Y16730000D01*
D48*
G04 #@! TO.N,GND*
X15750000Y52750000D03*
X9000000Y64250000D03*
X24750000Y36250000D03*
D51*
X24525000Y38750000D02*
X24525000Y40000000D01*
X24525000Y38750000D02*
X24925000Y38350000D01*
X24925000Y37475000D02*
X24925000Y36425000D01*
X24750000Y36250000D02*
X24925000Y36425000D01*
X24925000Y37475000D02*
X24925000Y38350000D01*
D48*
X1250000Y62500000D03*
X21250000Y50500000D03*
X22000000Y63500000D03*
X20250000Y50500000D03*
D50*
G04 #@! TO.N,N36*
X26525000Y105250000D02*
X27500000Y105250000D01*
X25925000Y106750000D02*
X26525000Y106150000D01*
X27500000Y102750000D02*
X27500000Y105250000D01*
X27525000Y105250000D02*
X27500000Y105250000D01*
X26525000Y105250000D02*
X26525000Y106150000D01*
X27250000Y102500000D02*
X27500000Y102750000D01*
D48*
G04 #@! TO.N,GND*
X6500000Y36750000D03*
D51*
X7000000Y35740000D02*
X7000000Y36250000D01*
X6500000Y36750000D02*
X7000000Y36250000D01*
D48*
X25250000Y54500000D03*
X9500000Y59500000D03*
X4000000Y53000000D03*
X750000Y63250000D03*
X3750000Y63250000D03*
D52*
G04 #@! TO.N,N23*
X6207107Y118671573D02*
X7250000Y117628680D01*
X6500000Y113500000D02*
X6500000Y111575000D01*
X7250000Y117628680D02*
X7250000Y114250000D01*
X6000000Y109500000D02*
X4675000Y109500000D01*
X3250000Y108075000D02*
X4675000Y109500000D01*
X6500000Y113500000D02*
X7250000Y114250000D01*
X6500000Y110000000D02*
X6500000Y111575000D01*
X6000000Y109500000D02*
X6500000Y110000000D01*
D48*
G04 #@! TO.N,GND*
X20500000Y58750000D03*
X3250000Y53500000D03*
X28250000Y57500000D03*
X14750000Y86000000D03*
D51*
X14750000Y86000000D02*
X14500000Y85750000D01*
D52*
X15000000Y86912500D02*
X14750000Y86000000D01*
X14225000Y88250000D02*
X14500000Y87725000D01*
X14750000Y86000000D02*
X14750000Y85750000D01*
X14500000Y86912500D02*
X14500000Y87725000D01*
D51*
X13837500Y85750000D02*
X14500000Y85750000D01*
D52*
X15000000Y86912500D02*
X14500000Y86912500D01*
D48*
X2250000Y62500000D03*
X10250000Y50500000D03*
X1750000Y63250000D03*
G04 #@! TO.N,N18*
X27250000Y75750000D03*
X22750000Y75750000D03*
D53*
X21250000Y78275000D02*
X22750000Y76775000D01*
X21300000Y83175000D02*
X21250000Y78275000D01*
D50*
X22750000Y75750000D02*
X22750000Y76775000D01*
X27250000Y75750000D02*
X27250000Y76725000D01*
X27225000Y76750000D02*
X27250000Y76725000D01*
X22775000Y76750000D02*
X22750000Y76775000D01*
G04 #@! TO.N,N19*
X2386307Y16613693D02*
X2250000Y16750000D01*
X2250000Y18750000D02*
X2250000Y25250000D01*
X2250000Y18750000D02*
X2250000Y16750000D01*
D48*
G04 #@! TO.N,GND*
X14750000Y51250000D03*
G04 #@! TO.N,BTN_I2*
X27500000Y56000000D03*
X19250000Y62000000D03*
X12750000Y74250000D03*
X17250000Y74250000D03*
D51*
X28000000Y32750000D02*
X28000000Y54250000D01*
D50*
X6000000Y19500000D02*
X6000000Y24500000D01*
X12878680Y25371320D02*
X12878680Y27628680D01*
D51*
X12757360Y27750000D02*
X20750000Y27750000D01*
D50*
X6750000Y25250000D02*
X6000000Y24500000D01*
D51*
X27500000Y56000000D02*
X27500000Y54750000D01*
D50*
X12750000Y74250000D02*
X12750000Y73275000D01*
X12775000Y73250000D02*
X12750000Y73275000D01*
X12878680Y39121320D02*
X11750000Y37992640D01*
X11750000Y37992640D02*
X11750000Y28757360D01*
D51*
X20000000Y70750000D02*
X20000000Y67500000D01*
X21250000Y28250000D02*
X20750000Y27750000D01*
X6750000Y25250000D02*
X7250000Y24750000D01*
D50*
X6750000Y18750000D02*
X6000000Y19500000D01*
D51*
X7250000Y24750000D02*
X12257360Y24750000D01*
X12878680Y25371320D02*
X12257360Y24750000D01*
X28000000Y32750000D02*
X23500000Y28250000D01*
X17225000Y73250000D02*
X17475000Y73275000D01*
X20000000Y67500000D02*
X18250000Y65750000D01*
D50*
X17225000Y73250000D02*
X17250000Y74250000D01*
X12878680Y27628680D02*
X12757360Y27750000D01*
D51*
X21250000Y28250000D02*
X23500000Y28250000D01*
X19250000Y62000000D02*
X18250000Y63000000D01*
D50*
X12757360Y27750000D02*
X11750000Y28757360D01*
D51*
X20000000Y70750000D02*
X17475000Y73275000D01*
X18250000Y65750000D02*
X18250000Y63000000D01*
X27500000Y54750000D02*
X28000000Y54250000D01*
D48*
G04 #@! TO.N,GND*
X8250000Y57000000D03*
D49*
G04 #@! TO.N,N9*
X26225000Y33525000D02*
X26225000Y31725000D01*
X25500000Y31000000D02*
X26225000Y31725000D01*
X24975000Y31000000D02*
X25500000Y31000000D01*
D48*
G04 #@! TO.N,GND*
X27250000Y50750000D03*
X19750000Y51250000D03*
D51*
G04 #@! TO.N,N21*
X9000000Y110500000D02*
X8000000Y110500000D01*
X5250000Y108575000D02*
X6075000Y108575000D01*
X8000000Y110500000D02*
X6075000Y108575000D01*
X9000000Y110500000D02*
X11207107Y112707107D01*
X12171573Y112707107D02*
X11207107Y112707107D01*
D48*
G04 #@! TO.N,GND*
X21180000Y63500000D03*
X26750000Y53750000D03*
D51*
G04 #@! TO.N,N8*
X27475000Y46275000D02*
X26250000Y47500000D01*
X23750000Y48250000D02*
X25724696Y48250000D01*
X27475000Y46275000D02*
X27475000Y38725000D01*
X26225000Y37475000D02*
X27475000Y38725000D01*
X26387500Y47372132D02*
X26250000Y47500000D01*
X26387500Y47372132D02*
X25724696Y48250000D01*
X23000000Y49000000D02*
X23750000Y48250000D01*
D48*
G04 #@! TO.N,BTN_O2*
X10750000Y75750000D03*
X11000000Y57500000D03*
X10500000Y74250000D03*
X5500000Y93500000D03*
X4750000Y104750000D03*
D51*
X16325000Y89000000D02*
X9500000Y89000000D01*
X10750000Y75750000D02*
X10750000Y85325000D01*
X6500000Y89000000D02*
X5500000Y90000000D01*
X18700000Y86325000D02*
X16325000Y89000000D01*
X9000000Y87075000D02*
X9000000Y88500000D01*
X9250000Y89000000D02*
X9000000Y88750000D01*
X5250000Y105425000D02*
X4750000Y104925000D01*
X9000000Y88750000D02*
X8750000Y89000000D01*
X4750000Y104750000D02*
X4750000Y104925000D01*
X9250000Y89000000D02*
X9500000Y89000000D01*
X8750000Y89000000D02*
X9000000Y89000000D01*
X9500000Y89000000D02*
X9000000Y88500000D01*
X9750000Y86325000D02*
X9000000Y87075000D01*
X9250000Y89000000D02*
X9000000Y89000000D01*
X9000000Y88750000D02*
X9000000Y89000000D01*
X8750000Y89000000D02*
X8500000Y89000000D01*
X12250000Y69750000D02*
X10250000Y71750000D01*
X6500000Y89000000D02*
X8500000Y89000000D01*
X10500000Y74250000D02*
X10250000Y73750000D01*
X12250000Y69750000D02*
X12250000Y58750000D01*
X9000000Y88750000D02*
X9000000Y88500000D01*
X5500000Y93500000D02*
X5500000Y90000000D01*
X9000000Y88500000D02*
X8500000Y89000000D01*
X10250000Y73750000D02*
X10250000Y71750000D01*
X11000000Y57500000D02*
X12250000Y58750000D01*
X9750000Y86325000D02*
X10750000Y85325000D01*
D48*
G04 #@! TO.N,GND*
X15250000Y55250000D03*
G04 #@! TO.N,N4*
X23000000Y21750000D03*
D50*
X23000000Y21025000D02*
X23000000Y21750000D01*
D48*
G04 #@! TO.N,GND*
X19500000Y59000000D03*
X19000000Y55750000D03*
X18750000Y52750000D03*
D50*
G04 #@! TO.N,N14*
X23250000Y14250000D02*
X23225000Y14225000D01*
X22000000Y14225000D02*
X23225000Y14225000D01*
D48*
G04 #@! TO.N,GND*
X21250000Y52000000D03*
X22750000Y31000000D03*
D53*
X23525000Y31000000D02*
X22750000Y31000000D01*
D50*
G04 #@! TO.N,N28*
X17121320Y21128680D02*
X17121320Y20303680D01*
X19675000Y17750000D02*
X17121320Y20303680D01*
D48*
G04 #@! TO.N,GND*
X3250000Y51500000D03*
G04 #@! TO.N,BTN_I1*
X18250000Y62000000D03*
X17750000Y117000000D03*
X19500000Y118750000D03*
X18500000Y103250000D03*
X20000000Y71750000D03*
X10500000Y124250000D03*
X19750000Y106250000D03*
X12250000Y126000000D03*
X19250000Y70250000D03*
D51*
X17750000Y66000000D02*
X19250000Y67500000D01*
X19500000Y98750000D02*
X19500000Y98250000D01*
D49*
X17828427Y112707107D02*
X17823135Y108176865D01*
X6207107Y124328427D02*
X10500000Y124250000D01*
D51*
X17750000Y66000000D02*
X17750000Y62500000D01*
X19500000Y102250000D02*
X19500000Y98750000D01*
X19250000Y70250000D02*
X19250000Y67500000D01*
X18250000Y76000000D02*
X18250000Y73500000D01*
D49*
X12171573Y130292893D02*
X12250000Y126000000D01*
D51*
X18250000Y76000000D02*
X19500000Y77250000D01*
X18500000Y103250000D02*
X19500000Y102250000D01*
D49*
X17828427Y112707107D02*
X17750000Y117000000D01*
D51*
X19500000Y77250000D02*
X19500000Y98250000D01*
D49*
X19750000Y106250000D02*
X17823135Y108176865D01*
D51*
X20000000Y71750000D02*
X18250000Y73500000D01*
X18250000Y62000000D02*
X17750000Y62500000D01*
D49*
X23792893Y118671573D02*
X19500000Y118750000D01*
D48*
G04 #@! TO.N,N3*
X19750000Y13000000D03*
D51*
X16000000Y13500000D02*
X15500000Y13000000D01*
X19750000Y13000000D02*
X19250000Y13500000D01*
X19250000Y13500000D02*
X16000000Y13500000D01*
X15275000Y13000000D02*
X15500000Y13000000D01*
D48*
G04 #@! TO.N,GND*
X4750000Y52500000D03*
X18250000Y50500000D03*
X21750000Y57500000D03*
X12750000Y51250000D03*
X13750000Y51250000D03*
G04 #@! TO.N,IR_RESET*
X24750000Y107000000D03*
X18500000Y121500000D03*
X16000000Y124750000D03*
X20500000Y62750000D03*
X25750000Y110000000D03*
D51*
X29000000Y71750000D02*
X27250000Y70000000D01*
X26250000Y92250000D02*
X24500000Y94000000D01*
D52*
X11000000Y135515000D02*
X11000000Y126000000D01*
D51*
X24500000Y94000000D02*
X24500000Y104500000D01*
X21500000Y66000000D02*
X25500000Y70000000D01*
X25500000Y110250000D02*
X25500000Y111500000D01*
X25500000Y70000000D02*
X27250000Y70000000D01*
X29000000Y79750000D02*
X29000000Y71750000D01*
X24250000Y104750000D02*
X24250000Y106500000D01*
X26250000Y92250000D02*
X26250000Y82500000D01*
D52*
X16000000Y124750000D02*
X12000000Y125000000D01*
D51*
X25750000Y110000000D02*
X25500000Y110250000D01*
X19250000Y64000000D02*
X19250000Y65250000D01*
X18500000Y118500000D02*
X25500000Y111500000D01*
X19250000Y65250000D02*
X20000000Y66000000D01*
X21500000Y66000000D02*
X20000000Y66000000D01*
X24250000Y104750000D02*
X24500000Y104500000D01*
X18500000Y121500000D02*
X18500000Y118500000D01*
D52*
X11515000Y136030000D02*
X11000000Y135515000D01*
D51*
X29000000Y79750000D02*
X26250000Y82500000D01*
X24750000Y107000000D02*
X24250000Y106500000D01*
X20500000Y62750000D02*
X19250000Y64000000D01*
D52*
X12000000Y125000000D02*
X11000000Y126000000D01*
D48*
G04 #@! TO.N,GND*
X25750000Y57750000D03*
D49*
G04 #@! TO.N,N35*
X25575000Y33525000D02*
X25575000Y32600000D01*
X25225000Y32250000D02*
X25575000Y32600000D01*
D48*
G04 #@! TO.N,A_PIN*
X10500000Y63250000D03*
D51*
X4000000Y101500000D02*
X4000000Y102250000D01*
X9500000Y70000000D02*
X7750000Y70000000D01*
X7750000Y70000000D02*
X7750000Y70000000D01*
X10750000Y68750000D02*
X10750000Y63500000D01*
X4000000Y101500000D02*
X4750000Y101500000D01*
X4750000Y101500000D02*
X12757360Y101500000D01*
X9500000Y70000000D02*
X10750000Y68750000D01*
X12878680Y101621320D02*
X12757360Y101500000D01*
X4000000Y102250000D02*
X4750000Y101500000D01*
X6750000Y70000000D02*
X7750000Y70000000D01*
X4000000Y102250000D02*
X4000000Y102725000D01*
X10500000Y63250000D02*
X10750000Y63500000D01*
X4000000Y72750000D02*
X4000000Y100750000D01*
X4000000Y101500000D02*
X4000000Y100750000D01*
X4025000Y102750000D02*
X4000000Y102725000D01*
X4000000Y100750000D02*
X4750000Y101500000D01*
X4000000Y72750000D02*
X6750000Y70000000D01*
D48*
G04 #@! TO.N,GND*
X13250000Y52000000D03*
X22300000Y62500000D03*
X15750000Y51250000D03*
X23000000Y82250000D03*
D50*
X23000000Y82250000D02*
X23000000Y83225000D01*
X23025000Y83250000D02*
X23000000Y83225000D01*
D48*
X9000000Y58750000D03*
G04 #@! TO.N,BTN_O4*
X11000000Y62250000D03*
X9750000Y15750000D03*
X12500000Y16750000D03*
X8250000Y114250000D03*
X3250000Y100000000D03*
X750000Y31750000D03*
X4750000Y57000000D03*
X4750000Y100000000D03*
X4750000Y58500000D03*
X1250000Y104500000D03*
D51*
X750000Y31750000D02*
X500000Y31500000D01*
D52*
X8250000Y114250000D02*
X8250000Y114500000D01*
X8250000Y114500000D02*
X24136307Y130386307D01*
D51*
X9750000Y15750000D02*
X9750000Y12750000D01*
X4500000Y82250000D02*
X4500000Y84500000D01*
X4500000Y82250000D02*
X4750000Y82000000D01*
X11000000Y62250000D02*
X11250000Y62500000D01*
X9750000Y70500000D02*
X11250000Y69000000D01*
X11250000Y69000000D02*
X11250000Y62500000D01*
X22825000Y17750000D02*
X21825000Y16750000D01*
D52*
X25386307Y130386307D02*
X24136307Y130386307D01*
D51*
X4750000Y84750000D02*
X4500000Y84500000D01*
X7000000Y70500000D02*
X4750000Y72750000D01*
X3250000Y100000000D02*
X1250000Y101250000D01*
X4750000Y57000000D02*
X4750000Y58500000D01*
X5750000Y11250000D02*
X8250000Y11250000D01*
D52*
X1250000Y105925000D02*
X1250000Y104500000D01*
D51*
X8250000Y11250000D02*
X9750000Y12750000D01*
X5750000Y11250000D02*
X500000Y16500000D01*
X12500000Y16750000D02*
X21825000Y16750000D01*
X500000Y16500000D02*
X500000Y31500000D01*
X4750000Y82000000D02*
X4750000Y72750000D01*
X1250000Y104500000D02*
X1250000Y101250000D01*
X4750000Y100000000D02*
X4750000Y84750000D01*
X9750000Y70500000D02*
X7000000Y70500000D01*
D48*
G04 #@! TO.N,GND*
X14250000Y50500000D03*
X13750000Y55250000D03*
X9750000Y51250000D03*
X25250000Y50750000D03*
D50*
X25000000Y48975000D02*
X25000000Y50500000D01*
X25250000Y50750000D02*
X25000000Y50500000D01*
D48*
G04 #@! TO.N,IR_CLK_EN*
X22250000Y133250000D03*
X8000000Y117000000D03*
X6500000Y116500000D03*
X5500000Y110250000D03*
X22750000Y135250000D03*
X10000000Y64250000D03*
X1250000Y69750000D03*
D51*
X22250000Y133250000D02*
X21750000Y133250000D01*
X8000000Y117000000D02*
X9250000Y117000000D01*
X1500000Y69500000D02*
X9250000Y69500000D01*
X20000000Y127750000D02*
X20000000Y131500000D01*
X1250000Y69750000D02*
X1500000Y69500000D01*
X24900000Y136150000D02*
X23650000Y136150000D01*
X6500000Y116500000D02*
X5000000Y116500000D01*
X5500000Y112500000D02*
X4000000Y114000000D01*
X20000000Y131500000D02*
X21750000Y133250000D01*
X20000000Y127750000D02*
X9250000Y117000000D01*
X10000000Y64250000D02*
X10250000Y64500000D01*
X22750000Y135250000D02*
X23650000Y136150000D01*
X10250000Y68500000D02*
X9250000Y69500000D01*
X10250000Y68500000D02*
X10250000Y64500000D01*
X4000000Y115500000D02*
X4000000Y114000000D01*
X5000000Y116500000D02*
X4000000Y115500000D01*
X5500000Y110250000D02*
X5500000Y112500000D01*
D48*
G04 #@! TO.N,GND*
X11000000Y7000000D03*
D54*
X13000000Y7500000D02*
X12500000Y7000000D01*
X11000000Y7000000D02*
X12500000Y7000000D01*
D52*
X13000000Y2500000D02*
X13000000Y7500000D01*
D48*
X27250000Y60500000D03*
X27500000Y82250000D03*
D50*
X27500000Y82250000D02*
X27500000Y83225000D01*
X27475000Y83250000D02*
X27500000Y83225000D01*
D48*
X8250000Y62500000D03*
X13250000Y50500000D03*
X3250000Y46250000D03*
X15000000Y70500000D03*
X20750000Y51250000D03*
X9000000Y63250000D03*
X27250000Y53000000D03*
X26500000Y96000000D03*
D50*
X25250000Y94475000D02*
X26650000Y95300000D01*
X26650000Y95300000D02*
X26500000Y96000000D01*
D48*
X19250000Y60000000D03*
X27750000Y58250000D03*
G04 #@! TO.N,GPIO5*
X20750000Y61500000D03*
D51*
X21000000Y66500000D02*
X22000000Y67500000D01*
X21000000Y66500000D02*
X19750000Y66500000D01*
X18750000Y65500000D02*
X19750000Y66500000D01*
X22000000Y68225000D02*
X22000000Y67500000D01*
X20750000Y61500000D02*
X18750000Y63500000D01*
X18750000Y65500000D02*
X18750000Y63500000D01*
D48*
G04 #@! TO.N,GND*
X10250000Y60000000D03*
X22000000Y56500000D03*
X28250000Y60500000D03*
X21500000Y62750000D03*
X19250000Y52000000D03*
X12500000Y84250000D03*
D52*
X12500000Y85025000D02*
X12975000Y85250000D01*
D50*
X12525000Y83250000D02*
X12525000Y83725000D01*
X12500000Y84250000D02*
X12475000Y84250000D01*
D52*
X13837500Y85250000D02*
X12975000Y85250000D01*
D50*
X12500000Y85025000D02*
X12475000Y84250000D01*
X12500000Y84250000D02*
X12525000Y83725000D01*
D48*
X12750000Y52750000D03*
G04 #@! TO.N,BTN_O1*
X4750000Y59750000D03*
X4750000Y54500000D03*
X12750000Y70250000D03*
X8500000Y109750000D03*
X11000000Y56500000D03*
X750000Y33250000D03*
X8250000Y115750000D03*
X20500000Y75750000D03*
D52*
X21300000Y86325000D02*
X21250000Y97750000D01*
X11000000Y109750000D02*
X13000000Y107750000D01*
X8250000Y115750000D02*
X8750000Y115750000D01*
D51*
X3500000Y15500000D02*
X2250000Y15500000D01*
X12750000Y70250000D02*
X12750000Y58250000D01*
X21300000Y86325000D02*
X20500000Y85575000D01*
X1500000Y32500000D02*
X1500000Y31500000D01*
D52*
X20000000Y103500000D02*
X13000000Y107750000D01*
D51*
X3750000Y58750000D02*
X3750000Y57000000D01*
D52*
X23886307Y131886307D02*
X23886307Y130886307D01*
X20000000Y99000000D02*
X21250000Y97750000D01*
D51*
X11000000Y56500000D02*
X12750000Y58250000D01*
D52*
X23886307Y130886307D02*
X8750000Y115750000D01*
D51*
X20500000Y75750000D02*
X20500000Y85575000D01*
D52*
X20000000Y99000000D02*
X20000000Y103500000D01*
D51*
X3750000Y57000000D02*
X4750000Y56000000D01*
X4750000Y59750000D02*
X3750000Y58750000D01*
X4613693Y14386307D02*
X3500000Y15500000D01*
X1500000Y31500000D02*
X1000000Y31000000D01*
X4750000Y54500000D02*
X4750000Y56000000D01*
X750000Y33250000D02*
X1500000Y32500000D01*
D52*
X8500000Y109750000D02*
X11000000Y109750000D01*
D51*
X1000000Y16750000D02*
X1000000Y31000000D01*
X1000000Y16750000D02*
X2250000Y15500000D01*
D48*
G04 #@! TO.N,N15*
X4750000Y112000000D03*
X4000000Y135500000D03*
D49*
X1250000Y109075000D02*
X2825000Y109075000D01*
X4750000Y112000000D02*
X4750000Y111000000D01*
X2825000Y109075000D02*
X4750000Y111000000D01*
X4000000Y136525000D02*
X4000000Y135500000D01*
X4000000Y136525000D02*
X4000000Y140975000D01*
D48*
G04 #@! TO.N,GND*
X13750000Y54250000D03*
X18750000Y51250000D03*
X27250000Y62000000D03*
X25750000Y61250000D03*
G04 #@! TO.N,EN*
X10000000Y76750000D03*
X11250000Y73250000D03*
X6750000Y85750000D03*
X2250000Y85750000D03*
X11000000Y55500000D03*
D51*
X5500000Y82750000D02*
X5500000Y84000000D01*
D50*
X6750000Y85750000D02*
X7750000Y85750000D01*
D51*
X6000000Y76000000D02*
X7000000Y75000000D01*
X11000000Y55500000D02*
X13250000Y57750000D01*
D50*
X1000000Y85725000D02*
X1250000Y85750000D01*
D51*
X6000000Y82250000D02*
X6000000Y76000000D01*
D50*
X2250000Y85750000D02*
X2287500Y85750000D01*
X2275000Y86750000D02*
X1000000Y85725000D01*
D51*
X7500000Y75000000D02*
X7000000Y75000000D01*
D50*
X8000000Y85725000D02*
X6725000Y86750000D01*
X6725000Y86750000D02*
X6750000Y85750000D01*
X8000000Y85725000D02*
X7750000Y85750000D01*
D51*
X6750000Y85750000D02*
X6750000Y85250000D01*
X10000000Y76750000D02*
X9250000Y76750000D01*
D50*
X6725000Y86750000D02*
X7750000Y87750000D01*
D51*
X13500000Y70000000D02*
X13250000Y69750000D01*
D50*
X2250000Y85750000D02*
X1250000Y85750000D01*
X8225000Y87750000D02*
X7750000Y87750000D01*
D51*
X6000000Y82250000D02*
X5500000Y82750000D01*
X13500000Y70750000D02*
X13500000Y70000000D01*
X13500000Y70750000D02*
X11250000Y72750000D01*
X13250000Y57750000D02*
X13250000Y69750000D01*
X7500000Y75000000D02*
X9250000Y76750000D01*
X11250000Y73250000D02*
X11250000Y72750000D01*
X5500000Y84000000D02*
X6750000Y85250000D01*
D50*
X2275000Y86750000D02*
X2287500Y85750000D01*
D48*
G04 #@! TO.N,GND*
X16750000Y51250000D03*
X19750000Y52750000D03*
G04 #@! TO.N,SPEAKER*
X20250000Y33750000D03*
X3750000Y60000000D03*
X3750000Y54500000D03*
D51*
X21250000Y33775000D02*
X21475000Y33750000D01*
X3750000Y60000000D02*
X3250000Y59500000D01*
X3750000Y56250000D02*
X3250000Y56750000D01*
X3750000Y54500000D02*
X3750000Y56250000D01*
X20250000Y33750000D02*
X21475000Y33750000D01*
X3250000Y59500000D02*
X3250000Y56750000D01*
D48*
G04 #@! TO.N,GND*
X8000000Y12000000D03*
D50*
X8000000Y12000000D02*
X7500000Y12000000D01*
X6750000Y12750000D02*
X7500000Y12000000D01*
D48*
X15250000Y50500000D03*
X11000000Y12000000D03*
D50*
X12250000Y12750000D02*
X11500000Y12000000D01*
X11000000Y12000000D02*
X11500000Y12000000D01*
D48*
X20750000Y70500000D03*
D50*
X20750000Y69775000D02*
X20750000Y70500000D01*
D48*
X28250000Y62000000D03*
X16250000Y54250000D03*
X5750000Y66750000D03*
X10750000Y51250000D03*
X1250000Y83250000D03*
D50*
X2275000Y83250000D02*
X1250000Y83250000D01*
X2275000Y83250000D02*
X1000000Y84275000D01*
X1000000Y84275000D02*
X1250000Y83250000D01*
D48*
X26250000Y49250000D03*
D50*
X27112500Y48627868D02*
X26490368Y49250000D01*
X26250000Y49250000D02*
X26490368Y49250000D01*
D52*
G04 #@! TO.N,V_BAT_READ*
X7000000Y34260000D02*
X7000000Y33957106D01*
X7250000Y30500000D02*
X6750000Y31000000D01*
X6750000Y33707106D02*
X6750000Y31000000D01*
D50*
X7250000Y30500000D02*
X6500000Y29750000D01*
X6500000Y29725000D02*
X6500000Y29750000D01*
D52*
X9000000Y27000000D02*
X7500000Y28500000D01*
X6500000Y34260000D02*
X6500000Y31250000D01*
X7250000Y30500000D02*
X7500000Y30250000D01*
X6750000Y33707106D02*
X7000000Y33957106D01*
X6750000Y31000000D02*
X6500000Y31250000D01*
X7500000Y28500000D02*
X7500000Y30250000D01*
D48*
G04 #@! TO.N,N17*
X2750000Y75750000D03*
X7250000Y75750000D03*
D50*
X7250000Y75750000D02*
X7250000Y76725000D01*
X2750000Y75750000D02*
X2750000Y76725000D01*
X7225000Y76750000D02*
X7250000Y76725000D01*
X9750000Y83175000D02*
X7250000Y80775000D01*
X2775000Y76750000D02*
X2750000Y76725000D01*
X7225000Y76750000D02*
X7250000Y80775000D01*
D51*
G04 #@! TO.N,N29*
X9000000Y33250000D02*
X7250000Y35000000D01*
X6500000Y35740000D02*
X6500000Y35250000D01*
X9000000Y28500000D02*
X9000000Y33250000D01*
X6500000Y35250000D02*
X6750000Y35000000D01*
X7250000Y35000000D02*
X6750000Y35000000D01*
D48*
G04 #@! TO.N,GND*
X25750000Y50000000D03*
X25750000Y52250000D03*
G04 #@! TO.N,N7*
X22000000Y136250000D03*
X23250000Y138750000D03*
D52*
X12515000Y138030000D02*
X13545000Y137000000D01*
X22000000Y136250000D02*
X21750000Y136000000D01*
X21750000Y136000000D02*
X19500000Y136000000D01*
X13545000Y137000000D02*
X18500000Y137000000D01*
X27100000Y137850000D02*
X25950000Y139000000D01*
X23500000Y139000000D02*
X25950000Y139000000D01*
X18500000Y137000000D02*
X19500000Y136000000D01*
X23250000Y138750000D02*
X23500000Y139000000D01*
D48*
G04 #@! TO.N,GND*
X26250000Y60500000D03*
X6250000Y68750000D03*
X3250000Y47250000D03*
G04 #@! TO.N,N5*
X12750000Y75750000D03*
X17250000Y75750000D03*
D53*
X18700000Y83175000D02*
X18750000Y78275000D01*
D50*
X17250000Y75750000D02*
X17250000Y76775000D01*
X17225000Y76750000D02*
X17250000Y76775000D01*
X12750000Y75750000D02*
X12750000Y76725000D01*
X12775000Y76750000D02*
X12750000Y76725000D01*
D53*
X17250000Y76775000D02*
X18750000Y78275000D01*
D48*
G04 #@! TO.N,GND*
X2500000Y101750000D03*
D50*
X2500000Y101750000D02*
X2475000Y101775000D01*
X2475000Y102750000D02*
X2475000Y101775000D01*
D48*
X8250000Y26000000D03*
D50*
X6500000Y28275000D02*
X6500000Y27750000D01*
X8250000Y26000000D02*
X6500000Y27750000D01*
D48*
X16250000Y52000000D03*
X14500000Y54750000D03*
X25750000Y56250000D03*
X13750000Y52750000D03*
X3250000Y40250000D03*
D50*
X3250000Y39475000D02*
X3250000Y40250000D01*
D48*
X4000000Y46750000D03*
X2750000Y63250000D03*
X21500000Y64250000D03*
X23250000Y33750000D03*
D53*
X23250000Y33750000D02*
X23225000Y33775000D01*
X22500000Y33775000D02*
X23225000Y33775000D01*
D48*
X4000000Y52000000D03*
G04 #@! TO.N,JTAG_MTCK*
X26000000Y10750000D03*
X9500000Y65250000D03*
X20750000Y12000000D03*
D51*
X13000000Y15000000D02*
X19500000Y15000000D01*
X8250000Y64750000D02*
X8750000Y65250000D01*
X11000000Y15775000D02*
X10275000Y16500000D01*
X4750000Y31250000D02*
X4750000Y27250000D01*
X12250000Y15250000D02*
X11725000Y15775000D01*
X3250000Y61250000D02*
X4000000Y61250000D01*
X12250000Y15250000D02*
X12750000Y15250000D01*
X7500000Y64750000D02*
X8000000Y64750000D01*
X3250000Y61250000D02*
X1000000Y59000000D01*
X4000000Y26500000D02*
X4750000Y27250000D01*
X13000000Y15000000D02*
X12750000Y15250000D01*
X1000000Y35000000D02*
X1000000Y59000000D01*
X9500000Y65250000D02*
X8750000Y65250000D01*
X20750000Y12000000D02*
X20750000Y13750000D01*
X8250000Y64750000D02*
X8000000Y64750000D01*
X4000000Y26500000D02*
X4000000Y18000000D01*
X10275000Y16500000D02*
X5500000Y16500000D01*
X4000000Y18000000D02*
X5500000Y16500000D01*
X28250000Y10750000D02*
X29000000Y11500000D01*
X1000000Y35000000D02*
X4750000Y31250000D01*
X4000000Y61250000D02*
X7500000Y64750000D01*
X26000000Y10750000D02*
X28250000Y10750000D01*
X20750000Y13750000D02*
X19500000Y15000000D01*
X29000000Y14225000D02*
X29000000Y11500000D01*
X11000000Y15775000D02*
X11725000Y15775000D01*
D48*
G04 #@! TO.N,GND*
X19250000Y50500000D03*
X17250000Y50500000D03*
G04 #@! TO.N,VCC*
X11000000Y54000000D03*
X28500000Y89000000D03*
X22250000Y96250000D03*
X14500000Y17750000D03*
X22250000Y90000000D03*
X13250000Y89750000D03*
X25250000Y104500000D03*
X23750000Y137500000D03*
X10750000Y33500000D03*
X22000000Y70750000D03*
X11500000Y87750000D03*
X16500000Y32250000D03*
X24500000Y87500000D03*
X18750000Y96250000D03*
X5250000Y50250000D03*
X18250000Y34000000D03*
X13000000Y32750000D03*
X22250000Y80000000D03*
X14000000Y68250000D03*
X15000000Y83500000D03*
X18750000Y87500000D03*
D52*
X3250000Y37025000D02*
X4275000Y36000000D01*
D50*
X17121320Y97378680D02*
X17621320Y97378680D01*
D52*
X5250000Y36750000D02*
X7250000Y38750000D01*
D51*
X13975000Y83250000D02*
X14475000Y83750000D01*
X16000000Y84000000D02*
X16000000Y85000000D01*
X8000000Y17750000D02*
X7750000Y17500000D01*
D52*
X24275000Y33525000D02*
X24275000Y34525000D01*
D51*
X2000000Y35500000D02*
X2000000Y36525000D01*
D50*
X14000000Y68250000D02*
X14000000Y57000000D01*
D52*
X2000000Y37275000D02*
X2387500Y36887500D01*
D50*
X22250000Y80000000D02*
X22750000Y80000000D01*
D51*
X7750000Y17500000D02*
X6000000Y17500000D01*
D52*
X2000000Y37000000D02*
X2000000Y36525000D01*
D55*
X19795000Y136750000D02*
X21250000Y136750000D01*
D52*
X3000000Y50225000D02*
X2000000Y49225000D01*
D55*
X18515000Y138030000D02*
X19795000Y136750000D01*
D52*
X3250000Y37025000D02*
X2387500Y36887500D01*
D50*
X23750000Y71750000D02*
X23000000Y71750000D01*
D53*
X5250000Y50250000D02*
X5225000Y50225000D01*
D52*
X13837500Y86250000D02*
X12975000Y86250000D01*
D50*
X22000000Y69775000D02*
X22000000Y70750000D01*
X24250000Y78500000D02*
X24250000Y72250000D01*
D55*
X11500000Y87750000D02*
X11500000Y82750000D01*
D52*
X14000000Y84587500D02*
X13975000Y84562500D01*
X5250000Y36750000D02*
X5250000Y36000000D01*
X24250000Y34500000D02*
X24275000Y34525000D01*
D50*
X28500000Y89000000D02*
X28525000Y88975000D01*
D52*
X2112500Y36887500D02*
X2387500Y36887500D01*
D55*
X24100000Y137850000D02*
X22350000Y137850000D01*
D53*
X4250000Y50225000D02*
X3000000Y50225000D01*
D52*
X10000000Y37750000D02*
X9000000Y38750000D01*
X25575000Y35825000D02*
X24275000Y34525000D01*
D51*
X15662500Y85250000D02*
X15750000Y85250000D01*
X25975000Y38750000D02*
X25575000Y38350000D01*
D52*
X2000000Y37275000D02*
X2000000Y49225000D01*
X9775000Y87750000D02*
X11500000Y87750000D01*
D51*
X5750000Y26750000D02*
X5000000Y26000000D01*
X15750000Y83750000D02*
X15250000Y83750000D01*
D52*
X10750000Y33500000D02*
X10000000Y34250000D01*
D55*
X13500000Y82250000D02*
X13975000Y82725000D01*
D51*
X25575000Y37475000D02*
X25575000Y38350000D01*
X13975000Y84725000D02*
X13975000Y84562500D01*
D50*
X24250000Y78500000D02*
X22750000Y80000000D01*
D55*
X13975000Y83250000D02*
X13975000Y82725000D01*
D50*
X18750000Y96250000D02*
X17621320Y97378680D01*
D51*
X24975000Y105250000D02*
X24975000Y104775000D01*
D50*
X29025000Y88250000D02*
X28525000Y88975000D01*
D52*
X12500000Y86475000D02*
X12975000Y86250000D01*
X12500000Y86475000D02*
X11500000Y87750000D01*
D51*
X14500000Y17750000D02*
X8000000Y17750000D01*
D52*
X9000000Y38750000D02*
X7250000Y38750000D01*
X2112500Y36887500D02*
X2000000Y37000000D01*
D50*
X3250000Y38025000D02*
X3250000Y37025000D01*
D51*
X5750000Y31750000D02*
X2000000Y35500000D01*
X15000000Y83500000D02*
X15250000Y83750000D01*
D55*
X22350000Y137850000D02*
X21250000Y136750000D01*
D52*
X18750000Y34500000D02*
X24250000Y34500000D01*
X5250000Y36000000D02*
X5740000Y36000000D01*
X10000000Y34250000D02*
X10000000Y37750000D01*
D51*
X5000000Y26000000D02*
X5000000Y18500000D01*
D52*
X13975000Y83250000D02*
X13975000Y84562500D01*
D51*
X6000000Y17500000D02*
X5000000Y18500000D01*
D52*
X16500000Y32250000D02*
X13500000Y32250000D01*
D55*
X11500000Y82750000D02*
X12000000Y82250000D01*
D52*
X18250000Y34000000D02*
X18750000Y34500000D01*
D55*
X23750000Y137500000D02*
X24100000Y137850000D01*
D50*
X11000000Y54000000D02*
X14000000Y57000000D01*
X22250000Y90000000D02*
X24500000Y87500000D01*
D55*
X24900000Y137850000D02*
X24100000Y137850000D01*
D50*
X23750000Y71750000D02*
X24250000Y72250000D01*
X24500000Y87500000D02*
X24500000Y78750000D01*
D55*
X13500000Y82250000D02*
X12000000Y82250000D01*
D51*
X25250000Y104500000D02*
X24975000Y104775000D01*
X5750000Y26750000D02*
X5750000Y31750000D01*
D50*
X22000000Y70750000D02*
X23000000Y71750000D01*
D51*
X15750000Y85250000D02*
X16000000Y85000000D01*
D50*
X13975000Y89750000D02*
X13250000Y89750000D01*
X22250000Y96250000D02*
X22250000Y90000000D01*
D52*
X6000000Y35740000D02*
X5740000Y36000000D01*
X13000000Y32750000D02*
X13500000Y32250000D01*
X5250000Y36000000D02*
X4275000Y36000000D01*
X25575000Y37475000D02*
X25575000Y35825000D01*
D50*
X24500000Y78750000D02*
X24250000Y78500000D01*
D51*
X14475000Y83750000D02*
X15250000Y83750000D01*
X25975000Y38750000D02*
X25975000Y40000000D01*
D52*
X2000000Y37000000D02*
X2000000Y37275000D01*
D50*
X18750000Y87975000D02*
X18750000Y87500000D01*
D51*
X15750000Y83750000D02*
X16000000Y84000000D01*
D53*
X4250000Y50225000D02*
X5225000Y50225000D01*
D51*
X2387500Y36887500D02*
X2000000Y36525000D01*
D48*
G04 #@! TO.N,GND*
X11750000Y51250000D03*
X27250000Y135000000D03*
D50*
X27100000Y136150000D02*
X27250000Y135000000D01*
D48*
X11750000Y52750000D03*
G04 #@! TO.N,TX*
X18000000Y56500000D03*
X14750000Y77500000D03*
D51*
X16250000Y66750000D02*
X16250000Y58250000D01*
X18000000Y56500000D02*
X16250000Y58250000D01*
X14750000Y77500000D02*
X14750000Y77250000D01*
X17500000Y69750000D02*
X15000000Y72250000D01*
X15000000Y77000000D02*
X14750000Y77250000D01*
X15000000Y77000000D02*
X15000000Y72250000D01*
X17500000Y68000000D02*
X17500000Y69750000D01*
X16250000Y66750000D02*
X17500000Y68000000D01*
D48*
G04 #@! TO.N,EXT_Sense*
X25500000Y63500000D03*
D51*
X25750000Y24250000D02*
X24750000Y23250000D01*
X25500000Y63500000D02*
X29250000Y63500000D01*
X23500000Y10750000D02*
X16250000Y10750000D01*
X29500000Y26750000D02*
X29500000Y63250000D01*
X29500000Y26750000D02*
X27000000Y24250000D01*
X29500000Y63250000D02*
X29250000Y63500000D01*
X27000000Y24250000D02*
X25750000Y24250000D01*
X15000000Y9500000D02*
X16250000Y10750000D01*
X23500000Y10750000D02*
X24750000Y12000000D01*
X24750000Y12000000D02*
X24750000Y23250000D01*
D48*
G04 #@! TO.N,GND*
X11250000Y50500000D03*
X9000000Y57750000D03*
G04 #@! TO.N,RUMBLE*
X20500000Y97250000D03*
X16250000Y69250000D03*
X19500000Y73500000D03*
X22000000Y97250000D03*
X18000000Y53500000D03*
D51*
X19500000Y73500000D02*
X18750000Y74250000D01*
X15250000Y56250000D02*
X15250000Y68250000D01*
X20000000Y77000000D02*
X20000000Y96750000D01*
X23725000Y97250000D02*
X22000000Y97250000D01*
X18000000Y53500000D02*
X15250000Y56250000D01*
X18750000Y75750000D02*
X20000000Y77000000D01*
X20500000Y97250000D02*
X20000000Y96750000D01*
X16250000Y69250000D02*
X15250000Y68250000D01*
X18750000Y75750000D02*
X18750000Y74250000D01*
D48*
G04 #@! TO.N,GND*
X20750000Y52750000D03*
X12250000Y52000000D03*
X20750000Y57750000D03*
G04 #@! TO.N,GPIO2*
X20750000Y67750000D03*
D50*
X20750000Y68225000D02*
X20750000Y67750000D01*
D52*
G04 #@! TO.N,N10*
X15500000Y86912500D02*
X15500000Y87725000D01*
X15775000Y88250000D02*
X15500000Y87725000D01*
D48*
G04 #@! TO.N,GND*
X26750000Y59750000D03*
G04 #@! TO.N,N6*
X19250000Y110000000D03*
D55*
X25675000Y108750000D02*
X24500000Y109925000D01*
X19250000Y110000000D02*
X24500000Y109925000D01*
D48*
G04 #@! TO.N,GND*
X4750000Y51500000D03*
D50*
G04 #@! TO.N,N37*
X26650000Y97200000D02*
X26600000Y97250000D01*
X25275000Y97250000D02*
X26600000Y97250000D01*
X25275000Y97250000D02*
X25275000Y96050000D01*
X25250000Y96025000D02*
X25275000Y96050000D01*
D48*
G04 #@! TO.N,GND*
X20250000Y52000000D03*
X26250000Y62000000D03*
X14250000Y52000000D03*
X5250000Y49000000D03*
D53*
X4250000Y48775000D02*
X3000000Y48775000D01*
X4250000Y48775000D02*
X5025000Y48775000D01*
X5250000Y49000000D02*
X5025000Y48775000D01*
D48*
X18250000Y52000000D03*
X27750000Y61250000D03*
X4500000Y35250000D03*
D49*
X4500000Y35250000D02*
X4775000Y35250000D01*
X5000000Y35275000D02*
X4775000Y35250000D01*
D48*
X26250000Y50750000D03*
D50*
G04 #@! TO.N,N34*
X29075000Y105350000D02*
X29075000Y101575000D01*
X28975000Y105250000D02*
X29075000Y105350000D01*
D53*
X28850000Y96250000D02*
X28850000Y97900000D01*
X27250000Y99500000D02*
X28850000Y97900000D01*
D50*
X27250000Y99500000D02*
X29075000Y101575000D01*
X29075000Y106750000D02*
X29075000Y105350000D01*
D48*
G04 #@! TO.N,GND*
X750000Y61750000D03*
G04 #@! TO.N,SCL*
X28750000Y25000000D03*
X10000000Y109000000D03*
X22750000Y126750000D03*
X7500000Y104750000D03*
X18000000Y55000000D03*
X9750000Y100750000D03*
X16750000Y89750000D03*
X10250000Y114750000D03*
X16750000Y83750000D03*
D51*
X22750000Y126750000D02*
X21500000Y126750000D01*
X22750000Y8500000D02*
X25250000Y11000000D01*
X13250000Y81250000D02*
X13250000Y78000000D01*
X10250000Y115750000D02*
X21500000Y126750000D01*
X27500000Y23750000D02*
X26000000Y23750000D01*
X16750000Y89750000D02*
X10000000Y96250000D01*
X18000000Y55000000D02*
X15750000Y57250000D01*
X17000000Y7500000D02*
X18000000Y8500000D01*
X16750000Y83750000D02*
X16750000Y85000000D01*
X9750000Y100750000D02*
X10000000Y96250000D01*
X22750000Y8500000D02*
X18000000Y8500000D01*
X17000000Y69500000D02*
X14500000Y72000000D01*
D52*
X17000000Y7500000D02*
X17000000Y2500000D01*
D51*
X7500000Y104750000D02*
X10000000Y107250000D01*
X10250000Y114750000D02*
X10250000Y115750000D01*
X16750000Y83750000D02*
X13250000Y81250000D01*
X25250000Y23000000D02*
X26000000Y23750000D01*
X15662500Y85750000D02*
X16000000Y85750000D01*
X17000000Y69500000D02*
X17000000Y68250000D01*
X17000000Y68250000D02*
X15750000Y67000000D01*
X10000000Y109000000D02*
X10000000Y107250000D01*
X16000000Y85750000D02*
X16750000Y85000000D01*
X14500000Y72000000D02*
X14500000Y76750000D01*
X14500000Y76750000D02*
X13250000Y78000000D01*
D50*
X15525000Y89750000D02*
X16750000Y89750000D01*
D51*
X28750000Y25000000D02*
X27500000Y23750000D01*
X15750000Y67000000D02*
X15750000Y57250000D01*
X25250000Y23000000D02*
X25250000Y11000000D01*
D48*
G04 #@! TO.N,GND*
X8750000Y66000000D03*
G04 #@! TO.N,BTN_I3*
X23750000Y96250000D03*
X27250000Y74250000D03*
X7250000Y74250000D03*
X7250000Y68750000D03*
X12000000Y75000000D03*
X20750000Y102500000D03*
X7250000Y66500000D03*
X22750000Y74250000D03*
X19500000Y75000000D03*
X23750000Y98250000D03*
X8250000Y125750000D03*
X2750000Y74250000D03*
X7500000Y71750000D03*
D51*
X28500000Y79500000D02*
X28500000Y75500000D01*
X20750000Y102500000D02*
X21500000Y102000000D01*
X7500000Y136525000D02*
X6750000Y135750000D01*
X7250000Y74250000D02*
X8250000Y75000000D01*
X19500000Y75000000D02*
X22000000Y75000000D01*
D50*
X27225000Y73250000D02*
X27250000Y73275000D01*
D51*
X2775000Y73250000D02*
X2750000Y73275000D01*
X7500000Y140975000D02*
X7500000Y136525000D01*
X8250000Y125750000D02*
X8250000Y128750000D01*
D50*
X22750000Y74250000D02*
X22750000Y73275000D01*
D51*
X25750000Y92000000D02*
X25750000Y82250000D01*
D50*
X2750000Y74250000D02*
X2750000Y73275000D01*
D51*
X25750000Y92000000D02*
X23750000Y94000000D01*
X7500000Y71750000D02*
X7500000Y72975000D01*
X27250000Y74250000D02*
X28500000Y75500000D01*
X7250000Y68750000D02*
X7250000Y66500000D01*
D50*
X7225000Y73250000D02*
X7250000Y74250000D01*
D51*
X6750000Y130250000D02*
X8250000Y128750000D01*
X12000000Y75000000D02*
X8250000Y75000000D01*
X21500000Y102000000D02*
X23750000Y99750000D01*
X22750000Y74250000D02*
X22000000Y75000000D01*
X7225000Y73250000D02*
X7500000Y72975000D01*
X6750000Y135750000D02*
X6750000Y130250000D01*
D50*
X27250000Y74250000D02*
X27250000Y73275000D01*
D51*
X25750000Y82250000D02*
X28500000Y79500000D01*
X23750000Y96250000D02*
X23750000Y94000000D01*
D50*
X22775000Y73250000D02*
X22750000Y73275000D01*
D51*
X23750000Y98250000D02*
X23750000Y99750000D01*
D48*
G04 #@! TO.N,GND*
X12750000Y54250000D03*
X8250000Y58250000D03*
D49*
G04 #@! TO.N,N33*
X27613693Y132613693D02*
X27613693Y128149227D01*
X23792893Y124328427D02*
X27613693Y128149227D01*
D48*
G04 #@! TO.N,GND*
X9250000Y50500000D03*
X26250000Y53000000D03*
X17250000Y52000000D03*
X3250000Y52500000D03*
X1750000Y61750000D03*
D53*
G04 #@! TO.N,N24*
X19136307Y29363693D02*
X19136307Y31363693D01*
X19136307Y31363693D02*
X17121320Y33378680D01*
X17121320Y34878680D02*
X17121320Y33378680D01*
D48*
G04 #@! TO.N,GND*
X19000000Y12000000D03*
D50*
X17750000Y12750000D02*
X18500000Y12000000D01*
X19000000Y12000000D02*
X18500000Y12000000D01*
D48*
X25750000Y53750000D03*
X14500000Y55750000D03*
X22000000Y12000000D03*
D50*
X22000000Y12000000D02*
X22500000Y12000000D01*
X23250000Y12750000D02*
X22500000Y12000000D01*
D48*
G04 #@! TO.N,JTAG_MTMS*
X20500000Y16000000D03*
X7500000Y63750000D03*
X22000000Y19250000D03*
D51*
X7500000Y63750000D02*
X7250000Y63750000D01*
X11250000Y17000000D02*
X5750000Y17000000D01*
X19000000Y15775000D02*
X20275000Y15775000D01*
X5250000Y31500000D02*
X1500000Y35250000D01*
X7000000Y63500000D02*
X7250000Y63750000D01*
X11250000Y17000000D02*
X12475000Y15775000D01*
X3500000Y60750000D02*
X1500000Y58750000D01*
X22000000Y19250000D02*
X22775000Y19250000D01*
X1500000Y58750000D02*
X1500000Y35250000D01*
X20500000Y16000000D02*
X20275000Y15775000D01*
X23000000Y19475000D02*
X22775000Y19250000D01*
X4500000Y18250000D02*
X4500000Y26250000D01*
X3500000Y60750000D02*
X4250000Y60750000D01*
X5250000Y27000000D02*
X4500000Y26250000D01*
X4500000Y18250000D02*
X5750000Y17000000D01*
X19000000Y15775000D02*
X12475000Y15775000D01*
X5250000Y27000000D02*
X5250000Y31500000D01*
X7000000Y63500000D02*
X4250000Y60750000D01*
D48*
G04 #@! TO.N,GND*
X3250000Y62500000D03*
X10000000Y58750000D03*
D50*
G04 #@! TO.N,N16*
X19000000Y14225000D02*
X17775000Y14225000D01*
X17750000Y14250000D02*
X17775000Y14225000D01*
D48*
G04 #@! TO.N,RX*
X18000000Y58000000D03*
X14000000Y78250000D03*
D51*
X16750000Y66500000D02*
X16750000Y59250000D01*
X15500000Y77750000D02*
X15500000Y72500000D01*
X18000000Y58000000D02*
X16750000Y59250000D01*
X14000000Y78250000D02*
X15000000Y78250000D01*
X18000000Y70000000D02*
X15500000Y72500000D01*
X16750000Y66500000D02*
X18000000Y67750000D01*
X18000000Y70000000D02*
X18000000Y67750000D01*
X15500000Y77750000D02*
X15000000Y78250000D01*
D48*
G04 #@! TO.N,GND*
X26750000Y50000000D03*
X25250000Y62000000D03*
X14750000Y52750000D03*
D56*
G04 #@! TO.N,N30*
X5000000Y33725000D02*
X5465000Y33725000D01*
X6000000Y34260000D02*
X5465000Y33725000D01*
X3250000Y35475000D02*
X5000000Y33725000D01*
D48*
G04 #@! TO.N,GND*
X11250000Y52000000D03*
X6000000Y67750000D03*
X26750000Y61250000D03*
X16750000Y52750000D03*
D50*
G04 #@! TO.N,N25*
X11000000Y14225000D02*
X12225000Y14225000D01*
X12250000Y14250000D02*
X12225000Y14225000D01*
D48*
G04 #@! TO.N,GND*
X17750000Y51250000D03*
X25250000Y57000000D03*
X27750000Y59750000D03*
X20500000Y64250000D03*
X12250000Y50500000D03*
G04 #@! TO.N,BTN_O3*
X12750000Y31500000D03*
X11000000Y58750000D03*
X6500000Y90000000D03*
X17500000Y28500000D03*
X5500000Y100750000D03*
X2750000Y41250000D03*
X5500000Y104000000D03*
X19000000Y27000000D03*
X17500000Y104000000D03*
X19000000Y105500000D03*
X5500000Y89000000D03*
X10750000Y34750000D03*
D52*
X28825000Y108750000D02*
X27825000Y107750000D01*
D51*
X6500000Y93750000D02*
X5500000Y94750000D01*
X10500000Y35500000D02*
X10750000Y35250000D01*
D52*
X19000000Y105500000D02*
X21500000Y105500000D01*
X27825000Y107750000D02*
X23750000Y107750000D01*
X3250000Y104750000D02*
X4000000Y104000000D01*
D51*
X10500000Y38000000D02*
X10500000Y35500000D01*
X17500000Y28500000D02*
X14500000Y31500000D01*
X21363693Y27136307D02*
X21227386Y27000000D01*
X5000000Y82500000D02*
X5500000Y82000000D01*
X2750000Y41250000D02*
X4000000Y41250000D01*
X11750000Y59500000D02*
X11750000Y69250000D01*
X19000000Y27000000D02*
X21227386Y27000000D01*
D52*
X5500000Y104000000D02*
X4000000Y104000000D01*
D51*
X5500000Y82000000D02*
X5500000Y72750000D01*
X10000000Y71000000D02*
X7250000Y71000000D01*
X12750000Y31500000D02*
X14500000Y31500000D01*
X5500000Y89000000D02*
X5500000Y84750000D01*
D52*
X5500000Y104000000D02*
X17500000Y104000000D01*
D51*
X5000000Y84250000D02*
X5000000Y82500000D01*
X10000000Y71000000D02*
X11750000Y69250000D01*
X5000000Y84250000D02*
X5500000Y84750000D01*
X6500000Y90000000D02*
X6500000Y93750000D01*
X10500000Y38000000D02*
X9250000Y39250000D01*
D52*
X3250000Y104925000D02*
X3250000Y104750000D01*
D51*
X5500000Y100750000D02*
X5500000Y94750000D01*
D52*
X23750000Y107750000D02*
X21500000Y105500000D01*
D51*
X7250000Y71000000D02*
X5500000Y72750000D01*
X6000000Y39250000D02*
X4000000Y41250000D01*
X10750000Y34750000D02*
X10750000Y35250000D01*
X11000000Y58750000D02*
X11750000Y59500000D01*
X6000000Y39250000D02*
X9250000Y39250000D01*
D48*
G04 #@! TO.N,GND*
X8000000Y83250000D03*
D50*
X7525000Y83725000D02*
X7525000Y84275000D01*
X8000000Y83250000D02*
X7525000Y83725000D01*
X6725000Y83250000D02*
X7525000Y84275000D01*
X8000000Y84275000D02*
X7525000Y84275000D01*
X6725000Y83250000D02*
X8000000Y83250000D01*
D48*
X1250000Y61000000D03*
X15250000Y69500000D03*
D51*
G04 #@! TO.N,N26*
X23750000Y40500000D02*
X24000000Y40750000D01*
X26500000Y40750000D02*
X24000000Y40750000D01*
X25250000Y47250000D02*
X25250000Y47275000D01*
X24275000Y37475000D02*
X23750000Y38000000D01*
X23750000Y38000000D02*
X23750000Y40500000D01*
X27000000Y45500000D02*
X27000000Y41250000D01*
X26500000Y40750000D02*
X27000000Y41250000D01*
X25250000Y47250000D02*
X27000000Y45500000D01*
X20500000Y46500000D02*
X21250000Y47250000D01*
X25000000Y47525000D02*
X25250000Y47275000D01*
X21250000Y47250000D02*
X25250000Y47250000D01*
D48*
G04 #@! TO.N,GND*
X15250000Y54250000D03*
G04 #@! TO.N,JTAG_MTDI*
X9750000Y11500000D03*
X7250000Y65500000D03*
X9000000Y13250000D03*
D51*
X8000000Y15775000D02*
X5475000Y15775000D01*
X3500000Y26750000D02*
X3500000Y17750000D01*
X4250000Y27500000D02*
X4250000Y31000000D01*
X7250000Y65250000D02*
X3750000Y61750000D01*
X12250000Y11000000D02*
X10250000Y11000000D01*
X12250000Y11000000D02*
X13725000Y12475000D01*
X13725000Y13000000D02*
X13725000Y12475000D01*
X500000Y59250000D02*
X3000000Y61750000D01*
X3750000Y61750000D02*
X3000000Y61750000D01*
X9000000Y13250000D02*
X9000000Y14775000D01*
X4250000Y31000000D02*
X500000Y34750000D01*
X3500000Y17750000D02*
X5475000Y15775000D01*
X500000Y59250000D02*
X500000Y34750000D01*
X9750000Y11500000D02*
X10250000Y11000000D01*
X8000000Y15775000D02*
X9000000Y14775000D01*
X7250000Y65500000D02*
X7250000Y65250000D01*
X4250000Y27500000D02*
X3500000Y26750000D01*
D48*
G04 #@! TO.N,SDA*
X17500000Y85750000D03*
X11000000Y115500000D03*
X10500000Y100000000D03*
X17750000Y89750000D03*
X21750000Y125750000D03*
X17750000Y59750000D03*
X28750000Y55250000D03*
X8500000Y104750000D03*
X10500000Y106750000D03*
D51*
X21750000Y125750000D02*
X21250000Y125750000D01*
X15750000Y82000000D02*
X15750000Y78500000D01*
X17500000Y85750000D02*
X16750000Y86250000D01*
X17250000Y66250000D02*
X18500000Y67500000D01*
X15750000Y82000000D02*
X17500000Y83250000D01*
X18500000Y70250000D02*
X18500000Y67500000D01*
X10500000Y100000000D02*
X10500000Y96750000D01*
X29000000Y27000000D02*
X26750000Y24750000D01*
X11000000Y115500000D02*
X21250000Y125750000D01*
X17500000Y85750000D02*
X17500000Y83250000D01*
X8500000Y104750000D02*
X10500000Y106750000D01*
X23250000Y11250000D02*
X24250000Y12250000D01*
X28750000Y55250000D02*
X29000000Y55000000D01*
D50*
X18750000Y89525000D02*
X17775000Y89775000D01*
D51*
X25500000Y24750000D02*
X24250000Y23500000D01*
X15662500Y86250000D02*
X16750000Y86250000D01*
X18500000Y70250000D02*
X16000000Y72750000D01*
X17750000Y59750000D02*
X17250000Y60250000D01*
X25500000Y24750000D02*
X26750000Y24750000D01*
X17750000Y89750000D02*
X10500000Y96750000D01*
X29000000Y55000000D02*
X29000000Y27000000D01*
X16000000Y78250000D02*
X16000000Y72750000D01*
D50*
X17750000Y89750000D02*
X17775000Y89775000D01*
D51*
X17250000Y66250000D02*
X17250000Y60250000D01*
X24250000Y12250000D02*
X24250000Y23500000D01*
X13000000Y9500000D02*
X14750000Y11250000D01*
X23250000Y11250000D02*
X14750000Y11250000D01*
X15750000Y78500000D02*
X16000000Y78250000D01*
D48*
G04 #@! TO.N,GND*
X16250000Y50500000D03*
D50*
G04 #@! TO.N,N27*
X8000000Y14225000D02*
X6775000Y14225000D01*
X6750000Y14250000D02*
X6775000Y14225000D01*
D53*
G04 #@! TO.N,N31*
X22500000Y32225000D02*
X22775000Y32250000D01*
X21250000Y32225000D02*
X22500000Y32225000D01*
X23775000Y32250000D02*
X22775000Y32250000D01*
D48*
G04 #@! TO.N,GND*
X26250000Y54500000D03*
D57*
G04 #@! TA.AperFunction,Conductor*
G36*
X300000Y59715683D02*
X319500Y59656356D01*
X370395Y59620167D01*
X432836Y59621229D01*
X470709Y59644973D01*
X2784778Y61959042D01*
X2794790Y61967443D01*
X2794318Y61968005D01*
X2794367Y61968050D01*
X2794839Y61967488D01*
X2814741Y61984188D01*
X2837339Y61997235D01*
X2844697Y62001923D01*
X2866045Y62016871D01*
X2885679Y62026028D01*
X2906011Y62033427D01*
X2931708Y62037958D01*
X2940228Y62039847D01*
X2965402Y62046593D01*
X2991283Y62048857D01*
X2991225Y62049522D01*
X2991291Y62049525D01*
X2991349Y62048861D01*
X3004370Y62050000D01*
X3584314Y62050000D01*
X3655024Y62079289D01*
X6470711Y64894976D01*
X6500000Y64965686D01*
X6500000Y69100001D01*
X6480500Y69159328D01*
X6400001Y69200000D01*
X5099999Y69200000D01*
X5040672Y69180500D01*
X5000000Y69100001D01*
X5000000Y68465685D01*
X5029289Y68394975D01*
X5208901Y68215363D01*
X5214721Y68208368D01*
X5268378Y68130369D01*
X5276009Y68112627D01*
X5298906Y68005134D01*
X5300000Y67994749D01*
X5300000Y65004572D01*
X5299168Y64995502D01*
X5281958Y64902419D01*
X5274805Y64884467D01*
X5214989Y64792272D01*
X5208420Y64784156D01*
X4215363Y63791099D01*
X4208368Y63785279D01*
X4130369Y63731622D01*
X4112627Y63723991D01*
X4005134Y63701094D01*
X3994749Y63700000D01*
X399999Y63700000D01*
X340672Y63680500D01*
X300000Y63600001D01*
X300000Y59715683D01*
G37*
G36*
X1800000Y49761394D02*
X1819500Y49702067D01*
X1870395Y49665878D01*
X1932836Y49666940D01*
X1970709Y49690684D01*
X2370711Y50090686D01*
X2400000Y50161396D01*
X2400000Y50645086D01*
X2400958Y50654817D01*
X2413303Y50716877D01*
X2420696Y50734727D01*
X2453108Y50783233D01*
X2466767Y50796892D01*
X2515273Y50829304D01*
X2533123Y50836697D01*
X2595183Y50849042D01*
X2604914Y50850000D01*
X3395086Y50850000D01*
X3404817Y50849042D01*
X3466877Y50836697D01*
X3484728Y50829303D01*
X3540773Y50791854D01*
X3596331Y50775000D01*
X3653669Y50775000D01*
X3709227Y50791854D01*
X3765272Y50829303D01*
X3783123Y50836697D01*
X3845183Y50849042D01*
X3854914Y50850000D01*
X4645086Y50850000D01*
X4654817Y50849042D01*
X4716877Y50836697D01*
X4734728Y50829303D01*
X4790773Y50791854D01*
X4846331Y50775000D01*
X4943978Y50775000D01*
X4990450Y50786455D01*
X5031872Y50808195D01*
X5043115Y50812459D01*
X5171801Y50844176D01*
X5183730Y50845625D01*
X5316270Y50845625D01*
X5328199Y50844176D01*
X5456885Y50812459D01*
X5468121Y50808198D01*
X5585483Y50746601D01*
X5595367Y50739778D01*
X5694577Y50651886D01*
X5702544Y50642893D01*
X5777839Y50533810D01*
X5783417Y50523183D01*
X5830422Y50399241D01*
X5833294Y50387588D01*
X5849271Y50256004D01*
X5849271Y50243996D01*
X5833294Y50112412D01*
X5830422Y50100759D01*
X5783417Y49976817D01*
X5777839Y49966190D01*
X5702544Y49857107D01*
X5694577Y49848114D01*
X5595367Y49760222D01*
X5585483Y49753399D01*
X5468121Y49691802D01*
X5456885Y49687541D01*
X5328199Y49655824D01*
X5316270Y49654375D01*
X5183730Y49654375D01*
X5171801Y49655824D01*
X5105788Y49672094D01*
X5081857Y49675000D01*
X4846331Y49675000D01*
X4790773Y49658146D01*
X4765086Y49640982D01*
X4726592Y49591808D01*
X4724778Y49529385D01*
X4775245Y49468737D01*
X4819328Y49446275D01*
X4831899Y49437142D01*
X4887142Y49381899D01*
X4896277Y49369326D01*
X4931744Y49299718D01*
X4936548Y49284931D01*
X4949385Y49203882D01*
X4950000Y49196069D01*
X4950000Y48891018D01*
X4948434Y48886253D01*
X4926172Y48875005D01*
X4650000Y48875005D01*
X4650000Y49200000D01*
X3850000Y49200000D01*
X3850000Y48875005D01*
X3400000Y48875005D01*
X3400000Y49200000D01*
X2600000Y49200000D01*
X2600000Y48350000D01*
X2899995Y48350000D01*
X2899995Y48066013D01*
X2898429Y48061248D01*
X2876167Y48050000D01*
X2603931Y48050000D01*
X2596118Y48050615D01*
X2515069Y48063452D01*
X2500284Y48068256D01*
X2495396Y48070746D01*
X2433682Y48080304D01*
X2378332Y48051384D01*
X2350000Y47981645D01*
X2350000Y45849999D01*
X2369500Y45790672D01*
X2449999Y45750000D01*
X3116018Y45750000D01*
X3116018Y48050000D01*
X3111253Y48051566D01*
X3100005Y48073828D01*
X3100005Y48350000D01*
X3400000Y48350000D01*
X3400000Y48674995D01*
X3850000Y48674995D01*
X3850000Y48350000D01*
X4149995Y48350000D01*
X4149995Y48066013D01*
X4148429Y48061248D01*
X4126167Y48050000D01*
X3853931Y48050000D01*
X3846118Y48050615D01*
X3765069Y48063452D01*
X3750282Y48068256D01*
X3673664Y48107295D01*
X3672535Y48105080D01*
X3624322Y48120565D01*
X3577428Y48105152D01*
X3576336Y48107295D01*
X3499718Y48068256D01*
X3484931Y48063452D01*
X3403882Y48050615D01*
X3396069Y48050000D01*
X3116018Y48050000D01*
X3116018Y45750000D01*
X3708579Y45750000D01*
X3779289Y45779289D01*
X4420711Y46420711D01*
X4450000Y46491421D01*
X4450000Y47745428D01*
X4450832Y47754498D01*
X4468042Y47847581D01*
X4475195Y47865533D01*
X4494685Y47895574D01*
X4510616Y47955957D01*
X4487617Y48014018D01*
X4410795Y48050000D01*
X4366018Y48050000D01*
X4361253Y48051566D01*
X4350005Y48073828D01*
X4350005Y48350000D01*
X4650000Y48350000D01*
X4650000Y48674995D01*
X4933987Y48674995D01*
X4938752Y48673429D01*
X4950000Y48651167D01*
X4950000Y48399999D01*
X4969500Y48340672D01*
X5049999Y48300000D01*
X5258579Y48300000D01*
X5329289Y48329289D01*
X6985935Y49985935D01*
X7019891Y50000000D01*
X21744045Y50000000D01*
X21755788Y49998597D01*
X21861541Y49972960D01*
X21923793Y49977934D01*
X21958672Y50002416D01*
X22015141Y50063757D01*
X22021205Y50069339D01*
X22203659Y50211349D01*
X22210563Y50215860D01*
X22413913Y50325907D01*
X22421445Y50329211D01*
X22640141Y50404289D01*
X22648120Y50406310D01*
X22876185Y50444368D01*
X22884391Y50445048D01*
X23115609Y50445048D01*
X23123815Y50444368D01*
X23351880Y50406310D01*
X23359859Y50404289D01*
X23578555Y50329211D01*
X23586087Y50325907D01*
X23789437Y50215860D01*
X23796341Y50211349D01*
X23978795Y50069339D01*
X23984859Y50063758D01*
X24141453Y49893651D01*
X24146516Y49887145D01*
X24272979Y49693580D01*
X24276900Y49686336D01*
X24277505Y49684956D01*
X24277862Y49684558D01*
X24278869Y49682697D01*
X24279314Y49682938D01*
X24319196Y49638461D01*
X24380342Y49625767D01*
X24427858Y49644230D01*
X24430677Y49646279D01*
X24500282Y49681744D01*
X24515069Y49686548D01*
X24596118Y49699385D01*
X24603931Y49700000D01*
X24883982Y49700000D01*
X24888747Y49698434D01*
X24899995Y49676172D01*
X24899995Y49400000D01*
X24600000Y49400000D01*
X24600000Y49309091D01*
X25400000Y49115151D01*
X25400000Y49400000D01*
X25100005Y49400000D01*
X25100005Y49683987D01*
X25101571Y49688752D01*
X25123833Y49700000D01*
X25396069Y49700000D01*
X25403882Y49699385D01*
X25484931Y49686548D01*
X25499718Y49681744D01*
X25569326Y49646277D01*
X25581899Y49637142D01*
X25637142Y49581899D01*
X25646277Y49569326D01*
X25681744Y49499718D01*
X25686548Y49484931D01*
X25699385Y49403882D01*
X25700000Y49396069D01*
X25700000Y49121077D01*
X25719500Y49061750D01*
X25776439Y49023893D01*
X26382814Y48876893D01*
X26439599Y48881430D01*
X26476915Y48879347D01*
X26539896Y48842985D01*
X26565643Y48832574D01*
X26565683Y48832564D01*
X26627968Y48837093D01*
X26675421Y48877691D01*
X26689534Y48938525D01*
X26664804Y48995869D01*
X26639936Y49016179D01*
X26570150Y49056470D01*
X26566808Y49060207D01*
X26568198Y49085111D01*
X26716819Y49342529D01*
X26721256Y49348984D01*
X26772895Y49412754D01*
X26784452Y49423160D01*
X26849970Y49465708D01*
X26864169Y49472030D01*
X26939633Y49492250D01*
X26955088Y49493874D01*
X27033104Y49489786D01*
X27048309Y49486554D01*
X27124933Y49457140D01*
X27131982Y49453778D01*
X27374526Y49313744D01*
X27377869Y49310006D01*
X27376479Y49285102D01*
X27238394Y49045931D01*
X26978590Y49195929D01*
X26743861Y48789367D01*
X27554203Y48592920D01*
X27671410Y48795929D01*
X27411607Y48945926D01*
X27553601Y49191868D01*
X27557338Y49195209D01*
X27594427Y49193139D01*
X27654749Y49209302D01*
X27693719Y49258101D01*
X27700000Y49292983D01*
X27700000Y54084315D01*
X27670711Y54155025D01*
X27290957Y54534779D01*
X27282556Y54544791D01*
X27281928Y54544264D01*
X27281885Y54544311D01*
X27282513Y54544838D01*
X27265813Y54564740D01*
X27252769Y54587332D01*
X27248083Y54594687D01*
X27233125Y54616050D01*
X27223977Y54635668D01*
X27216573Y54656009D01*
X27212044Y54681695D01*
X27210155Y54690213D01*
X27203405Y54715402D01*
X27201141Y54741283D01*
X27200436Y54741221D01*
X27200433Y54741290D01*
X27201139Y54741352D01*
X27200000Y54754371D01*
X27200000Y55426423D01*
X27180500Y55485750D01*
X27156809Y55508719D01*
X27154635Y55510220D01*
X27055423Y55598114D01*
X27047456Y55607107D01*
X26972161Y55716190D01*
X26966583Y55726817D01*
X26919578Y55850759D01*
X26916706Y55862412D01*
X26900729Y55993996D01*
X26900729Y56006004D01*
X26916706Y56137588D01*
X26919578Y56149241D01*
X26966583Y56273183D01*
X26972161Y56283810D01*
X27047456Y56392893D01*
X27055423Y56401886D01*
X27154633Y56489778D01*
X27164517Y56496601D01*
X27281879Y56558198D01*
X27293115Y56562459D01*
X27421801Y56594176D01*
X27433730Y56595625D01*
X27566270Y56595625D01*
X27578199Y56594176D01*
X27706885Y56562459D01*
X27718121Y56558198D01*
X27835483Y56496601D01*
X27845367Y56489778D01*
X27944577Y56401886D01*
X27952544Y56392893D01*
X28027839Y56283810D01*
X28033418Y56273180D01*
X28065324Y56189050D01*
X28104594Y56140492D01*
X28165014Y56124702D01*
X28229535Y56153799D01*
X28670711Y56594975D01*
X28700000Y56665685D01*
X28700000Y62334315D01*
X28670711Y62405025D01*
X28405025Y62670711D01*
X28334315Y62700000D01*
X26415686Y62700000D01*
X26344976Y62670711D01*
X26215224Y62540959D01*
X26205215Y62532561D01*
X26205655Y62532036D01*
X26205601Y62531987D01*
X26205161Y62532511D01*
X26185260Y62515812D01*
X26162679Y62502775D01*
X26155323Y62498089D01*
X26133954Y62483127D01*
X26114328Y62473975D01*
X26093990Y62466573D01*
X26068301Y62462043D01*
X26059785Y62460155D01*
X26034593Y62453405D01*
X26008717Y62451141D01*
X26008779Y62450436D01*
X26008710Y62450433D01*
X26008648Y62451139D01*
X25995629Y62450000D01*
X24004371Y62450000D01*
X23991352Y62451139D01*
X23991290Y62450433D01*
X23991221Y62450436D01*
X23991283Y62451141D01*
X23965402Y62453405D01*
X23940213Y62460155D01*
X23931695Y62462044D01*
X23906009Y62466573D01*
X23885668Y62473977D01*
X23866050Y62483125D01*
X23844687Y62498083D01*
X23837332Y62502769D01*
X23814740Y62515813D01*
X23794838Y62532513D01*
X23794311Y62531885D01*
X23794264Y62531928D01*
X23794791Y62532556D01*
X23784779Y62540957D01*
X21605025Y64720711D01*
X21534315Y64750000D01*
X20603655Y64750000D01*
X20557183Y64738546D01*
X20468121Y64691802D01*
X20456885Y64687541D01*
X20328199Y64655824D01*
X20316270Y64654375D01*
X20183730Y64654375D01*
X20171801Y64655824D01*
X20043115Y64687541D01*
X20031879Y64691802D01*
X19942817Y64738546D01*
X19896345Y64750000D01*
X19649999Y64750000D01*
X19590672Y64730500D01*
X19550000Y64650001D01*
X19550000Y64165685D01*
X19579289Y64094975D01*
X20308343Y63365921D01*
X20364082Y63337759D01*
X20402986Y63339538D01*
X20421806Y63344177D01*
X20433730Y63345625D01*
X20566270Y63345625D01*
X20578199Y63344176D01*
X20706885Y63312459D01*
X20718121Y63308198D01*
X20835483Y63246601D01*
X20845367Y63239778D01*
X20944577Y63151886D01*
X20952544Y63142893D01*
X21027839Y63033810D01*
X21033417Y63023183D01*
X21080422Y62899241D01*
X21083294Y62887588D01*
X21099271Y62756004D01*
X21099271Y62743996D01*
X21083294Y62612412D01*
X21080422Y62600759D01*
X21033417Y62476817D01*
X21027839Y62466190D01*
X20952544Y62357107D01*
X20944577Y62348114D01*
X20840839Y62256210D01*
X20841914Y62254996D01*
X20808697Y62211210D01*
X20807830Y62148766D01*
X20844178Y62097985D01*
X20879322Y62081576D01*
X20956885Y62062459D01*
X20968121Y62058198D01*
X21085483Y61996601D01*
X21095367Y61989778D01*
X21194577Y61901886D01*
X21202544Y61892893D01*
X21277839Y61783810D01*
X21283417Y61773183D01*
X21330422Y61649241D01*
X21333294Y61637588D01*
X21349271Y61506004D01*
X21349271Y61493996D01*
X21333294Y61362412D01*
X21330422Y61350759D01*
X21283417Y61226817D01*
X21277839Y61216190D01*
X21202544Y61107107D01*
X21194577Y61098114D01*
X21095367Y61010222D01*
X21085483Y61003399D01*
X20968121Y60941802D01*
X20956885Y60937541D01*
X20828199Y60905824D01*
X20816270Y60904375D01*
X20683730Y60904375D01*
X20671801Y60905824D01*
X20543115Y60937541D01*
X20531879Y60941802D01*
X20414517Y61003399D01*
X20404633Y61010222D01*
X20305423Y61098114D01*
X20297456Y61107107D01*
X20222161Y61216190D01*
X20216583Y61226817D01*
X20169578Y61350759D01*
X20166706Y61362412D01*
X20150729Y61493996D01*
X20150729Y61506004D01*
X20163159Y61608373D01*
X20134599Y61691137D01*
X19979535Y61846201D01*
X19923796Y61874363D01*
X19862218Y61863965D01*
X19815324Y61810950D01*
X19783418Y61726820D01*
X19777839Y61716190D01*
X19702544Y61607107D01*
X19694577Y61598114D01*
X19595367Y61510222D01*
X19585483Y61503399D01*
X19468121Y61441802D01*
X19456885Y61437541D01*
X19328199Y61405824D01*
X19316270Y61404375D01*
X19183730Y61404375D01*
X19171801Y61405824D01*
X19043115Y61437541D01*
X19031879Y61441802D01*
X18914517Y61503399D01*
X18904633Y61510222D01*
X18816312Y61588467D01*
X18758974Y61613213D01*
X18683688Y61588467D01*
X18595367Y61510222D01*
X18585483Y61503399D01*
X18468121Y61441802D01*
X18456885Y61437541D01*
X18328199Y61405824D01*
X18316270Y61404375D01*
X18183730Y61404375D01*
X18171801Y61405824D01*
X18043115Y61437541D01*
X18031879Y61441802D01*
X17914517Y61503399D01*
X17904633Y61510222D01*
X17805423Y61598114D01*
X17797456Y61607107D01*
X17732296Y61701507D01*
X17682547Y61739255D01*
X17620103Y61740127D01*
X17569319Y61703782D01*
X17550000Y61644701D01*
X17550000Y60441794D01*
X17569500Y60382467D01*
X17620395Y60346278D01*
X17665620Y60344947D01*
X17665802Y60343448D01*
X17683730Y60345625D01*
X17816270Y60345625D01*
X17828199Y60344176D01*
X17956885Y60312459D01*
X17968121Y60308198D01*
X18085483Y60246601D01*
X18095367Y60239778D01*
X18194577Y60151886D01*
X18202544Y60142893D01*
X18277839Y60033810D01*
X18283417Y60023183D01*
X18330422Y59899241D01*
X18333294Y59887588D01*
X18349271Y59756004D01*
X18349271Y59743996D01*
X18333294Y59612412D01*
X18330422Y59600759D01*
X18283417Y59476817D01*
X18277839Y59466190D01*
X18202544Y59357107D01*
X18194577Y59348114D01*
X18095367Y59260222D01*
X18085483Y59253399D01*
X17968121Y59191802D01*
X17956885Y59187541D01*
X17828199Y59155824D01*
X17816270Y59154375D01*
X17683730Y59154375D01*
X17671801Y59155824D01*
X17543115Y59187541D01*
X17531879Y59191802D01*
X17483516Y59217185D01*
X17421922Y59227489D01*
X17366226Y59199242D01*
X17338149Y59143460D01*
X17366334Y59057930D01*
X17808343Y58615921D01*
X17864082Y58587759D01*
X17902986Y58589538D01*
X17921806Y58594177D01*
X17933730Y58595625D01*
X18066270Y58595625D01*
X18078199Y58594176D01*
X18206885Y58562459D01*
X18218121Y58558198D01*
X18335483Y58496601D01*
X18345367Y58489778D01*
X18444577Y58401886D01*
X18452544Y58392893D01*
X18527839Y58283810D01*
X18533417Y58273183D01*
X18580422Y58149241D01*
X18583294Y58137588D01*
X18599271Y58006004D01*
X18599271Y57993996D01*
X18583294Y57862412D01*
X18580422Y57850759D01*
X18533417Y57726817D01*
X18527839Y57716190D01*
X18452544Y57607107D01*
X18444577Y57598114D01*
X18345367Y57510222D01*
X18335483Y57503399D01*
X18218121Y57441802D01*
X18206885Y57437541D01*
X18078199Y57405824D01*
X18066270Y57404375D01*
X17933730Y57404375D01*
X17921801Y57405824D01*
X17793115Y57437541D01*
X17781879Y57441802D01*
X17733516Y57467185D01*
X17671922Y57477489D01*
X17616226Y57449242D01*
X17588149Y57393460D01*
X17616334Y57307930D01*
X17808343Y57115921D01*
X17864082Y57087759D01*
X17902986Y57089538D01*
X17921806Y57094177D01*
X17933730Y57095625D01*
X18066270Y57095625D01*
X18078199Y57094176D01*
X18206885Y57062459D01*
X18218121Y57058198D01*
X18335483Y56996601D01*
X18345367Y56989778D01*
X18444577Y56901886D01*
X18452544Y56892893D01*
X18527839Y56783810D01*
X18533417Y56773183D01*
X18580422Y56649241D01*
X18583294Y56637588D01*
X18599271Y56506004D01*
X18599271Y56493996D01*
X18583294Y56362412D01*
X18580422Y56350759D01*
X18533417Y56226817D01*
X18527839Y56216190D01*
X18452544Y56107107D01*
X18444577Y56098114D01*
X18345367Y56010222D01*
X18335483Y56003399D01*
X18218121Y55941802D01*
X18206885Y55937541D01*
X18078199Y55905824D01*
X18066270Y55904375D01*
X17933730Y55904375D01*
X17921801Y55905824D01*
X17793115Y55937541D01*
X17781879Y55941802D01*
X17733516Y55967185D01*
X17671922Y55977489D01*
X17616226Y55949242D01*
X17588149Y55893460D01*
X17616334Y55807930D01*
X17808343Y55615921D01*
X17864082Y55587759D01*
X17902986Y55589538D01*
X17921806Y55594177D01*
X17933730Y55595625D01*
X18066270Y55595625D01*
X18078199Y55594176D01*
X18206885Y55562459D01*
X18218121Y55558198D01*
X18335483Y55496601D01*
X18345367Y55489778D01*
X18444577Y55401886D01*
X18452544Y55392893D01*
X18527839Y55283810D01*
X18533417Y55273183D01*
X18580422Y55149241D01*
X18583294Y55137588D01*
X18599271Y55006004D01*
X18599271Y54993996D01*
X18583294Y54862412D01*
X18580422Y54850759D01*
X18533417Y54726817D01*
X18527839Y54716190D01*
X18452544Y54607107D01*
X18444577Y54598114D01*
X18345367Y54510222D01*
X18335483Y54503399D01*
X18218121Y54441802D01*
X18206885Y54437541D01*
X18078199Y54405824D01*
X18066270Y54404375D01*
X17933730Y54404375D01*
X17921801Y54405824D01*
X17793115Y54437541D01*
X17781879Y54441802D01*
X17733516Y54467185D01*
X17671922Y54477489D01*
X17616226Y54449242D01*
X17588149Y54393460D01*
X17616334Y54307930D01*
X17808343Y54115921D01*
X17864082Y54087759D01*
X17902986Y54089538D01*
X17921806Y54094177D01*
X17933730Y54095625D01*
X18066270Y54095625D01*
X18078199Y54094176D01*
X18206885Y54062459D01*
X18218121Y54058198D01*
X18335483Y53996601D01*
X18345367Y53989778D01*
X18444577Y53901886D01*
X18452544Y53892893D01*
X18527839Y53783810D01*
X18533417Y53773183D01*
X18580422Y53649241D01*
X18583294Y53637588D01*
X18599271Y53506004D01*
X18599271Y53493996D01*
X18583294Y53362412D01*
X18580422Y53350759D01*
X18533417Y53226817D01*
X18527839Y53216190D01*
X18452544Y53107107D01*
X18444577Y53098114D01*
X18345367Y53010222D01*
X18335483Y53003399D01*
X18218121Y52941802D01*
X18206885Y52937541D01*
X18078199Y52905824D01*
X18066270Y52904375D01*
X17933730Y52904375D01*
X17921801Y52905824D01*
X17793115Y52937541D01*
X17781879Y52941802D01*
X17664517Y53003399D01*
X17654633Y53010222D01*
X17555423Y53098114D01*
X17547456Y53107107D01*
X17472161Y53216190D01*
X17466583Y53226817D01*
X17419578Y53350759D01*
X17416706Y53362412D01*
X17400729Y53493996D01*
X17400729Y53506004D01*
X17413159Y53608373D01*
X17384599Y53691137D01*
X15040957Y56034779D01*
X15032556Y56044791D01*
X15031928Y56044264D01*
X15031885Y56044311D01*
X15032513Y56044838D01*
X15015813Y56064740D01*
X15002769Y56087332D01*
X14998083Y56094687D01*
X14983125Y56116050D01*
X14973977Y56135668D01*
X14966573Y56156009D01*
X14962044Y56181695D01*
X14960155Y56190213D01*
X14953405Y56215402D01*
X14951141Y56241283D01*
X14950436Y56241221D01*
X14950433Y56241290D01*
X14951139Y56241352D01*
X14950000Y56254371D01*
X14950000Y68245630D01*
X14951139Y68258651D01*
X14950475Y68258709D01*
X14950478Y68258775D01*
X14951143Y68258717D01*
X14953407Y68284598D01*
X14960153Y68309772D01*
X14962042Y68318292D01*
X14966573Y68343989D01*
X14973974Y68364326D01*
X14986824Y68391882D01*
X14985200Y68392639D01*
X15000000Y68439580D01*
X15000000Y68480109D01*
X15014065Y68514065D01*
X15626399Y69126399D01*
X15654959Y69209164D01*
X15650729Y69243998D01*
X15650729Y69256004D01*
X15666706Y69387588D01*
X15669578Y69399241D01*
X15716583Y69523183D01*
X15722161Y69533810D01*
X15797456Y69642893D01*
X15805423Y69651886D01*
X15904633Y69739778D01*
X15914516Y69746601D01*
X16016422Y69800085D01*
X16059891Y69844922D01*
X16068283Y69906806D01*
X16040660Y69959340D01*
X14670709Y71329291D01*
X14614970Y71357453D01*
X14553392Y71347055D01*
X14509991Y71302151D01*
X14500000Y71258581D01*
X14500000Y68605302D01*
X14517702Y68548495D01*
X14527841Y68533806D01*
X14533417Y68523183D01*
X14580422Y68399241D01*
X14583294Y68387588D01*
X14599635Y68253004D01*
X14600000Y68246972D01*
X14600000Y57003026D01*
X14599635Y56996990D01*
X14598902Y56990956D01*
X14598355Y56972854D01*
X14598539Y56969813D01*
X14597814Y56957819D01*
X14589659Y56913319D01*
X14588750Y56907348D01*
X14583294Y56862414D01*
X14580420Y56850753D01*
X14579334Y56847890D01*
X14574476Y56830464D01*
X14573923Y56827450D01*
X14570351Y56815986D01*
X14551783Y56774728D01*
X14549473Y56769150D01*
X14533421Y56726824D01*
X14527840Y56716192D01*
X14526100Y56713671D01*
X14517207Y56697904D01*
X14515949Y56695108D01*
X14509740Y56684837D01*
X14481828Y56649210D01*
X14478249Y56644346D01*
X14452541Y56607102D01*
X14444579Y56598116D01*
X14442284Y56596082D01*
X14429886Y56582911D01*
X14426129Y56578116D01*
X14422128Y56573600D01*
X11426400Y53577872D01*
X11421886Y53573873D01*
X11383878Y53544095D01*
X11379239Y53540229D01*
X11345367Y53510221D01*
X11335485Y53503401D01*
X11332778Y53501980D01*
X11317575Y53492150D01*
X11315166Y53490262D01*
X11304887Y53484049D01*
X11263631Y53465481D01*
X11258200Y53462837D01*
X11218119Y53441801D01*
X11206883Y53437540D01*
X11203914Y53436808D01*
X11186803Y53430904D01*
X11184017Y53429650D01*
X11172553Y53426078D01*
X11128042Y53417921D01*
X11122136Y53416653D01*
X11078199Y53405824D01*
X11066270Y53404375D01*
X11063213Y53404375D01*
X11045187Y53402737D01*
X11042172Y53402184D01*
X11030196Y53401460D01*
X10985009Y53404193D01*
X10978971Y53404375D01*
X10933724Y53404375D01*
X10921802Y53405822D01*
X10918829Y53406555D01*
X10900938Y53409278D01*
X10897887Y53409463D01*
X10886074Y53411627D01*
X10842866Y53425092D01*
X10837045Y53426715D01*
X10793105Y53437545D01*
X10781879Y53441802D01*
X10779171Y53443223D01*
X10762455Y53450147D01*
X10759529Y53451059D01*
X10748578Y53455988D01*
X10709850Y53479400D01*
X10704588Y53482368D01*
X10664520Y53503398D01*
X10654635Y53510221D01*
X10652347Y53512248D01*
X10637764Y53522977D01*
X10635152Y53524556D01*
X10625691Y53531968D01*
X10593695Y53563964D01*
X10589297Y53568104D01*
X10555423Y53598114D01*
X10547458Y53607104D01*
X10545719Y53609624D01*
X10534132Y53623527D01*
X10531967Y53625692D01*
X10524561Y53635145D01*
X10501146Y53673877D01*
X10497867Y53678949D01*
X10472158Y53716195D01*
X10466580Y53726823D01*
X10465492Y53729691D01*
X10457572Y53745957D01*
X10455989Y53748575D01*
X10451061Y53759525D01*
X10437600Y53802724D01*
X10435630Y53808434D01*
X10419581Y53850753D01*
X10416706Y53862418D01*
X10416337Y53865455D01*
X10412538Y53883149D01*
X10411629Y53886066D01*
X10409463Y53897886D01*
X10406730Y53943062D01*
X10406183Y53949077D01*
X10400729Y53993996D01*
X10400729Y54006006D01*
X10401098Y54009044D01*
X10401645Y54027146D01*
X10401461Y54030187D01*
X10402186Y54042181D01*
X10410341Y54086681D01*
X10411250Y54092652D01*
X10416706Y54137586D01*
X10419580Y54149247D01*
X10420666Y54152110D01*
X10425524Y54169536D01*
X10426077Y54172550D01*
X10429649Y54184014D01*
X10448217Y54225272D01*
X10450527Y54230850D01*
X10466579Y54273176D01*
X10472160Y54283808D01*
X10473900Y54286329D01*
X10482793Y54302096D01*
X10484051Y54304892D01*
X10490260Y54315163D01*
X10518172Y54350790D01*
X10521751Y54355654D01*
X10547459Y54392898D01*
X10555421Y54401884D01*
X10557716Y54403918D01*
X10570114Y54417089D01*
X10573871Y54421884D01*
X10577872Y54426400D01*
X10905131Y54753659D01*
X10933293Y54809398D01*
X10922895Y54870976D01*
X10858352Y54921462D01*
X10793115Y54937541D01*
X10781879Y54941802D01*
X10664517Y55003399D01*
X10654633Y55010222D01*
X10555423Y55098114D01*
X10547456Y55107107D01*
X10472161Y55216190D01*
X10466583Y55226817D01*
X10419578Y55350759D01*
X10416706Y55362412D01*
X10400729Y55493996D01*
X10400729Y55506004D01*
X10416706Y55637588D01*
X10419578Y55649241D01*
X10466583Y55773183D01*
X10472161Y55783810D01*
X10547456Y55892893D01*
X10555423Y55901886D01*
X10581682Y55925150D01*
X10613158Y55979087D01*
X10606496Y56041181D01*
X10581682Y56074850D01*
X10555423Y56098114D01*
X10547456Y56107107D01*
X10472161Y56216190D01*
X10466583Y56226817D01*
X10419578Y56350759D01*
X10416706Y56362412D01*
X10400729Y56493996D01*
X10400729Y56506004D01*
X10416706Y56637588D01*
X10419578Y56649241D01*
X10466583Y56773183D01*
X10472161Y56783810D01*
X10547456Y56892893D01*
X10555423Y56901886D01*
X10581682Y56925150D01*
X10613158Y56979087D01*
X10606496Y57041181D01*
X10581682Y57074850D01*
X10555423Y57098114D01*
X10547456Y57107107D01*
X10472161Y57216190D01*
X10466583Y57226817D01*
X10419578Y57350759D01*
X10416706Y57362412D01*
X10400729Y57493996D01*
X10400729Y57506004D01*
X10416706Y57637588D01*
X10419578Y57649241D01*
X10466583Y57773183D01*
X10472161Y57783810D01*
X10547456Y57892893D01*
X10555423Y57901886D01*
X10654633Y57989778D01*
X10664517Y57996601D01*
X10740452Y58036455D01*
X10783921Y58081293D01*
X10792313Y58143176D01*
X10740452Y58213545D01*
X10664517Y58253399D01*
X10654633Y58260222D01*
X10555423Y58348114D01*
X10547456Y58357107D01*
X10472161Y58466190D01*
X10466583Y58476817D01*
X10419578Y58600759D01*
X10416706Y58612412D01*
X10400729Y58743996D01*
X10400729Y58756004D01*
X10416706Y58887588D01*
X10419578Y58899241D01*
X10466583Y59023183D01*
X10472161Y59033810D01*
X10547456Y59142893D01*
X10555423Y59151886D01*
X10654633Y59239778D01*
X10664517Y59246601D01*
X10781879Y59308198D01*
X10793115Y59312459D01*
X10921801Y59344176D01*
X10933730Y59345625D01*
X11066270Y59345625D01*
X11078194Y59344177D01*
X11097014Y59339538D01*
X11159284Y59344273D01*
X11191657Y59365921D01*
X11420711Y59594975D01*
X11450000Y59665685D01*
X11450000Y61648083D01*
X11430500Y61707410D01*
X11379605Y61743599D01*
X11303529Y61736628D01*
X11218121Y61691802D01*
X11206885Y61687541D01*
X11078199Y61655824D01*
X11066270Y61654375D01*
X10933730Y61654375D01*
X10921801Y61655824D01*
X10793115Y61687541D01*
X10781879Y61691802D01*
X10664517Y61753399D01*
X10654633Y61760222D01*
X10555423Y61848114D01*
X10547456Y61857107D01*
X10472161Y61966190D01*
X10466583Y61976817D01*
X10419578Y62100759D01*
X10416706Y62112412D01*
X10400729Y62243996D01*
X10400729Y62256004D01*
X10416706Y62387588D01*
X10419578Y62399241D01*
X10468726Y62528834D01*
X10466177Y62529801D01*
X10473765Y62581374D01*
X10444428Y62636503D01*
X10399164Y62661403D01*
X10293115Y62687541D01*
X10281879Y62691802D01*
X10164517Y62753399D01*
X10154633Y62760222D01*
X10055423Y62848114D01*
X10047456Y62857107D01*
X9972161Y62966190D01*
X9966583Y62976817D01*
X9919578Y63100759D01*
X9916706Y63112412D01*
X9900729Y63243996D01*
X9900729Y63256004D01*
X9916706Y63387588D01*
X9919578Y63399241D01*
X9968726Y63528834D01*
X9966177Y63529801D01*
X9973765Y63581374D01*
X9944428Y63636503D01*
X9899164Y63661403D01*
X9793115Y63687541D01*
X9781879Y63691802D01*
X9664517Y63753399D01*
X9654633Y63760222D01*
X9555423Y63848114D01*
X9547456Y63857107D01*
X9472161Y63966190D01*
X9466583Y63976817D01*
X9419578Y64100759D01*
X9416706Y64112412D01*
X9400729Y64243996D01*
X9400729Y64256004D01*
X9416706Y64387588D01*
X9419578Y64399241D01*
X9468726Y64528834D01*
X9466177Y64529801D01*
X9473765Y64581374D01*
X9444428Y64636503D01*
X9399164Y64661403D01*
X9293115Y64687541D01*
X9281879Y64691802D01*
X9192817Y64738546D01*
X9146345Y64750000D01*
X8715685Y64750000D01*
X8644975Y64720711D01*
X8465221Y64540957D01*
X8455209Y64532556D01*
X8455736Y64531928D01*
X8455689Y64531885D01*
X8455162Y64532513D01*
X8435260Y64515813D01*
X8412668Y64502769D01*
X8405313Y64498083D01*
X8383950Y64483125D01*
X8364332Y64473977D01*
X8343991Y64466573D01*
X8318305Y64462044D01*
X8309787Y64460155D01*
X8284598Y64453405D01*
X8258717Y64451141D01*
X8258779Y64450436D01*
X8258710Y64450433D01*
X8258648Y64451139D01*
X8245629Y64450000D01*
X7853652Y64450000D01*
X7794325Y64430500D01*
X7758136Y64379605D01*
X7759198Y64317164D01*
X7807179Y64261457D01*
X7835480Y64246603D01*
X7845367Y64239778D01*
X7944577Y64151886D01*
X7952544Y64142893D01*
X8027839Y64033810D01*
X8033417Y64023183D01*
X8080422Y63899241D01*
X8083294Y63887588D01*
X8099271Y63756004D01*
X8099271Y63743996D01*
X8083294Y63612412D01*
X8080422Y63600759D01*
X8033417Y63476817D01*
X8027839Y63466190D01*
X7952544Y63357107D01*
X7944577Y63348114D01*
X7845367Y63260222D01*
X7835483Y63253399D01*
X7718121Y63191802D01*
X7706885Y63187541D01*
X7578199Y63155824D01*
X7566270Y63154375D01*
X7433730Y63154375D01*
X7421801Y63155824D01*
X7293115Y63187541D01*
X7281875Y63191804D01*
X7238289Y63214679D01*
X7176696Y63224983D01*
X7121108Y63196844D01*
X4465221Y60540957D01*
X4455209Y60532556D01*
X4455736Y60531928D01*
X4455689Y60531885D01*
X4455162Y60532513D01*
X4435260Y60515813D01*
X4412668Y60502769D01*
X4405313Y60498083D01*
X4383950Y60483125D01*
X4364332Y60473977D01*
X4343991Y60466573D01*
X4325996Y60463400D01*
X4270956Y60433894D01*
X4244154Y60377488D01*
X4261063Y60308113D01*
X4281274Y60278833D01*
X4283189Y60280155D01*
X4321054Y60243461D01*
X4411213Y60244867D01*
X4531879Y60308198D01*
X4543115Y60312459D01*
X4671801Y60344176D01*
X4683730Y60345625D01*
X4816270Y60345625D01*
X4828199Y60344176D01*
X4956885Y60312459D01*
X4968121Y60308198D01*
X5085483Y60246601D01*
X5095367Y60239778D01*
X5194577Y60151886D01*
X5202544Y60142893D01*
X5277839Y60033810D01*
X5283417Y60023183D01*
X5330422Y59899241D01*
X5333294Y59887588D01*
X5349271Y59756004D01*
X5349271Y59743996D01*
X5333294Y59612412D01*
X5330422Y59600759D01*
X5283417Y59476817D01*
X5277839Y59466190D01*
X5202544Y59357107D01*
X5194577Y59348114D01*
X5095367Y59260222D01*
X5085483Y59253399D01*
X5009548Y59213545D01*
X4966079Y59168707D01*
X4957687Y59106824D01*
X5009548Y59036455D01*
X5085483Y58996601D01*
X5095367Y58989778D01*
X5194577Y58901886D01*
X5202544Y58892893D01*
X5277839Y58783810D01*
X5283417Y58773183D01*
X5330422Y58649241D01*
X5333294Y58637588D01*
X5349271Y58506004D01*
X5349271Y58493996D01*
X5333294Y58362412D01*
X5330422Y58350759D01*
X5283417Y58226817D01*
X5277839Y58216190D01*
X5202544Y58107107D01*
X5194577Y58098114D01*
X5095365Y58010220D01*
X5093191Y58008719D01*
X5092207Y58007422D01*
X5090839Y58006210D01*
X5091081Y58005937D01*
X5055444Y57958968D01*
X5050000Y57926423D01*
X5050000Y57573577D01*
X5069500Y57514250D01*
X5093191Y57491281D01*
X5095365Y57489780D01*
X5194577Y57401886D01*
X5202544Y57392893D01*
X5277839Y57283810D01*
X5283417Y57273183D01*
X5330422Y57149241D01*
X5333294Y57137588D01*
X5349271Y57006004D01*
X5349271Y56993996D01*
X5333294Y56862412D01*
X5330422Y56850759D01*
X5283417Y56726817D01*
X5277839Y56716190D01*
X5202544Y56607107D01*
X5194577Y56598114D01*
X5095367Y56510222D01*
X5085483Y56503399D01*
X4968121Y56441802D01*
X4956890Y56437543D01*
X4952410Y56436439D01*
X4899473Y56403309D01*
X4876513Y56345233D01*
X4905629Y56268635D01*
X4959042Y56215222D01*
X4967443Y56205210D01*
X4968005Y56205682D01*
X4968050Y56205633D01*
X4967488Y56205161D01*
X4984188Y56185259D01*
X4997235Y56162661D01*
X5001923Y56155303D01*
X5016871Y56133955D01*
X5026028Y56114321D01*
X5033427Y56093989D01*
X5037958Y56068292D01*
X5039847Y56059772D01*
X5046593Y56034598D01*
X5048857Y56008717D01*
X5049522Y56008775D01*
X5049525Y56008709D01*
X5048861Y56008651D01*
X5050000Y55995630D01*
X5050000Y55073577D01*
X5069500Y55014250D01*
X5093191Y54991281D01*
X5095365Y54989780D01*
X5194577Y54901886D01*
X5202544Y54892893D01*
X5277839Y54783810D01*
X5283417Y54773183D01*
X5330422Y54649241D01*
X5333294Y54637588D01*
X5349271Y54506004D01*
X5349271Y54493996D01*
X5333294Y54362412D01*
X5330422Y54350759D01*
X5283417Y54226817D01*
X5277839Y54216190D01*
X5202544Y54107107D01*
X5194577Y54098114D01*
X5095367Y54010222D01*
X5085483Y54003399D01*
X4968121Y53941802D01*
X4956885Y53937541D01*
X4828199Y53905824D01*
X4816270Y53904375D01*
X4683730Y53904375D01*
X4671801Y53905824D01*
X4543115Y53937541D01*
X4531879Y53941802D01*
X4414517Y54003399D01*
X4404633Y54010222D01*
X4316312Y54088467D01*
X4258974Y54113213D01*
X4183688Y54088467D01*
X4095367Y54010222D01*
X4085483Y54003399D01*
X3968121Y53941802D01*
X3956885Y53937541D01*
X3828199Y53905824D01*
X3816270Y53904375D01*
X3683730Y53904375D01*
X3671801Y53905824D01*
X3543115Y53937541D01*
X3531879Y53941802D01*
X3414517Y54003399D01*
X3404633Y54010222D01*
X3305423Y54098114D01*
X3297456Y54107107D01*
X3222161Y54216190D01*
X3216583Y54226817D01*
X3169578Y54350759D01*
X3166706Y54362412D01*
X3150729Y54493996D01*
X3150729Y54506004D01*
X3166706Y54637588D01*
X3169578Y54649241D01*
X3216583Y54773183D01*
X3222161Y54783810D01*
X3297456Y54892893D01*
X3305423Y54901886D01*
X3404635Y54989780D01*
X3406809Y54991281D01*
X3407793Y54992578D01*
X3409161Y54993790D01*
X3408919Y54994063D01*
X3444556Y55041032D01*
X3450000Y55073577D01*
X3450000Y56084315D01*
X3420711Y56155025D01*
X3040957Y56534779D01*
X3032556Y56544791D01*
X3031928Y56544264D01*
X3031885Y56544311D01*
X3032513Y56544838D01*
X3015813Y56564740D01*
X3002769Y56587332D01*
X2998083Y56594687D01*
X2983125Y56616050D01*
X2973977Y56635668D01*
X2966573Y56656009D01*
X2962044Y56681695D01*
X2960155Y56690213D01*
X2953405Y56715402D01*
X2951141Y56741283D01*
X2950436Y56741221D01*
X2950433Y56741290D01*
X2951139Y56741352D01*
X2950000Y56754371D01*
X2950000Y59495629D01*
X2951139Y59508648D01*
X2950433Y59508710D01*
X2950436Y59508778D01*
X2951141Y59508716D01*
X2952906Y59528887D01*
X2938652Y59589688D01*
X2891105Y59630176D01*
X2828810Y59634561D01*
X2782578Y59608314D01*
X1829289Y58655025D01*
X1800000Y58584315D01*
X1800000Y49761394D01*
G37*
G04 #@! TO.N,A_PIN*
G36*
X4000000Y100991419D02*
X4019500Y100932092D01*
X4070395Y100895903D01*
X4132836Y100896965D01*
X4170709Y100920709D01*
X4679290Y101429290D01*
X4707452Y101485029D01*
X4679290Y101570710D01*
X4229289Y102020711D01*
X4158579Y102050000D01*
X4099999Y102050000D01*
X4040672Y102030500D01*
X4000000Y101950001D01*
X4000000Y100991419D01*
G37*
G04 --- BOARD END --- *
G04 #@! TF.MD5,dd923a1f27b436ef7e5b21543932a0b2*
M02*
