G04 --- HEADER BEGIN --- *
G04 #@! TF.GenerationSoftware,LibrePCB,LibrePCB,2.0.1*
G04 #@! TF.CreationDate,2026-05-26T19:08:47*
G04 #@! TF.ProjectId,ESPmote (ESPmote_WROOM32),c75d975a-3822-4103-ad87-6dcb39d2a138,v1*
G04 #@! TF.Part,Single*
G04 #@! TF.SameCoordinates*
G04 #@! TF.FileFunction,Soldermask,Bot*
G04 #@! TF.FilePolarity,Negative*
%FSLAX66Y66*%
%MOMM*%
G01*
G75*
G04 --- HEADER END --- *
G04 --- APERTURE LIST BEGIN --- *
%ADD10C,2.45*%
%ADD11O,1.787X2.39*%
%AMROUNDEDRECT12*20,1,1.787,-1.095,0.0,1.095,0.0,90.0*20,1,1.587,-1.195,0.0,1.195,0.0,90.0*1,1,0.2,-0.7935,-1.095*1,1,0.2,-0.7935,1.095*1,1,0.2,0.7935,1.095*1,1,0.2,0.7935,-1.095*%
%ADD12ROUNDEDRECT12*%
%AMOUTLINE13*4,1,31,1.205279,-3.589443,0.705279,-3.339443,0.679289,-3.320711,-0.320711,-2.320711,-0.339443,-2.294721,-0.839443,-1.294721,-0.85,-1.25,-0.85,1.25,-0.839443,1.294721,-0.339443,2.294721,-0.320711,2.320711,0.679289,3.320711,0.705279,3.339443,1.705279,3.839443,1.75,3.85,4.25,3.85,4.309327,3.8305,4.35,3.75,4.35,-1.5,4.320711,-1.570711,4.070711,-1.820711,4.0,-1.85,3.25,-1.85,3.190673,-1.8305,3.15,-1.75,3.15,2.15,1.791422,2.15,1.35,1.708578,1.35,-3.5,1.3305,-3.559327,1.279605,-3.595517,1.205279,-3.589443,225.0*%
%ADD13OUTLINE13*%
%AMOUTLINE14*4,1,31,1.205279,-3.589443,0.705279,-3.339443,0.679289,-3.320711,-0.320711,-2.320711,-0.339443,-2.294721,-0.839443,-1.294721,-0.85,-1.25,-0.85,1.25,-0.839443,1.294721,-0.339443,2.294721,-0.320711,2.320711,0.679289,3.320711,0.705279,3.339443,1.705279,3.839443,1.75,3.85,4.25,3.85,4.309327,3.8305,4.35,3.75,4.35,-1.5,4.320711,-1.570711,4.070711,-1.820711,4.0,-1.85,3.25,-1.85,3.190673,-1.8305,3.15,-1.75,3.15,2.15,1.791422,2.15,1.35,1.708578,1.35,-3.5,1.3305,-3.559327,1.279605,-3.595517,1.205279,-3.589443,45.0*%
%ADD14OUTLINE14*%
%ADD15C,1.208*%
%ADD16O,2.2X4.0*%
%ADD17C,1.2*%
%AMROUNDEDRECT18*20,1,1.787,-1.095,0.0,1.095,0.0,0.0*20,1,1.587,-1.195,0.0,1.195,0.0,0.0*1,1,0.2,-1.095,0.7935*1,1,0.2,1.095,0.7935*1,1,0.2,1.095,-0.7935*1,1,0.2,-1.095,-0.7935*%
%ADD18ROUNDEDRECT18*%
%AMROUNDEDRECT19*20,1,1.5,-3.6,0.0,3.6,0.0,90.0*20,1,1.3,-3.7,0.0,3.7,0.0,90.0*1,1,0.2,-0.65,-3.6*1,1,0.2,-0.65,3.6*1,1,0.2,0.65,3.6*1,1,0.2,0.65,-3.6*%
%ADD19ROUNDEDRECT19*%
%ADD20C,1.5*%
%AMROUNDEDRECT21*20,1,2.2,-1.25,0.0,1.25,0.0,0.0*20,1,2.0,-1.35,0.0,1.35,0.0,0.0*1,1,0.2,-1.25,1.0*1,1,0.2,1.25,1.0*1,1,0.2,1.25,-1.0*1,1,0.2,-1.25,-1.0*%
%ADD21ROUNDEDRECT21*%
%ADD22O,1.08X1.0*%
%ADD23O,2.2X4.2*%
%ADD24C,1.9*%
%AMROUNDEDRECT25*20,1,1.2,-0.825,0.0,0.825,0.0,0.0*20,1,1.0,-0.925,0.0,0.925,0.0,0.0*1,1,0.2,-0.825,0.5*1,1,0.2,0.825,0.5*1,1,0.2,0.825,-0.5*1,1,0.2,-0.825,-0.5*%
%ADD25ROUNDEDRECT25*%
%AMROUNDEDRECT26*20,1,1.2,-0.825,0.0,0.825,0.0,90.0*20,1,1.0,-0.925,0.0,0.925,0.0,90.0*1,1,0.2,-0.5,-0.825*1,1,0.2,-0.5,0.825*1,1,0.2,0.5,0.825*1,1,0.2,0.5,-0.825*%
%ADD26ROUNDEDRECT26*%
%AMROUNDEDRECT27*20,1,5.2,-2.5,0.0,2.5,0.0,0.0*20,1,5.0,-2.6,0.0,2.6,0.0,0.0*1,1,0.2,-2.5,2.5*1,1,0.2,2.5,2.5*1,1,0.2,2.5,-2.5*1,1,0.2,-2.5,-2.5*%
%ADD27ROUNDEDRECT27*%
%ADD28O,2.39X1.787*%
%ADD29C,0.7*%
G04 --- APERTURE LIST END --- *
G04 --- BOARD BEGIN --- *
D10*
X21717514Y99500000D03*
X8282486Y99500000D03*
D11*
G04 #@! TO.C,J1*
X9440000Y80000000D03*
D12*
X17060000Y80000000D03*
D11*
X11980000Y80000000D03*
X14520000Y80000000D03*
D13*
G04 #@! TO.C,B*
X17121320Y110121320D03*
D14*
X12878680Y105878680D03*
D10*
G04 #@! TD*
X8282486Y108000000D03*
X21717514Y108000000D03*
X8282486Y131000000D03*
X21717514Y131000000D03*
D15*
G04 #@! TO.C,J2*
X12515000Y138030000D03*
X11515000Y136030000D03*
X18515000Y138030000D03*
D16*
X20500000Y139100000D03*
D15*
X14515000Y138030000D03*
X17515000Y136030000D03*
X16515000Y138030000D03*
X15515000Y136030000D03*
D16*
X9500000Y139100000D03*
D15*
X13515000Y136030000D03*
D17*
G04 #@! TD*
X13515000Y140030000D03*
X17515000Y140030000D03*
D18*
G04 #@! TO.C,J5*
X27250000Y99500000D03*
D10*
G04 #@! TD*
X5500000Y114782486D03*
X5500000Y128217514D03*
D19*
G04 #@! TO.C,J3*
X13000000Y2500000D03*
D20*
X17000000Y7500000D03*
D21*
X23600000Y6800000D03*
D19*
X17000000Y2500000D03*
D21*
X6100000Y1300000D03*
X6400000Y6800000D03*
D20*
X13000000Y9500000D03*
X17000000Y9500000D03*
X15000000Y9500000D03*
X13000000Y7500000D03*
X15000000Y7500000D03*
D19*
X15000000Y2500000D03*
D21*
X23900000Y1300000D03*
D10*
G04 #@! TD*
X21717514Y112000000D03*
X8282486Y112000000D03*
D18*
G04 #@! TO.C,J6*
X27250000Y102500000D03*
D22*
G04 #@! TO.C,J4*
X7250000Y30500000D03*
X22750000Y29500000D03*
D23*
X2750000Y29250000D03*
X27250000Y28250000D03*
D10*
G04 #@! TD*
X8282486Y37000000D03*
X21717514Y37000000D03*
X8282486Y23250000D03*
X21717514Y23250000D03*
D24*
G04 #@! TO.C,SYNC*
X6750000Y25250000D03*
X2250000Y18750000D03*
X2250000Y25250000D03*
X6750000Y18750000D03*
D10*
G04 #@! TD*
X24500000Y128217514D03*
X24500000Y114782486D03*
D25*
G04 #@! TO.C,U1*
X23820000Y62920000D03*
X23820000Y56570000D03*
X6180000Y62920000D03*
D26*
X18180000Y66785000D03*
X15640000Y66785000D03*
X14370000Y66785000D03*
D25*
X6180000Y59110000D03*
X23820000Y52760000D03*
X6180000Y64190000D03*
X23820000Y50220000D03*
X6175000Y48950000D03*
X6180000Y54030000D03*
D26*
X13100000Y66785000D03*
D25*
X23820000Y57840000D03*
X6180000Y65460000D03*
X6180000Y57840000D03*
X6180000Y55300000D03*
X6175000Y51490000D03*
D26*
X11830000Y66785000D03*
D25*
X23820000Y48950000D03*
X23820000Y64190000D03*
D26*
X20720000Y66785000D03*
D25*
X23820000Y54030000D03*
X6180000Y61650000D03*
X6180000Y60380000D03*
D26*
X16910000Y66785000D03*
D25*
X6175000Y50220000D03*
X23820000Y60380000D03*
D26*
X10560000Y66785000D03*
X19450000Y66785000D03*
D25*
X23820000Y55300000D03*
X23820000Y51490000D03*
D26*
X9290000Y66785000D03*
D25*
X23820000Y59110000D03*
D27*
X14320000Y56290000D03*
D25*
X23820000Y61650000D03*
X6180000Y52760000D03*
X23820000Y65460000D03*
X6180000Y56570000D03*
D28*
G04 #@! TO.C,JTAG*
X26750000Y14190000D03*
D18*
X26750000Y21810000D03*
D28*
X26750000Y16730000D03*
X26750000Y19270000D03*
D29*
G04 #@! TD*
X7750000Y0D03*
X22250000Y0D03*
X8500000Y0D03*
X23000000Y0D03*
D10*
X5250000Y132000000D03*
D29*
X6250000Y0D03*
X21500000Y0D03*
X23750000Y0D03*
X7000000Y0D03*
G04 --- BOARD END --- *
G04 #@! TF.MD5,3585bc0beffe6508e06a3ac3d025b602*
M02*
