G04 --- HEADER BEGIN --- *
G04 #@! TF.GenerationSoftware,LibrePCB,LibrePCB,2.0.1*
G04 #@! TF.CreationDate,2026-05-19T01:23:53*
G04 #@! TF.ProjectId,ESPmote (ESPmote_WROOM32),c75d975a-3822-4103-ad87-6dcb39d2a138,v1*
G04 #@! TF.Part,Single*
G04 #@! TF.SameCoordinates*
G04 #@! TF.FileFunction,Legend,Bot*
G04 #@! TF.FilePolarity,Positive*
%FSLAX66Y66*%
%MOMM*%
G01*
G75*
G04 --- HEADER END --- *
G04 --- APERTURE LIST BEGIN --- *
%ADD10C,0.2*%
%ADD11C,0.127*%
%ADD12C,0.01*%
%ADD13C,0.4*%
%ADD14C,2.45*%
%ADD15O,1.787X2.39*%
%AMROUNDEDRECT16*20,1,1.787,-1.095,0.0,1.095,0.0,90.0*20,1,1.587,-1.195,0.0,1.195,0.0,90.0*1,1,0.2,-0.7935,-1.095*1,1,0.2,-0.7935,1.095*1,1,0.2,0.7935,1.095*1,1,0.2,0.7935,-1.095*%
%ADD16ROUNDEDRECT16*%
%AMOUTLINE17*4,1,31,1.205279,-3.589443,0.705279,-3.339443,0.679289,-3.320711,-0.320711,-2.320711,-0.339443,-2.294721,-0.839443,-1.294721,-0.85,-1.25,-0.85,1.25,-0.839443,1.294721,-0.339443,2.294721,-0.320711,2.320711,0.679289,3.320711,0.705279,3.339443,1.705279,3.839443,1.75,3.85,4.25,3.85,4.309327,3.8305,4.35,3.75,4.35,-1.5,4.320711,-1.570711,4.070711,-1.820711,4.0,-1.85,3.25,-1.85,3.190673,-1.8305,3.15,-1.75,3.15,2.15,1.791422,2.15,1.35,1.708578,1.35,-3.5,1.3305,-3.559327,1.279605,-3.595517,1.205279,-3.589443,225.0*%
%ADD17OUTLINE17*%
%AMOUTLINE18*4,1,31,1.205279,-3.589443,0.705279,-3.339443,0.679289,-3.320711,-0.320711,-2.320711,-0.339443,-2.294721,-0.839443,-1.294721,-0.85,-1.25,-0.85,1.25,-0.839443,1.294721,-0.339443,2.294721,-0.320711,2.320711,0.679289,3.320711,0.705279,3.339443,1.705279,3.839443,1.75,3.85,4.25,3.85,4.309327,3.8305,4.35,3.75,4.35,-1.5,4.320711,-1.570711,4.070711,-1.820711,4.0,-1.85,3.25,-1.85,3.190673,-1.8305,3.15,-1.75,3.15,2.15,1.791422,2.15,1.35,1.708578,1.35,-3.5,1.3305,-3.559327,1.279605,-3.595517,1.205279,-3.589443,45.0*%
%ADD18OUTLINE18*%
%ADD19C,1.208*%
%ADD20O,2.2X4.0*%
%ADD21C,1.2*%
%AMROUNDEDRECT22*20,1,1.787,-1.095,0.0,1.095,0.0,0.0*20,1,1.587,-1.195,0.0,1.195,0.0,0.0*1,1,0.2,-1.095,0.7935*1,1,0.2,1.095,0.7935*1,1,0.2,1.095,-0.7935*1,1,0.2,-1.095,-0.7935*%
%ADD22ROUNDEDRECT22*%
%AMROUNDEDRECT23*20,1,1.5,-3.6,0.0,3.6,0.0,90.0*20,1,1.3,-3.7,0.0,3.7,0.0,90.0*1,1,0.2,-0.65,-3.6*1,1,0.2,-0.65,3.6*1,1,0.2,0.65,3.6*1,1,0.2,0.65,-3.6*%
%ADD23ROUNDEDRECT23*%
%ADD24C,1.5*%
%AMROUNDEDRECT25*20,1,2.2,-1.25,0.0,1.25,0.0,0.0*20,1,2.0,-1.35,0.0,1.35,0.0,0.0*1,1,0.2,-1.25,1.0*1,1,0.2,1.25,1.0*1,1,0.2,1.25,-1.0*1,1,0.2,-1.25,-1.0*%
%ADD25ROUNDEDRECT25*%
%ADD26O,1.08X1.0*%
%ADD27O,2.2X4.2*%
%ADD28C,1.9*%
%AMROUNDEDRECT29*20,1,1.2,-0.825,0.0,0.825,0.0,0.0*20,1,1.0,-0.925,0.0,0.925,0.0,0.0*1,1,0.2,-0.825,0.5*1,1,0.2,0.825,0.5*1,1,0.2,0.825,-0.5*1,1,0.2,-0.825,-0.5*%
%ADD29ROUNDEDRECT29*%
%AMROUNDEDRECT30*20,1,1.2,-0.825,0.0,0.825,0.0,90.0*20,1,1.0,-0.925,0.0,0.925,0.0,90.0*1,1,0.2,-0.5,-0.825*1,1,0.2,-0.5,0.825*1,1,0.2,0.5,0.825*1,1,0.2,0.5,-0.825*%
%ADD30ROUNDEDRECT30*%
%AMROUNDEDRECT31*20,1,5.2,-2.5,0.0,2.5,0.0,0.0*20,1,5.0,-2.6,0.0,2.6,0.0,0.0*1,1,0.2,-2.5,2.5*1,1,0.2,2.5,2.5*1,1,0.2,2.5,-2.5*1,1,0.2,-2.5,-2.5*%
%ADD31ROUNDEDRECT31*%
%ADD32O,2.39X1.787*%
%ADD33C,0.7*%
G04 --- APERTURE LIST END --- *
G04 --- BOARD BEGIN --- *
D10*
G04 #@! TO.C,B*
X10757359Y103757359D02*
G03*
X19242641Y103757359I4242641J4242641D01*
G01*
X19242641Y112242641D02*
G03*
X10757359Y112242641I-4242641J-4242641D01*
G01*
X19242641Y112242641D02*
X23485281Y108000000D01*
X19242641Y103757359D01*
X10757359Y103757359D02*
X6514719Y108000000D01*
X10757359Y112242641D01*
X18000000Y108000000D02*
G02*
X12000000Y108000000I-3000000J0D01*
G01*
G02*
X18000000Y108000000I3000000J0D01*
G01*
D11*
G04 #@! TO.C,J2*
X20515000Y141030000D02*
X20515000Y135030000D01*
X9515000Y135030000D01*
X9515000Y141030000D01*
X20515000Y141030000D01*
D10*
G04 #@! TO.C,J4*
X7250000Y29250000D02*
X7250000Y28250000D01*
X27250000Y29250000D02*
X18250000Y29250000D01*
X18250000Y25750000D01*
X27250000Y25750000D01*
X27250000Y29250000D01*
X23750000Y28750000D02*
X21750000Y28750000D01*
X21750000Y26750000D01*
X23750000Y26750000D01*
X23750000Y28750000D01*
X23250000Y27750000D02*
X22250000Y27750000D01*
X11750000Y30250000D02*
X2750000Y30250000D01*
X2750000Y26750000D01*
X11750000Y26750000D01*
X11750000Y30250000D01*
X8250000Y29750000D02*
X6250000Y29750000D01*
X6250000Y27750000D01*
X8250000Y27750000D01*
X8250000Y29750000D01*
X7750000Y28750000D02*
X6750000Y28750000D01*
G04 #@! TO.C,SYNC*
X3350000Y18900000D02*
X5650000Y18900000D01*
X7600000Y24150000D02*
X7600000Y19850000D01*
X1400000Y24150000D02*
X1400000Y19850000D01*
X3350000Y25100000D02*
X5650000Y25100000D01*
G04 #@! TO.C,U1*
X24200000Y41260000D02*
X24200000Y47860000D01*
X5800000Y47860000D02*
X5800000Y41260000D01*
X8500000Y67160000D02*
X5800000Y67160000D01*
X5800000Y66250000D01*
X8015000Y48950000D02*
X9920000Y48315000D01*
X9920000Y49585000D01*
X8015000Y48950000D01*
D12*
G36*
X8015000Y48950000D02*
X9920000Y48315000D01*
X9920000Y49585000D01*
X8015000Y48950000D01*
G37*
D13*
X7380000Y46590000D02*
X7380000Y42780000D01*
X9920000Y42780000D01*
X9920000Y45320000D01*
X12460000Y45320000D01*
X12460000Y42780000D01*
X15000000Y42780000D01*
X15000000Y45320000D01*
X17540000Y45320000D01*
X17540000Y42780000D01*
X22620000Y42780000D01*
X22620000Y47300000D01*
X20080000Y42780000D02*
X20080000Y47300000D01*
D10*
X5800000Y47400000D02*
X24200000Y47400000D01*
X21500000Y67160000D02*
X24200000Y67160000D01*
X24200000Y66250000D01*
X5800000Y41260000D02*
X24200000Y41260000D01*
G04 #@! TO.C,B*
X9646417Y113286015D02*
X9578062Y113151665D01*
X9578848Y113084883D01*
X9612632Y112983530D01*
X9713984Y112882179D01*
X9814550Y112849181D01*
X9881332Y112848395D01*
X9982685Y112882179D01*
X10252171Y113151665D01*
X9545064Y113858772D01*
X9309362Y113623070D01*
X9275578Y113521717D01*
X9275578Y113454149D01*
X9309362Y113354369D01*
X9376930Y113286801D01*
X9477496Y113252231D01*
X9545064Y113252231D01*
X9646417Y113286015D01*
X9882119Y113521717D01*
G04 #@! TO.C,SYNC*
X11713889Y19797778D02*
X11570556Y19750000D01*
X11332778Y19750000D01*
X11237222Y19797778D01*
X11190556Y19845556D01*
X11142778Y19940000D01*
X11142778Y20035556D01*
X11190556Y20131111D01*
X11237222Y20178889D01*
X11332778Y20226667D01*
X11523889Y20273333D01*
X11618333Y20321111D01*
X11666111Y20368889D01*
X11713889Y20464444D01*
X11713889Y20560000D01*
X11666111Y20654444D01*
X11618333Y20702222D01*
X11523889Y20750000D01*
X11285000Y20750000D01*
X11142778Y20702222D01*
X10409445Y20226667D02*
X10409445Y19750000D01*
X10742778Y20750000D02*
X10409445Y20226667D01*
X10076111Y20750000D01*
X9676111Y19750000D02*
X9676111Y20750000D01*
X9105000Y19750000D01*
X9105000Y20750000D01*
X8086111Y19845556D02*
X8133889Y19797778D01*
X8276111Y19750000D01*
X8371667Y19750000D01*
X8515000Y19797778D01*
X8609444Y19893333D01*
X8657222Y19987778D01*
X8705000Y20178889D01*
X8705000Y20321111D01*
X8657222Y20512222D01*
X8609444Y20606667D01*
X8515000Y20702222D01*
X8371667Y20750000D01*
X8276111Y20750000D01*
X8133889Y20702222D01*
X8086111Y20654444D01*
G04 #@! TO.C,U1*
X15771111Y38970000D02*
X15771111Y38160000D01*
X15723333Y38065556D01*
X15675555Y38017778D01*
X15581111Y37970000D01*
X15390000Y37970000D01*
X15294444Y38017778D01*
X15247778Y38065556D01*
X15200000Y38160000D01*
X15200000Y38970000D01*
X14228889Y37970000D02*
X14800000Y37970000D01*
X14514444Y37970000D02*
X14514444Y38970000D01*
X14610000Y38826667D01*
X14704444Y38732222D01*
X14800000Y38684444D01*
%LPC*%
D14*
G04 #@! TD*
X21717514Y99500000D03*
X8282486Y99500000D03*
D15*
G04 #@! TO.C,J1*
X9440000Y80000000D03*
D16*
X17060000Y80000000D03*
D15*
X11980000Y80000000D03*
X14520000Y80000000D03*
D17*
G04 #@! TO.C,B*
X17121320Y110121320D03*
D18*
X12878680Y105878680D03*
D14*
G04 #@! TD*
X8282486Y108000000D03*
X21717514Y108000000D03*
X8282486Y131000000D03*
X21717514Y131000000D03*
D19*
G04 #@! TO.C,J2*
X12515000Y138030000D03*
X11515000Y136030000D03*
X18515000Y138030000D03*
D20*
X20500000Y139100000D03*
D19*
X14515000Y138030000D03*
X17515000Y136030000D03*
X16515000Y138030000D03*
X15515000Y136030000D03*
D20*
X9500000Y139100000D03*
D19*
X13515000Y136030000D03*
D21*
G04 #@! TD*
X13515000Y140030000D03*
X17515000Y140030000D03*
D22*
G04 #@! TO.C,J5*
X27250000Y99500000D03*
D14*
G04 #@! TD*
X5500000Y114782486D03*
X5500000Y128217514D03*
D23*
G04 #@! TO.C,J3*
X13000000Y2500000D03*
D24*
X17000000Y7500000D03*
D25*
X23600000Y6800000D03*
D23*
X17000000Y2500000D03*
D25*
X6100000Y1300000D03*
X6400000Y6800000D03*
D24*
X13000000Y9500000D03*
X17000000Y9500000D03*
X15000000Y9500000D03*
X13000000Y7500000D03*
X15000000Y7500000D03*
D23*
X15000000Y2500000D03*
D25*
X23900000Y1300000D03*
D14*
G04 #@! TD*
X21717514Y112000000D03*
X8282486Y112000000D03*
D22*
G04 #@! TO.C,J6*
X27250000Y102500000D03*
D26*
G04 #@! TO.C,J4*
X7250000Y30500000D03*
X22750000Y29500000D03*
D27*
X2750000Y29250000D03*
X27250000Y28250000D03*
D14*
G04 #@! TD*
X8282486Y37000000D03*
X21717514Y37000000D03*
X8282486Y23250000D03*
X21717514Y23250000D03*
D28*
G04 #@! TO.C,SYNC*
X6750000Y25250000D03*
X2250000Y18750000D03*
X2250000Y25250000D03*
X6750000Y18750000D03*
D14*
G04 #@! TD*
X24500000Y128217514D03*
X24500000Y114782486D03*
D29*
G04 #@! TO.C,U1*
X23820000Y62920000D03*
X23820000Y56570000D03*
X6180000Y62920000D03*
D30*
X18180000Y66785000D03*
X15640000Y66785000D03*
X14370000Y66785000D03*
D29*
X6180000Y59110000D03*
X23820000Y52760000D03*
X6180000Y64190000D03*
X23820000Y50220000D03*
X6175000Y48950000D03*
X6180000Y54030000D03*
D30*
X13100000Y66785000D03*
D29*
X23820000Y57840000D03*
X6180000Y65460000D03*
X6180000Y57840000D03*
X6180000Y55300000D03*
X6175000Y51490000D03*
D30*
X11830000Y66785000D03*
D29*
X23820000Y48950000D03*
X23820000Y64190000D03*
D30*
X20720000Y66785000D03*
D29*
X23820000Y54030000D03*
X6180000Y61650000D03*
X6180000Y60380000D03*
D30*
X16910000Y66785000D03*
D29*
X6175000Y50220000D03*
X23820000Y60380000D03*
D30*
X10560000Y66785000D03*
X19450000Y66785000D03*
D29*
X23820000Y55300000D03*
X23820000Y51490000D03*
D30*
X9290000Y66785000D03*
D29*
X23820000Y59110000D03*
D31*
X14320000Y56290000D03*
D29*
X23820000Y61650000D03*
X6180000Y52760000D03*
X23820000Y65460000D03*
X6180000Y56570000D03*
D32*
G04 #@! TO.C,JTAG*
X26750000Y14190000D03*
D22*
X26750000Y21810000D03*
D32*
X26750000Y16730000D03*
X26750000Y19270000D03*
D33*
G04 #@! TD*
X7750000Y0D03*
X22250000Y0D03*
X8500000Y0D03*
X23000000Y0D03*
D14*
X5250000Y132000000D03*
D33*
X6250000Y0D03*
X21500000Y0D03*
X23750000Y0D03*
X7000000Y0D03*
G04 --- BOARD END --- *
G04 #@! TF.MD5,4de9ccc7584be62cc92879278ecac64b*
M02*
