M48
; #@! TF.GenerationSoftware,LibrePCB,LibrePCB,2.0.1
; #@! TF.CreationDate,2026-06-07T20:54:16
; #@! TF.ProjectId,ESPmote (ESPmote_WROOM32),c75d975a-3822-4103-ad87-6dcb39d2a138,v1
; #@! TF.Part,Single
; #@! TF.SameCoordinates
; #@! TF.FileFunction,NonPlated,1,2,NPTH
FMAT,2
METRIC,TZ
; #@! TA.AperFunction,MechanicalDrill
T1C0.5
; #@! TA.AperFunction,MechanicalDrill
T2C1.0
; #@! TA.AperFunction,MechanicalDrill
T3C2.25
%
G90
G05
M71
T1
X7.0Y0.0
X23.75Y0.0
X21.5Y0.0
X6.25Y0.0
X23.0Y0.0
X8.5Y0.0
X22.25Y0.0
X7.75Y0.0
T2
X13.515Y140.03
X17.515Y140.03
T3
X5.25Y132.0
X24.5Y128.217514
X24.5Y114.782486
X21.717514Y23.25
X8.282486Y23.25
X21.717514Y37.0
X8.282486Y37.0
X21.717514Y112.0
X8.282486Y112.0
X5.5Y114.782486
X5.5Y128.217514
X8.282486Y131.0
X21.717514Y131.0
X8.282486Y108.0
X21.717514Y108.0
X21.717514Y99.5
X8.282486Y99.5
T0
M30
