M48
; #@! TF.GenerationSoftware,LibrePCB,LibrePCB,2.0.1
; #@! TF.CreationDate,2026-06-07T20:54:16
; #@! TF.ProjectId,ESPmote (ESPmote_WROOM32),c75d975a-3822-4103-ad87-6dcb39d2a138,v1
; #@! TF.Part,Single
; #@! TF.SameCoordinates
; #@! TF.FileFunction,Plated,1,2,PTH
FMAT,2
METRIC,TZ
; #@! TA.AperFunction,ViaDrill
T1C0.3
; #@! TA.AperFunction,ComponentDrill
T2C0.3
; #@! TA.AperFunction,ComponentDrill
T3C0.5
; #@! TA.AperFunction,ComponentDrill
T4C0.6
; #@! TA.AperFunction,ComponentDrill
T5C0.8
; #@! TA.AperFunction,ComponentDrill
T6C0.9
; #@! TA.AperFunction,ComponentDrill
T7C1.0
%
G90
G05
M71
T1
X26.25Y54.5
X16.25Y50.5
X9.0Y13.25
X7.0Y65.5
X9.75Y11.5
X15.25Y54.25
X1.25Y61.0
X8.0Y83.25
X12.25Y50.5
X20.5Y64.25
X27.75Y59.75
X25.25Y57.0
X17.75Y51.25
X16.75Y52.75
X26.75Y61.25
X6.0Y67.75
X11.25Y52.0
X28.75Y25.0
X16.75Y83.75
X16.75Y89.75
X7.5Y104.75
X18.0Y55.0
X20.75Y126.75
X9.75Y100.75
X14.75Y52.75
X25.25Y62.0
X26.75Y50.0
X22.75Y135.25
X10.0Y64.25
X5.5Y109.75
X1.25Y69.75
X22.25Y133.25
X13.95Y78.3
X18.0Y58.0
X10.0Y58.75
X3.25Y62.5
X22.0Y19.25
X7.5Y63.75
X20.5Y16.0
X22.0Y12.0
X14.5Y55.75
X25.75Y53.75
X19.0Y12.0
X1.75Y61.75
X3.25Y52.5
X17.25Y52.0
X26.25Y53.0
X9.25Y50.5
X8.25Y58.25
X12.75Y54.25
X7.5Y71.75
X2.75Y74.25
X8.25Y125.75
X23.75Y98.25
X19.5Y75.0
X22.75Y74.25
X7.25Y66.5
X20.75Y102.5
X12.0Y75.0
X7.25Y68.75
X7.25Y74.25
X27.25Y74.25
X23.75Y96.25
X8.75Y66.0
X0.75Y61.75
X26.25Y50.65
X1.75Y116.0
X4.0Y135.5
X4.5Y35.25
X27.75Y61.25
X18.25Y52.0
X5.25Y49.0
X14.25Y52.0
X26.25Y62.0
X20.25Y52.0
X4.75Y51.5
X19.25Y110.0
X26.75Y59.75
X20.75Y67.75
X20.85Y57.75
X12.25Y52.0
X20.75Y52.75
X18.0Y53.5
X22.0Y97.25
X19.5Y73.5
X15.9Y69.45
X20.5Y97.25
X9.0Y57.75
X11.25Y50.5
X25.5Y63.5
X14.75Y77.5
X18.0Y56.5
X11.75Y52.75
X27.25Y135.0
X8.5Y104.0
X21.75Y125.75
X28.75Y55.25
X17.75Y59.75
X17.75Y90.0
X10.65Y98.15
X17.5Y85.75
X11.75Y51.25
X17.25Y50.5
X19.25Y50.5
X20.75Y12.0
X9.5Y65.25
X26.0Y10.75
X4.0Y52.0
X23.25Y33.75
X21.5Y64.25
X14.25Y69.75
X2.75Y63.25
X4.75Y57.0
X3.25Y100.0
X28.5Y137.25
X11.0Y62.25
X4.75Y100.0
X9.75Y15.75
X12.5Y16.75
X1.25Y104.5
X0.75Y31.75
X4.75Y58.5
X4.0Y46.75
X3.25Y40.25
X13.75Y52.75
X25.75Y56.25
X14.5Y54.75
X16.25Y52.0
X8.25Y26.0
X2.5Y101.75
X17.25Y75.75
X12.75Y75.75
X3.25Y47.25
X6.25Y68.75
X26.25Y60.5
X23.25Y138.75
X22.0Y136.25
X25.75Y52.25
X25.75Y50.0
X7.25Y75.75
X2.75Y75.75
X26.25Y49.25
X1.25Y83.25
X10.75Y51.25
X5.75Y66.75
X16.25Y54.25
X28.25Y62.0
X20.75Y70.5
X11.0Y12.0
X15.25Y50.5
X8.0Y12.0
X3.75Y54.5
X3.75Y60.0
X20.25Y33.75
X19.75Y52.75
X16.75Y51.25
X11.0Y55.5
X2.25Y85.75
X6.75Y85.75
X11.25Y73.25
X10.0Y76.75
X25.75Y61.25
X27.25Y62.0
X18.75Y51.25
X13.75Y54.25
X12.75Y52.75
X12.5Y84.25
X19.25Y52.0
X21.5Y62.75
X28.25Y60.5
X22.1Y56.5
X10.25Y60.0
X20.75Y61.5
X27.75Y58.25
X19.25Y60.0
X26.5Y96.0
X27.25Y53.0
X9.0Y63.25
X20.75Y51.25
X14.9Y70.5
X3.25Y46.25
X13.25Y50.5
X8.25Y62.5
X27.5Y82.25
X27.25Y60.5
X11.0Y7.0
X25.25Y50.7
X9.75Y51.25
X13.75Y55.25
X14.25Y50.5
X9.0Y58.75
X23.0Y82.25
X15.75Y51.25
X22.3Y62.5
X13.25Y52.0
X10.5Y63.25
X25.75Y57.75
X25.75Y110.0
X20.5Y62.75
X15.0Y125.0
X18.5Y121.5
X24.75Y107.0
X9.5Y104.5
X7.25Y106.0
X13.75Y51.25
X12.75Y51.25
X21.75Y57.5
X18.25Y50.5
X2.5Y58.75
X4.75Y52.5
X19.75Y13.0
X19.25Y70.25
X12.25Y126.0
X19.75Y106.0
X10.5Y124.25
X20.0Y71.75
X18.5Y103.25
X19.5Y118.75
X17.75Y117.0
X18.25Y62.0
X3.25Y51.5
X22.75Y31.0
X21.25Y52.0
X18.75Y52.75
X19.0Y55.75
X19.6Y59.0
X23.0Y21.75
X15.25Y55.25
X4.75Y104.75
X5.5Y93.5
X10.5Y74.25
X11.0Y57.5
X10.75Y75.75
X26.75Y53.75
X21.18Y63.5
X19.75Y51.25
X27.25Y50.7
X8.25Y57.0
X17.25Y74.25
X12.75Y74.25
X19.25Y62.0
X27.5Y56.0
X15.5Y118.75
X4.75Y54.5
X12.75Y70.25
X20.5Y75.75
X4.75Y59.75
X0.75Y33.25
X11.0Y56.5
X13.5Y120.75
X14.75Y51.25
X10.75Y34.75
X12.75Y31.5
X5.5Y100.75
X5.5Y89.0
X18.75Y105.25
X17.5Y104.0
X2.75Y41.25
X11.0Y58.75
X19.0Y27.0
X5.5Y104.0
X6.5Y90.0
X17.5Y28.5
X22.75Y75.75
X27.25Y75.75
X1.75Y63.25
X10.25Y50.5
X2.25Y62.5
X14.75Y86.0
X28.25Y57.5
X3.25Y53.5
X20.5Y58.75
X3.75Y63.25
X0.75Y63.25
X4.0Y53.0
X9.5Y59.5
X25.25Y54.5
X6.5Y36.75
X20.25Y50.5
X22.0Y63.5
X21.25Y50.5
X28.5Y89.0
X14.0Y68.25
X14.5Y17.75
X22.25Y96.25
X10.75Y33.5
X25.25Y104.5
X16.5Y32.25
X22.25Y90.0
X13.25Y89.75
X24.5Y87.5
X18.25Y34.0
X22.0Y70.75
X11.0Y54.0
X18.75Y96.25
X18.75Y87.5
X5.25Y50.25
X13.0Y32.75
X23.75Y137.5
X11.5Y87.75
X15.0Y83.5
X22.25Y80.0
X1.25Y62.5
X24.75Y36.25
X9.0Y64.25
X15.75Y52.75
X15.25Y52.0
X19.0Y54.25
X5.25Y68.75
X25.25Y60.5
X19.9Y54.25
X26.75Y52.25
X27.25Y59.0
X28.25Y59.0
X25.25Y53.0
X29.25Y84.5
X23.25Y15.75
X26.0Y12.0
X20.25Y65.25
X4.0Y47.75
X26.25Y57.0
X23.0Y85.75
X23.75Y66.5
X27.5Y85.75
X10.75Y60.75
T2
G00X22.79Y29.5
M15
G01X22.71Y29.5
M16
G05
G00X7.29Y30.5
M15
G01X7.21Y30.5
M16
G05
T3
X13.515Y136.03
X15.515Y136.03
X16.515Y138.03
X17.515Y136.03
X14.515Y138.03
X18.515Y138.03
X11.515Y136.03
X12.515Y138.03
T4
G00X27.25Y27.25
M15
G01X27.25Y29.25
M16
G05
G00X2.75Y28.25
M15
G01X2.75Y30.25
M16
G05
T5
X15.0Y7.5
X13.0Y7.5
X15.0Y9.5
X17.0Y9.5
X13.0Y9.5
X17.0Y7.5
G00X9.5Y139.85
M15
G01X9.5Y138.35
M16
G05
G00X20.5Y139.85
M15
G01X20.5Y138.35
M16
G05
T6
X26.75Y19.27
X26.75Y16.73
X26.75Y21.81
X26.75Y14.19
X27.25Y102.5
X27.25Y99.5
X14.52Y80.0
X11.98Y80.0
X17.06Y80.0
X9.44Y80.0
T7
X6.75Y18.75
X2.25Y25.25
X2.25Y18.75
X6.75Y25.25
T0
M30
