G04 --- HEADER BEGIN --- *
G04 #@! TF.GenerationSoftware,LibrePCB,LibrePCB,2.0.1*
G04 #@! TF.CreationDate,2026-05-19T01:23:53*
G04 #@! TF.ProjectId,ESPmote (ESPmote_WROOM32),c75d975a-3822-4103-ad87-6dcb39d2a138,v1*
G04 #@! TF.Part,Single*
G04 #@! TF.SameCoordinates*
G04 #@! TF.FileFunction,Paste,Top*
G04 #@! TF.FilePolarity,Positive*
%FSLAX66Y66*%
%MOMM*%
G01*
G75*
G04 --- HEADER END --- *
G04 --- APERTURE LIST BEGIN --- *
%ADD10R,0.69X0.64*%
%ADD11R,1.16X0.96*%
%ADD12R,0.6X0.65*%
%AMROUNDEDRECT13*20,1,0.2,-0.175,0.0,0.175,0.0,0.0*20,1,0.125,-0.2125,0.0,0.2125,0.0,0.0*1,1,0.075,-0.175,0.0625*1,1,0.075,0.175,0.0625*1,1,0.075,0.175,-0.0625*1,1,0.075,-0.175,-0.0625*%
%ADD13ROUNDEDRECT13*%
%AMROUNDEDRECT14*20,1,0.2,-0.175,0.0,0.175,0.0,90.0*20,1,0.125,-0.2125,0.0,0.2125,0.0,90.0*1,1,0.075,-0.0625,-0.175*1,1,0.075,-0.0625,0.175*1,1,0.075,0.0625,0.175*1,1,0.075,0.0625,-0.175*%
%ADD14ROUNDEDRECT14*%
%AMOUTLINE15*4,1,8,-0.5,-0.55,0.7,-0.55,0.7,0.55,-0.5,0.55,-0.5,0.75,-0.7,0.75,-0.7,-0.75,-0.5,-0.75,-0.5,-0.55,0.0*%
%ADD15OUTLINE15*%
%AMOUTLINE16*4,1,8,-0.5,-0.55,0.7,-0.55,0.7,0.55,-0.5,0.55,-0.5,0.75,-0.7,0.75,-0.7,-0.75,-0.5,-0.75,-0.5,-0.55,180.0*%
%ADD16OUTLINE16*%
%ADD17R,0.64X0.69*%
%ADD18R,0.65X0.6*%
%ADD19R,0.77X0.72*%
%AMOUTLINE20*4,1,8,-0.5,-0.55,0.7,-0.55,0.7,0.55,-0.5,0.55,-0.5,0.75,-0.7,0.75,-0.7,-0.75,-0.5,-0.75,-0.5,-0.55,90.0*%
%ADD20OUTLINE20*%
%AMOUTLINE21*4,1,8,-0.5,-0.55,0.7,-0.55,0.7,0.55,-0.5,0.55,-0.5,0.75,-0.7,0.75,-0.7,-0.75,-0.5,-0.75,-0.5,-0.55,270.0*%
%ADD21OUTLINE21*%
%ADD22R,0.64X0.64*%
%ADD23R,0.72X0.77*%
%AMROUNDEDRECT24*20,1,0.24,-0.26,0.0,0.26,0.0,90.0*20,1,0.15,-0.305,0.0,0.305,0.0,90.0*1,1,0.09,-0.075,-0.26*1,1,0.09,-0.075,0.26*1,1,0.09,0.075,0.26*1,1,0.09,0.075,-0.26*%
%ADD24ROUNDEDRECT24*%
%AMROTATEDRECT25*20,1,0.72,-0.385,0.0,0.385,0.0,135.0*%
%ADD25ROTATEDRECT25*%
%AMROTATEDRECT26*20,1,0.64,-0.345,0.0,0.345,0.0,60.0*%
%ADD26ROTATEDRECT26*%
%AMROTATEDRECT27*20,1,0.72,-0.385,0.0,0.385,0.0,45.0*%
%ADD27ROTATEDRECT27*%
%AMROUNDEDRECT28*20,1,0.64,-0.45,0.0,0.45,0.0,0.0*20,1,0.4,-0.57,0.0,0.57,0.0,0.0*1,1,0.24,-0.45,0.2*1,1,0.24,0.45,0.2*1,1,0.24,0.45,-0.2*1,1,0.24,-0.45,-0.2*%
%ADD28ROUNDEDRECT28*%
%AMROUNDEDRECT29*20,1,0.36,-0.5625,0.0,0.5625,0.0,90.0*20,1,0.225,-0.63,0.0,0.63,0.0,90.0*1,1,0.135,-0.1125,-0.5625*1,1,0.135,-0.1125,0.5625*1,1,0.135,0.1125,0.5625*1,1,0.135,0.1125,-0.5625*%
%ADD29ROUNDEDRECT29*%
G04 --- APERTURE LIST END --- *
G04 --- BOARD BEGIN --- *
D10*
G04 #@! TO.C,C18*
X28975000Y105250000D03*
X27525000Y105250000D03*
D11*
G04 #@! TO.C,XO1*
X27100000Y136150000D03*
X24900000Y136150000D03*
X24900000Y137850000D03*
X27100000Y137850000D03*
D12*
G04 #@! TO.C,R1*
X29025000Y88250000D03*
X27475000Y88250000D03*
D13*
G04 #@! TO.C,U3*
X13837500Y86250000D03*
X13837500Y85750000D03*
D14*
X15500000Y84587500D03*
X15000000Y86912500D03*
X14500000Y86912500D03*
D13*
X15662500Y85750000D03*
D14*
X15500000Y86912500D03*
X15000000Y84587500D03*
D13*
X15662500Y85250000D03*
X13837500Y85250000D03*
D14*
X14000000Y86912500D03*
X14500000Y84587500D03*
D13*
X15662500Y86250000D03*
D14*
X14000000Y84587500D03*
D12*
G04 #@! TO.C,R4*
X13725000Y13000000D03*
X15275000Y13000000D03*
D10*
G04 #@! TO.C,C9*
X12525000Y83250000D03*
X13975000Y83250000D03*
D15*
G04 #@! TO.C,BOOT_SW*
X23025000Y86750000D03*
D16*
X27475000Y83250000D03*
X27475000Y86750000D03*
D15*
X23025000Y83250000D03*
D17*
G04 #@! TO.C,C8*
X12500000Y85025000D03*
X12500000Y86475000D03*
D18*
G04 #@! TO.C,R19*
X21250000Y33775000D03*
X21250000Y32225000D03*
G04 #@! TO.C,R10*
X22000000Y69775000D03*
X22000000Y68225000D03*
G04 #@! TO.C,R15*
X8000000Y15775000D03*
X8000000Y14225000D03*
G04 #@! TO.C,R18*
X22000000Y15775000D03*
X22000000Y14225000D03*
D19*
G04 #@! TO.C,D7*
X18700000Y83175000D03*
X18700000Y86325000D03*
D12*
G04 #@! TO.C,R6*
X26475000Y12000000D03*
X28025000Y12000000D03*
D10*
G04 #@! TO.C,C14*
X25225000Y32250000D03*
X23775000Y32250000D03*
D20*
G04 #@! TO.C,POWER*
X4000000Y136525000D03*
D21*
X7500000Y140975000D03*
X4000000Y140975000D03*
D20*
X7500000Y136525000D03*
D22*
G04 #@! TO.C,L1*
X9000000Y27000000D03*
X9000000Y28500000D03*
D18*
G04 #@! TO.C,R12*
X18750000Y87975000D03*
X18750000Y89525000D03*
D23*
G04 #@! TO.C,D5*
X19675000Y17750000D03*
X22825000Y17750000D03*
D18*
G04 #@! TO.C,R7*
X22500000Y32225000D03*
X22500000Y33775000D03*
D10*
G04 #@! TO.C,C10*
X24525000Y38750000D03*
X25975000Y38750000D03*
D24*
G04 #@! TO.C,U5*
X6000000Y35740000D03*
X6500000Y34260000D03*
X7000000Y34260000D03*
X6500000Y35740000D03*
X7000000Y35740000D03*
X6000000Y34260000D03*
D25*
G04 #@! TO.C,D4*
X27613693Y132613693D03*
X25386307Y130386307D03*
D22*
G04 #@! TO.C,LED3*
X17750000Y14250000D03*
X17750000Y12750000D03*
D19*
G04 #@! TO.C,D9*
X21300000Y83175000D03*
X21300000Y86325000D03*
D12*
G04 #@! TO.C,R11*
X14225000Y88250000D03*
X15775000Y88250000D03*
G04 #@! TO.C,R14*
X13975000Y89750000D03*
X15525000Y89750000D03*
G04 #@! TO.C,R24*
X24975000Y105250000D03*
X26525000Y105250000D03*
D17*
G04 #@! TO.C,C16*
X3250000Y39475000D03*
X3250000Y38025000D03*
D18*
G04 #@! TO.C,R20*
X3250000Y37025000D03*
X3250000Y35475000D03*
D17*
G04 #@! TO.C,C17*
X6500000Y28275000D03*
X6500000Y29725000D03*
D18*
G04 #@! TO.C,R17*
X19000000Y15775000D03*
X19000000Y14225000D03*
D25*
G04 #@! TO.C,D1*
X26113693Y134113693D03*
X23886307Y131886307D03*
D22*
G04 #@! TO.C,LED2*
X12250000Y14250000D03*
X12250000Y12750000D03*
D19*
G04 #@! TO.C,D3*
X3250000Y108075000D03*
X3250000Y104925000D03*
D18*
G04 #@! TO.C,R16*
X11000000Y15775000D03*
X11000000Y14225000D03*
D23*
G04 #@! TO.C,D13*
X29075000Y106750000D03*
X25925000Y106750000D03*
G04 #@! TO.C,D11*
X25675000Y108750000D03*
X28825000Y108750000D03*
D17*
G04 #@! TO.C,C12*
X25000000Y48975000D03*
X25000000Y47525000D03*
D22*
G04 #@! TO.C,LED1*
X6750000Y14250000D03*
X6750000Y12750000D03*
D17*
G04 #@! TO.C,C6*
X8000000Y84275000D03*
X8000000Y85725000D03*
D26*
G04 #@! TO.C,C13*
X27112500Y48627868D03*
X26387500Y47372132D03*
D15*
G04 #@! TO.C,EN_SW*
X2275000Y86750000D03*
D16*
X6725000Y83250000D03*
X6725000Y86750000D03*
D15*
X2275000Y83250000D03*
D22*
G04 #@! TO.C,LED4*
X23250000Y14250000D03*
X23250000Y12750000D03*
D18*
G04 #@! TO.C,R22*
X25250000Y94475000D03*
X25250000Y96025000D03*
D10*
G04 #@! TO.C,C15*
X23525000Y31000000D03*
X24975000Y31000000D03*
D18*
G04 #@! TO.C,R3*
X23000000Y19475000D03*
X23000000Y21025000D03*
D12*
G04 #@! TO.C,R2*
X9775000Y87750000D03*
X8225000Y87750000D03*
D19*
G04 #@! TO.C,D10*
X9750000Y83175000D03*
X9750000Y86325000D03*
D15*
G04 #@! TO.C,HOME*
X12775000Y76750000D03*
D16*
X17225000Y73250000D03*
X17225000Y76750000D03*
D15*
X12775000Y73250000D03*
D27*
G04 #@! TO.C,D6*
X19136307Y29363693D03*
X21363693Y27136307D03*
D15*
G04 #@! TO.C,PLUS*
X22775000Y76750000D03*
D16*
X27225000Y73250000D03*
X27225000Y76750000D03*
D15*
X22775000Y73250000D03*
D12*
G04 #@! TO.C,R23*
X25275000Y97250000D03*
X23725000Y97250000D03*
D17*
G04 #@! TO.C,C1*
X4250000Y50225000D03*
X4250000Y48775000D03*
D10*
G04 #@! TO.C,C11*
X24525000Y40000000D03*
X25975000Y40000000D03*
D15*
G04 #@! TO.C,MINUS*
X2775000Y76750000D03*
D16*
X7225000Y73250000D03*
X7225000Y76750000D03*
D15*
X2775000Y73250000D03*
D18*
G04 #@! TO.C,R5*
X29000000Y14225000D03*
X29000000Y15775000D03*
D19*
G04 #@! TO.C,D2*
X5250000Y108575000D03*
X5250000Y105425000D03*
D28*
G04 #@! TO.C,Q1*
X26650000Y95300000D03*
X28850000Y96250000D03*
X26650000Y97200000D03*
D18*
G04 #@! TO.C,R9*
X20750000Y69775000D03*
X20750000Y68225000D03*
D29*
G04 #@! TO.C,U4*
X24925000Y37475000D03*
X24275000Y37475000D03*
X24275000Y33525000D03*
X26225000Y33525000D03*
X25575000Y33525000D03*
X24925000Y33525000D03*
X25575000Y37475000D03*
X26225000Y37475000D03*
D18*
G04 #@! TO.C,R21*
X5000000Y33725000D03*
X5000000Y35275000D03*
D17*
G04 #@! TO.C,C3*
X3000000Y50225000D03*
X3000000Y48775000D03*
D27*
G04 #@! TO.C,D8*
X2386307Y16613693D03*
X4613693Y14386307D03*
D19*
G04 #@! TO.C,D12*
X1250000Y109075000D03*
X1250000Y105925000D03*
D12*
G04 #@! TO.C,R13*
X4025000Y102750000D03*
X2475000Y102750000D03*
D17*
G04 #@! TO.C,C2*
X1000000Y84275000D03*
X1000000Y85725000D03*
G04 #@! TO.C,C7*
X29000000Y85275000D03*
X29000000Y86725000D03*
G04 --- BOARD END --- *
G04 #@! TF.MD5,8281e0fc650d1f1bb02c3c200007940c*
M02*
