G04 --- HEADER BEGIN --- *
G04 #@! TF.GenerationSoftware,LibrePCB,LibrePCB,2.0.1*
G04 #@! TF.CreationDate,2026-05-26T19:08:47*
G04 #@! TF.ProjectId,ESPmote (ESPmote_WROOM32),c75d975a-3822-4103-ad87-6dcb39d2a138,v1*
G04 #@! TF.Part,Single*
G04 #@! TF.SameCoordinates*
G04 #@! TF.FileFunction,Soldermask,Top*
G04 #@! TF.FilePolarity,Negative*
%FSLAX66Y66*%
%MOMM*%
G01*
G75*
G04 --- HEADER END --- *
G04 --- APERTURE LIST BEGIN --- *
%AMROUNDEDRECT10*20,1,1.0,-0.425,0.0,0.425,0.0,0.0*20,1,0.8,-0.525,0.0,0.525,0.0,0.0*1,1,0.2,-0.425,0.4*1,1,0.2,0.425,0.4*1,1,0.2,0.425,-0.4*1,1,0.2,-0.425,-0.4*%
%ADD10ROUNDEDRECT10*%
%AMROUNDEDRECT11*20,1,1.4,-0.7,0.0,0.7,0.0,0.0*20,1,1.2,-0.8,0.0,0.8,0.0,0.0*1,1,0.2,-0.7,0.6*1,1,0.2,0.7,0.6*1,1,0.2,0.7,-0.6*1,1,0.2,-0.7,-0.6*%
%ADD11ROUNDEDRECT11*%
%AMOUTLINE12*4,1,31,-1.205279,-3.589443,-0.705279,-3.339443,-0.679289,-3.320711,0.320711,-2.320711,0.339443,-2.294721,0.839443,-1.294721,0.85,-1.25,0.85,1.25,0.839443,1.294721,0.339443,2.294721,0.320711,2.320711,-0.679289,3.320711,-0.705279,3.339443,-1.705279,3.839443,-1.75,3.85,-4.25,3.85,-4.309327,3.8305,-4.35,3.75,-4.35,-1.5,-4.320711,-1.570711,-4.070711,-1.820711,-4.0,-1.85,-3.25,-1.85,-3.190673,-1.8305,-3.15,-1.75,-3.15,2.15,-1.791422,2.15,-1.35,1.708578,-1.35,-3.5,-1.3305,-3.559327,-1.279605,-3.595517,-1.205279,-3.589443,135.0*%
%ADD12OUTLINE12*%
%AMOUTLINE13*4,1,31,-1.205279,-3.589443,-0.705279,-3.339443,-0.679289,-3.320711,0.320711,-2.320711,0.339443,-2.294721,0.839443,-1.294721,0.85,-1.25,0.85,1.25,0.839443,1.294721,0.339443,2.294721,0.320711,2.320711,-0.679289,3.320711,-0.705279,3.339443,-1.705279,3.839443,-1.75,3.85,-4.25,3.85,-4.309327,3.8305,-4.35,3.75,-4.35,-1.5,-4.320711,-1.570711,-4.070711,-1.820711,-4.0,-1.85,-3.25,-1.85,-3.190673,-1.8305,-3.15,-1.75,-3.15,2.15,-1.791422,2.15,-1.35,1.708578,-1.35,-3.5,-1.3305,-3.559327,-1.279605,-3.595517,-1.205279,-3.589443,315.0*%
%ADD13OUTLINE13*%
%ADD14C,2.45*%
%ADD15O,1.787X2.39*%
%AMROUNDEDRECT16*20,1,1.787,-1.095,0.0,1.095,0.0,90.0*20,1,1.587,-1.195,0.0,1.195,0.0,90.0*1,1,0.2,-0.7935,-1.095*1,1,0.2,-0.7935,1.095*1,1,0.2,0.7935,1.095*1,1,0.2,0.7935,-1.095*%
%ADD16ROUNDEDRECT16*%
%AMROUNDEDRECT17*20,1,0.95,-0.4,0.0,0.4,0.0,90.0*20,1,0.75,-0.5,0.0,0.5,0.0,90.0*1,1,0.2,-0.375,-0.4*1,1,0.2,-0.375,0.4*1,1,0.2,0.375,0.4*1,1,0.2,0.375,-0.4*%
%ADD17ROUNDEDRECT17*%
%AMROUNDEDRECT18*20,1,0.45,-0.175,0.0,0.175,0.0,0.0*20,1,0.125,-0.3375,0.0,0.3375,0.0,0.0*1,1,0.325,-0.175,0.0625*1,1,0.325,0.175,0.0625*1,1,0.325,0.175,-0.0625*1,1,0.325,-0.175,-0.0625*%
%ADD18ROUNDEDRECT18*%
%AMROUNDEDRECT19*20,1,0.45,-0.175,0.0,0.175,0.0,90.0*20,1,0.125,-0.3375,0.0,0.3375,0.0,90.0*1,1,0.325,-0.0625,-0.175*1,1,0.325,-0.0625,0.175*1,1,0.325,0.0625,0.175*1,1,0.325,0.0625,-0.175*%
%ADD19ROUNDEDRECT19*%
%AMOUTLINE20*4,1,22,-1.748667,-4.849991,-1.705279,-4.839443,-0.705279,-4.339443,-0.679289,-4.320711,0.320711,-3.320711,0.339443,-3.294721,0.839443,-2.294721,0.85,-2.25,0.85,2.25,0.839443,2.294721,0.339443,3.294721,0.320711,3.320711,-0.679289,4.320711,-0.705279,4.339443,-1.705279,4.839443,-1.75,4.85,-2.5,4.85,-2.559327,4.8305,-2.6,4.75,-2.6,-4.76,-2.5805,-4.819327,-2.498667,-4.859991,-1.748667,-4.849991,180.0*%
%ADD20OUTLINE20*%
%AMOUTLINE21*4,1,22,-1.748667,-4.849991,-1.705279,-4.839443,-0.705279,-4.339443,-0.679289,-4.320711,0.320711,-3.320711,0.339443,-3.294721,0.839443,-2.294721,0.85,-2.25,0.85,2.25,0.839443,2.294721,0.339443,3.294721,0.320711,3.320711,-0.679289,4.320711,-0.705279,4.339443,-1.705279,4.839443,-1.75,4.85,-2.5,4.85,-2.559327,4.8305,-2.6,4.75,-2.6,-4.76,-2.5805,-4.819327,-2.498667,-4.859991,-1.748667,-4.849991,0.0*%
%ADD21OUTLINE21*%
%AMOUTLINE22*4,1,20,-0.440673,-0.8305,-0.4,-0.75,-0.4,-0.65,0.7,-0.65,0.759327,-0.6305,0.8,-0.55,0.8,0.55,0.7805,0.609327,0.7,0.65,-0.4,0.65,-0.4,0.75,-0.4195,0.809327,-0.5,0.85,-0.7,0.85,-0.759327,0.8305,-0.8,0.75,-0.8,-0.75,-0.7805,-0.809327,-0.7,-0.85,-0.5,-0.85,-0.440673,-0.8305,0.0*%
%ADD22OUTLINE22*%
%AMOUTLINE23*4,1,20,-0.440673,-0.8305,-0.4,-0.75,-0.4,-0.65,0.7,-0.65,0.759327,-0.6305,0.8,-0.55,0.8,0.55,0.7805,0.609327,0.7,0.65,-0.4,0.65,-0.4,0.75,-0.4195,0.809327,-0.5,0.85,-0.7,0.85,-0.759327,0.8305,-0.8,0.75,-0.8,-0.75,-0.7805,-0.809327,-0.7,-0.85,-0.5,-0.85,-0.440673,-0.8305,180.0*%
%ADD23OUTLINE23*%
%AMROUNDEDRECT24*20,1,1.0,-0.425,0.0,0.425,0.0,90.0*20,1,0.8,-0.525,0.0,0.525,0.0,90.0*1,1,0.2,-0.4,-0.425*1,1,0.2,-0.4,0.425*1,1,0.2,0.4,0.425*1,1,0.2,0.4,-0.425*%
%ADD24ROUNDEDRECT24*%
%ADD25C,1.208*%
%ADD26O,2.2X4.0*%
%ADD27C,1.2*%
%AMROUNDEDRECT28*20,1,0.95,-0.4,0.0,0.4,0.0,0.0*20,1,0.75,-0.5,0.0,0.5,0.0,0.0*1,1,0.2,-0.4,0.375*1,1,0.2,0.4,0.375*1,1,0.2,0.4,-0.375*1,1,0.2,-0.4,-0.375*%
%ADD28ROUNDEDRECT28*%
%AMROUNDEDRECT29*20,1,1.1,-0.475,0.0,0.475,0.0,0.0*20,1,0.9,-0.575,0.0,0.575,0.0,0.0*1,1,0.2,-0.475,0.45*1,1,0.2,0.475,0.45*1,1,0.2,0.475,-0.45*1,1,0.2,-0.475,-0.45*%
%ADD29ROUNDEDRECT29*%
%AMOUTLINE30*4,1,20,-0.440673,-0.8305,-0.4,-0.75,-0.4,-0.65,0.7,-0.65,0.759327,-0.6305,0.8,-0.55,0.8,0.55,0.7805,0.609327,0.7,0.65,-0.4,0.65,-0.4,0.75,-0.4195,0.809327,-0.5,0.85,-0.7,0.85,-0.759327,0.8305,-0.8,0.75,-0.8,-0.75,-0.7805,-0.809327,-0.7,-0.85,-0.5,-0.85,-0.440673,-0.8305,90.0*%
%ADD30OUTLINE30*%
%AMOUTLINE31*4,1,20,-0.440673,-0.8305,-0.4,-0.75,-0.4,-0.65,0.7,-0.65,0.759327,-0.6305,0.8,-0.55,0.8,0.55,0.7805,0.609327,0.7,0.65,-0.4,0.65,-0.4,0.75,-0.4195,0.809327,-0.5,0.85,-0.7,0.85,-0.759327,0.8305,-0.8,0.75,-0.8,-0.75,-0.7805,-0.809327,-0.7,-0.85,-0.5,-0.85,-0.440673,-0.8305,270.0*%
%ADD31OUTLINE31*%
%AMROUNDEDRECT32*20,1,1.0,-0.4,0.0,0.4,0.0,0.0*20,1,0.8,-0.5,0.0,0.5,0.0,0.0*1,1,0.2,-0.4,0.4*1,1,0.2,0.4,0.4*1,1,0.2,0.4,-0.4*1,1,0.2,-0.4,-0.4*%
%ADD32ROUNDEDRECT32*%
%AMROUNDEDRECT33*20,1,1.1,-0.475,0.0,0.475,0.0,90.0*20,1,0.9,-0.575,0.0,0.575,0.0,90.0*1,1,0.2,-0.45,-0.475*1,1,0.2,-0.45,0.475*1,1,0.2,0.45,0.475*1,1,0.2,0.45,-0.475*%
%ADD33ROUNDEDRECT33*%
%AMROUNDEDRECT34*20,1,1.787,-1.095,0.0,1.095,0.0,0.0*20,1,1.587,-1.195,0.0,1.195,0.0,0.0*1,1,0.2,-1.095,0.7935*1,1,0.2,1.095,0.7935*1,1,0.2,1.095,-0.7935*1,1,0.2,-1.095,-0.7935*%
%ADD34ROUNDEDRECT34*%
%AMROUNDEDRECT35*20,1,0.5,-0.26,0.0,0.26,0.0,90.0*20,1,0.15,-0.435,0.0,0.435,0.0,90.0*1,1,0.35,-0.075,-0.26*1,1,0.35,-0.075,0.26*1,1,0.35,0.075,0.26*1,1,0.35,0.075,-0.26*%
%ADD35ROUNDEDRECT35*%
%AMROUNDEDRECT36*20,1,1.1,-0.475,0.0,0.475,0.0,135.0*20,1,0.9,-0.575,0.0,0.575,0.0,135.0*1,1,0.2,0.017678,-0.654074*1,1,0.2,-0.654074,0.017678*1,1,0.2,-0.017678,0.654074*1,1,0.2,0.654074,-0.017678*%
%ADD36ROUNDEDRECT36*%
%ADD37C,2.7*%
%AMOUTLINE38*4,1,22,-1.748667,-4.849991,-1.705279,-4.839443,-0.705279,-4.339443,-0.679289,-4.320711,0.320711,-3.320711,0.339443,-3.294721,0.839443,-2.294721,0.85,-2.25,0.85,2.25,0.839443,2.294721,0.339443,3.294721,0.320711,3.320711,-0.679289,4.320711,-0.705279,4.339443,-1.705279,4.839443,-1.75,4.85,-2.5,4.85,-2.559327,4.8305,-2.6,4.75,-2.6,-4.76,-2.5805,-4.819327,-2.498667,-4.859991,-1.748667,-4.849991,270.0*%
%ADD38OUTLINE38*%
%AMOUTLINE39*4,1,22,-1.748667,-4.849991,-1.705279,-4.839443,-0.705279,-4.339443,-0.679289,-4.320711,0.320711,-3.320711,0.339443,-3.294721,0.839443,-2.294721,0.85,-2.25,0.85,2.25,0.839443,2.294721,0.339443,3.294721,0.320711,3.320711,-0.679289,4.320711,-0.705279,4.339443,-1.705279,4.839443,-1.75,4.85,-2.5,4.85,-2.559327,4.8305,-2.6,4.75,-2.6,-4.76,-2.5805,-4.819327,-2.498667,-4.859991,-1.748667,-4.849991,90.0*%
%ADD39OUTLINE39*%
%ADD40C,1.5*%
%AMROUNDEDRECT41*20,1,1.5,-3.6,0.0,3.6,0.0,90.0*20,1,1.3,-3.7,0.0,3.7,0.0,90.0*1,1,0.2,-0.65,-3.6*1,1,0.2,-0.65,3.6*1,1,0.2,0.65,3.6*1,1,0.2,0.65,-3.6*%
%ADD41ROUNDEDRECT41*%
%AMROUNDEDRECT42*20,1,1.0,-0.425,0.0,0.425,0.0,60.0*20,1,0.8,-0.525,0.0,0.525,0.0,60.0*1,1,0.2,-0.55891,-0.168061*1,1,0.2,-0.13391,0.568061*1,1,0.2,0.55891,0.168061*1,1,0.2,0.13391,-0.568061*%
%ADD42ROUNDEDRECT42*%
%ADD43O,1.08X1.0*%
%ADD44O,2.2X4.2*%
%AMROUNDEDRECT45*20,1,1.1,-0.475,0.0,0.475,0.0,45.0*20,1,0.9,-0.575,0.0,0.575,0.0,45.0*1,1,0.2,-0.654074,-0.017678*1,1,0.2,0.017678,0.654074*1,1,0.2,0.654074,0.017678*1,1,0.2,-0.017678,-0.654074*%
%ADD45ROUNDEDRECT45*%
%ADD46C,1.9*%
%AMROUNDEDRECT47*20,1,1.0,-0.45,0.0,0.45,0.0,0.0*20,1,0.4,-0.75,0.0,0.75,0.0,0.0*1,1,0.6,-0.45,0.2*1,1,0.6,0.45,0.2*1,1,0.6,0.45,-0.2*1,1,0.6,-0.45,-0.2*%
%ADD47ROUNDEDRECT47*%
%AMROUNDEDRECT48*20,1,0.65,-0.5625,0.0,0.5625,0.0,90.0*20,1,0.225,-0.775,0.0,0.775,0.0,90.0*1,1,0.425,-0.1125,-0.5625*1,1,0.425,-0.1125,0.5625*1,1,0.425,0.1125,0.5625*1,1,0.425,0.1125,-0.5625*%
%ADD48ROUNDEDRECT48*%
%ADD49O,2.39X1.787*%
%ADD50C,0.7*%
G04 --- APERTURE LIST END --- *
G04 --- BOARD BEGIN --- *
D10*
G04 #@! TO.C,C18*
X28975000Y105250000D03*
X27525000Y105250000D03*
D11*
G04 #@! TO.C,XO1*
X27100000Y136150000D03*
X24900000Y136150000D03*
X24900000Y137850000D03*
X27100000Y137850000D03*
D12*
G04 #@! TO.C,A*
X12878680Y101621320D03*
D13*
X17121320Y97378680D03*
D14*
G04 #@! TD*
X21717514Y99500000D03*
X8282486Y99500000D03*
D15*
G04 #@! TO.C,J1*
X9440000Y80000000D03*
D16*
X17060000Y80000000D03*
D15*
X11980000Y80000000D03*
X14520000Y80000000D03*
D17*
G04 #@! TO.C,R1*
X29025000Y88250000D03*
X27475000Y88250000D03*
D18*
G04 #@! TO.C,U3*
X13837500Y86250000D03*
X13837500Y85750000D03*
D19*
X15500000Y84587500D03*
X15000000Y86912500D03*
X14500000Y86912500D03*
D18*
X15662500Y85750000D03*
D19*
X15500000Y86912500D03*
X15000000Y84587500D03*
D18*
X15662500Y85250000D03*
X13837500Y85250000D03*
D19*
X14000000Y86912500D03*
X14500000Y84587500D03*
D18*
X15662500Y86250000D03*
D19*
X14000000Y84587500D03*
D17*
G04 #@! TO.C,R4*
X13725000Y13000000D03*
X15275000Y13000000D03*
D14*
G04 #@! TD*
X8282486Y108000000D03*
X21717514Y108000000D03*
D20*
G04 #@! TO.C,UP*
X12171573Y130292893D03*
D21*
X17828427Y130292893D03*
D14*
G04 #@! TD*
X8282486Y131000000D03*
X21717514Y131000000D03*
D10*
G04 #@! TO.C,C9*
X12525000Y83250000D03*
X13975000Y83250000D03*
D22*
G04 #@! TO.C,BOOT_SW*
X23025000Y86750000D03*
D23*
X27475000Y83250000D03*
X27475000Y86750000D03*
D22*
X23025000Y83250000D03*
D24*
G04 #@! TO.C,C8*
X12500000Y85025000D03*
X12500000Y86475000D03*
D25*
G04 #@! TO.C,J2*
X12515000Y138030000D03*
X11515000Y136030000D03*
X18515000Y138030000D03*
D26*
X20500000Y139100000D03*
D25*
X14515000Y138030000D03*
X17515000Y136030000D03*
X16515000Y138030000D03*
X15515000Y136030000D03*
D26*
X9500000Y139100000D03*
D25*
X13515000Y136030000D03*
D27*
G04 #@! TD*
X13515000Y140030000D03*
X17515000Y140030000D03*
D28*
G04 #@! TO.C,R19*
X21250000Y33775000D03*
X21250000Y32225000D03*
G04 #@! TO.C,R10*
X22000000Y69775000D03*
X22000000Y68225000D03*
G04 #@! TO.C,R15*
X8000000Y15775000D03*
X8000000Y14225000D03*
G04 #@! TO.C,R18*
X22000000Y15775000D03*
X22000000Y14225000D03*
D29*
G04 #@! TO.C,D7*
X18700000Y83175000D03*
X18700000Y86325000D03*
D17*
G04 #@! TO.C,R6*
X26475000Y12000000D03*
X28025000Y12000000D03*
D10*
G04 #@! TO.C,C14*
X25225000Y32250000D03*
X23775000Y32250000D03*
D30*
G04 #@! TO.C,POWER*
X4000000Y136525000D03*
D31*
X7500000Y140975000D03*
X4000000Y140975000D03*
D30*
X7500000Y136525000D03*
D32*
G04 #@! TO.C,L1*
X9000000Y27000000D03*
X9000000Y28500000D03*
D28*
G04 #@! TO.C,R12*
X18750000Y87975000D03*
X18750000Y89525000D03*
D33*
G04 #@! TO.C,D5*
X19675000Y17750000D03*
X22825000Y17750000D03*
D28*
G04 #@! TO.C,R7*
X22500000Y32225000D03*
X22500000Y33775000D03*
D34*
G04 #@! TO.C,J5*
X27250000Y99500000D03*
D10*
G04 #@! TO.C,C10*
X24525000Y38750000D03*
X25975000Y38750000D03*
D35*
G04 #@! TO.C,U5*
X6000000Y35740000D03*
X6500000Y34260000D03*
X7000000Y34260000D03*
X6500000Y35740000D03*
X7000000Y35740000D03*
X6000000Y34260000D03*
D36*
G04 #@! TO.C,D4*
X27613693Y132613693D03*
X25386307Y130386307D03*
D32*
G04 #@! TO.C,LED3*
X17750000Y14250000D03*
X17750000Y12750000D03*
D29*
G04 #@! TO.C,D9*
X21300000Y83175000D03*
X21300000Y86325000D03*
D17*
G04 #@! TO.C,R11*
X14225000Y88250000D03*
X15775000Y88250000D03*
G04 #@! TO.C,R14*
X13975000Y89750000D03*
X15525000Y89750000D03*
G04 #@! TO.C,R24*
X24975000Y105250000D03*
X26525000Y105250000D03*
D37*
G04 #@! TO.C,LS1*
X23000000Y49000000D03*
X20500000Y46500000D03*
D24*
G04 #@! TO.C,C16*
X3250000Y39475000D03*
X3250000Y38025000D03*
D28*
G04 #@! TO.C,R20*
X3250000Y37025000D03*
X3250000Y35475000D03*
D24*
G04 #@! TO.C,C17*
X6500000Y28275000D03*
X6500000Y29725000D03*
D38*
G04 #@! TO.C,LEFT*
X6207107Y118671573D03*
D39*
X6207107Y124328427D03*
D14*
G04 #@! TD*
X5500000Y114782486D03*
X5500000Y128217514D03*
D28*
G04 #@! TO.C,R17*
X19000000Y15775000D03*
X19000000Y14225000D03*
D36*
G04 #@! TO.C,D1*
X26113693Y134113693D03*
X23886307Y131886307D03*
D32*
G04 #@! TO.C,LED2*
X12250000Y14250000D03*
X12250000Y12750000D03*
D29*
G04 #@! TO.C,D3*
X3250000Y108075000D03*
X3250000Y104925000D03*
D28*
G04 #@! TO.C,R16*
X11000000Y15775000D03*
X11000000Y14225000D03*
D33*
G04 #@! TO.C,D13*
X29075000Y106750000D03*
X25925000Y106750000D03*
G04 #@! TO.C,D11*
X25675000Y108750000D03*
X28825000Y108750000D03*
D24*
G04 #@! TO.C,C12*
X25000000Y48975000D03*
X25000000Y47525000D03*
D40*
G04 #@! TO.C,J3*
X17000000Y7500000D03*
D41*
X13000000Y2500000D03*
D40*
X13000000Y9500000D03*
X17000000Y9500000D03*
X15000000Y9500000D03*
X13000000Y7500000D03*
X15000000Y7500000D03*
D41*
X17000000Y2500000D03*
D21*
G04 #@! TO.C,DOWN*
X17828427Y112707107D03*
D20*
X12171573Y112707107D03*
D14*
G04 #@! TD*
X21717514Y112000000D03*
X8282486Y112000000D03*
D32*
G04 #@! TO.C,LED1*
X6750000Y14250000D03*
X6750000Y12750000D03*
D24*
G04 #@! TO.C,C6*
X8000000Y84275000D03*
X8000000Y85725000D03*
D34*
G04 #@! TO.C,J6*
X27250000Y102500000D03*
D42*
G04 #@! TO.C,C13*
X27112500Y48627868D03*
X26387500Y47372132D03*
D22*
G04 #@! TO.C,EN_SW*
X2275000Y86750000D03*
D23*
X6725000Y83250000D03*
X6725000Y86750000D03*
D22*
X2275000Y83250000D03*
D43*
G04 #@! TO.C,J4*
X7250000Y30500000D03*
X22750000Y29500000D03*
D44*
X2750000Y29250000D03*
X27250000Y28250000D03*
D32*
G04 #@! TO.C,LED4*
X23250000Y14250000D03*
X23250000Y12750000D03*
D13*
G04 #@! TO.C,ONE*
X17121320Y34878680D03*
D12*
X12878680Y39121320D03*
D14*
G04 #@! TD*
X8282486Y37000000D03*
X21717514Y37000000D03*
D28*
G04 #@! TO.C,R22*
X25250000Y94475000D03*
X25250000Y96025000D03*
D10*
G04 #@! TO.C,C15*
X23525000Y31000000D03*
X24975000Y31000000D03*
D28*
G04 #@! TO.C,R3*
X23000000Y19475000D03*
X23000000Y21025000D03*
D17*
G04 #@! TO.C,R2*
X9775000Y87750000D03*
X8225000Y87750000D03*
D29*
G04 #@! TO.C,D10*
X9750000Y83175000D03*
X9750000Y86325000D03*
D22*
G04 #@! TO.C,HOME*
X12775000Y76750000D03*
D23*
X17225000Y73250000D03*
X17225000Y76750000D03*
D22*
X12775000Y73250000D03*
D45*
G04 #@! TO.C,D6*
X19136307Y29363693D03*
X21363693Y27136307D03*
D13*
G04 #@! TO.C,TWO*
X17121320Y21128680D03*
D12*
X12878680Y25371320D03*
D14*
G04 #@! TD*
X8282486Y23250000D03*
X21717514Y23250000D03*
D22*
G04 #@! TO.C,PLUS*
X22775000Y76750000D03*
D23*
X27225000Y73250000D03*
X27225000Y76750000D03*
D22*
X22775000Y73250000D03*
D17*
G04 #@! TO.C,R23*
X25275000Y97250000D03*
X23725000Y97250000D03*
D46*
G04 #@! TO.C,SYNC*
X6750000Y25250000D03*
X2250000Y18750000D03*
X2250000Y25250000D03*
X6750000Y18750000D03*
D24*
G04 #@! TO.C,C1*
X4250000Y50225000D03*
X4250000Y48775000D03*
D10*
G04 #@! TO.C,C11*
X24525000Y40000000D03*
X25975000Y40000000D03*
D22*
G04 #@! TO.C,MINUS*
X2775000Y76750000D03*
D23*
X7225000Y73250000D03*
X7225000Y76750000D03*
D22*
X2775000Y73250000D03*
D28*
G04 #@! TO.C,R5*
X29000000Y14225000D03*
X29000000Y15775000D03*
D39*
G04 #@! TO.C,RIGHT*
X23792893Y124328427D03*
D38*
X23792893Y118671573D03*
D14*
G04 #@! TD*
X24500000Y128217514D03*
X24500000Y114782486D03*
D29*
G04 #@! TO.C,D2*
X5250000Y108575000D03*
X5250000Y105425000D03*
D47*
G04 #@! TO.C,Q1*
X26650000Y95300000D03*
X28850000Y96250000D03*
X26650000Y97200000D03*
D28*
G04 #@! TO.C,R9*
X20750000Y69775000D03*
X20750000Y68225000D03*
D48*
G04 #@! TO.C,U4*
X24925000Y37475000D03*
X24275000Y37475000D03*
X24275000Y33525000D03*
X26225000Y33525000D03*
X25575000Y33525000D03*
X24925000Y33525000D03*
X25575000Y37475000D03*
X26225000Y37475000D03*
D28*
G04 #@! TO.C,R21*
X5000000Y33725000D03*
X5000000Y35275000D03*
D24*
G04 #@! TO.C,C3*
X3000000Y50225000D03*
X3000000Y48775000D03*
D45*
G04 #@! TO.C,D8*
X2386307Y16613693D03*
X4613693Y14386307D03*
D29*
G04 #@! TO.C,D12*
X1250000Y109075000D03*
X1250000Y105925000D03*
D17*
G04 #@! TO.C,R13*
X4025000Y102750000D03*
X2475000Y102750000D03*
D24*
G04 #@! TO.C,C2*
X1000000Y84275000D03*
X1000000Y85725000D03*
D49*
G04 #@! TO.C,JTAG*
X26750000Y14190000D03*
D34*
X26750000Y21810000D03*
D49*
X26750000Y16730000D03*
X26750000Y19270000D03*
D24*
G04 #@! TO.C,C7*
X29000000Y85275000D03*
X29000000Y86725000D03*
D50*
G04 #@! TD*
X7750000Y0D03*
X22250000Y0D03*
X8500000Y0D03*
X23000000Y0D03*
D14*
X5250000Y132000000D03*
D50*
X6250000Y0D03*
X21500000Y0D03*
X23750000Y0D03*
X7000000Y0D03*
G04 --- BOARD END --- *
G04 #@! TF.MD5,4aa44393e49c3d87794a3caa868fce8e*
M02*
