G04 --- HEADER BEGIN --- *
G04 #@! TF.GenerationSoftware,LibrePCB,LibrePCB,2.0.1*
G04 #@! TF.CreationDate,2026-06-07T20:54:16*
G04 #@! TF.ProjectId,ESPmote (ESPmote_WROOM32),c75d975a-3822-4103-ad87-6dcb39d2a138,v1*
G04 #@! TF.Part,Single*
G04 #@! TF.SameCoordinates*
G04 #@! TF.FileFunction,Legend,Top*
G04 #@! TF.FilePolarity,Positive*
%FSLAX66Y66*%
%MOMM*%
G01*
G75*
G04 --- HEADER END --- *
G04 --- APERTURE LIST BEGIN --- *
%ADD10C,0.15*%
%ADD11C,0.1*%
%ADD12C,0.2*%
%ADD13C,0.25*%
%ADD14C,0.05*%
%ADD15C,0.01*%
%AMROUNDEDRECT16*20,1,1.0,-0.425,0.0,0.425,0.0,0.0*20,1,0.8,-0.525,0.0,0.525,0.0,0.0*1,1,0.2,-0.425,0.4*1,1,0.2,0.425,0.4*1,1,0.2,0.425,-0.4*1,1,0.2,-0.425,-0.4*%
%ADD16ROUNDEDRECT16*%
%AMROUNDEDRECT17*20,1,1.4,-0.7,0.0,0.7,0.0,0.0*20,1,1.2,-0.8,0.0,0.8,0.0,0.0*1,1,0.2,-0.7,0.6*1,1,0.2,0.7,0.6*1,1,0.2,0.7,-0.6*1,1,0.2,-0.7,-0.6*%
%ADD17ROUNDEDRECT17*%
%AMOUTLINE18*4,1,31,-1.205279,-3.589443,-0.705279,-3.339443,-0.679289,-3.320711,0.320711,-2.320711,0.339443,-2.294721,0.839443,-1.294721,0.85,-1.25,0.85,1.25,0.839443,1.294721,0.339443,2.294721,0.320711,2.320711,-0.679289,3.320711,-0.705279,3.339443,-1.705279,3.839443,-1.75,3.85,-4.25,3.85,-4.309327,3.8305,-4.35,3.75,-4.35,-1.5,-4.320711,-1.570711,-4.070711,-1.820711,-4.0,-1.85,-3.25,-1.85,-3.190673,-1.8305,-3.15,-1.75,-3.15,2.15,-1.791422,2.15,-1.35,1.708578,-1.35,-3.5,-1.3305,-3.559327,-1.279605,-3.595517,-1.205279,-3.589443,135.0*%
%ADD18OUTLINE18*%
%AMOUTLINE19*4,1,31,-1.205279,-3.589443,-0.705279,-3.339443,-0.679289,-3.320711,0.320711,-2.320711,0.339443,-2.294721,0.839443,-1.294721,0.85,-1.25,0.85,1.25,0.839443,1.294721,0.339443,2.294721,0.320711,2.320711,-0.679289,3.320711,-0.705279,3.339443,-1.705279,3.839443,-1.75,3.85,-4.25,3.85,-4.309327,3.8305,-4.35,3.75,-4.35,-1.5,-4.320711,-1.570711,-4.070711,-1.820711,-4.0,-1.85,-3.25,-1.85,-3.190673,-1.8305,-3.15,-1.75,-3.15,2.15,-1.791422,2.15,-1.35,1.708578,-1.35,-3.5,-1.3305,-3.559327,-1.279605,-3.595517,-1.205279,-3.589443,315.0*%
%ADD19OUTLINE19*%
%ADD20C,2.45*%
%ADD21O,1.787X2.39*%
%AMROUNDEDRECT22*20,1,1.787,-1.095,0.0,1.095,0.0,90.0*20,1,1.587,-1.195,0.0,1.195,0.0,90.0*1,1,0.2,-0.7935,-1.095*1,1,0.2,-0.7935,1.095*1,1,0.2,0.7935,1.095*1,1,0.2,0.7935,-1.095*%
%ADD22ROUNDEDRECT22*%
%AMROUNDEDRECT23*20,1,0.95,-0.4,0.0,0.4,0.0,90.0*20,1,0.75,-0.5,0.0,0.5,0.0,90.0*1,1,0.2,-0.375,-0.4*1,1,0.2,-0.375,0.4*1,1,0.2,0.375,0.4*1,1,0.2,0.375,-0.4*%
%ADD23ROUNDEDRECT23*%
%AMROUNDEDRECT24*20,1,0.45,-0.175,0.0,0.175,0.0,0.0*20,1,0.125,-0.3375,0.0,0.3375,0.0,0.0*1,1,0.325,-0.175,0.0625*1,1,0.325,0.175,0.0625*1,1,0.325,0.175,-0.0625*1,1,0.325,-0.175,-0.0625*%
%ADD24ROUNDEDRECT24*%
%AMROUNDEDRECT25*20,1,0.45,-0.175,0.0,0.175,0.0,90.0*20,1,0.125,-0.3375,0.0,0.3375,0.0,90.0*1,1,0.325,-0.0625,-0.175*1,1,0.325,-0.0625,0.175*1,1,0.325,0.0625,0.175*1,1,0.325,0.0625,-0.175*%
%ADD25ROUNDEDRECT25*%
%AMOUTLINE26*4,1,22,-1.748667,-4.849991,-1.705279,-4.839443,-0.705279,-4.339443,-0.679289,-4.320711,0.320711,-3.320711,0.339443,-3.294721,0.839443,-2.294721,0.85,-2.25,0.85,2.25,0.839443,2.294721,0.339443,3.294721,0.320711,3.320711,-0.679289,4.320711,-0.705279,4.339443,-1.705279,4.839443,-1.75,4.85,-2.5,4.85,-2.559327,4.8305,-2.6,4.75,-2.6,-4.76,-2.5805,-4.819327,-2.498667,-4.859991,-1.748667,-4.849991,180.0*%
%ADD26OUTLINE26*%
%AMOUTLINE27*4,1,22,-1.748667,-4.849991,-1.705279,-4.839443,-0.705279,-4.339443,-0.679289,-4.320711,0.320711,-3.320711,0.339443,-3.294721,0.839443,-2.294721,0.85,-2.25,0.85,2.25,0.839443,2.294721,0.339443,3.294721,0.320711,3.320711,-0.679289,4.320711,-0.705279,4.339443,-1.705279,4.839443,-1.75,4.85,-2.5,4.85,-2.559327,4.8305,-2.6,4.75,-2.6,-4.76,-2.5805,-4.819327,-2.498667,-4.859991,-1.748667,-4.849991,0.0*%
%ADD27OUTLINE27*%
%AMOUTLINE28*4,1,20,-0.440673,-0.8305,-0.4,-0.75,-0.4,-0.65,0.7,-0.65,0.759327,-0.6305,0.8,-0.55,0.8,0.55,0.7805,0.609327,0.7,0.65,-0.4,0.65,-0.4,0.75,-0.4195,0.809327,-0.5,0.85,-0.7,0.85,-0.759327,0.8305,-0.8,0.75,-0.8,-0.75,-0.7805,-0.809327,-0.7,-0.85,-0.5,-0.85,-0.440673,-0.8305,0.0*%
%ADD28OUTLINE28*%
%AMOUTLINE29*4,1,20,-0.440673,-0.8305,-0.4,-0.75,-0.4,-0.65,0.7,-0.65,0.759327,-0.6305,0.8,-0.55,0.8,0.55,0.7805,0.609327,0.7,0.65,-0.4,0.65,-0.4,0.75,-0.4195,0.809327,-0.5,0.85,-0.7,0.85,-0.759327,0.8305,-0.8,0.75,-0.8,-0.75,-0.7805,-0.809327,-0.7,-0.85,-0.5,-0.85,-0.440673,-0.8305,180.0*%
%ADD29OUTLINE29*%
%AMROUNDEDRECT30*20,1,1.0,-0.425,0.0,0.425,0.0,90.0*20,1,0.8,-0.525,0.0,0.525,0.0,90.0*1,1,0.2,-0.4,-0.425*1,1,0.2,-0.4,0.425*1,1,0.2,0.4,0.425*1,1,0.2,0.4,-0.425*%
%ADD30ROUNDEDRECT30*%
%ADD31C,1.208*%
%ADD32O,2.2X4.0*%
%ADD33C,1.2*%
%AMROUNDEDRECT34*20,1,0.95,-0.4,0.0,0.4,0.0,0.0*20,1,0.75,-0.5,0.0,0.5,0.0,0.0*1,1,0.2,-0.4,0.375*1,1,0.2,0.4,0.375*1,1,0.2,0.4,-0.375*1,1,0.2,-0.4,-0.375*%
%ADD34ROUNDEDRECT34*%
%AMROUNDEDRECT35*20,1,1.1,-0.475,0.0,0.475,0.0,0.0*20,1,0.9,-0.575,0.0,0.575,0.0,0.0*1,1,0.2,-0.475,0.45*1,1,0.2,0.475,0.45*1,1,0.2,0.475,-0.45*1,1,0.2,-0.475,-0.45*%
%ADD35ROUNDEDRECT35*%
%AMOUTLINE36*4,1,20,-0.440673,-0.8305,-0.4,-0.75,-0.4,-0.65,0.7,-0.65,0.759327,-0.6305,0.8,-0.55,0.8,0.55,0.7805,0.609327,0.7,0.65,-0.4,0.65,-0.4,0.75,-0.4195,0.809327,-0.5,0.85,-0.7,0.85,-0.759327,0.8305,-0.8,0.75,-0.8,-0.75,-0.7805,-0.809327,-0.7,-0.85,-0.5,-0.85,-0.440673,-0.8305,90.0*%
%ADD36OUTLINE36*%
%AMOUTLINE37*4,1,20,-0.440673,-0.8305,-0.4,-0.75,-0.4,-0.65,0.7,-0.65,0.759327,-0.6305,0.8,-0.55,0.8,0.55,0.7805,0.609327,0.7,0.65,-0.4,0.65,-0.4,0.75,-0.4195,0.809327,-0.5,0.85,-0.7,0.85,-0.759327,0.8305,-0.8,0.75,-0.8,-0.75,-0.7805,-0.809327,-0.7,-0.85,-0.5,-0.85,-0.440673,-0.8305,270.0*%
%ADD37OUTLINE37*%
%AMROUNDEDRECT38*20,1,1.0,-0.4,0.0,0.4,0.0,0.0*20,1,0.8,-0.5,0.0,0.5,0.0,0.0*1,1,0.2,-0.4,0.4*1,1,0.2,0.4,0.4*1,1,0.2,0.4,-0.4*1,1,0.2,-0.4,-0.4*%
%ADD38ROUNDEDRECT38*%
%AMROUNDEDRECT39*20,1,1.1,-0.475,0.0,0.475,0.0,90.0*20,1,0.9,-0.575,0.0,0.575,0.0,90.0*1,1,0.2,-0.45,-0.475*1,1,0.2,-0.45,0.475*1,1,0.2,0.45,0.475*1,1,0.2,0.45,-0.475*%
%ADD39ROUNDEDRECT39*%
%AMROUNDEDRECT40*20,1,1.787,-1.095,0.0,1.095,0.0,0.0*20,1,1.587,-1.195,0.0,1.195,0.0,0.0*1,1,0.2,-1.095,0.7935*1,1,0.2,1.095,0.7935*1,1,0.2,1.095,-0.7935*1,1,0.2,-1.095,-0.7935*%
%ADD40ROUNDEDRECT40*%
%AMROUNDEDRECT41*20,1,0.5,-0.26,0.0,0.26,0.0,90.0*20,1,0.15,-0.435,0.0,0.435,0.0,90.0*1,1,0.35,-0.075,-0.26*1,1,0.35,-0.075,0.26*1,1,0.35,0.075,0.26*1,1,0.35,0.075,-0.26*%
%ADD41ROUNDEDRECT41*%
%AMROUNDEDRECT42*20,1,1.1,-0.475,0.0,0.475,0.0,135.0*20,1,0.9,-0.575,0.0,0.575,0.0,135.0*1,1,0.2,0.017678,-0.654074*1,1,0.2,-0.654074,0.017678*1,1,0.2,-0.017678,0.654074*1,1,0.2,0.654074,-0.017678*%
%ADD42ROUNDEDRECT42*%
%ADD43C,2.7*%
%AMOUTLINE44*4,1,22,-1.748667,-4.849991,-1.705279,-4.839443,-0.705279,-4.339443,-0.679289,-4.320711,0.320711,-3.320711,0.339443,-3.294721,0.839443,-2.294721,0.85,-2.25,0.85,2.25,0.839443,2.294721,0.339443,3.294721,0.320711,3.320711,-0.679289,4.320711,-0.705279,4.339443,-1.705279,4.839443,-1.75,4.85,-2.5,4.85,-2.559327,4.8305,-2.6,4.75,-2.6,-4.76,-2.5805,-4.819327,-2.498667,-4.859991,-1.748667,-4.849991,270.0*%
%ADD44OUTLINE44*%
%AMOUTLINE45*4,1,22,-1.748667,-4.849991,-1.705279,-4.839443,-0.705279,-4.339443,-0.679289,-4.320711,0.320711,-3.320711,0.339443,-3.294721,0.839443,-2.294721,0.85,-2.25,0.85,2.25,0.839443,2.294721,0.339443,3.294721,0.320711,3.320711,-0.679289,4.320711,-0.705279,4.339443,-1.705279,4.839443,-1.75,4.85,-2.5,4.85,-2.559327,4.8305,-2.6,4.75,-2.6,-4.76,-2.5805,-4.819327,-2.498667,-4.859991,-1.748667,-4.849991,90.0*%
%ADD45OUTLINE45*%
%ADD46C,1.5*%
%AMROUNDEDRECT47*20,1,1.5,-3.6,0.0,3.6,0.0,90.0*20,1,1.3,-3.7,0.0,3.7,0.0,90.0*1,1,0.2,-0.65,-3.6*1,1,0.2,-0.65,3.6*1,1,0.2,0.65,3.6*1,1,0.2,0.65,-3.6*%
%ADD47ROUNDEDRECT47*%
%AMROUNDEDRECT48*20,1,1.0,-0.425,0.0,0.425,0.0,60.0*20,1,0.8,-0.525,0.0,0.525,0.0,60.0*1,1,0.2,-0.55891,-0.168061*1,1,0.2,-0.13391,0.568061*1,1,0.2,0.55891,0.168061*1,1,0.2,0.13391,-0.568061*%
%ADD48ROUNDEDRECT48*%
%ADD49O,1.08X1.0*%
%ADD50O,2.2X4.2*%
%AMROUNDEDRECT51*20,1,1.1,-0.475,0.0,0.475,0.0,45.0*20,1,0.9,-0.575,0.0,0.575,0.0,45.0*1,1,0.2,-0.654074,-0.017678*1,1,0.2,0.017678,0.654074*1,1,0.2,0.654074,0.017678*1,1,0.2,-0.017678,-0.654074*%
%ADD51ROUNDEDRECT51*%
%ADD52C,1.9*%
%AMROUNDEDRECT53*20,1,1.0,-0.45,0.0,0.45,0.0,0.0*20,1,0.4,-0.75,0.0,0.75,0.0,0.0*1,1,0.6,-0.45,0.2*1,1,0.6,0.45,0.2*1,1,0.6,0.45,-0.2*1,1,0.6,-0.45,-0.2*%
%ADD53ROUNDEDRECT53*%
%AMROUNDEDRECT54*20,1,0.65,-0.5625,0.0,0.5625,0.0,90.0*20,1,0.225,-0.775,0.0,0.775,0.0,90.0*1,1,0.425,-0.1125,-0.5625*1,1,0.425,-0.1125,0.5625*1,1,0.425,0.1125,0.5625*1,1,0.425,0.1125,-0.5625*%
%ADD54ROUNDEDRECT54*%
%ADD55O,2.39X1.787*%
%ADD56C,0.7*%
G04 --- APERTURE LIST END --- *
G04 --- BOARD BEGIN --- *
D10*
G04 #@! TO.C,C18*
X28175000Y104775000D02*
X28325000Y104775000D01*
X28175000Y105725000D02*
X28325000Y105725000D01*
D11*
G04 #@! TO.C,XO1*
X24400000Y135750000D02*
X27600000Y135750000D01*
X27600000Y138250000D01*
X24400000Y138250000D01*
X24400000Y135750000D01*
D12*
G04 #@! TO.C,A*
X19242641Y95257359D02*
G02*
X10757359Y95257359I-4242641J4242641D01*
G01*
X10757359Y103742641D02*
G02*
X19242641Y103742641I4242641J-4242641D01*
G01*
X10757359Y103742641D02*
X6514719Y99500000D01*
X10757359Y95257359D01*
X19242641Y95257359D02*
X23485281Y99500000D01*
X19242641Y103742641D01*
X18000000Y99500000D02*
G02*
X12000000Y99500000I-3000000J0D01*
G01*
G02*
X18000000Y99500000I3000000J0D01*
G01*
D13*
G04 #@! TO.C,J1*
X18185000Y78605000D02*
X16060000Y78605000D01*
X15790000Y78875000D01*
X15520000Y78605000D01*
X13520000Y78605000D01*
X13250000Y78875000D01*
X12980000Y78605000D01*
X10980000Y78605000D01*
X10710000Y78875000D01*
X10440000Y78605000D01*
X8315000Y78605000D01*
X8045000Y78875000D01*
X8045000Y81125000D01*
X8315000Y81395000D01*
X10440000Y81395000D01*
X10710000Y81125000D01*
X10980000Y81395000D01*
X12980000Y81395000D01*
X13250000Y81125000D01*
X13520000Y81395000D01*
X15520000Y81395000D01*
X15790000Y81125000D01*
X16060000Y81395000D01*
X18185000Y81395000D01*
X18455000Y81125000D01*
X18455000Y78875000D01*
X18185000Y78605000D01*
D10*
G04 #@! TO.C,R1*
X28075000Y87775000D02*
X28425000Y87775000D01*
X28075000Y88725000D02*
X28425000Y88725000D01*
D12*
G04 #@! TO.C,U3*
X16000000Y87250000D02*
X16000000Y84250000D01*
X13500000Y84250000D01*
X13500000Y87250000D01*
X16000000Y87250000D01*
D10*
G04 #@! TO.C,R4*
X14675000Y13475000D02*
X14325000Y13475000D01*
X14675000Y12525000D02*
X14325000Y12525000D01*
D12*
G04 #@! TO.C,UP*
X10757359Y135242641D02*
X19242641Y135242641D01*
X23485281Y131000000D01*
X19242641Y126757359D01*
X10757359Y126757359D01*
X6514719Y131000000D01*
X10757359Y135242641D01*
X18000000Y131000000D02*
G02*
X12000000Y131000000I-3000000J0D01*
G01*
G02*
X18000000Y131000000I3000000J0D01*
G01*
D10*
G04 #@! TO.C,C9*
X13325000Y83725000D02*
X13175000Y83725000D01*
X13325000Y82775000D02*
X13175000Y82775000D01*
D14*
G04 #@! TO.C,BOOT_SW*
X23000000Y87250000D02*
X27500000Y87250000D01*
X27500000Y82750000D01*
X23000000Y82750000D01*
X23000000Y87250000D01*
D10*
G04 #@! TO.C,C8*
X12025000Y85825000D02*
X12025000Y85675000D01*
X12975000Y85825000D02*
X12975000Y85675000D01*
G04 #@! TO.C,R19*
X21725000Y32825000D02*
X21725000Y33175000D01*
X20775000Y32825000D02*
X20775000Y33175000D01*
G04 #@! TO.C,R10*
X22475000Y68825000D02*
X22475000Y69175000D01*
X21525000Y68825000D02*
X21525000Y69175000D01*
G04 #@! TO.C,R15*
X8475000Y14825000D02*
X8475000Y15175000D01*
X7525000Y14825000D02*
X7525000Y15175000D01*
G04 #@! TO.C,R18*
X22475000Y14825000D02*
X22475000Y15175000D01*
X21525000Y14825000D02*
X21525000Y15175000D01*
D12*
G04 #@! TO.C,D7*
X19575000Y83425000D02*
X19575000Y87025000D01*
X17825000Y87025000D01*
X17825000Y83425000D01*
D10*
G04 #@! TO.C,R6*
X27425000Y12475000D02*
X27075000Y12475000D01*
X27425000Y11525000D02*
X27075000Y11525000D01*
G04 #@! TO.C,C14*
X24425000Y31775000D02*
X24575000Y31775000D01*
X24425000Y32725000D02*
X24575000Y32725000D01*
D14*
G04 #@! TO.C,POWER*
X3500000Y136500000D02*
X3500000Y141000000D01*
X8000000Y141000000D01*
X8000000Y136500000D01*
X3500000Y136500000D01*
D10*
G04 #@! TO.C,L1*
X8525000Y27625000D02*
X8525000Y27875000D01*
X9475000Y27625000D02*
X9475000Y27875000D01*
G04 #@! TO.C,R12*
X18275000Y88925000D02*
X18275000Y88575000D01*
X19225000Y88925000D02*
X19225000Y88575000D01*
D12*
G04 #@! TO.C,D5*
X19925000Y16875000D02*
X23525000Y16875000D01*
X23525000Y18625000D01*
X19925000Y18625000D01*
D10*
G04 #@! TO.C,R7*
X22025000Y33175000D02*
X22025000Y32825000D01*
X22975000Y33175000D02*
X22975000Y32825000D01*
D13*
G04 #@! TO.C,J5*
X28645000Y100625000D02*
X28645000Y98375000D01*
X28375000Y98105000D01*
X26125000Y98105000D01*
X25855000Y98375000D01*
X25855000Y100625000D01*
X26125000Y100895000D01*
X28375000Y100895000D01*
X28645000Y100625000D01*
D15*
G04 #@! TO.C,OSHW1*
G36*
X4978415Y98412365D02*
G03*
X4621585Y98412365I-178415J387635D01*
G01*
G02*
X4631485Y98387280I-8153J-17714D01*
G01*
X4375659Y97760723D01*
G02*
X4350143Y97750078I-18054J7371D01*
G01*
X4211187Y97807636D01*
G03*
X4192797Y97805771I-7462J-18017D01*
G01*
X3887198Y97599018D01*
G02*
X3862482Y97601380I-10927J16151D01*
G01*
X3601380Y97862482D01*
G02*
X3599018Y97887198I13789J13789D01*
G01*
X3805771Y98192797D01*
G03*
X3807636Y98211187I-16152J10928D01*
G01*
X3681939Y98514647D01*
G03*
X3667617Y98526331I-18015J-7463D01*
G01*
X3305329Y98596226D01*
G02*
X3289523Y98615373I3694J19147D01*
G01*
X3289523Y98984627D01*
G02*
X3305329Y99003774I19500J0D01*
G01*
X3667617Y99073669D01*
G03*
X3681939Y99085353I-3693J19147D01*
G01*
X3807636Y99388813D01*
G03*
X3805771Y99407203I-18017J7462D01*
G01*
X3599018Y99712802D01*
G02*
X3601380Y99737518I16151J10927D01*
G01*
X3862482Y99998620D01*
G02*
X3887198Y100000982I13789J-13789D01*
G01*
X4192797Y99794229D01*
G03*
X4211187Y99792364I10928J16152D01*
G01*
X4514647Y99918061D01*
G03*
X4526331Y99932383I-7463J18015D01*
G01*
X4596226Y100294671D01*
G02*
X4615373Y100310477I19147J-3694D01*
G01*
X4984627Y100310477D01*
G02*
X5003774Y100294671I0J-19500D01*
G01*
X5073669Y99932383D01*
G03*
X5085353Y99918061I19147J3693D01*
G01*
X5388813Y99792364D01*
G03*
X5407203Y99794229I7462J18017D01*
G01*
X5712802Y100000982D01*
G02*
X5737518Y99998620I10927J-16151D01*
G01*
X5998620Y99737518D01*
G02*
X6000982Y99712802I-13789J-13789D01*
G01*
X5794229Y99407203D01*
G03*
X5792364Y99388813I16152J-10928D01*
G01*
X5918061Y99085353D01*
G03*
X5932383Y99073669I18015J7463D01*
G01*
X6294671Y99003774D01*
G02*
X6310477Y98984627I-3694J-19147D01*
G01*
X6310477Y98615373D01*
G02*
X6294671Y98596226I-19500J0D01*
G01*
X5932383Y98526331D01*
G03*
X5918061Y98514647I3693J-19147D01*
G01*
X5792364Y98211187D01*
G03*
X5794229Y98192797I18017J-7462D01*
G01*
X6000982Y97887198D01*
G02*
X5998620Y97862482I-16151J-10927D01*
G01*
X5737518Y97601380D01*
G02*
X5712802Y97599018I-13789J13789D01*
G01*
X5407203Y97805771D01*
G03*
X5388813Y97807636I-10928J-16152D01*
G01*
X5249857Y97750078D01*
G02*
X5224341Y97760723I-7462J18016D01*
G01*
X4968515Y98387280D01*
G02*
X4978415Y98412365I18053J7371D01*
G01*
G37*
D12*
X527222Y95895000D02*
X432778Y95942778D01*
X385000Y95990556D01*
X337222Y96085000D01*
X337222Y96371667D01*
X385000Y96466111D01*
X432778Y96513889D01*
X527222Y96561667D01*
X670555Y96561667D01*
X766111Y96513889D01*
X813889Y96466111D01*
X860555Y96371667D01*
X860555Y96085000D01*
X813889Y95990556D01*
X766111Y95942778D01*
X670555Y95895000D01*
X527222Y95895000D01*
X1260555Y96561667D02*
X1260555Y95561667D01*
X1260555Y96513889D02*
X1356111Y96561667D01*
X1546111Y96561667D01*
X1641666Y96513889D01*
X1689444Y96466111D01*
X1737222Y96371667D01*
X1737222Y96085000D01*
X1689444Y95990556D01*
X1641666Y95942778D01*
X1546111Y95895000D01*
X1356111Y95895000D01*
X1260555Y95942778D01*
X2566111Y95942778D02*
X2470555Y95895000D01*
X2280555Y95895000D01*
X2185000Y95942778D01*
X2137222Y96038333D01*
X2137222Y96418333D01*
X2185000Y96513889D01*
X2280555Y96561667D01*
X2470555Y96561667D01*
X2566111Y96513889D01*
X2613889Y96418333D01*
X2613889Y96323889D01*
X2137222Y96228333D01*
X3013889Y96561667D02*
X3013889Y95895000D01*
X3013889Y96466111D02*
X3061667Y96513889D01*
X3157222Y96561667D01*
X3299445Y96561667D01*
X3395000Y96513889D01*
X3442778Y96418333D01*
X3442778Y95895000D01*
X4642777Y95942778D02*
X4738333Y95895000D01*
X4928333Y95895000D01*
X5023888Y95942778D01*
X5071666Y96038333D01*
X5071666Y96085000D01*
X5023888Y96180556D01*
X4928333Y96228333D01*
X4786110Y96228333D01*
X4690555Y96276111D01*
X4642777Y96371667D01*
X4642777Y96418333D01*
X4690555Y96513889D01*
X4786110Y96561667D01*
X4928333Y96561667D01*
X5023888Y96513889D01*
X5661666Y95895000D02*
X5567222Y95942778D01*
X5519444Y95990556D01*
X5471666Y96085000D01*
X5471666Y96371667D01*
X5519444Y96466111D01*
X5567222Y96513889D01*
X5661666Y96561667D01*
X5804999Y96561667D01*
X5900555Y96513889D01*
X5948333Y96466111D01*
X5994999Y96371667D01*
X5994999Y96085000D01*
X5948333Y95990556D01*
X5900555Y95942778D01*
X5804999Y95895000D01*
X5661666Y95895000D01*
X6823888Y96561667D02*
X6823888Y95895000D01*
X6394999Y96561667D02*
X6394999Y96038333D01*
X6442777Y95942778D01*
X6538332Y95895000D01*
X6680555Y95895000D01*
X6776110Y95942778D01*
X6823888Y95990556D01*
X7223888Y95895000D02*
X7223888Y96561667D01*
X7223888Y96371667D02*
X7271666Y96466111D01*
X7319444Y96513889D01*
X7413888Y96561667D01*
X7509444Y96561667D01*
X8386111Y95942778D02*
X8290555Y95895000D01*
X8099444Y95895000D01*
X8005000Y95942778D01*
X7957222Y95990556D01*
X7909444Y96085000D01*
X7909444Y96371667D01*
X7957222Y96466111D01*
X8005000Y96513889D01*
X8099444Y96561667D01*
X8290555Y96561667D01*
X8386111Y96513889D01*
X9215000Y95942778D02*
X9119444Y95895000D01*
X8929444Y95895000D01*
X8833889Y95942778D01*
X8786111Y96038333D01*
X8786111Y96418333D01*
X8833889Y96513889D01*
X8929444Y96561667D01*
X9119444Y96561667D01*
X9215000Y96513889D01*
X9262778Y96418333D01*
X9262778Y96323889D01*
X8786111Y96228333D01*
X1565555Y93917223D02*
X1565555Y94917223D01*
X1994444Y93917223D02*
X1994444Y94440556D01*
X1946666Y94536112D01*
X1851111Y94583890D01*
X1708888Y94583890D01*
X1613333Y94536112D01*
X1565555Y94488334D01*
X2871111Y93917223D02*
X2871111Y94440556D01*
X2823333Y94536112D01*
X2727777Y94583890D01*
X2537777Y94583890D01*
X2442222Y94536112D01*
X2871111Y93965001D02*
X2775555Y93917223D01*
X2537777Y93917223D01*
X2442222Y93965001D01*
X2394444Y94060556D01*
X2394444Y94155001D01*
X2442222Y94250556D01*
X2537777Y94298334D01*
X2775555Y94298334D01*
X2871111Y94346112D01*
X3271111Y93917223D02*
X3271111Y94583890D01*
X3271111Y94393890D02*
X3318889Y94488334D01*
X3366667Y94536112D01*
X3461111Y94583890D01*
X3556667Y94583890D01*
X4433334Y93917223D02*
X4433334Y94917223D01*
X4433334Y93965001D02*
X4337778Y93917223D01*
X4146667Y93917223D01*
X4052223Y93965001D01*
X4004445Y94012779D01*
X3956667Y94107223D01*
X3956667Y94393890D01*
X4004445Y94488334D01*
X4052223Y94536112D01*
X4146667Y94583890D01*
X4337778Y94583890D01*
X4433334Y94536112D01*
X4833334Y94583890D02*
X5023334Y93917223D01*
X5214445Y94393890D01*
X5404445Y93917223D01*
X5595556Y94583890D01*
X6472223Y93917223D02*
X6472223Y94440556D01*
X6424445Y94536112D01*
X6328889Y94583890D01*
X6138889Y94583890D01*
X6043334Y94536112D01*
X6472223Y93965001D02*
X6376667Y93917223D01*
X6138889Y93917223D01*
X6043334Y93965001D01*
X5995556Y94060556D01*
X5995556Y94155001D01*
X6043334Y94250556D01*
X6138889Y94298334D01*
X6376667Y94298334D01*
X6472223Y94346112D01*
X6872223Y93917223D02*
X6872223Y94583890D01*
X6872223Y94393890D02*
X6920001Y94488334D01*
X6967779Y94536112D01*
X7062223Y94583890D01*
X7157779Y94583890D01*
X7986668Y93965001D02*
X7891112Y93917223D01*
X7701112Y93917223D01*
X7605557Y93965001D01*
X7557779Y94060556D01*
X7557779Y94440556D01*
X7605557Y94536112D01*
X7701112Y94583890D01*
X7891112Y94583890D01*
X7986668Y94536112D01*
X8034446Y94440556D01*
X8034446Y94346112D01*
X7557779Y94250556D01*
D10*
G04 #@! TO.C,C10*
X25325000Y39225000D02*
X25175000Y39225000D01*
X25325000Y38275000D02*
X25175000Y38275000D01*
D14*
G04 #@! TO.C,U5*
X5700000Y34400000D02*
X5700000Y35600000D01*
X7300000Y35600000D01*
X7300000Y34400000D01*
X5700000Y34400000D01*
D11*
X5925000Y34600000D02*
G02*
X5875000Y34600000I-25000J0D01*
G01*
G02*
X5925000Y34600000I25000J0D01*
G01*
D12*
G04 #@! TO.C,D4*
X26181802Y129944365D02*
X28727386Y132489949D01*
X27489949Y133727386D01*
X24944365Y131181802D01*
D10*
G04 #@! TO.C,LED3*
X17125000Y14575000D02*
X17125000Y12125000D01*
X17975000Y12125000D01*
X18375000Y12525000D02*
X18375000Y14575000D01*
D15*
G36*
X18500000Y12125000D02*
G02*
X18250000Y12125000I-125000J0D01*
G01*
G02*
X18500000Y12125000I125000J0D01*
G01*
G37*
D12*
G04 #@! TO.C,D9*
X22175000Y83425000D02*
X22175000Y87025000D01*
X20425000Y87025000D01*
X20425000Y83425000D01*
D10*
G04 #@! TO.C,R11*
X15175000Y88725000D02*
X14825000Y88725000D01*
X15175000Y87775000D02*
X14825000Y87775000D01*
G04 #@! TO.C,R14*
X14925000Y90225000D02*
X14575000Y90225000D01*
X14925000Y89275000D02*
X14575000Y89275000D01*
G04 #@! TO.C,R24*
X25925000Y105725000D02*
X25575000Y105725000D01*
X25925000Y104775000D02*
X25575000Y104775000D01*
D12*
G04 #@! TO.C,LS1*
X19000000Y58500000D02*
G02*
X19000000Y52500000I-6500000J-3000000D01*
G01*
X17000000Y57500000D02*
G02*
X17000000Y53500000I-4500000J-2000000D01*
G01*
X18000000Y58000000D02*
G02*
X18000000Y53000000I-5500000J-2500000D01*
G01*
X11500000Y57500000D02*
X11500000Y53500000D01*
X14500000Y53500000D01*
X16000000Y52000000D01*
X16000000Y59000000D01*
X14500000Y57500000D01*
X11500000Y57500000D01*
X23500000Y55500000D02*
G02*
X6500000Y55500000I-8500000J0D01*
G01*
G02*
X23500000Y55500000I8500000J0D01*
G01*
D10*
G04 #@! TO.C,C16*
X3725000Y38675000D02*
X3725000Y38825000D01*
X2775000Y38675000D02*
X2775000Y38825000D01*
G04 #@! TO.C,R20*
X3725000Y36075000D02*
X3725000Y36425000D01*
X2775000Y36075000D02*
X2775000Y36425000D01*
G04 #@! TO.C,C17*
X6025000Y29075000D02*
X6025000Y28925000D01*
X6975000Y29075000D02*
X6975000Y28925000D01*
D12*
G04 #@! TO.C,LEFT*
X1257359Y117257359D02*
X1257359Y125742641D01*
X5500000Y129985281D01*
X9742641Y125742641D01*
X9742641Y117257359D01*
X5500000Y113014719D01*
X1257359Y117257359D01*
X8500000Y121500000D02*
G02*
X2500000Y121500000I-3000000J0D01*
G01*
G02*
X8500000Y121500000I3000000J0D01*
G01*
D10*
G04 #@! TO.C,R17*
X19475000Y14825000D02*
X19475000Y15175000D01*
X18525000Y14825000D02*
X18525000Y15175000D01*
D12*
G04 #@! TO.C,D1*
X25318198Y134555635D02*
X22772614Y132010051D01*
X24010051Y130772614D01*
X26555635Y133318198D01*
D10*
G04 #@! TO.C,LED2*
X11625000Y14575000D02*
X11625000Y12125000D01*
X12475000Y12125000D01*
X12875000Y12525000D02*
X12875000Y14575000D01*
D15*
G36*
X13000000Y12125000D02*
G02*
X12750000Y12125000I-125000J0D01*
G01*
G02*
X13000000Y12125000I125000J0D01*
G01*
G37*
D12*
G04 #@! TO.C,D3*
X2375000Y107825000D02*
X2375000Y104225000D01*
X4125000Y104225000D01*
X4125000Y107825000D01*
D10*
G04 #@! TO.C,R16*
X11475000Y14825000D02*
X11475000Y15175000D01*
X10525000Y14825000D02*
X10525000Y15175000D01*
D12*
G04 #@! TO.C,D13*
X28825000Y107625000D02*
X25225000Y107625000D01*
X25225000Y105875000D01*
X28825000Y105875000D01*
G04 #@! TO.C,D11*
X25925000Y107875000D02*
X29525000Y107875000D01*
X29525000Y109625000D01*
X25925000Y109625000D01*
D10*
G04 #@! TO.C,C12*
X25475000Y48175000D02*
X25475000Y48325000D01*
X24525000Y48175000D02*
X24525000Y48325000D01*
D12*
G04 #@! TO.C,J3*
X24000000Y-1500000D02*
X21000000Y-1500000D01*
X9000000Y-1500000D02*
X6000000Y-1500000D01*
X21500000Y-2500000D02*
X8500000Y-2500000D01*
X8500000Y10500000D01*
X21500000Y10500000D01*
X21500000Y-2500000D01*
G04 #@! TO.C,DOWN*
X19242641Y107757359D02*
X10757359Y107757359D01*
X6514719Y112000000D01*
X10757359Y116242641D01*
X19242641Y116242641D01*
X23485281Y112000000D01*
X19242641Y107757359D01*
X18000000Y112000000D02*
G02*
X12000000Y112000000I-3000000J0D01*
G01*
G02*
X18000000Y112000000I3000000J0D01*
G01*
D10*
G04 #@! TO.C,LED1*
X6125000Y14575000D02*
X6125000Y12125000D01*
X6975000Y12125000D01*
X7375000Y12525000D02*
X7375000Y14575000D01*
D15*
G36*
X7500000Y12125000D02*
G02*
X7250000Y12125000I-125000J0D01*
G01*
G02*
X7500000Y12125000I125000J0D01*
G01*
G37*
D10*
G04 #@! TO.C,C6*
X7525000Y85075000D02*
X7525000Y84925000D01*
X8475000Y85075000D02*
X8475000Y84925000D01*
D13*
G04 #@! TO.C,J6*
X28645000Y103625000D02*
X28645000Y101375000D01*
X28375000Y101105000D01*
X26125000Y101105000D01*
X25855000Y101375000D01*
X25855000Y103625000D01*
X26125000Y103895000D01*
X28375000Y103895000D01*
X28645000Y103625000D01*
D10*
G04 #@! TO.C,C13*
X27123862Y47697548D02*
X27198862Y47827452D01*
X26301138Y48172548D02*
X26376138Y48302452D01*
D14*
G04 #@! TO.C,EN_SW*
X2250000Y87250000D02*
X6750000Y87250000D01*
X6750000Y82750000D01*
X2250000Y82750000D01*
X2250000Y87250000D01*
D10*
G04 #@! TO.C,LED4*
X22625000Y14575000D02*
X22625000Y12125000D01*
X23475000Y12125000D01*
X23875000Y12525000D02*
X23875000Y14575000D01*
D15*
G36*
X24000000Y12125000D02*
G02*
X23750000Y12125000I-125000J0D01*
G01*
G02*
X24000000Y12125000I125000J0D01*
G01*
G37*
D12*
G04 #@! TO.C,ONE*
X19242641Y32757359D02*
X10757359Y32757359D01*
X6514719Y37000000D01*
X10757359Y41242641D01*
X19242641Y41242641D01*
X23485281Y37000000D01*
X19242641Y32757359D01*
X18000000Y37000000D02*
G02*
X12000000Y37000000I-3000000J0D01*
G01*
G02*
X18000000Y37000000I3000000J0D01*
G01*
D10*
G04 #@! TO.C,R22*
X24775000Y95425000D02*
X24775000Y95075000D01*
X25725000Y95425000D02*
X25725000Y95075000D01*
G04 #@! TO.C,C15*
X24325000Y31475000D02*
X24175000Y31475000D01*
X24325000Y30525000D02*
X24175000Y30525000D01*
G04 #@! TO.C,R3*
X22525000Y20425000D02*
X22525000Y20075000D01*
X23475000Y20425000D02*
X23475000Y20075000D01*
G04 #@! TO.C,R2*
X8825000Y87275000D02*
X9175000Y87275000D01*
X8825000Y88225000D02*
X9175000Y88225000D01*
D12*
G04 #@! TO.C,D10*
X10625000Y83425000D02*
X10625000Y87025000D01*
X8875000Y87025000D01*
X8875000Y83425000D01*
D14*
G04 #@! TO.C,HOME*
X12750000Y77250000D02*
X17250000Y77250000D01*
X17250000Y72750000D01*
X12750000Y72750000D01*
X12750000Y77250000D01*
D12*
G04 #@! TO.C,D6*
X18694365Y28568198D02*
X21239949Y26022614D01*
X22477386Y27260051D01*
X19931802Y29805635D01*
G04 #@! TO.C,TWO*
X19242641Y19007359D02*
X10757359Y19007359D01*
X6514719Y23250000D01*
X10757359Y27492641D01*
X19242641Y27492641D01*
X23485281Y23250000D01*
X19242641Y19007359D01*
X18000000Y23250000D02*
G02*
X12000000Y23250000I-3000000J0D01*
G01*
G02*
X18000000Y23250000I3000000J0D01*
G01*
D14*
G04 #@! TO.C,PLUS*
X22750000Y77250000D02*
X27250000Y77250000D01*
X27250000Y72750000D01*
X22750000Y72750000D01*
X22750000Y77250000D01*
D10*
G04 #@! TO.C,R23*
X24325000Y96775000D02*
X24675000Y96775000D01*
X24325000Y97725000D02*
X24675000Y97725000D01*
G04 #@! TO.C,C1*
X4725000Y49425000D02*
X4725000Y49575000D01*
X3775000Y49425000D02*
X3775000Y49575000D01*
G04 #@! TO.C,C11*
X25325000Y40475000D02*
X25175000Y40475000D01*
X25325000Y39525000D02*
X25175000Y39525000D01*
D14*
G04 #@! TO.C,MINUS*
X2750000Y77250000D02*
X7250000Y77250000D01*
X7250000Y72750000D01*
X2750000Y72750000D01*
X2750000Y77250000D01*
D10*
G04 #@! TO.C,R5*
X28525000Y15175000D02*
X28525000Y14825000D01*
X29475000Y15175000D02*
X29475000Y14825000D01*
D12*
G04 #@! TO.C,RIGHT*
X28742641Y125742641D02*
X28742641Y117257359D01*
X24500000Y113014719D01*
X20257359Y117257359D01*
X20257359Y125742641D01*
X24500000Y129985281D01*
X28742641Y125742641D01*
X27500000Y121500000D02*
G02*
X21500000Y121500000I-3000000J0D01*
G01*
G02*
X27500000Y121500000I3000000J0D01*
G01*
G04 #@! TO.C,D2*
X4375000Y108325000D02*
X4375000Y104725000D01*
X6125000Y104725000D01*
X6125000Y108325000D01*
D10*
G04 #@! TO.C,Q1*
X27025000Y96550000D02*
X27025000Y95950000D01*
X26050000Y97850000D02*
X27400000Y97850000D01*
X27400000Y97775000D01*
X28475000Y97775000D01*
X28475000Y97050000D01*
X27400000Y94725000D02*
X28475000Y94725000D01*
X28475000Y95450000D01*
G04 #@! TO.C,R9*
X21225000Y68825000D02*
X21225000Y69175000D01*
X20275000Y68825000D02*
X20275000Y69175000D01*
D12*
G04 #@! TO.C,U4*
X23750000Y34000000D02*
X23750000Y37000000D01*
X26750000Y37000000D01*
X26750000Y34000000D01*
X23750000Y34000000D01*
X24350000Y34500000D02*
G02*
X24150000Y34500000I-100000J0D01*
G01*
G02*
X24350000Y34500000I100000J0D01*
G01*
D10*
G04 #@! TO.C,R21*
X4525000Y34675000D02*
X4525000Y34325000D01*
X5475000Y34675000D02*
X5475000Y34325000D01*
G04 #@! TO.C,C3*
X3475000Y49425000D02*
X3475000Y49575000D01*
X2525000Y49425000D02*
X2525000Y49575000D01*
D12*
G04 #@! TO.C,D8*
X1944365Y15818198D02*
X4489949Y13272614D01*
X5727386Y14510051D01*
X3181802Y17055635D01*
G04 #@! TO.C,D12*
X375000Y108825000D02*
X375000Y105225000D01*
X2125000Y105225000D01*
X2125000Y108825000D01*
D10*
G04 #@! TO.C,R13*
X3075000Y102275000D02*
X3425000Y102275000D01*
X3075000Y103225000D02*
X3425000Y103225000D01*
G04 #@! TO.C,C2*
X525000Y85075000D02*
X525000Y84925000D01*
X1475000Y85075000D02*
X1475000Y84925000D01*
D13*
G04 #@! TO.C,JTAG*
X28145000Y22935000D02*
X28145000Y20810000D01*
X27875000Y20540000D01*
X28145000Y20270000D01*
X28145000Y18270000D01*
X27875000Y18000000D01*
X28145000Y17730000D01*
X28145000Y15730000D01*
X27875000Y15460000D01*
X28145000Y15190000D01*
X28145000Y13065000D01*
X27875000Y12795000D01*
X25625000Y12795000D01*
X25355000Y13065000D01*
X25355000Y15190000D01*
X25625000Y15460000D01*
X25355000Y15730000D01*
X25355000Y17730000D01*
X25625000Y18000000D01*
X25355000Y18270000D01*
X25355000Y20270000D01*
X25625000Y20540000D01*
X25355000Y20810000D01*
X25355000Y22935000D01*
X25625000Y23205000D01*
X27875000Y23205000D01*
X28145000Y22935000D01*
D10*
G04 #@! TO.C,C7*
X28525000Y86075000D02*
X28525000Y85925000D01*
X29475000Y86075000D02*
X29475000Y85925000D01*
D11*
G04 #@! TD*
X7750000Y82500000D02*
X8000000Y83500000D01*
X7750000Y83250000D01*
X8250000Y83250000D01*
X8000000Y83500000D01*
D12*
X23314445Y15250000D02*
X22981112Y15726667D01*
X22743334Y15250000D02*
X22743334Y16250000D01*
X23124445Y16250000D01*
X23220001Y16202222D01*
X23266667Y16154444D01*
X23314445Y16060000D01*
X23314445Y15916667D01*
X23266667Y15821111D01*
X23220001Y15773333D01*
X23124445Y15726667D01*
X22743334Y15726667D01*
X24285556Y15250000D02*
X23714445Y15250000D01*
X24000001Y15250000D02*
X24000001Y16250000D01*
X23904445Y16106667D01*
X23810001Y16012222D01*
X23714445Y15964444D01*
X24875556Y15821111D02*
X24781112Y15868889D01*
X24733334Y15916667D01*
X24685556Y16012222D01*
X24685556Y16060000D01*
X24733334Y16154444D01*
X24781112Y16202222D01*
X24875556Y16250000D01*
X25066667Y16250000D01*
X25162223Y16202222D01*
X25208889Y16154444D01*
X25256667Y16060000D01*
X25256667Y16012222D01*
X25208889Y15916667D01*
X25162223Y15868889D01*
X25066667Y15821111D01*
X24875556Y15821111D01*
X24781112Y15773333D01*
X24733334Y15726667D01*
X24685556Y15631111D01*
X24685556Y15440000D01*
X24733334Y15345556D01*
X24781112Y15297778D01*
X24875556Y15250000D01*
X25066667Y15250000D01*
X25162223Y15297778D01*
X25208889Y15345556D01*
X25256667Y15440000D01*
X25256667Y15631111D01*
X25208889Y15726667D01*
X25162223Y15773333D01*
X25066667Y15821111D01*
X6823889Y81345556D02*
X6776111Y81297778D01*
X6633889Y81250000D01*
X6538333Y81250000D01*
X6395000Y81297778D01*
X6300556Y81393333D01*
X6252778Y81487778D01*
X6205000Y81678889D01*
X6205000Y81821111D01*
X6252778Y82012222D01*
X6300556Y82106667D01*
X6395000Y82202222D01*
X6538333Y82250000D01*
X6633889Y82250000D01*
X6776111Y82202222D01*
X6823889Y82154444D01*
X7700556Y82250000D02*
X7509445Y82250000D01*
X7413889Y82202222D01*
X7367222Y82154444D01*
X7271667Y82012222D01*
X7223889Y81821111D01*
X7223889Y81440000D01*
X7271667Y81345556D01*
X7319445Y81297778D01*
X7413889Y81250000D01*
X7605000Y81250000D01*
X7700556Y81297778D01*
X7747222Y81345556D01*
X7795000Y81440000D01*
X7795000Y81678889D01*
X7747222Y81773333D01*
X7700556Y81821111D01*
X7605000Y81868889D01*
X7413889Y81868889D01*
X7319445Y81821111D01*
X7271667Y81773333D01*
X7223889Y81678889D01*
X26291403Y130584297D02*
X25584297Y131291403D01*
X25752431Y131459538D01*
X25887567Y131527106D01*
X26022703Y131527106D01*
X26122483Y131493321D01*
X26291403Y131391970D01*
X26391970Y131291403D01*
X26493321Y131122483D01*
X26527106Y131022703D01*
X26527106Y130887567D01*
X26459538Y130752431D01*
X26291403Y130584297D01*
X26843732Y132079435D02*
X27315137Y131608030D01*
X26405326Y132180001D02*
X26742381Y131506678D01*
X27180001Y131944299D01*
X28050000Y89000000D02*
X27716667Y89476667D01*
X27478889Y89000000D02*
X27478889Y90000000D01*
X27860000Y90000000D01*
X27955556Y89952222D01*
X28002222Y89904444D01*
X28050000Y89810000D01*
X28050000Y89666667D01*
X28002222Y89571111D01*
X27955556Y89523333D01*
X27860000Y89476667D01*
X27478889Y89476667D01*
X29021111Y89000000D02*
X28450000Y89000000D01*
X28735556Y89000000D02*
X28735556Y90000000D01*
X28640000Y89856667D01*
X28545556Y89762222D01*
X28450000Y89714444D01*
X3154444Y51550000D02*
X3202222Y51502222D01*
X3250000Y51360000D01*
X3250000Y51264444D01*
X3202222Y51121111D01*
X3106667Y51026667D01*
X3012222Y50978889D01*
X2821111Y50931111D01*
X2678889Y50931111D01*
X2487778Y50978889D01*
X2393333Y51026667D01*
X2297778Y51121111D01*
X2250000Y51264444D01*
X2250000Y51360000D01*
X2297778Y51502222D01*
X2345556Y51550000D01*
X2250000Y51950000D02*
X2250000Y52568889D01*
X2631111Y52235556D01*
X2631111Y52378889D01*
X2678889Y52473333D01*
X2726667Y52521111D01*
X2821111Y52568889D01*
X3060000Y52568889D01*
X3154444Y52521111D01*
X3202222Y52473333D01*
X3250000Y52378889D01*
X3250000Y52093333D01*
X3202222Y51997778D01*
X3154444Y51950000D01*
X3000000Y71500000D02*
X3000000Y72500000D01*
X3333333Y71785556D01*
X3666667Y72500000D01*
X3666667Y71500000D01*
X4066667Y71500000D02*
X4066667Y72500000D01*
X4466667Y71500000D02*
X4466667Y72500000D01*
X5037778Y71500000D01*
X5037778Y72500000D01*
X5437778Y72500000D02*
X5437778Y71690000D01*
X5485556Y71595556D01*
X5533334Y71547778D01*
X5627778Y71500000D01*
X5818889Y71500000D01*
X5914445Y71547778D01*
X5961111Y71595556D01*
X6008889Y71690000D01*
X6008889Y72500000D01*
X6408889Y71547778D02*
X6552222Y71500000D01*
X6790000Y71500000D01*
X6885556Y71547778D01*
X6932222Y71595556D01*
X6980000Y71690000D01*
X6980000Y71785556D01*
X6932222Y71881111D01*
X6885556Y71928889D01*
X6790000Y71976667D01*
X6598889Y72023333D01*
X6504445Y72071111D01*
X6456667Y72118889D01*
X6408889Y72214444D01*
X6408889Y72310000D01*
X6456667Y72404444D01*
X6504445Y72452222D01*
X6598889Y72500000D01*
X6837778Y72500000D01*
X6980000Y72452222D01*
X24808296Y132101189D02*
X24101189Y132808296D01*
X24269323Y132976430D01*
X24404459Y133043998D01*
X24539595Y133043998D01*
X24639376Y133010213D01*
X24808296Y132908862D01*
X24908862Y132808296D01*
X25010213Y132639376D01*
X25043998Y132539595D01*
X25043998Y132404459D01*
X24976430Y132269323D01*
X24808296Y132101189D01*
X25898811Y133191704D02*
X25494975Y132787868D01*
X25696893Y132989787D02*
X24989787Y133696893D01*
X25023570Y133527973D01*
X25023571Y133394409D01*
X24989787Y133293056D01*
X29500000Y11931111D02*
X28500000Y11931111D01*
X28500000Y12168889D01*
X28547778Y12312222D01*
X28643333Y12407778D01*
X28737778Y12454444D01*
X28928889Y12502222D01*
X29071111Y12502222D01*
X29262222Y12454444D01*
X29356667Y12407778D01*
X29452222Y12312222D01*
X29500000Y12168889D01*
X29500000Y11931111D01*
X28500000Y13140000D02*
X28500000Y13331111D01*
X28547778Y13425555D01*
X28643333Y13521111D01*
X28833333Y13568889D01*
X29166667Y13568889D01*
X29356667Y13521111D01*
X29452222Y13425555D01*
X29500000Y13331111D01*
X29500000Y13140000D01*
X29452222Y13045555D01*
X29356667Y12950000D01*
X29166667Y12902222D01*
X28833333Y12902222D01*
X28643333Y12950000D01*
X28547778Y13045555D01*
X28500000Y13140000D01*
X8776111Y88500000D02*
X8442778Y88976667D01*
X8205000Y88500000D02*
X8205000Y89500000D01*
X8586111Y89500000D01*
X8681667Y89452222D01*
X8728333Y89404444D01*
X8776111Y89310000D01*
X8776111Y89166667D01*
X8728333Y89071111D01*
X8681667Y89023333D01*
X8586111Y88976667D01*
X8205000Y88976667D01*
X9223889Y89404444D02*
X9271667Y89452222D01*
X9366111Y89500000D01*
X9605000Y89500000D01*
X9699444Y89452222D01*
X9747222Y89404444D01*
X9795000Y89310000D01*
X9795000Y89214444D01*
X9747222Y89071111D01*
X9176111Y88500000D01*
X9795000Y88500000D01*
X20500000Y31064445D02*
X20023333Y30731112D01*
X20500000Y30493334D02*
X19500000Y30493334D01*
X19500000Y30874445D01*
X19547778Y30970001D01*
X19595556Y31016667D01*
X19690000Y31064445D01*
X19833333Y31064445D01*
X19928889Y31016667D01*
X19976667Y30970001D01*
X20023333Y30874445D01*
X20023333Y30493334D01*
X20500000Y32035556D02*
X20500000Y31464445D01*
X20500000Y31750001D02*
X19500000Y31750001D01*
X19643333Y31654445D01*
X19737778Y31560001D01*
X19785556Y31464445D01*
X20500000Y32531112D02*
X20500000Y32721112D01*
X20452222Y32816667D01*
X20404444Y32864445D01*
X20262222Y32958889D01*
X20071111Y33006667D01*
X19690000Y33006667D01*
X19595556Y32958889D01*
X19547778Y32912223D01*
X19500000Y32816667D01*
X19500000Y32625556D01*
X19547778Y32531112D01*
X19595556Y32483334D01*
X19690000Y32435556D01*
X19928889Y32435556D01*
X20023333Y32483334D01*
X20071111Y32531112D01*
X20118889Y32625556D01*
X20118889Y32816667D01*
X20071111Y32912223D01*
X20023333Y32958889D01*
X19928889Y33006667D01*
X29500000Y20931111D02*
X28500000Y20931111D01*
X29214444Y21264444D01*
X28500000Y21597778D01*
X29500000Y21597778D01*
X29452222Y21997778D02*
X29500000Y22141111D01*
X29500000Y22378889D01*
X29452222Y22474445D01*
X29404444Y22521111D01*
X29310000Y22568889D01*
X29214444Y22568889D01*
X29118889Y22521111D01*
X29071111Y22474445D01*
X29023333Y22378889D01*
X28976667Y22187778D01*
X28928889Y22093334D01*
X28881111Y22045556D01*
X28785556Y21997778D01*
X28690000Y21997778D01*
X28595556Y22045556D01*
X28547778Y22093334D01*
X28500000Y22187778D01*
X28500000Y22426667D01*
X28547778Y22568889D01*
X27338334Y39595556D02*
X27290556Y39547778D01*
X27148334Y39500000D01*
X27052778Y39500000D01*
X26909445Y39547778D01*
X26815001Y39643333D01*
X26767223Y39737778D01*
X26719445Y39928889D01*
X26719445Y40071111D01*
X26767223Y40262222D01*
X26815001Y40356667D01*
X26909445Y40452222D01*
X27052778Y40500000D01*
X27148334Y40500000D01*
X27290556Y40452222D01*
X27338334Y40404444D01*
X28309445Y39500000D02*
X27738334Y39500000D01*
X28023890Y39500000D02*
X28023890Y40500000D01*
X27928334Y40356667D01*
X27833890Y40262222D01*
X27738334Y40214444D01*
X29280556Y39500000D02*
X28709445Y39500000D01*
X28995001Y39500000D02*
X28995001Y40500000D01*
X28899445Y40356667D01*
X28805001Y40262222D01*
X28709445Y40214444D01*
X24500000Y94516667D02*
X24023333Y94183334D01*
X24500000Y93945556D02*
X23500000Y93945556D01*
X23500000Y94326667D01*
X23547778Y94422223D01*
X23595556Y94468889D01*
X23690000Y94516667D01*
X23833333Y94516667D01*
X23928889Y94468889D01*
X23976667Y94422223D01*
X24023333Y94326667D01*
X24023333Y93945556D01*
X23595556Y94964445D02*
X23547778Y95012223D01*
X23500000Y95106667D01*
X23500000Y95345556D01*
X23547778Y95440000D01*
X23595556Y95487778D01*
X23690000Y95535556D01*
X23785556Y95535556D01*
X23928889Y95487778D01*
X24500000Y94916667D01*
X24500000Y95535556D01*
X23595556Y95983334D02*
X23547778Y96031112D01*
X23500000Y96125556D01*
X23500000Y96364445D01*
X23547778Y96458889D01*
X23595556Y96506667D01*
X23690000Y96554445D01*
X23785556Y96554445D01*
X23928889Y96506667D01*
X24500000Y95935556D01*
X24500000Y96554445D01*
X23321111Y116500000D02*
X22987778Y116976667D01*
X22750000Y116500000D02*
X22750000Y117500000D01*
X23131111Y117500000D01*
X23226667Y117452222D01*
X23273333Y117404444D01*
X23321111Y117310000D01*
X23321111Y117166667D01*
X23273333Y117071111D01*
X23226667Y117023333D01*
X23131111Y116976667D01*
X22750000Y116976667D01*
X23721111Y116500000D02*
X23721111Y117500000D01*
X24692222Y117452222D02*
X24597778Y117500000D01*
X24454444Y117500000D01*
X24311111Y117452222D01*
X24216667Y117356667D01*
X24168889Y117262222D01*
X24121111Y117071111D01*
X24121111Y116928889D01*
X24168889Y116737778D01*
X24216667Y116643333D01*
X24311111Y116547778D01*
X24454444Y116500000D01*
X24550000Y116500000D01*
X24692222Y116547778D01*
X24740000Y116595556D01*
X24740000Y116928889D01*
X24550000Y116928889D01*
X25140000Y116500000D02*
X25140000Y117500000D01*
X25140000Y117023333D02*
X25711111Y117023333D01*
X25711111Y116500000D02*
X25711111Y117500000D01*
X26111111Y117500000D02*
X26682222Y117500000D01*
X26396667Y116500000D02*
X26396667Y117500000D01*
X4904444Y51573889D02*
X4952222Y51526111D01*
X5000000Y51383889D01*
X5000000Y51288333D01*
X4952222Y51145000D01*
X4856667Y51050556D01*
X4762222Y51002778D01*
X4571111Y50955000D01*
X4428889Y50955000D01*
X4237778Y51002778D01*
X4143333Y51050556D01*
X4047778Y51145000D01*
X4000000Y51288333D01*
X4000000Y51383889D01*
X4047778Y51526111D01*
X4095556Y51573889D01*
X5000000Y52545000D02*
X5000000Y51973889D01*
X5000000Y52259445D02*
X4000000Y52259445D01*
X4143333Y52163889D01*
X4237778Y52069445D01*
X4285556Y51973889D01*
X20000000Y110750000D02*
X19000000Y110750000D01*
X19000000Y110987778D01*
X19047778Y111131111D01*
X19143333Y111226667D01*
X19237778Y111273333D01*
X19428889Y111321111D01*
X19571111Y111321111D01*
X19762222Y111273333D01*
X19856667Y111226667D01*
X19952222Y111131111D01*
X20000000Y110987778D01*
X20000000Y110750000D01*
X19000000Y111958889D02*
X19000000Y112150000D01*
X19047778Y112244444D01*
X19143333Y112340000D01*
X19333333Y112387778D01*
X19666667Y112387778D01*
X19856667Y112340000D01*
X19952222Y112244444D01*
X20000000Y112150000D01*
X20000000Y111958889D01*
X19952222Y111864444D01*
X19856667Y111768889D01*
X19666667Y111721111D01*
X19333333Y111721111D01*
X19143333Y111768889D01*
X19047778Y111864444D01*
X19000000Y111958889D01*
X19000000Y112787778D02*
X20000000Y113025556D01*
X19285556Y113216667D01*
X20000000Y113406667D01*
X19000000Y113644445D01*
X20000000Y114044445D02*
X19000000Y114044445D01*
X20000000Y114615556D01*
X19000000Y114615556D01*
X20000000Y68800000D02*
X19523333Y68466667D01*
X20000000Y68228889D02*
X19000000Y68228889D01*
X19000000Y68610000D01*
X19047778Y68705556D01*
X19095556Y68752222D01*
X19190000Y68800000D01*
X19333333Y68800000D01*
X19428889Y68752222D01*
X19476667Y68705556D01*
X19523333Y68610000D01*
X19523333Y68228889D01*
X20000000Y69295556D02*
X20000000Y69485556D01*
X19952222Y69581111D01*
X19904444Y69628889D01*
X19762222Y69723333D01*
X19571111Y69771111D01*
X19190000Y69771111D01*
X19095556Y69723333D01*
X19047778Y69676667D01*
X19000000Y69581111D01*
X19000000Y69390000D01*
X19047778Y69295556D01*
X19095556Y69247778D01*
X19190000Y69200000D01*
X19428889Y69200000D01*
X19523333Y69247778D01*
X19571111Y69295556D01*
X19618889Y69390000D01*
X19618889Y69581111D01*
X19571111Y69676667D01*
X19523333Y69723333D01*
X19428889Y69771111D01*
X27757481Y46704070D02*
X27774969Y46638804D01*
X27745235Y46491747D01*
X27697457Y46408993D01*
X27584414Y46308752D01*
X27454439Y46274739D01*
X27348758Y46280584D01*
X27159362Y46334763D01*
X27036194Y46405874D01*
X26894576Y46542806D01*
X26836673Y46631406D01*
X26801142Y46760974D01*
X26831432Y46908993D01*
X26879210Y46991747D01*
X26991698Y47091026D01*
X27056964Y47108514D01*
X28325791Y47497299D02*
X28040235Y47002702D01*
X28183013Y47250001D02*
X27316988Y47750001D01*
X27393340Y47595580D01*
X27427910Y47466567D01*
X27421509Y47359924D01*
X27659765Y48343709D02*
X27969210Y48879683D01*
X28132595Y48400452D01*
X28204262Y48524582D01*
X28292861Y48582484D01*
X28358127Y48599972D01*
X28463806Y48594127D01*
X28670690Y48474683D01*
X28728592Y48386084D01*
X28746080Y48320818D01*
X28740235Y48215138D01*
X28597457Y47967839D01*
X28508303Y47908975D01*
X28443037Y47891487D01*
X7915556Y66333333D02*
X7915556Y64333333D01*
X7915556Y66237778D02*
X8106667Y66333333D01*
X8486667Y66333333D01*
X8677778Y66237778D01*
X8773334Y66142222D01*
X8868889Y65953333D01*
X8868889Y65380000D01*
X8773334Y65191111D01*
X8677778Y65095556D01*
X8486667Y65000000D01*
X8106667Y65000000D01*
X7915556Y65095556D01*
X9468889Y65000000D02*
X9468889Y67000000D01*
X9660000Y65762222D02*
X10231111Y65000000D01*
X10231111Y66333333D02*
X9468889Y65571111D01*
X10831111Y66333333D02*
X10831111Y65000000D01*
X10831111Y66142222D02*
X10926667Y66237778D01*
X11117778Y66333333D01*
X11402222Y66333333D01*
X11593333Y66237778D01*
X11688889Y66046667D01*
X11688889Y65000000D01*
X13146667Y65095556D02*
X12955556Y65000000D01*
X12575556Y65000000D01*
X12384445Y65095556D01*
X12288889Y65286667D01*
X12288889Y66046667D01*
X12384445Y66237778D01*
X12575556Y66333333D01*
X12955556Y66333333D01*
X13146667Y66237778D01*
X13242222Y66046667D01*
X13242222Y65857778D01*
X12288889Y65666667D01*
X13842222Y65095556D02*
X14033333Y65000000D01*
X14413333Y65000000D01*
X14604444Y65095556D01*
X14700000Y65286667D01*
X14700000Y65380000D01*
X14604444Y65571111D01*
X14413333Y65666667D01*
X14128889Y65666667D01*
X13937778Y65762222D01*
X13842222Y65953333D01*
X13842222Y66046667D01*
X13937778Y66237778D01*
X14128889Y66333333D01*
X14413333Y66333333D01*
X14604444Y66237778D01*
X15300000Y65095556D02*
X15491111Y65000000D01*
X15871111Y65000000D01*
X16062222Y65095556D01*
X16157778Y65286667D01*
X16157778Y65380000D01*
X16062222Y65571111D01*
X15871111Y65666667D01*
X15586667Y65666667D01*
X15395556Y65762222D01*
X15300000Y65953333D01*
X15300000Y66046667D01*
X15395556Y66237778D01*
X15586667Y66333333D01*
X15871111Y66333333D01*
X16062222Y66237778D01*
X16757778Y66333333D02*
X16757778Y65000000D01*
X16757778Y66142222D02*
X16853334Y66237778D01*
X17044445Y66333333D01*
X17328889Y66333333D01*
X17520000Y66237778D01*
X17615556Y66046667D01*
X17615556Y65000000D01*
X19073334Y65095556D02*
X18882223Y65000000D01*
X18502223Y65000000D01*
X18311112Y65095556D01*
X18215556Y65286667D01*
X18215556Y66046667D01*
X18311112Y66237778D01*
X18502223Y66333333D01*
X18882223Y66333333D01*
X19073334Y66237778D01*
X19168889Y66046667D01*
X19168889Y65857778D01*
X18215556Y65666667D01*
X19768889Y65095556D02*
X19960000Y65000000D01*
X20340000Y65000000D01*
X20531111Y65095556D01*
X20626667Y65286667D01*
X20626667Y65380000D01*
X20531111Y65571111D01*
X20340000Y65666667D01*
X20055556Y65666667D01*
X19864445Y65762222D01*
X19768889Y65953333D01*
X19768889Y66046667D01*
X19864445Y66237778D01*
X20055556Y66333333D01*
X20340000Y66333333D01*
X20531111Y66237778D01*
X21226667Y65095556D02*
X21417778Y65000000D01*
X21797778Y65000000D01*
X21988889Y65095556D01*
X22084445Y65286667D01*
X22084445Y65380000D01*
X21988889Y65571111D01*
X21797778Y65666667D01*
X21513334Y65666667D01*
X21322223Y65762222D01*
X21226667Y65953333D01*
X21226667Y66046667D01*
X21322223Y66237778D01*
X21513334Y66333333D01*
X21797778Y66333333D01*
X21988889Y66237778D01*
X26338334Y30595556D02*
X26290556Y30547778D01*
X26148334Y30500000D01*
X26052778Y30500000D01*
X25909445Y30547778D01*
X25815001Y30643333D01*
X25767223Y30737778D01*
X25719445Y30928889D01*
X25719445Y31071111D01*
X25767223Y31262222D01*
X25815001Y31356667D01*
X25909445Y31452222D01*
X26052778Y31500000D01*
X26148334Y31500000D01*
X26290556Y31452222D01*
X26338334Y31404444D01*
X27309445Y30500000D02*
X26738334Y30500000D01*
X27023890Y30500000D02*
X27023890Y31500000D01*
X26928334Y31356667D01*
X26833890Y31262222D01*
X26738334Y31214444D01*
X28232778Y31500000D02*
X27757223Y31500000D01*
X27709445Y31023333D01*
X27757223Y31071111D01*
X27852778Y31118889D01*
X28090556Y31118889D01*
X28186112Y31071111D01*
X28232778Y31023333D01*
X28280556Y30928889D01*
X28280556Y30690000D01*
X28232778Y30595556D01*
X28186112Y30547778D01*
X28090556Y30500000D01*
X27852778Y30500000D01*
X27757223Y30547778D01*
X27709445Y30595556D01*
X19250000Y22000000D02*
X19250000Y22571111D01*
X20250000Y22285556D02*
X19250000Y22285556D01*
X19250000Y22971111D02*
X20250000Y23208889D01*
X19535556Y23400000D01*
X20250000Y23590000D01*
X19250000Y23827778D01*
X19250000Y24465556D02*
X19250000Y24656667D01*
X19297778Y24751111D01*
X19393333Y24846667D01*
X19583333Y24894445D01*
X19916667Y24894445D01*
X20106667Y24846667D01*
X20202222Y24751111D01*
X20250000Y24656667D01*
X20250000Y24465556D01*
X20202222Y24371111D01*
X20106667Y24275556D01*
X19916667Y24227778D01*
X19583333Y24227778D01*
X19393333Y24275556D01*
X19297778Y24371111D01*
X19250000Y24465556D01*
D10*
X26485556Y106350000D02*
X26485556Y107150000D01*
X26675778Y107150000D01*
X26790445Y107111778D01*
X26866889Y107035333D01*
X26904223Y106959778D01*
X26942445Y106806889D01*
X26942445Y106693111D01*
X26904223Y106540222D01*
X26866889Y106464667D01*
X26790445Y106388222D01*
X26675778Y106350000D01*
X26485556Y106350000D01*
X27709334Y106350000D02*
X27252445Y106350000D01*
X27480889Y106350000D02*
X27480889Y107150000D01*
X27404445Y107035333D01*
X27328889Y106959778D01*
X27252445Y106921556D01*
X28019334Y107150000D02*
X28514445Y107150000D01*
X28247778Y106845111D01*
X28362445Y106845111D01*
X28438001Y106806889D01*
X28476223Y106768667D01*
X28514445Y106693111D01*
X28514445Y106502000D01*
X28476223Y106426444D01*
X28438001Y106388222D01*
X28362445Y106350000D01*
X28134001Y106350000D01*
X28057556Y106388222D01*
X28019334Y106426444D01*
D12*
X9750000Y133250000D02*
X9750000Y132440000D01*
X9797778Y132345556D01*
X9845556Y132297778D01*
X9940000Y132250000D01*
X10131111Y132250000D01*
X10226667Y132297778D01*
X10273333Y132345556D01*
X10321111Y132440000D01*
X10321111Y133250000D01*
X10721111Y132250000D02*
X10721111Y133250000D01*
X11102222Y133250000D01*
X11197778Y133202222D01*
X11244444Y133154444D01*
X11292222Y133060000D01*
X11292222Y132916667D01*
X11244444Y132821111D01*
X11197778Y132773333D01*
X11102222Y132726667D01*
X10721111Y132726667D01*
X2500000Y35540556D02*
X2023333Y35207223D01*
X2500000Y34969445D02*
X1500000Y34969445D01*
X1500000Y35350556D01*
X1547778Y35446112D01*
X1595556Y35492778D01*
X1690000Y35540556D01*
X1833333Y35540556D01*
X1928889Y35492778D01*
X1976667Y35446112D01*
X2023333Y35350556D01*
X2023333Y34969445D01*
X1595556Y35988334D02*
X1547778Y36036112D01*
X1500000Y36130556D01*
X1500000Y36369445D01*
X1547778Y36463889D01*
X1595556Y36511667D01*
X1690000Y36559445D01*
X1785556Y36559445D01*
X1928889Y36511667D01*
X2500000Y35940556D01*
X2500000Y36559445D01*
X1500000Y37197223D02*
X1500000Y37292778D01*
X1547778Y37388334D01*
X1595556Y37436112D01*
X1690000Y37482778D01*
X1881111Y37530556D01*
X2118889Y37530556D01*
X2310000Y37482778D01*
X2404444Y37436112D01*
X2452222Y37388334D01*
X2500000Y37292778D01*
X2500000Y37197223D01*
X2452222Y37102778D01*
X2404444Y37055001D01*
X2310000Y37007223D01*
X2118889Y36959445D01*
X1881111Y36959445D01*
X1690000Y37007223D01*
X1595556Y37055001D01*
X1547778Y37102778D01*
X1500000Y37197223D01*
X7314445Y16500000D02*
X6981112Y16976667D01*
X6743334Y16500000D02*
X6743334Y17500000D01*
X7124445Y17500000D01*
X7220001Y17452222D01*
X7266667Y17404444D01*
X7314445Y17310000D01*
X7314445Y17166667D01*
X7266667Y17071111D01*
X7220001Y17023333D01*
X7124445Y16976667D01*
X6743334Y16976667D01*
X8285556Y16500000D02*
X7714445Y16500000D01*
X8000001Y16500000D02*
X8000001Y17500000D01*
X7904445Y17356667D01*
X7810001Y17262222D01*
X7714445Y17214444D01*
X9208889Y17500000D02*
X8733334Y17500000D01*
X8685556Y17023333D01*
X8733334Y17071111D01*
X8828889Y17118889D01*
X9066667Y17118889D01*
X9162223Y17071111D01*
X9208889Y17023333D01*
X9256667Y16928889D01*
X9256667Y16690000D01*
X9208889Y16595556D01*
X9162223Y16547778D01*
X9066667Y16500000D01*
X8828889Y16500000D01*
X8733334Y16547778D01*
X8685556Y16595556D01*
X19351189Y28441704D02*
X20058296Y29148811D01*
X20226430Y28980677D01*
X20293998Y28845541D01*
X20293998Y28710405D01*
X20260213Y28610624D01*
X20158862Y28441704D01*
X20058296Y28341138D01*
X19889376Y28239787D01*
X19789595Y28206002D01*
X19654459Y28206002D01*
X19519323Y28273570D01*
X19351189Y28441704D01*
X21082029Y28125078D02*
X20946893Y28260213D01*
X20845541Y28293998D01*
X20778758Y28293212D01*
X20610624Y28260213D01*
X20441704Y28158862D01*
X20172218Y27889376D01*
X20139220Y27788809D01*
X20139220Y27721241D01*
X20172218Y27620675D01*
X20307354Y27485539D01*
X20408707Y27451755D01*
X20475489Y27452541D01*
X20576055Y27485539D01*
X20744975Y27654459D01*
X20777973Y27755025D01*
X20778759Y27821807D01*
X20744975Y27923160D01*
X20609839Y28058296D01*
X20509273Y28091293D01*
X20441704Y28091293D01*
X20341138Y28058296D01*
X24705000Y35750000D02*
X24705000Y34940000D01*
X24752778Y34845556D01*
X24800556Y34797778D01*
X24895000Y34750000D01*
X25086111Y34750000D01*
X25181667Y34797778D01*
X25228333Y34845556D01*
X25276111Y34940000D01*
X25276111Y35750000D01*
X26152778Y35416667D02*
X26152778Y34750000D01*
X25913889Y35797778D02*
X25676111Y35083333D01*
X26295000Y35083333D01*
X4250000Y32040556D02*
X3773333Y31707223D01*
X4250000Y31469445D02*
X3250000Y31469445D01*
X3250000Y31850556D01*
X3297778Y31946112D01*
X3345556Y31992778D01*
X3440000Y32040556D01*
X3583333Y32040556D01*
X3678889Y31992778D01*
X3726667Y31946112D01*
X3773333Y31850556D01*
X3773333Y31469445D01*
X3345556Y32488334D02*
X3297778Y32536112D01*
X3250000Y32630556D01*
X3250000Y32869445D01*
X3297778Y32963889D01*
X3345556Y33011667D01*
X3440000Y33059445D01*
X3535556Y33059445D01*
X3678889Y33011667D01*
X4250000Y32440556D01*
X4250000Y33059445D01*
X4250000Y34030556D02*
X4250000Y33459445D01*
X4250000Y33745001D02*
X3250000Y33745001D01*
X3393333Y33649445D01*
X3487778Y33555001D01*
X3535556Y33459445D01*
X3000000Y137250000D02*
X2000000Y137250000D01*
X2000000Y137631111D01*
X2047778Y137726667D01*
X2095556Y137773333D01*
X2190000Y137821111D01*
X2333333Y137821111D01*
X2428889Y137773333D01*
X2476667Y137726667D01*
X2523333Y137631111D01*
X2523333Y137250000D01*
X2000000Y138221111D02*
X3000000Y138458889D01*
X2285556Y138650000D01*
X3000000Y138840000D01*
X2000000Y139077778D01*
X3000000Y140048889D02*
X2523333Y139715556D01*
X3000000Y139477778D02*
X2000000Y139477778D01*
X2000000Y139858889D01*
X2047778Y139954445D01*
X2095556Y140001111D01*
X2190000Y140048889D01*
X2333333Y140048889D01*
X2428889Y140001111D01*
X2476667Y139954445D01*
X2523333Y139858889D01*
X2523333Y139477778D01*
X23750000Y68314445D02*
X23273333Y67981112D01*
X23750000Y67743334D02*
X22750000Y67743334D01*
X22750000Y68124445D01*
X22797778Y68220001D01*
X22845556Y68266667D01*
X22940000Y68314445D01*
X23083333Y68314445D01*
X23178889Y68266667D01*
X23226667Y68220001D01*
X23273333Y68124445D01*
X23273333Y67743334D01*
X23750000Y69285556D02*
X23750000Y68714445D01*
X23750000Y69000001D02*
X22750000Y69000001D01*
X22893333Y68904445D01*
X22987778Y68810001D01*
X23035556Y68714445D01*
X22750000Y69923334D02*
X22750000Y70018889D01*
X22797778Y70114445D01*
X22845556Y70162223D01*
X22940000Y70208889D01*
X23131111Y70256667D01*
X23368889Y70256667D01*
X23560000Y70208889D01*
X23654444Y70162223D01*
X23702222Y70114445D01*
X23750000Y70018889D01*
X23750000Y69923334D01*
X23702222Y69828889D01*
X23654444Y69781112D01*
X23560000Y69733334D01*
X23368889Y69685556D01*
X23131111Y69685556D01*
X22940000Y69733334D01*
X22845556Y69781112D01*
X22797778Y69828889D01*
X22750000Y69923334D01*
D10*
X10150000Y83754667D02*
X9350000Y83754667D01*
X9350000Y83944889D01*
X9388222Y84059556D01*
X9464667Y84136000D01*
X9540222Y84173334D01*
X9693111Y84211556D01*
X9806889Y84211556D01*
X9959778Y84173334D01*
X10035333Y84136000D01*
X10111778Y84059556D01*
X10150000Y83944889D01*
X10150000Y83754667D01*
X10150000Y84978445D02*
X10150000Y84521556D01*
X10150000Y84750000D02*
X9350000Y84750000D01*
X9464667Y84673556D01*
X9540222Y84598000D01*
X9578444Y84521556D01*
X9350000Y85478667D02*
X9350000Y85555112D01*
X9388222Y85631556D01*
X9426444Y85669778D01*
X9502000Y85707112D01*
X9654889Y85745334D01*
X9845111Y85745334D01*
X9998000Y85707112D01*
X10073556Y85669778D01*
X10111778Y85631556D01*
X10150000Y85555112D01*
X10150000Y85478667D01*
X10111778Y85403112D01*
X10073556Y85364889D01*
X9998000Y85326667D01*
X9845111Y85288445D01*
X9654889Y85288445D01*
X9502000Y85326667D01*
X9426444Y85364889D01*
X9388222Y85403112D01*
X9350000Y85478667D01*
D12*
X11814445Y87750000D02*
X11481112Y88226667D01*
X11243334Y87750000D02*
X11243334Y88750000D01*
X11624445Y88750000D01*
X11720001Y88702222D01*
X11766667Y88654444D01*
X11814445Y88560000D01*
X11814445Y88416667D01*
X11766667Y88321111D01*
X11720001Y88273333D01*
X11624445Y88226667D01*
X11243334Y88226667D01*
X12785556Y87750000D02*
X12214445Y87750000D01*
X12500001Y87750000D02*
X12500001Y88750000D01*
X12404445Y88606667D01*
X12310001Y88512222D01*
X12214445Y88464444D01*
X13756667Y87750000D02*
X13185556Y87750000D01*
X13471112Y87750000D02*
X13471112Y88750000D01*
X13375556Y88606667D01*
X13281112Y88512222D01*
X13185556Y88464444D01*
X5750000Y106205000D02*
X4750000Y106205000D01*
X4750000Y106442778D01*
X4797778Y106586111D01*
X4893333Y106681667D01*
X4987778Y106728333D01*
X5178889Y106776111D01*
X5321111Y106776111D01*
X5512222Y106728333D01*
X5606667Y106681667D01*
X5702222Y106586111D01*
X5750000Y106442778D01*
X5750000Y106205000D01*
X4845556Y107223889D02*
X4797778Y107271667D01*
X4750000Y107366111D01*
X4750000Y107605000D01*
X4797778Y107699444D01*
X4845556Y107747222D01*
X4940000Y107795000D01*
X5035556Y107795000D01*
X5178889Y107747222D01*
X5750000Y107176111D01*
X5750000Y107795000D01*
X15073889Y83095556D02*
X15026111Y83047778D01*
X14883889Y83000000D01*
X14788333Y83000000D01*
X14645000Y83047778D01*
X14550556Y83143333D01*
X14502778Y83237778D01*
X14455000Y83428889D01*
X14455000Y83571111D01*
X14502778Y83762222D01*
X14550556Y83856667D01*
X14645000Y83952222D01*
X14788333Y84000000D01*
X14883889Y84000000D01*
X15026111Y83952222D01*
X15073889Y83904444D01*
X15569445Y83000000D02*
X15759445Y83000000D01*
X15855000Y83047778D01*
X15902778Y83095556D01*
X15997222Y83237778D01*
X16045000Y83428889D01*
X16045000Y83810000D01*
X15997222Y83904444D01*
X15950556Y83952222D01*
X15855000Y84000000D01*
X15663889Y84000000D01*
X15569445Y83952222D01*
X15521667Y83904444D01*
X15473889Y83810000D01*
X15473889Y83571111D01*
X15521667Y83476667D01*
X15569445Y83428889D01*
X15663889Y83381111D01*
X15855000Y83381111D01*
X15950556Y83428889D01*
X15997222Y83476667D01*
X16045000Y83571111D01*
X4476667Y125500000D02*
X4000000Y125500000D01*
X4000000Y126500000D01*
X4876667Y126023333D02*
X5210000Y126023333D01*
X5353334Y125500000D02*
X4876667Y125500000D01*
X4876667Y126500000D01*
X5353334Y126500000D01*
X6086667Y126023333D02*
X5753334Y126023333D01*
X5753334Y125500000D02*
X5753334Y126500000D01*
X6230001Y126500000D01*
X6630001Y126500000D02*
X7201112Y126500000D01*
X6915557Y125500000D02*
X6915557Y126500000D01*
X27621667Y93404444D02*
X27526112Y93452222D01*
X27430556Y93547778D01*
X27288334Y93690000D01*
X27192779Y93737778D01*
X27097223Y93737778D01*
X27145001Y93500000D02*
X27050556Y93547778D01*
X26955001Y93643333D01*
X26907223Y93833333D01*
X26907223Y94166667D01*
X26955001Y94356667D01*
X27050556Y94452222D01*
X27145001Y94500000D01*
X27336112Y94500000D01*
X27430556Y94452222D01*
X27526112Y94356667D01*
X27573890Y94166667D01*
X27573890Y93833333D01*
X27526112Y93643333D01*
X27430556Y93547778D01*
X27336112Y93500000D01*
X27145001Y93500000D01*
X28592778Y93500000D02*
X28021667Y93500000D01*
X28307223Y93500000D02*
X28307223Y94500000D01*
X28211667Y94356667D01*
X28117223Y94262222D01*
X28021667Y94214444D01*
D10*
X1650000Y106485556D02*
X850000Y106485556D01*
X850000Y106675778D01*
X888222Y106790445D01*
X964667Y106866889D01*
X1040222Y106904223D01*
X1193111Y106942445D01*
X1306889Y106942445D01*
X1459778Y106904223D01*
X1535333Y106866889D01*
X1611778Y106790445D01*
X1650000Y106675778D01*
X1650000Y106485556D01*
X1650000Y107709334D02*
X1650000Y107252445D01*
X1650000Y107480889D02*
X850000Y107480889D01*
X964667Y107404445D01*
X1040222Y107328889D01*
X1078444Y107252445D01*
X926444Y108057556D02*
X888222Y108095778D01*
X850000Y108171334D01*
X850000Y108362445D01*
X888222Y108438001D01*
X926444Y108476223D01*
X1002000Y108514445D01*
X1078444Y108514445D01*
X1193111Y108476223D01*
X1650000Y108019334D01*
X1650000Y108514445D01*
D12*
X29500000Y18764445D02*
X28500000Y18764445D01*
X28500000Y19002223D01*
X28547778Y19145556D01*
X28643333Y19241112D01*
X28737778Y19287778D01*
X28928889Y19335556D01*
X29071111Y19335556D01*
X29262222Y19287778D01*
X29356667Y19241112D01*
X29452222Y19145556D01*
X29500000Y19002223D01*
X29500000Y18764445D01*
X29500000Y19735556D02*
X28500000Y19735556D01*
X11904444Y85573889D02*
X11952222Y85526111D01*
X12000000Y85383889D01*
X12000000Y85288333D01*
X11952222Y85145000D01*
X11856667Y85050556D01*
X11762222Y85002778D01*
X11571111Y84955000D01*
X11428889Y84955000D01*
X11237778Y85002778D01*
X11143333Y85050556D01*
X11047778Y85145000D01*
X11000000Y85288333D01*
X11000000Y85383889D01*
X11047778Y85526111D01*
X11095556Y85573889D01*
X11428889Y86163889D02*
X11381111Y86069445D01*
X11333333Y86021667D01*
X11237778Y85973889D01*
X11190000Y85973889D01*
X11095556Y86021667D01*
X11047778Y86069445D01*
X11000000Y86163889D01*
X11000000Y86355000D01*
X11047778Y86450556D01*
X11095556Y86497222D01*
X11190000Y86545000D01*
X11237778Y86545000D01*
X11333333Y86497222D01*
X11381111Y86450556D01*
X11428889Y86355000D01*
X11428889Y86163889D01*
X11476667Y86069445D01*
X11523333Y86021667D01*
X11618889Y85973889D01*
X11810000Y85973889D01*
X11904444Y86021667D01*
X11952222Y86069445D01*
X12000000Y86163889D01*
X12000000Y86355000D01*
X11952222Y86450556D01*
X11904444Y86497222D01*
X11810000Y86545000D01*
X11618889Y86545000D01*
X11523333Y86497222D01*
X11476667Y86450556D01*
X11428889Y86355000D01*
X20500000Y88040556D02*
X20023333Y87707223D01*
X20500000Y87469445D02*
X19500000Y87469445D01*
X19500000Y87850556D01*
X19547778Y87946112D01*
X19595556Y87992778D01*
X19690000Y88040556D01*
X19833333Y88040556D01*
X19928889Y87992778D01*
X19976667Y87946112D01*
X20023333Y87850556D01*
X20023333Y87469445D01*
X20500000Y89011667D02*
X20500000Y88440556D01*
X20500000Y88726112D02*
X19500000Y88726112D01*
X19643333Y88630556D01*
X19737778Y88536112D01*
X19785556Y88440556D01*
X19595556Y89459445D02*
X19547778Y89507223D01*
X19500000Y89601667D01*
X19500000Y89840556D01*
X19547778Y89935000D01*
X19595556Y89982778D01*
X19690000Y90030556D01*
X19785556Y90030556D01*
X19928889Y89982778D01*
X20500000Y89411667D01*
X20500000Y90030556D01*
X1154444Y87050000D02*
X1202222Y87002222D01*
X1250000Y86860000D01*
X1250000Y86764444D01*
X1202222Y86621111D01*
X1106667Y86526667D01*
X1012222Y86478889D01*
X821111Y86431111D01*
X678889Y86431111D01*
X487778Y86478889D01*
X393333Y86526667D01*
X297778Y86621111D01*
X250000Y86764444D01*
X250000Y86860000D01*
X297778Y87002222D01*
X345556Y87050000D01*
X345556Y87497778D02*
X297778Y87545556D01*
X250000Y87640000D01*
X250000Y87878889D01*
X297778Y87973333D01*
X345556Y88021111D01*
X440000Y88068889D01*
X535556Y88068889D01*
X678889Y88021111D01*
X1250000Y87450000D01*
X1250000Y88068889D01*
X22502222Y34250000D02*
X22168889Y34726667D01*
X21931111Y34250000D02*
X21931111Y35250000D01*
X22312222Y35250000D01*
X22407778Y35202222D01*
X22454444Y35154444D01*
X22502222Y35060000D01*
X22502222Y34916667D01*
X22454444Y34821111D01*
X22407778Y34773333D01*
X22312222Y34726667D01*
X21931111Y34726667D01*
X22902222Y35250000D02*
X23568889Y35250000D01*
X23140000Y34250000D01*
X14040556Y90500000D02*
X13707223Y90976667D01*
X13469445Y90500000D02*
X13469445Y91500000D01*
X13850556Y91500000D01*
X13946112Y91452222D01*
X13992778Y91404444D01*
X14040556Y91310000D01*
X14040556Y91166667D01*
X13992778Y91071111D01*
X13946112Y91023333D01*
X13850556Y90976667D01*
X13469445Y90976667D01*
X15011667Y90500000D02*
X14440556Y90500000D01*
X14726112Y90500000D02*
X14726112Y91500000D01*
X14630556Y91356667D01*
X14536112Y91262222D01*
X14440556Y91214444D01*
X15888334Y91166667D02*
X15888334Y90500000D01*
X15649445Y91547778D02*
X15411667Y90833333D01*
X16030556Y90833333D01*
X11564445Y16500000D02*
X11231112Y16976667D01*
X10993334Y16500000D02*
X10993334Y17500000D01*
X11374445Y17500000D01*
X11470001Y17452222D01*
X11516667Y17404444D01*
X11564445Y17310000D01*
X11564445Y17166667D01*
X11516667Y17071111D01*
X11470001Y17023333D01*
X11374445Y16976667D01*
X10993334Y16976667D01*
X12535556Y16500000D02*
X11964445Y16500000D01*
X12250001Y16500000D02*
X12250001Y17500000D01*
X12154445Y17356667D01*
X12060001Y17262222D01*
X11964445Y17214444D01*
X13412223Y17500000D02*
X13221112Y17500000D01*
X13125556Y17452222D01*
X13078889Y17404444D01*
X12983334Y17262222D01*
X12935556Y17071111D01*
X12935556Y16690000D01*
X12983334Y16595556D01*
X13031112Y16547778D01*
X13125556Y16500000D01*
X13316667Y16500000D01*
X13412223Y16547778D01*
X13458889Y16595556D01*
X13506667Y16690000D01*
X13506667Y16928889D01*
X13458889Y17023333D01*
X13412223Y17071111D01*
X13316667Y17118889D01*
X13125556Y17118889D01*
X13031112Y17071111D01*
X12983334Y17023333D01*
X12935556Y16928889D01*
X23516667Y98000000D02*
X23183334Y98476667D01*
X22945556Y98000000D02*
X22945556Y99000000D01*
X23326667Y99000000D01*
X23422223Y98952222D01*
X23468889Y98904444D01*
X23516667Y98810000D01*
X23516667Y98666667D01*
X23468889Y98571111D01*
X23422223Y98523333D01*
X23326667Y98476667D01*
X22945556Y98476667D01*
X23964445Y98904444D02*
X24012223Y98952222D01*
X24106667Y99000000D01*
X24345556Y99000000D01*
X24440000Y98952222D01*
X24487778Y98904444D01*
X24535556Y98810000D01*
X24535556Y98714444D01*
X24487778Y98571111D01*
X23916667Y98000000D01*
X24535556Y98000000D01*
X24935556Y99000000D02*
X25554445Y99000000D01*
X25221112Y98618889D01*
X25364445Y98618889D01*
X25458889Y98571111D01*
X25506667Y98523333D01*
X25554445Y98428889D01*
X25554445Y98190000D01*
X25506667Y98095556D01*
X25458889Y98047778D01*
X25364445Y98000000D01*
X25078889Y98000000D01*
X24983334Y98047778D01*
X24935556Y98095556D01*
X14250000Y95000000D02*
X14250000Y94190000D01*
X14297778Y94095556D01*
X14345556Y94047778D01*
X14440000Y94000000D01*
X14631111Y94000000D01*
X14726667Y94047778D01*
X14773333Y94095556D01*
X14821111Y94190000D01*
X14821111Y95000000D01*
X15221111Y94000000D02*
X15221111Y95000000D01*
X15602222Y95000000D01*
X15697778Y94952222D01*
X15744444Y94904444D01*
X15792222Y94810000D01*
X15792222Y94666667D01*
X15744444Y94571111D01*
X15697778Y94523333D01*
X15602222Y94476667D01*
X15221111Y94476667D01*
X16766667Y16250000D02*
X16433334Y16726667D01*
X16195556Y16250000D02*
X16195556Y17250000D01*
X16576667Y17250000D01*
X16672223Y17202222D01*
X16718889Y17154444D01*
X16766667Y17060000D01*
X16766667Y16916667D01*
X16718889Y16821111D01*
X16672223Y16773333D01*
X16576667Y16726667D01*
X16195556Y16726667D01*
X17737778Y16250000D02*
X17166667Y16250000D01*
X17452223Y16250000D02*
X17452223Y17250000D01*
X17356667Y17106667D01*
X17262223Y17012222D01*
X17166667Y16964444D01*
X18137778Y17250000D02*
X18804445Y17250000D01*
X18375556Y16250000D01*
X24428334Y102571667D02*
X25571667Y102571667D01*
X25000001Y102000000D02*
X25000001Y103143333D01*
X16183333Y78250000D02*
X16802222Y78250000D01*
X16468889Y77868889D01*
X16612222Y77868889D01*
X16706666Y77821111D01*
X16754444Y77773333D01*
X16802222Y77678889D01*
X16802222Y77440000D01*
X16754444Y77345556D01*
X16706666Y77297778D01*
X16612222Y77250000D01*
X16326666Y77250000D01*
X16231111Y77297778D01*
X16183333Y77345556D01*
X17250000Y77345556D02*
X17297778Y77297778D01*
X17250000Y77250000D01*
X17202222Y77297778D01*
X17250000Y77345556D01*
X17250000Y77250000D01*
X17697778Y78250000D02*
X18316667Y78250000D01*
X17983334Y77868889D01*
X18126667Y77868889D01*
X18221111Y77821111D01*
X18268889Y77773333D01*
X18316667Y77678889D01*
X18316667Y77440000D01*
X18268889Y77345556D01*
X18221111Y77297778D01*
X18126667Y77250000D01*
X17841111Y77250000D01*
X17745556Y77297778D01*
X17697778Y77345556D01*
X23250000Y71500000D02*
X23250000Y72500000D01*
X23631111Y72500000D01*
X23726667Y72452222D01*
X23773333Y72404444D01*
X23821111Y72310000D01*
X23821111Y72166667D01*
X23773333Y72071111D01*
X23726667Y72023333D01*
X23631111Y71976667D01*
X23250000Y71976667D01*
X24697778Y71500000D02*
X24221111Y71500000D01*
X24221111Y72500000D01*
X25097778Y72500000D02*
X25097778Y71690000D01*
X25145556Y71595556D01*
X25193334Y71547778D01*
X25287778Y71500000D01*
X25478889Y71500000D01*
X25574445Y71547778D01*
X25621111Y71595556D01*
X25668889Y71690000D01*
X25668889Y72500000D01*
X26068889Y71547778D02*
X26212222Y71500000D01*
X26450000Y71500000D01*
X26545556Y71547778D01*
X26592222Y71595556D01*
X26640000Y71690000D01*
X26640000Y71785556D01*
X26592222Y71881111D01*
X26545556Y71928889D01*
X26450000Y71976667D01*
X26258889Y72023333D01*
X26164445Y72071111D01*
X26116667Y72118889D01*
X26068889Y72214444D01*
X26068889Y72310000D01*
X26116667Y72404444D01*
X26164445Y72452222D01*
X26258889Y72500000D01*
X26497778Y72500000D01*
X26640000Y72452222D01*
X13250000Y71500000D02*
X13250000Y72500000D01*
X13250000Y72023333D02*
X13821111Y72023333D01*
X13821111Y71500000D02*
X13821111Y72500000D01*
X14458889Y72500000D02*
X14650000Y72500000D01*
X14744444Y72452222D01*
X14840000Y72356667D01*
X14887778Y72166667D01*
X14887778Y71833333D01*
X14840000Y71643333D01*
X14744444Y71547778D01*
X14650000Y71500000D01*
X14458889Y71500000D01*
X14364444Y71547778D01*
X14268889Y71643333D01*
X14221111Y71833333D01*
X14221111Y72166667D01*
X14268889Y72356667D01*
X14364444Y72452222D01*
X14458889Y72500000D01*
X15287778Y71500000D02*
X15287778Y72500000D01*
X15621111Y71785556D01*
X15954445Y72500000D01*
X15954445Y71500000D01*
X16354445Y72023333D02*
X16687778Y72023333D01*
X16831112Y71500000D02*
X16354445Y71500000D01*
X16354445Y72500000D01*
X16831112Y72500000D01*
X2601189Y15691704D02*
X3308296Y16398811D01*
X3476430Y16230677D01*
X3543998Y16095541D01*
X3543998Y15960405D01*
X3510213Y15860624D01*
X3408862Y15691704D01*
X3308296Y15591138D01*
X3139376Y15489787D01*
X3039595Y15456002D01*
X2904459Y15456002D01*
X2769323Y15523570D01*
X2601189Y15691704D01*
X3826055Y15274511D02*
X3793057Y15375078D01*
X3793057Y15442646D01*
X3826840Y15543998D01*
X3860624Y15577782D01*
X3961191Y15610780D01*
X4028759Y15610780D01*
X4129325Y15577782D01*
X4264461Y15442646D01*
X4298245Y15341293D01*
X4297459Y15274511D01*
X4264461Y15173945D01*
X4230677Y15140161D01*
X4129325Y15106378D01*
X4062543Y15105591D01*
X3961191Y15139376D01*
X3826055Y15274511D01*
X3725489Y15307509D01*
X3658707Y15308296D01*
X3557354Y15274511D01*
X3422218Y15139376D01*
X3389220Y15038809D01*
X3389220Y14971241D01*
X3422218Y14870675D01*
X3557354Y14735539D01*
X3658707Y14701755D01*
X3725489Y14702541D01*
X3826055Y14735539D01*
X3961191Y14870675D01*
X3994975Y14972027D01*
X3994975Y15038023D01*
X3961191Y15139376D01*
X14276111Y13750000D02*
X13942778Y14226667D01*
X13705000Y13750000D02*
X13705000Y14750000D01*
X14086111Y14750000D01*
X14181667Y14702222D01*
X14228333Y14654444D01*
X14276111Y14560000D01*
X14276111Y14416667D01*
X14228333Y14321111D01*
X14181667Y14273333D01*
X14086111Y14226667D01*
X13705000Y14226667D01*
X15152778Y14416667D02*
X15152778Y13750000D01*
X14913889Y14797778D02*
X14676111Y14083333D01*
X15295000Y14083333D01*
X10750000Y28252778D02*
X10750000Y27776111D01*
X9750000Y27776111D01*
X10750000Y29223889D02*
X10750000Y28652778D01*
X10750000Y28938334D02*
X9750000Y28938334D01*
X9893333Y28842778D01*
X9987778Y28748334D01*
X10035556Y28652778D01*
X25404444Y50314445D02*
X25452222Y50266667D01*
X25500000Y50124445D01*
X25500000Y50028889D01*
X25452222Y49885556D01*
X25356667Y49791112D01*
X25262222Y49743334D01*
X25071111Y49695556D01*
X24928889Y49695556D01*
X24737778Y49743334D01*
X24643333Y49791112D01*
X24547778Y49885556D01*
X24500000Y50028889D01*
X24500000Y50124445D01*
X24547778Y50266667D01*
X24595556Y50314445D01*
X25500000Y51285556D02*
X25500000Y50714445D01*
X25500000Y51000001D02*
X24500000Y51000001D01*
X24643333Y50904445D01*
X24737778Y50810001D01*
X24785556Y50714445D01*
X24595556Y51733334D02*
X24547778Y51781112D01*
X24500000Y51875556D01*
X24500000Y52114445D01*
X24547778Y52208889D01*
X24595556Y52256667D01*
X24690000Y52304445D01*
X24785556Y52304445D01*
X24928889Y52256667D01*
X25500000Y51685556D01*
X25500000Y52304445D01*
X14761667Y78202222D02*
X14667223Y78250000D01*
X14523889Y78250000D01*
X14380556Y78202222D01*
X14286112Y78106667D01*
X14238334Y78012222D01*
X14190556Y77821111D01*
X14190556Y77678889D01*
X14238334Y77487778D01*
X14286112Y77393333D01*
X14380556Y77297778D01*
X14523889Y77250000D01*
X14619445Y77250000D01*
X14761667Y77297778D01*
X14809445Y77345556D01*
X14809445Y77678889D01*
X14619445Y77678889D01*
X5654444Y28290556D02*
X5702222Y28242778D01*
X5750000Y28100556D01*
X5750000Y28005000D01*
X5702222Y27861667D01*
X5606667Y27767223D01*
X5512222Y27719445D01*
X5321111Y27671667D01*
X5178889Y27671667D01*
X4987778Y27719445D01*
X4893333Y27767223D01*
X4797778Y27861667D01*
X4750000Y28005000D01*
X4750000Y28100556D01*
X4797778Y28242778D01*
X4845556Y28290556D01*
X5750000Y29261667D02*
X5750000Y28690556D01*
X5750000Y28976112D02*
X4750000Y28976112D01*
X4893333Y28880556D01*
X4987778Y28786112D01*
X5035556Y28690556D01*
X4750000Y29661667D02*
X4750000Y30328334D01*
X5750000Y29899445D01*
X2790556Y101000000D02*
X2457223Y101476667D01*
X2219445Y101000000D02*
X2219445Y102000000D01*
X2600556Y102000000D01*
X2696112Y101952222D01*
X2742778Y101904444D01*
X2790556Y101810000D01*
X2790556Y101666667D01*
X2742778Y101571111D01*
X2696112Y101523333D01*
X2600556Y101476667D01*
X2219445Y101476667D01*
X3761667Y101000000D02*
X3190556Y101000000D01*
X3476112Y101000000D02*
X3476112Y102000000D01*
X3380556Y101856667D01*
X3286112Y101762222D01*
X3190556Y101714444D01*
X4161667Y102000000D02*
X4780556Y102000000D01*
X4447223Y101618889D01*
X4590556Y101618889D01*
X4685000Y101571111D01*
X4732778Y101523333D01*
X4780556Y101428889D01*
X4780556Y101190000D01*
X4732778Y101095556D01*
X4685000Y101047778D01*
X4590556Y101000000D01*
X4305000Y101000000D01*
X4209445Y101047778D01*
X4161667Y101095556D01*
X29404444Y83526111D02*
X29452222Y83478333D01*
X29500000Y83336111D01*
X29500000Y83240555D01*
X29452222Y83097222D01*
X29356667Y83002778D01*
X29262222Y82955000D01*
X29071111Y82907222D01*
X28928889Y82907222D01*
X28737778Y82955000D01*
X28643333Y83002778D01*
X28547778Y83097222D01*
X28500000Y83240555D01*
X28500000Y83336111D01*
X28547778Y83478333D01*
X28595556Y83526111D01*
X28500000Y83926111D02*
X28500000Y84592778D01*
X29500000Y84163889D01*
D10*
X26254667Y108350000D02*
X26254667Y109150000D01*
X26444889Y109150000D01*
X26559556Y109111778D01*
X26636000Y109035333D01*
X26673334Y108959778D01*
X26711556Y108806889D01*
X26711556Y108693111D01*
X26673334Y108540222D01*
X26636000Y108464667D01*
X26559556Y108388222D01*
X26444889Y108350000D01*
X26254667Y108350000D01*
X27478445Y108350000D02*
X27021556Y108350000D01*
X27250000Y108350000D02*
X27250000Y109150000D01*
X27173556Y109035333D01*
X27098000Y108959778D01*
X27021556Y108921556D01*
X28245334Y108350000D02*
X27788445Y108350000D01*
X28016889Y108350000D02*
X28016889Y109150000D01*
X27940445Y109035333D01*
X27864889Y108959778D01*
X27788445Y108921556D01*
D12*
X1250000Y92046667D02*
X1916667Y92046667D01*
X2203333Y91000000D02*
X1250000Y91000000D01*
X1250000Y93000000D01*
X2203333Y93000000D01*
X2803333Y91095556D02*
X3090000Y91000000D01*
X3565555Y91000000D01*
X3756666Y91095556D01*
X3850000Y91191111D01*
X3945555Y91380000D01*
X3945555Y91571111D01*
X3850000Y91762222D01*
X3756666Y91857778D01*
X3565555Y91953333D01*
X3183333Y92046667D01*
X2994444Y92142222D01*
X2898889Y92237778D01*
X2803333Y92428889D01*
X2803333Y92620000D01*
X2898889Y92808889D01*
X2994444Y92904444D01*
X3183333Y93000000D01*
X3661111Y93000000D01*
X3945555Y92904444D01*
X4545555Y91000000D02*
X4545555Y93000000D01*
X5307777Y93000000D01*
X5498888Y92904444D01*
X5592222Y92808889D01*
X5687777Y92620000D01*
X5687777Y92333333D01*
X5592222Y92142222D01*
X5498888Y92046667D01*
X5307777Y91953333D01*
X4545555Y91953333D01*
X6287777Y91000000D02*
X6287777Y92333333D01*
X6287777Y92142222D02*
X6383333Y92237778D01*
X6574444Y92333333D01*
X6858888Y92333333D01*
X7049999Y92237778D01*
X7145555Y92046667D01*
X7145555Y91000000D01*
X7145555Y92046667D02*
X7241110Y92237778D01*
X7429999Y92333333D01*
X7716666Y92333333D01*
X7907777Y92237778D01*
X8001110Y92046667D01*
X8001110Y91000000D01*
X8981110Y91000000D02*
X8792221Y91095556D01*
X8696666Y91191111D01*
X8601110Y91380000D01*
X8601110Y91953333D01*
X8696666Y92142222D01*
X8792221Y92237778D01*
X8981110Y92333333D01*
X9267777Y92333333D01*
X9458888Y92237778D01*
X9554443Y92142222D01*
X9647777Y91953333D01*
X9647777Y91380000D01*
X9554443Y91191111D01*
X9458888Y91095556D01*
X9267777Y91000000D01*
X8981110Y91000000D01*
X10247777Y92333333D02*
X11009999Y92333333D01*
X10534444Y93000000D02*
X10534444Y91286667D01*
X10627777Y91095556D01*
X10818888Y91000000D01*
X11009999Y91000000D01*
X12467777Y91095556D02*
X12276666Y91000000D01*
X11896666Y91000000D01*
X11705555Y91095556D01*
X11609999Y91286667D01*
X11609999Y92046667D01*
X11705555Y92237778D01*
X11896666Y92333333D01*
X12276666Y92333333D01*
X12467777Y92237778D01*
X12563332Y92046667D01*
X12563332Y91857778D01*
X11609999Y91666667D01*
X29404444Y17073889D02*
X29452222Y17026111D01*
X29500000Y16883889D01*
X29500000Y16788333D01*
X29452222Y16645000D01*
X29356667Y16550556D01*
X29262222Y16502778D01*
X29071111Y16455000D01*
X28928889Y16455000D01*
X28737778Y16502778D01*
X28643333Y16550556D01*
X28547778Y16645000D01*
X28500000Y16788333D01*
X28500000Y16883889D01*
X28547778Y17026111D01*
X28595556Y17073889D01*
X29500000Y17473889D02*
X28500000Y17473889D01*
X29500000Y18045000D02*
X28928889Y17617222D01*
X28500000Y18045000D02*
X29071111Y17473889D01*
X19250000Y83931111D02*
X18250000Y83931111D01*
X18250000Y84168889D01*
X18297778Y84312222D01*
X18393333Y84407778D01*
X18487778Y84454444D01*
X18678889Y84502222D01*
X18821111Y84502222D01*
X19012222Y84454444D01*
X19106667Y84407778D01*
X19202222Y84312222D01*
X19250000Y84168889D01*
X19250000Y83931111D01*
X18250000Y84902222D02*
X18250000Y85568889D01*
X19250000Y85140000D01*
X3750000Y105705000D02*
X2750000Y105705000D01*
X2750000Y105942778D01*
X2797778Y106086111D01*
X2893333Y106181667D01*
X2987778Y106228333D01*
X3178889Y106276111D01*
X3321111Y106276111D01*
X3512222Y106228333D01*
X3606667Y106181667D01*
X3702222Y106086111D01*
X3750000Y105942778D01*
X3750000Y105705000D01*
X2750000Y106676111D02*
X2750000Y107295000D01*
X3131111Y106961667D01*
X3131111Y107105000D01*
X3178889Y107199444D01*
X3226667Y107247222D01*
X3321111Y107295000D01*
X3560000Y107295000D01*
X3654444Y107247222D01*
X3702222Y107199444D01*
X3750000Y107105000D01*
X3750000Y106819444D01*
X3702222Y106723889D01*
X3654444Y106676111D01*
X4904444Y38088334D02*
X4952222Y38040556D01*
X5000000Y37898334D01*
X5000000Y37802778D01*
X4952222Y37659445D01*
X4856667Y37565001D01*
X4762222Y37517223D01*
X4571111Y37469445D01*
X4428889Y37469445D01*
X4237778Y37517223D01*
X4143333Y37565001D01*
X4047778Y37659445D01*
X4000000Y37802778D01*
X4000000Y37898334D01*
X4047778Y38040556D01*
X4095556Y38088334D01*
X5000000Y39059445D02*
X5000000Y38488334D01*
X5000000Y38773890D02*
X4000000Y38773890D01*
X4143333Y38678334D01*
X4237778Y38583890D01*
X4285556Y38488334D01*
X4000000Y39936112D02*
X4000000Y39745001D01*
X4047778Y39649445D01*
X4095556Y39602778D01*
X4237778Y39507223D01*
X4428889Y39459445D01*
X4810000Y39459445D01*
X4904444Y39507223D01*
X4952222Y39555001D01*
X5000000Y39649445D01*
X5000000Y39840556D01*
X4952222Y39936112D01*
X4904444Y39982778D01*
X4810000Y40030556D01*
X4571111Y40030556D01*
X4476667Y39982778D01*
X4428889Y39936112D01*
X4381111Y39840556D01*
X4381111Y39649445D01*
X4428889Y39555001D01*
X4476667Y39507223D01*
X4571111Y39459445D01*
X24428334Y99321667D02*
X25571667Y99321667D01*
X26564445Y31845556D02*
X26516667Y31797778D01*
X26374445Y31750000D01*
X26278889Y31750000D01*
X26135556Y31797778D01*
X26041112Y31893333D01*
X25993334Y31987778D01*
X25945556Y32178889D01*
X25945556Y32321111D01*
X25993334Y32512222D01*
X26041112Y32606667D01*
X26135556Y32702222D01*
X26278889Y32750000D01*
X26374445Y32750000D01*
X26516667Y32702222D01*
X26564445Y32654444D01*
X27535556Y31750000D02*
X26964445Y31750000D01*
X27250001Y31750000D02*
X27250001Y32750000D01*
X27154445Y32606667D01*
X27060001Y32512222D01*
X26964445Y32464444D01*
X28412223Y32416667D02*
X28412223Y31750000D01*
X28173334Y32797778D02*
X27935556Y32083333D01*
X28554445Y32083333D01*
X8681111Y78250000D02*
X9252222Y78250000D01*
X8966667Y77250000D02*
X8966667Y78250000D01*
X9652222Y78250000D02*
X10318889Y77250000D01*
X10318889Y78250000D02*
X9652222Y77250000D01*
X27338334Y38095556D02*
X27290556Y38047778D01*
X27148334Y38000000D01*
X27052778Y38000000D01*
X26909445Y38047778D01*
X26815001Y38143333D01*
X26767223Y38237778D01*
X26719445Y38428889D01*
X26719445Y38571111D01*
X26767223Y38762222D01*
X26815001Y38856667D01*
X26909445Y38952222D01*
X27052778Y39000000D01*
X27148334Y39000000D01*
X27290556Y38952222D01*
X27338334Y38904444D01*
X28309445Y38000000D02*
X27738334Y38000000D01*
X28023890Y38000000D02*
X28023890Y39000000D01*
X27928334Y38856667D01*
X27833890Y38762222D01*
X27738334Y38714444D01*
X28947223Y39000000D02*
X29042778Y39000000D01*
X29138334Y38952222D01*
X29186112Y38904444D01*
X29232778Y38810000D01*
X29280556Y38618889D01*
X29280556Y38381111D01*
X29232778Y38190000D01*
X29186112Y38095556D01*
X29138334Y38047778D01*
X29042778Y38000000D01*
X28947223Y38000000D01*
X28852778Y38047778D01*
X28805001Y38095556D01*
X28757223Y38190000D01*
X28709445Y38381111D01*
X28709445Y38618889D01*
X28757223Y38810000D01*
X28805001Y38904444D01*
X28852778Y38952222D01*
X28947223Y39000000D01*
X19250000Y35987778D02*
X19250000Y36178889D01*
X19297778Y36273333D01*
X19393333Y36368889D01*
X19583333Y36416667D01*
X19916667Y36416667D01*
X20106667Y36368889D01*
X20202222Y36273333D01*
X20250000Y36178889D01*
X20250000Y35987778D01*
X20202222Y35893333D01*
X20106667Y35797778D01*
X19916667Y35750000D01*
X19583333Y35750000D01*
X19393333Y35797778D01*
X19297778Y35893333D01*
X19250000Y35987778D01*
X20250000Y36816667D02*
X19250000Y36816667D01*
X20250000Y37387778D01*
X19250000Y37387778D01*
X19726667Y37787778D02*
X19726667Y38121111D01*
X20250000Y38264445D02*
X20250000Y37787778D01*
X19250000Y37787778D01*
X19250000Y38264445D01*
X11752222Y77250000D02*
X11418889Y77726667D01*
X11181111Y77250000D02*
X11181111Y78250000D01*
X11562222Y78250000D01*
X11657778Y78202222D01*
X11704444Y78154444D01*
X11752222Y78060000D01*
X11752222Y77916667D01*
X11704444Y77821111D01*
X11657778Y77773333D01*
X11562222Y77726667D01*
X11181111Y77726667D01*
X12152222Y78250000D02*
X12818889Y77250000D01*
X12818889Y78250000D02*
X12152222Y77250000D01*
X21750000Y83978889D02*
X20750000Y83978889D01*
X20750000Y84216667D01*
X20797778Y84360000D01*
X20893333Y84455556D01*
X20987778Y84502222D01*
X21178889Y84550000D01*
X21321111Y84550000D01*
X21512222Y84502222D01*
X21606667Y84455556D01*
X21702222Y84360000D01*
X21750000Y84216667D01*
X21750000Y83978889D01*
X21750000Y85045556D02*
X21750000Y85235556D01*
X21702222Y85331111D01*
X21654444Y85378889D01*
X21512222Y85473333D01*
X21321111Y85521111D01*
X20940000Y85521111D01*
X20845556Y85473333D01*
X20797778Y85426667D01*
X20750000Y85331111D01*
X20750000Y85140000D01*
X20797778Y85045556D01*
X20845556Y84997778D01*
X20940000Y84950000D01*
X21178889Y84950000D01*
X21273333Y84997778D01*
X21321111Y85045556D01*
X21368889Y85140000D01*
X21368889Y85331111D01*
X21321111Y85426667D01*
X21273333Y85473333D01*
X21178889Y85521111D01*
X15297778Y86595556D02*
X15345556Y86547778D01*
X15297778Y86500000D01*
X15250000Y86547778D01*
X15297778Y86595556D01*
X15297778Y86500000D01*
G04 #@! TO.C,J1*
X8255555Y81750000D02*
X8255555Y82750000D01*
X8636666Y82750000D01*
X8732222Y82702222D01*
X8778888Y82654444D01*
X8826666Y82560000D01*
X8826666Y82416667D01*
X8778888Y82321111D01*
X8732222Y82273333D01*
X8636666Y82226667D01*
X8255555Y82226667D01*
X9797777Y81750000D02*
X9464444Y82226667D01*
X9226666Y81750000D02*
X9226666Y82750000D01*
X9607777Y82750000D01*
X9703333Y82702222D01*
X9749999Y82654444D01*
X9797777Y82560000D01*
X9797777Y82416667D01*
X9749999Y82321111D01*
X9703333Y82273333D01*
X9607777Y82226667D01*
X9226666Y82226667D01*
X10435555Y82750000D02*
X10626666Y82750000D01*
X10721110Y82702222D01*
X10816666Y82606667D01*
X10864444Y82416667D01*
X10864444Y82083333D01*
X10816666Y81893333D01*
X10721110Y81797778D01*
X10626666Y81750000D01*
X10435555Y81750000D01*
X10341110Y81797778D01*
X10245555Y81893333D01*
X10197777Y82083333D01*
X10197777Y82416667D01*
X10245555Y82606667D01*
X10341110Y82702222D01*
X10435555Y82750000D01*
X11835555Y82702222D02*
X11741111Y82750000D01*
X11597777Y82750000D01*
X11454444Y82702222D01*
X11360000Y82606667D01*
X11312222Y82512222D01*
X11264444Y82321111D01*
X11264444Y82178889D01*
X11312222Y81987778D01*
X11360000Y81893333D01*
X11454444Y81797778D01*
X11597777Y81750000D01*
X11693333Y81750000D01*
X11835555Y81797778D01*
X11883333Y81845556D01*
X11883333Y82178889D01*
X11693333Y82178889D01*
X12854444Y81750000D02*
X12521111Y82226667D01*
X12283333Y81750000D02*
X12283333Y82750000D01*
X12664444Y82750000D01*
X12760000Y82702222D01*
X12806666Y82654444D01*
X12854444Y82560000D01*
X12854444Y82416667D01*
X12806666Y82321111D01*
X12760000Y82273333D01*
X12664444Y82226667D01*
X12283333Y82226667D01*
X13350000Y82035556D02*
X13825555Y82035556D01*
X13254444Y81750000D02*
X13587777Y82750000D01*
X13921111Y81750000D01*
X14321111Y81750000D02*
X14321111Y82750000D01*
X14654444Y82035556D01*
X14987778Y82750000D01*
X14987778Y81750000D01*
X15387778Y81750000D02*
X15387778Y82750000D01*
X15721111Y82035556D01*
X16054445Y82750000D01*
X16054445Y81750000D01*
X16454445Y81750000D02*
X16454445Y82750000D01*
X16854445Y81750000D02*
X16854445Y82750000D01*
X17425556Y81750000D01*
X17425556Y82750000D01*
X18396667Y82702222D02*
X18302223Y82750000D01*
X18158889Y82750000D01*
X18015556Y82702222D01*
X17921112Y82606667D01*
X17873334Y82512222D01*
X17825556Y82321111D01*
X17825556Y82178889D01*
X17873334Y81987778D01*
X17921112Y81893333D01*
X18015556Y81797778D01*
X18158889Y81750000D01*
X18254445Y81750000D01*
X18396667Y81797778D01*
X18444445Y81845556D01*
X18444445Y82178889D01*
X18254445Y82178889D01*
G04 #@! TO.C,BOOT_SW*
X23745555Y88273333D02*
X23888889Y88226667D01*
X23935555Y88178889D01*
X23983333Y88083333D01*
X23983333Y87940000D01*
X23935555Y87845556D01*
X23888889Y87797778D01*
X23793333Y87750000D01*
X23412222Y87750000D01*
X23412222Y88750000D01*
X23745555Y88750000D01*
X23841111Y88702222D01*
X23888889Y88654444D01*
X23935555Y88560000D01*
X23935555Y88464444D01*
X23888889Y88368889D01*
X23841111Y88321111D01*
X23745555Y88273333D01*
X23412222Y88273333D01*
X24621111Y88750000D02*
X24812222Y88750000D01*
X24906666Y88702222D01*
X25002222Y88606667D01*
X25050000Y88416667D01*
X25050000Y88083333D01*
X25002222Y87893333D01*
X24906666Y87797778D01*
X24812222Y87750000D01*
X24621111Y87750000D01*
X24526666Y87797778D01*
X24431111Y87893333D01*
X24383333Y88083333D01*
X24383333Y88416667D01*
X24431111Y88606667D01*
X24526666Y88702222D01*
X24621111Y88750000D01*
X25687778Y88750000D02*
X25878889Y88750000D01*
X25973333Y88702222D01*
X26068889Y88606667D01*
X26116667Y88416667D01*
X26116667Y88083333D01*
X26068889Y87893333D01*
X25973333Y87797778D01*
X25878889Y87750000D01*
X25687778Y87750000D01*
X25593333Y87797778D01*
X25497778Y87893333D01*
X25450000Y88083333D01*
X25450000Y88416667D01*
X25497778Y88606667D01*
X25593333Y88702222D01*
X25687778Y88750000D01*
X26516667Y88750000D02*
X27087778Y88750000D01*
X26802223Y87750000D02*
X26802223Y88750000D01*
G04 #@! TO.C,J3*
X14681111Y-2500000D02*
X14681111Y-3214444D01*
X14633333Y-3356667D01*
X14537778Y-3452222D01*
X14395556Y-3500000D01*
X14300000Y-3500000D01*
X15081111Y-2500000D02*
X15700000Y-2500000D01*
X15366667Y-2881111D01*
X15510000Y-2881111D01*
X15604444Y-2928889D01*
X15652222Y-2976667D01*
X15700000Y-3071111D01*
X15700000Y-3310000D01*
X15652222Y-3404444D01*
X15604444Y-3452222D01*
X15510000Y-3500000D01*
X15224444Y-3500000D01*
X15128889Y-3452222D01*
X15081111Y-3404444D01*
G04 #@! TO.C,EN_SW*
X1880555Y88523333D02*
X2213888Y88523333D01*
X2357222Y88000000D02*
X1880555Y88000000D01*
X1880555Y89000000D01*
X2357222Y89000000D01*
X2757222Y88000000D02*
X2757222Y89000000D01*
X3328333Y88000000D01*
X3328333Y89000000D01*
X3823889Y88285556D02*
X4299444Y88285556D01*
X3728333Y88000000D02*
X4061666Y89000000D01*
X4395000Y88000000D01*
X5128333Y88523333D02*
X5271667Y88476667D01*
X5318333Y88428889D01*
X5366111Y88333333D01*
X5366111Y88190000D01*
X5318333Y88095556D01*
X5271667Y88047778D01*
X5176111Y88000000D01*
X4795000Y88000000D01*
X4795000Y89000000D01*
X5128333Y89000000D01*
X5223889Y88952222D01*
X5271667Y88904444D01*
X5318333Y88810000D01*
X5318333Y88714444D01*
X5271667Y88618889D01*
X5223889Y88571111D01*
X5128333Y88523333D01*
X4795000Y88523333D01*
X6242778Y88000000D02*
X5766111Y88000000D01*
X5766111Y89000000D01*
X6642778Y88523333D02*
X6976111Y88523333D01*
X7119445Y88000000D02*
X6642778Y88000000D01*
X6642778Y89000000D01*
X7119445Y89000000D01*
G04 #@! TO.C,JTAG*
X25162222Y24600000D02*
X25162222Y23885556D01*
X25114444Y23743333D01*
X25018889Y23647778D01*
X24876667Y23600000D01*
X24781111Y23600000D01*
X25562222Y24600000D02*
X26133333Y24600000D01*
X25847778Y23600000D02*
X25847778Y24600000D01*
X26628889Y23885556D02*
X27104444Y23885556D01*
X26533333Y23600000D02*
X26866666Y24600000D01*
X27200000Y23600000D01*
X28171111Y24552222D02*
X28076667Y24600000D01*
X27933333Y24600000D01*
X27790000Y24552222D01*
X27695556Y24456667D01*
X27647778Y24362222D01*
X27600000Y24171111D01*
X27600000Y24028889D01*
X27647778Y23837778D01*
X27695556Y23743333D01*
X27790000Y23647778D01*
X27933333Y23600000D01*
X28028889Y23600000D01*
X28171111Y23647778D01*
X28218889Y23695556D01*
X28218889Y24028889D01*
X28028889Y24028889D01*
%LPC*%
D16*
G04 #@! TO.C,C18*
X28975000Y105250000D03*
X27525000Y105250000D03*
D17*
G04 #@! TO.C,XO1*
X27100000Y136150000D03*
X24900000Y136150000D03*
X24900000Y137850000D03*
X27100000Y137850000D03*
D18*
G04 #@! TO.C,A*
X12878680Y101621320D03*
D19*
X17121320Y97378680D03*
D20*
G04 #@! TD*
X21717514Y99500000D03*
X8282486Y99500000D03*
D21*
G04 #@! TO.C,J1*
X9440000Y80000000D03*
D22*
X17060000Y80000000D03*
D21*
X11980000Y80000000D03*
X14520000Y80000000D03*
D23*
G04 #@! TO.C,R1*
X29025000Y88250000D03*
X27475000Y88250000D03*
D24*
G04 #@! TO.C,U3*
X13837500Y86250000D03*
X13837500Y85750000D03*
D25*
X15500000Y84587500D03*
X15000000Y86912500D03*
X14500000Y86912500D03*
D24*
X15662500Y85750000D03*
D25*
X15500000Y86912500D03*
X15000000Y84587500D03*
D24*
X15662500Y85250000D03*
X13837500Y85250000D03*
D25*
X14000000Y86912500D03*
X14500000Y84587500D03*
D24*
X15662500Y86250000D03*
D25*
X14000000Y84587500D03*
D23*
G04 #@! TO.C,R4*
X13725000Y13000000D03*
X15275000Y13000000D03*
D20*
G04 #@! TD*
X8282486Y108000000D03*
X21717514Y108000000D03*
D26*
G04 #@! TO.C,UP*
X12171573Y130292893D03*
D27*
X17828427Y130292893D03*
D20*
G04 #@! TD*
X8282486Y131000000D03*
X21717514Y131000000D03*
D16*
G04 #@! TO.C,C9*
X12525000Y83250000D03*
X13975000Y83250000D03*
D28*
G04 #@! TO.C,BOOT_SW*
X23025000Y86750000D03*
D29*
X27475000Y83250000D03*
X27475000Y86750000D03*
D28*
X23025000Y83250000D03*
D30*
G04 #@! TO.C,C8*
X12500000Y85025000D03*
X12500000Y86475000D03*
D31*
G04 #@! TO.C,J2*
X12515000Y138030000D03*
X11515000Y136030000D03*
X18515000Y138030000D03*
D32*
X20500000Y139100000D03*
D31*
X14515000Y138030000D03*
X17515000Y136030000D03*
X16515000Y138030000D03*
X15515000Y136030000D03*
D32*
X9500000Y139100000D03*
D31*
X13515000Y136030000D03*
D33*
G04 #@! TD*
X13515000Y140030000D03*
X17515000Y140030000D03*
D34*
G04 #@! TO.C,R19*
X21250000Y33775000D03*
X21250000Y32225000D03*
G04 #@! TO.C,R10*
X22000000Y69775000D03*
X22000000Y68225000D03*
G04 #@! TO.C,R15*
X8000000Y15775000D03*
X8000000Y14225000D03*
G04 #@! TO.C,R18*
X22000000Y15775000D03*
X22000000Y14225000D03*
D35*
G04 #@! TO.C,D7*
X18700000Y83175000D03*
X18700000Y86325000D03*
D23*
G04 #@! TO.C,R6*
X26475000Y12000000D03*
X28025000Y12000000D03*
D16*
G04 #@! TO.C,C14*
X25225000Y32250000D03*
X23775000Y32250000D03*
D36*
G04 #@! TO.C,POWER*
X4000000Y136525000D03*
D37*
X7500000Y140975000D03*
X4000000Y140975000D03*
D36*
X7500000Y136525000D03*
D38*
G04 #@! TO.C,L1*
X9000000Y27000000D03*
X9000000Y28500000D03*
D34*
G04 #@! TO.C,R12*
X18750000Y87975000D03*
X18750000Y89525000D03*
D39*
G04 #@! TO.C,D5*
X19675000Y17750000D03*
X22825000Y17750000D03*
D34*
G04 #@! TO.C,R7*
X22500000Y32225000D03*
X22500000Y33775000D03*
D40*
G04 #@! TO.C,J5*
X27250000Y99500000D03*
D16*
G04 #@! TO.C,C10*
X24525000Y38750000D03*
X25975000Y38750000D03*
D41*
G04 #@! TO.C,U5*
X6000000Y35740000D03*
X6500000Y34260000D03*
X7000000Y34260000D03*
X6500000Y35740000D03*
X7000000Y35740000D03*
X6000000Y34260000D03*
D42*
G04 #@! TO.C,D4*
X25386307Y130386307D03*
X27613693Y132613693D03*
D38*
G04 #@! TO.C,LED3*
X17750000Y14250000D03*
X17750000Y12750000D03*
D35*
G04 #@! TO.C,D9*
X21300000Y83175000D03*
X21300000Y86325000D03*
D23*
G04 #@! TO.C,R11*
X14225000Y88250000D03*
X15775000Y88250000D03*
G04 #@! TO.C,R14*
X13975000Y89750000D03*
X15525000Y89750000D03*
G04 #@! TO.C,R24*
X24975000Y105250000D03*
X26525000Y105250000D03*
D43*
G04 #@! TO.C,LS1*
X23000000Y49000000D03*
X20500000Y46500000D03*
D30*
G04 #@! TO.C,C16*
X3250000Y39475000D03*
X3250000Y38025000D03*
D34*
G04 #@! TO.C,R20*
X3250000Y37025000D03*
X3250000Y35475000D03*
D30*
G04 #@! TO.C,C17*
X6500000Y28275000D03*
X6500000Y29725000D03*
D44*
G04 #@! TO.C,LEFT*
X6207107Y118671573D03*
D45*
X6207107Y124328427D03*
D20*
G04 #@! TD*
X5500000Y114782486D03*
X5500000Y128217514D03*
D34*
G04 #@! TO.C,R17*
X19000000Y15775000D03*
X19000000Y14225000D03*
D42*
G04 #@! TO.C,D1*
X26113693Y134113693D03*
X23886307Y131886307D03*
D38*
G04 #@! TO.C,LED2*
X12250000Y14250000D03*
X12250000Y12750000D03*
D35*
G04 #@! TO.C,D3*
X3250000Y108075000D03*
X3250000Y104925000D03*
D34*
G04 #@! TO.C,R16*
X11000000Y15775000D03*
X11000000Y14225000D03*
D39*
G04 #@! TO.C,D13*
X29075000Y106750000D03*
X25925000Y106750000D03*
G04 #@! TO.C,D11*
X25675000Y108750000D03*
X28825000Y108750000D03*
D30*
G04 #@! TO.C,C12*
X25000000Y48975000D03*
X25000000Y47525000D03*
D46*
G04 #@! TO.C,J3*
X17000000Y7500000D03*
D47*
X13000000Y2500000D03*
D46*
X13000000Y9500000D03*
X17000000Y9500000D03*
X15000000Y9500000D03*
X13000000Y7500000D03*
X15000000Y7500000D03*
D47*
X17000000Y2500000D03*
D27*
G04 #@! TO.C,DOWN*
X17828427Y112707107D03*
D26*
X12171573Y112707107D03*
D20*
G04 #@! TD*
X21717514Y112000000D03*
X8282486Y112000000D03*
D38*
G04 #@! TO.C,LED1*
X6750000Y14250000D03*
X6750000Y12750000D03*
D30*
G04 #@! TO.C,C6*
X8000000Y84275000D03*
X8000000Y85725000D03*
D40*
G04 #@! TO.C,J6*
X27250000Y102500000D03*
D48*
G04 #@! TO.C,C13*
X27112500Y48627868D03*
X26387500Y47372132D03*
D28*
G04 #@! TO.C,EN_SW*
X2275000Y86750000D03*
D29*
X6725000Y83250000D03*
X6725000Y86750000D03*
D28*
X2275000Y83250000D03*
D49*
G04 #@! TO.C,J4*
X7250000Y30500000D03*
X22750000Y29500000D03*
D50*
X2750000Y29250000D03*
X27250000Y28250000D03*
D38*
G04 #@! TO.C,LED4*
X23250000Y14250000D03*
X23250000Y12750000D03*
D19*
G04 #@! TO.C,ONE*
X17121320Y34878680D03*
D18*
X12878680Y39121320D03*
D20*
G04 #@! TD*
X8282486Y37000000D03*
X21717514Y37000000D03*
D34*
G04 #@! TO.C,R22*
X25250000Y94475000D03*
X25250000Y96025000D03*
D16*
G04 #@! TO.C,C15*
X23525000Y31000000D03*
X24975000Y31000000D03*
D34*
G04 #@! TO.C,R3*
X23000000Y19475000D03*
X23000000Y21025000D03*
D23*
G04 #@! TO.C,R2*
X9775000Y87750000D03*
X8225000Y87750000D03*
D35*
G04 #@! TO.C,D10*
X9750000Y83175000D03*
X9750000Y86325000D03*
D28*
G04 #@! TO.C,HOME*
X12775000Y76750000D03*
D29*
X17225000Y73250000D03*
X17225000Y76750000D03*
D28*
X12775000Y73250000D03*
D51*
G04 #@! TO.C,D6*
X19136307Y29363693D03*
X21363693Y27136307D03*
D19*
G04 #@! TO.C,TWO*
X17121320Y21128680D03*
D18*
X12878680Y25371320D03*
D20*
G04 #@! TD*
X8282486Y23250000D03*
X21717514Y23250000D03*
D28*
G04 #@! TO.C,PLUS*
X22775000Y76750000D03*
D29*
X27225000Y73250000D03*
X27225000Y76750000D03*
D28*
X22775000Y73250000D03*
D23*
G04 #@! TO.C,R23*
X25275000Y97250000D03*
X23725000Y97250000D03*
D52*
G04 #@! TO.C,SYNC*
X6750000Y25250000D03*
X2250000Y18750000D03*
X2250000Y25250000D03*
X6750000Y18750000D03*
D30*
G04 #@! TO.C,C1*
X4250000Y50225000D03*
X4250000Y48775000D03*
D16*
G04 #@! TO.C,C11*
X24525000Y40000000D03*
X25975000Y40000000D03*
D28*
G04 #@! TO.C,MINUS*
X2775000Y76750000D03*
D29*
X7225000Y73250000D03*
X7225000Y76750000D03*
D28*
X2775000Y73250000D03*
D34*
G04 #@! TO.C,R5*
X29000000Y14225000D03*
X29000000Y15775000D03*
D45*
G04 #@! TO.C,RIGHT*
X23792893Y124328427D03*
D44*
X23792893Y118671573D03*
D20*
G04 #@! TD*
X24500000Y128217514D03*
X24500000Y114782486D03*
D35*
G04 #@! TO.C,D2*
X5250000Y108575000D03*
X5250000Y105425000D03*
D53*
G04 #@! TO.C,Q1*
X26650000Y95300000D03*
X28850000Y96250000D03*
X26650000Y97200000D03*
D34*
G04 #@! TO.C,R9*
X20750000Y69775000D03*
X20750000Y68225000D03*
D54*
G04 #@! TO.C,U4*
X24925000Y37475000D03*
X24275000Y37475000D03*
X24275000Y33525000D03*
X26225000Y33525000D03*
X25575000Y33525000D03*
X24925000Y33525000D03*
X25575000Y37475000D03*
X26225000Y37475000D03*
D34*
G04 #@! TO.C,R21*
X5000000Y33725000D03*
X5000000Y35275000D03*
D30*
G04 #@! TO.C,C3*
X3000000Y50225000D03*
X3000000Y48775000D03*
D51*
G04 #@! TO.C,D8*
X2386307Y16613693D03*
X4613693Y14386307D03*
D35*
G04 #@! TO.C,D12*
X1250000Y109075000D03*
X1250000Y105925000D03*
D23*
G04 #@! TO.C,R13*
X4025000Y102750000D03*
X2475000Y102750000D03*
D30*
G04 #@! TO.C,C2*
X1000000Y84275000D03*
X1000000Y85725000D03*
D55*
G04 #@! TO.C,JTAG*
X26750000Y14190000D03*
D40*
X26750000Y21810000D03*
D55*
X26750000Y16730000D03*
X26750000Y19270000D03*
D30*
G04 #@! TO.C,C7*
X29000000Y85275000D03*
X29000000Y86725000D03*
D56*
G04 #@! TD*
X7750000Y0D03*
X22250000Y0D03*
X8500000Y0D03*
X23000000Y0D03*
D20*
X5250000Y132000000D03*
D56*
X6250000Y0D03*
X21500000Y0D03*
X23750000Y0D03*
X7000000Y0D03*
G04 --- BOARD END --- *
G04 #@! TF.MD5,deab42ee919e3c51e89588bf99216de8*
M02*
